<?xml version="1.0" encoding="UTF-8"?>
<svg width="22px" height="27px" viewBox="0 0 22 27" version="1.1" xmlns="http://www.w3.org/2000/svg" xmlns:xlink="http://www.w3.org/1999/xlink">
    <title>Order</title>
    <g id="Layout" stroke="none" stroke-width="1" fill="none" fill-rule="evenodd">
        <g id="Einstein-Analytics-Copy-9" transform="translate(-158.000000, -774.000000)" fill="#90C2C9" fill-rule="nonzero">
            <g id="Show-details" transform="translate(0.000000, 744.000000)">
                <g id="Link" transform="translate(158.000000, 29.000000)">
                    <g id="Order" transform="translate(0.000000, 1.000000)">
                        <path d="M17.4777778,1.25581395 L15.1555556,1.25581395 L14.85,0.439534884 C14.7277778,0.188372093 14.4222222,0 14.0555556,0 L7.63888889,0 C7.27222222,0 6.96666667,0.188372093 6.84444444,0.439534884 L6.47777778,1.25581395 L4.09444444,1.25581395 C1.89444444,1.25581395 0.122222222,3.39069767 0.122222222,6.09069767 L0.122222222,22.1651163 C0.122222222,24.8023256 1.89444444,27 4.15555556,27 L17.5388889,27 C19.7388889,27 21.5722222,24.8651163 21.5722222,22.1651163 L21.5722222,6.09069767 C21.5111111,3.39069767 19.7388889,1.25581395 17.4777778,1.25581395 Z M19.6777778,22.1651163 C19.6777778,23.7348837 18.8222222,25.1162791 17.4777778,25.1162791 L4.09444444,25.1162791 C2.81111111,25.1162791 1.95555556,23.7976744 1.95555556,22.227907 L1.95555556,6.15348837 C1.95555556,4.58372093 2.81111111,3.13953488 4.09444444,3.13953488 L5.80555556,3.13953488 L5.62222222,3.57906977 C5.43888889,3.95581395 5.86666667,4.39534884 6.41666667,4.39534884 L15.1555556,4.39534884 C15.7666667,4.39534884 16.1333333,3.95581395 15.95,3.57906977 L15.8277778,3.13953488 L17.4777778,3.13953488 C18.7611111,3.13953488 19.6777778,4.52093023 19.6777778,6.09069767 L19.6777778,22.1651163 Z" id="Shape"></path>
                        <path d="M11.3225806,14.1727273 C9.51612903,13.6636364 8.93548387,13.2181818 8.93548387,12.4545455 C8.93548387,11.6272727 9.70967742,10.9909091 11.0645161,10.9909091 C12.483871,10.9909091 12.7419355,11.4363636 12.8064516,12.3909091 L14.7419355,12.3909091 C14.6774194,11.0545455 13.8387097,10.2272727 12.1612903,9.84545455 L12.1612903,8 L10.2258065,8 L10.2258065,9.90909091 C8.67741935,10.2272727 7.12903226,10.9909091 7.12903226,12.5181818 C7.12903226,14.3 8.61290323,15.1909091 10.8064516,15.7 C12.8064516,16.1454545 13.1935484,16.8454545 13.1935484,17.5454545 C13.1935484,18.0545455 12.8064516,18.9454545 11.0645161,18.9454545 C9.4516129,18.9454545 9,18.4363636 8.93548387,17.5454545 L7,17.5454545 C7.06451613,19.2636364 8.74193548,19.7727273 10.2258065,20.0909091 L10.2258065,22 L12.1612903,22 L12.1612903,20.0909091 C13.7096774,19.8363636 15,19.1363636 15,17.5454545 C15,15.3818182 13.1290323,14.6181818 11.3225806,14.1727273 Z" id="Path"></path>
                    </g>
                </g>
            </g>
        </g>
    </g>
</svg>