<?xml version="1.0" encoding="utf-8"?>
<!-- Generator: Adobe Illustrator 22.1.0, SVG Export Plug-In . SVG Version: 6.00 Build 0)  -->
<svg version="1.1" id="Layer_1" xmlns="http://www.w3.org/2000/svg" xmlns:xlink="http://www.w3.org/1999/xlink" x="0px" y="0px"
	 viewBox="0 0 24 24" style="enable-background:new 0 0 24 24;" xml:space="preserve">
<style type="text/css">
	.st0{fill:#788994;}
</style>
<g id="Slices">
</g>
<g id="Icons_1_">
	<g id="Relations">
	</g>
	<g id="DeliveryItem">
	</g>
	<g id="Expand">
	</g>
	<g id="Fridge">
	</g>
	<g id="Promotion_1_">
	</g>
	<g id="Day">
	</g>
	<g id="Contract">
	</g>
	<g id="Questionaire">
		<path class="st0" d="M18.6,3.9c-0.2-0.2-0.4-0.4-0.6-0.7c-0.2-0.2-0.4-0.4-0.6-0.7c-1.5-1.5-2.4-2-3.3-2H6c-1.9,0-3,1-3,3v16.4
			c0,2,1.5,3.6,3.4,3.6h11.1c1.9,0,3.4-1.6,3.4-3.6V7.3C21,6.3,20.1,5.4,18.6,3.9z M19,20.5c0,1,0,1-1,1H6c-1,0-1,0-1-1V3.7
			c0-1,0-1.2,1-1.2h7c0.6,0.2,1,0.2,1,1v2.9c0,0.5,0.5,1.1,1,1.1h3c0.9,0,1,0.1,1,1V20.5z"/>
		<polygon class="st0" points="11.2,16.8 7.6,13.3 8.8,12.1 11.2,14.7 15.2,10.6 16.4,11.8 		"/>
	</g>
	<g id="Open_Hours">
	</g>
	<g id="Invoice">
	</g>
	<g id="Ebene_23">
	</g>
	<g id="Back">
	</g>
	<g id="Order">
	</g>
	<g id="List">
	</g>
	<g id="Foward">
	</g>
	<g id="Attachment">
	</g>
	<g id="Focus">
	</g>
</g>
</svg>
