<?xml version="1.0" encoding="UTF-8"?>
<svg width="28px" height="23px" viewBox="0 0 28 23" version="1.1" xmlns="http://www.w3.org/2000/svg" xmlns:xlink="http://www.w3.org/1999/xlink">
    <title>Fill 1</title>
    <g id="Layout" stroke="none" stroke-width="1" fill="none" fill-rule="evenodd">
        <g id="Activity-Performance" transform="translate(-1516.000000, -2373.000000)" fill="#90C2C9">
            <g id="Einstein-Analytics-Copy" transform="translate(1375.000000, 1902.000000)">
                <g id="Show-details" transform="translate(0.000000, 437.000000)">
                    <g id="Link" transform="translate(141.000000, 29.000000)">
                        <g id="Group-3" transform="translate(0.000000, 5.000000)">
                            <path d="M23.43992,8.72004 C22.59992,9.48004 21.51992,9.88004 20.19992,9.92004 C20.35992,9.60004 20.51992,9.28004 20.68032,8.92004 C21.51992,7.04004 21.91992,4.92004 22.08032,3.20004 L25.79992,3.20004 C25.68032,4.56004 25.19992,7.20004 23.43992,8.72004 L23.43992,8.72004 Z M12.63992,10.52004 L8.63992,6.48004 L10.11992,4.92004 L12.55992,7.40004 L17.95992,1.96004 L19.51992,3.52004 L12.63992,10.52004 Z M4.23992,8.72004 C2.51992,7.20004 1.99992,4.60004 1.83992,3.20004 L5.55992,3.20004 C5.71992,4.92004 6.07992,7.04004 6.95992,8.92004 C7.11992,9.28004 7.27992,9.60004 7.43992,9.92004 C6.19992,9.88004 5.11992,9.48004 4.23992,8.72004 L4.23992,8.72004 Z M22.19992,1.40004 L22.19992,4e-05 L13.87992,4e-05 L13.83992,4e-05 L13.79992,4e-05 L5.47992,4e-05 C5.47992,4e-05 5.43992,0.52004 5.47992,1.40004 L-8e-05,1.40004 L-8e-05,2.32004 C-8e-05,2.52004 0.03992,7.40004 3.03992,10.08004 C4.27992,11.20004 5.87992,11.76004 7.71992,11.76004 C7.99992,11.76004 8.27992,11.76004 8.55992,11.72004 C9.59992,13.16004 10.83992,14.16004 12.19992,14.67964 L12.19992,18.67964 L8.19992,18.67964 L8.19992,21.12004 L6.87992,21.12004 L6.87992,22.52004 L13.83992,22.52004 L13.91992,22.52004 L20.88032,22.52004 L20.88032,21.12004 L19.55992,21.12004 L19.55992,18.64004 L15.55992,18.64004 L15.55992,14.64004 C16.91992,14.12004 18.11992,13.12004 19.19992,11.67964 C19.48032,11.72004 19.79992,11.72004 20.08032,11.72004 C21.91992,11.72004 23.48032,11.16004 24.75992,10.04004 C27.75992,7.36004 27.79992,2.48004 27.79992,2.28004 L27.79992,1.40004 L22.19992,1.40004 Z" id="Fill-1"></path>
                        </g>
                    </g>
                </g>
            </g>
        </g>
    </g>
</svg>