<?xml version="1.0" encoding="utf-8"?>
<!-- Generator: Adobe Illustrator 19.2.1, SVG Export Plug-In . SVG Version: 6.00 Build 0)  -->
<svg version="1.1" id="Layer_1" xmlns="http://www.w3.org/2000/svg" xmlns:xlink="http://www.w3.org/1999/xlink" x="0px" y="0px"
	 viewBox="0 0 24 24" style="enable-background:new 0 0 24 24;" xml:space="preserve">
<style type="text/css">
	.st0{fill:#788994;}
</style>
<g id="Slices">
</g>
<g>
	<path class="st0" d="M7.5,17c0.2-0.2,0.2-0.5,0.1-0.8c-0.9-1.1-1.5-2.5-1.5-4c0-3.4,2.8-6.1,6.1-6.1c0.1,0,0.1,0,0.2,0l0.1-1.4
		c0,0,0-0.1,0-0.1L13,3.1c-0.2,0-0.5,0-0.7,0C7.1,3.1,3,7.2,3,12.3c0,2.3,0.9,4.4,2.3,6.1c0.2,0.2,0.6,0.2,0.8,0L7.5,17z"/>
	<path class="st0" d="M18.5,6.2L17,7.6c-0.2,0.2-0.2,0.5-0.1,0.8c0.9,1.1,1.5,2.5,1.5,4c0,3.2-2.4,5.8-5.5,6.1
		c-0.3,0-0.5,0.2-0.5,0.5l0,0.5c0,0.1,0,0.1,0,0.2l-0.7,1.9c0.2,0,0.4,0,0.6,0c5.1,0,9.3-4.2,9.3-9.3c0-2.3-0.9-4.4-2.3-6.1
		C19.1,6,18.7,6,18.5,6.2z"/>
</g>
<path class="st0" d="M16.1,4.1l-3.9-2.4c-0.4-0.2-0.9,0-0.9,0.5V7c0,0.4,0.5,0.7,0.9,0.5l3.9-2.4C16.5,4.9,16.5,4.3,16.1,4.1z"/>
<path class="st0" d="M8.4,20.5l3.8,2.4c0.4,0.2,0.9,0,0.9-0.5v-4.8c0-0.4-0.5-0.7-0.9-0.5l-3.8,2.4C8,19.8,8,20.3,8.4,20.5z"/>
</svg>
