<?xml version="1.0" encoding="utf-8"?>
<!-- Generator: Adobe Illustrator 19.0.1, SVG Export Plug-In . SVG Version: 6.00 Build 0)  -->
<svg version="1.1" xmlns="http://www.w3.org/2000/svg" xmlns:xlink="http://www.w3.org/1999/xlink" x="0px" y="0px"
	 viewBox="0 0 24 24" style="enable-background:new 0 0 24 24;" xml:space="preserve">
<style type="text/css">
	.st0{fill:#467596;}
	.st1{fill-rule:evenodd;clip-rule:evenodd;fill:#467596;}
	.st2{fill:none;}
</style>
<g id="Slices">
</g>
<g id="Icons">
	<g id="ShowAllStores">
	</g>
	<g id="Move">
	</g>
	<g id="Sickness">
		<g>
			<path class="st0" d="M2.2,15.2c-0.4,0.4-0.4,1,0,1.4l5.7,5.7c0.4,0.4,1,0.4,1.4,0l3.5-3.5l-7.1-7.1L2.2,15.2z"/>
			<path class="st0" d="M22.8,7.4l-5.7-5.7c-0.4-0.4-1-0.4-1.4,0l-3.5,3.5l7.1,7.1l3.5-3.5C23.1,8.4,23.1,7.8,22.8,7.4z"/>
			<path class="st0" d="M6.5,10.9l7.1,7.1l4.9-4.9L11.4,6L6.5,10.9z M10.7,12.4c-0.4,0.4-1,0.4-1.4,0c-0.4-0.4-0.4-1,0-1.4
				c0.4-0.4,1-0.4,1.4,0S11.1,12,10.7,12.4z M14.3,11.6c0.4-0.4,1-0.4,1.4,0c0.4,0.4,0.4,1,0,1.4c-0.4,0.4-1,0.4-1.4,0
				C13.9,12.7,13.9,12,14.3,11.6z M13.6,15.2c-0.4,0.4-1,0.4-1.4,0c-0.4-0.4-0.4-1,0-1.4c0.4-0.4,1-0.4,1.4,0
				C14,14.2,14,14.8,13.6,15.2z M12.9,8.8c0.4,0.4,0.4,1,0,1.4c-0.4,0.4-1,0.4-1.4,0c-0.4-0.4-0.4-1,0-1.4
				C11.8,8.4,12.5,8.4,12.9,8.8z"/>
		</g>
	</g>
	<g id="Barcode">
	</g>
	<g id="Issues">
	</g>
	<g id="Issue_Item">
	</g>
	<g id="Daily_Report">
	</g>
	<g id="DailyAgendaItem_x2B_">
	</g>
	<g id="CalFixedAppt">
	</g>
	<g id="Change_Password">
	</g>
	<g id="Change_User">
	</g>
	<g id="Change_Language">
	</g>
	<g id="TakePicture">
	</g>
	<g id="PrivateAppointment">
	</g>
	<g id="Calculate">
	</g>
	<g id="CompleteCall">
	</g>
</g>
</svg>
