<?xml version="1.0" encoding="utf-8"?>
<!-- Generator: Adobe Illustrator 23.0.1, SVG Export Plug-In . SVG Version: 6.00 Build 0)  -->
<svg version="1.1" id="Layer_1" xmlns="http://www.w3.org/2000/svg" xmlns:xlink="http://www.w3.org/1999/xlink" x="0px" y="0px"
	 viewBox="0 0 24 24" style="enable-background:new 0 0 24 24;" xml:space="preserve">
<style type="text/css">
	.st0{fill:#90C2C9;}
</style>
<g id="Slices">
</g>
<g id="Icons">
	<g id="ShowAllStores">
	</g>
	<g id="Move">
	</g>
	<g id="Sickness">
	</g>
	<g id="Barcode">
		<path class="st0" d="M5,20c-0.4,0-1-0.6-1-1V4c0-0.4,0.6-1,1-1h1c0.4,0,1,0.6,1,1v15c0,0.4-0.6,1-1,1H5z"/>
		<path class="st0" d="M12,20c-0.4,0-1-0.6-1-1V4c0-0.4,0.6-1,1-1h2c0.4,0,1,0.6,1,1v15c0,0.4-0.6,1-1,1H12z"/>
		<path class="st0" d="M9,20c-0.4,0-1-0.6-1-1V4c0-0.4,0.6-1,1-1l0,0c0.4,0,1,0.6,1,1v15C10,19.4,9.4,20,9,20L9,20z"/>
		<path class="st0" d="M2,20c-0.4,0-1-0.8-1-1.2V4.2C1,3.8,1.6,3,2,3l0,0c0.4,0,1,0.8,1,1.2v14.6C3,19.2,2.4,20,2,20L2,20z"/>
		<path class="st0" d="M17,20c-0.4,0-1-0.6-1-1V4c0-0.4,0.6-1,1-1l0,0c0.4,0,1,0.6,1,1v15C18,19.4,17.4,20,17,20L17,20z"/>
		<path class="st0" d="M20,20c-0.4,0-1-0.6-1-1V4.2C19,3.8,19.6,3,20,3l0,0c0.4,0,1,0.8,1,1.2V19C21,19.4,20.4,20,20,20L20,20z"/>
		<path class="st0" d="M23,20c-0.4,0-1-0.6-1-1V4c0-0.4,0.6-1,1-1l0,0c0.4,0,1,0.6,1,1v15C24,19.4,23.4,20,23,20L23,20z"/>
	</g>
	<g id="Issues">
	</g>
	<g id="Issue_Item">
	</g>
	<g id="Daily_Report">
	</g>
	<g id="DailyAgendaItem_x2B_">
	</g>
	<g id="CalFixedAppt">
	</g>
	<g id="Change_Password">
	</g>
	<g id="Change_User">
	</g>
	<g id="Change_Language">
	</g>
	<g id="TakePicture">
	</g>
	<g id="PrivateAppointment">
	</g>
	<g id="Calculate">
	</g>
	<g id="CompleteCall">
	</g>
</g>
</svg>
