<?xml version="1.0" encoding="utf-8"?>
<!-- Generator: Adobe Illustrator 19.0.1, SVG Export Plug-In . SVG Version: 6.00 Build 0)  -->
<svg version="1.1" xmlns="http://www.w3.org/2000/svg" xmlns:xlink="http://www.w3.org/1999/xlink" x="0px" y="0px"
	 viewBox="0 0 48 48" style="enable-background:new 0 0 48 48;" xml:space="preserve">
<style type="text/css">
	.st0{fill:#788994;}
</style>
<g id="Slices">
</g>
<g id="Icons">
	<g id="Inventory">
		<g>
			<path class="st0" d="M15.5,22h10c0.8,0,1.5-0.7,1.5-1.5S26.3,19,25.5,19h-10c-0.8,0-1.5,0.7-1.5,1.5S14.7,22,15.5,22z"/>
			<path class="st0" d="M44.9,4.9C44.7,4.4,44.1,4,43.5,4H17.3c-0.3,0-1.2,0.1-1.4,0.3l-11.3,8C4.2,12.6,4,13.1,4,13.7
				c0,0.1,0,0.2,0,0.3v27.5C4,42.3,4.7,43,5.5,43h30c0.1,0,0.7,0,1-0.4c0-0.1,8.2-10.2,8.2-10.2c0.2-0.3,0.3-0.6,0.3-0.9V6
				C45,5.9,45,5.2,44.9,4.9z M17.3,7h8.6l-4.9,4.9L21,12H10.2L17.3,7z M34,40H7V15h27V40z M34.9,12h-9.8L30,7h9.9L34.9,12z"/>
		</g>
	</g>
	<g id="Contracts">
	</g>
	<g id="Products">
	</g>
	<g id="Promotions">
	</g>
	<g id="Trip_List">
	</g>
	<g id="Reporting">
	</g>
	<g id="Payments">
	</g>
</g>
</svg>
