<?xml version="1.0" encoding="utf-8"?>
<!-- Generator: Adobe Illustrator 20.1.0, SVG Export Plug-In . SVG Version: 6.00 Build 0)  -->
<svg version="1.1" id="Layer_1" xmlns="http://www.w3.org/2000/svg" xmlns:xlink="http://www.w3.org/1999/xlink" x="0px" y="0px"
	 viewBox="0 0 24 24" style="enable-background:new 0 0 24 24;" xml:space="preserve">
<style type="text/css">
	.st0{fill:#788994;}
</style>
<path class="st0" d="M4.7,15.8h3c0.2,0,0.4-0.2,0.4-0.4s-0.2-0.4-0.4-0.4h-3c-0.2,0-0.4,0.2-0.4,0.4S4.5,15.8,4.7,15.8z M13.5,11.1
	c0,0,0-0.2,0-0.3c-0.1-0.1-0.2-0.3-0.4-0.3h-2.5v0.9H12l-1.5,1.5v0H2.2v-0.4l-0.7,0.5c-0.1,0.1-0.2,0.2-0.2,0.4v8.2
	c0,0.2,0.2,0.4,0.4,0.4h8.9c0,0,0.2,0,0.3-0.1c0,0,0.2-0.3,0.5-0.6v-7.5h2v-0.4H12l1.5-1.4V11.1z M10.2,21.2h-8v-7.4h8V21.2z"/>
<g id="Slices">
</g>
<g id="Icons_2_">
	<g id="Inventory_2_">
		<g>
			<path class="st0" d="M14.1,15.8h3c0.2,0,0.4-0.2,0.4-0.4s-0.2-0.4-0.4-0.4h-3c-0.2,0-0.4,0.2-0.4,0.4S13.9,15.8,14.1,15.8z"/>
			<path class="st0" d="M22.8,10.8c-0.1-0.1-0.2-0.3-0.4-0.3h-7.8c-0.1,0-0.4,0-0.4,0.1l-3.3,2.4c-0.1,0.1-0.2,0.2-0.2,0.4
				c0,0,0,0.1,0,0.1v8.1c0,0.2,0.2,0.4,0.4,0.4h8.9c0,0,0.2,0,0.3-0.1c0,0,2.4-3,2.4-3c0.1-0.1,0.1-0.2,0.1-0.3v-7.6
				C22.9,11,22.9,10.8,22.8,10.8z M14.7,11.4h2.5l-1.5,1.5v0h-3.2L14.7,11.4z M19.6,21.2h-8v-7.4h8V21.2z M19.9,12.9H17l1.5-1.5h2.9
				L19.9,12.9z"/>
		</g>
	</g>
	<g id="Contracts_2_">
	</g>
	<g id="Products_2_">
	</g>
	<g id="Promotions_2_">
	</g>
	<g id="Trip_List_2_">
	</g>
	<g id="Reporting_2_">
	</g>
	<g id="Payments_2_">
	</g>
</g>
<g id="Slices_1_">
</g>
<g id="Icons_1_">
	<g id="Inventory_1_">
		<g>
			<path class="st0" d="M4.7,8h3c0.2,0,0.4-0.2,0.4-0.4c0-0.2-0.2-0.4-0.4-0.4h-3c-0.2,0-0.4,0.2-0.4,0.4C4.3,7.8,4.5,8,4.7,8z"/>
			<path class="st0" d="M13.5,3c-0.1-0.1-0.2-0.3-0.4-0.3H5.3c-0.1,0-0.4,0-0.4,0.1L1.5,5.2C1.4,5.3,1.3,5.4,1.3,5.6
				c0,0,0,0.1,0,0.1v8.1c0,0.2,0.2,0.4,0.4,0.4h8.9c0,0,0.2,0,0.3-0.1c0,0,2.4-3,2.4-3c0.1-0.1,0.1-0.2,0.1-0.3V3.3
				C13.5,3.3,13.5,3.1,13.5,3z M5.3,3.6h2.5L6.4,5v0H3.2L5.3,3.6z M10.2,13.4h-8V6h8V13.4z M10.5,5.1H7.6L9,3.6H12L10.5,5.1z"/>
		</g>
	</g>
	<g id="Contracts_1_">
	</g>
	<g id="Products_1_">
	</g>
	<g id="Promotions_1_">
	</g>
	<g id="Trip_List_1_">
	</g>
	<g id="Reporting_1_">
	</g>
	<g id="Payments_1_">
	</g>
</g>
</svg>
