<?xml version="1.0" encoding="utf-8"?>
<!-- Generator: Adobe Illustrator 21.1.0, SVG Export Plug-In . SVG Version: 6.00 Build 0)  -->
<svg version="1.1" id="Layer_1" xmlns="http://www.w3.org/2000/svg" xmlns:xlink="http://www.w3.org/1999/xlink" x="0px" y="0px"
	 viewBox="0 0 32 32" style="enable-background:new 0 0 32 32;" xml:space="preserve">
<style type="text/css">
	.st0{fill:#535B6E;}
</style>
<g>
	<path class="st0" d="M16,2c7.7,0,14,6.3,14,14s-6.3,14-14,14S2,23.7,2,16S8.3,2,16,2 M16,0C7.2,0,0,7.2,0,16s7.2,16,16,16
		s16-7.2,16-16S24.8,0,16,0L16,0z"/>
</g>
<g id="Icons">
	<g id="Image">
	</g>
	<g id="Address">
	</g>
	<g id="Main">
	</g>
	<g id="Map">
	</g>
	<g id="Holiday">
	</g>
	<g id="Login">
	</g>
	<g id="Logout">
	</g>
	<g id="Month">
	</g>
	<g id="Stocktaking">
	</g>
	<g id="Edit">
	</g>
	<g id="Shelf">
	</g>
	<g id="Order_Basekt">
	</g>
	<g id="Call">
		<path class="st0" d="M22.8,19.6c-1.1-0.8-2.2-1.4-3.2-0.5l-0.7,0.5c-0.5,0.4-1.3,2.2-4.6-1.5s-1.3-4.1-0.9-4.6l0.7-0.5
			c1.1-0.8,0.7-2-0.1-3.1l-0.4-0.7c-0.7-1.2-1.6-1.8-2.6-1l-0.6,0.5c-0.5,0.3-1.7,1.3-2.1,3.3c-0.4,2.4,0.8,5.1,3.6,8.1
			s5.4,4.5,7.9,4.5c2.1,0,3.4-1.1,3.8-1.5l0.6-0.5c1.1-0.8,0.4-1.7-0.7-2.6L22.8,19.6z"/>
	</g>
	<g id="Select_All">
	</g>
	<g id="Multi_Select">
	</g>
	<g id="Terms">
	</g>
</g>
</svg>
