<?xml version="1.0" encoding="utf-8"?>
<!-- Generator: Adobe Illustrator 19.2.1, SVG Export Plug-In . SVG Version: 6.00 Build 0)  -->
<svg version="1.1" id="Layer_1" xmlns="http://www.w3.org/2000/svg" xmlns:xlink="http://www.w3.org/1999/xlink" x="0px" y="0px"
	 viewBox="0 0 24 24" style="enable-background:new 0 0 24 24;" xml:space="preserve">
<style type="text/css">
	.st0{fill:#788994;}
</style>
<g id="Slices">
</g>
<g id="Icons">
	<g id="ShowAllStores">
	</g>
	<g id="Move">
	</g>
	<g id="Sickness">
	</g>
	<g id="Barcode">
	</g>
	<g id="Issues">
	</g>
	<g id="Issue_Item">
	</g>
	<g id="Daily_Report">
	</g>
	<g id="DailyAgendaItem_x2B_">
	</g>
	<g id="CalFixedAppt">
		<rect x="10" y="11" class="st0" width="2" height="2"/>
		<rect x="14" y="11" class="st0" width="2" height="2"/>
		<rect x="18" y="11" class="st0" width="2" height="2"/>
		<rect x="14" y="15" class="st0" width="2" height="2"/>
		<rect x="10" y="15" class="st0" width="2" height="2"/>
		<rect x="6" y="15" class="st0" width="2" height="2"/>
		<rect x="10" y="19" class="st0" width="2" height="2"/>
		<rect x="14" y="19" class="st0" width="2" height="2"/>
		<rect x="6" y="19" class="st0" width="2" height="2"/>
		<rect x="18" y="15" class="st0" width="2" height="2"/>
		<path class="st0" d="M21.3,3H20v1.5c0,1-1,1.8-2,1.8s-2-0.8-2-1.8V3H9v1.5c0,1-1,1.8-2,1.8S5,5.5,5,4.5V3H3.6C2.1,3,1,4,1,5.4
			v15.9C1,22.8,2.2,24,3.7,24h17.7c1.5,0,2.7-1.2,2.7-2.7V5.4C24,4,22.8,3,21.3,3z M22,21c0,0.5-0.5,1-1,1H4c-0.5,0-1-0.5-1-1V9h19
			V21z"/>
		<path class="st0" d="M17.9,5.1c-0.5,0-0.9-0.4-0.9-0.9V1.9C17,1.4,17.4,1,17.9,1h0.3C18.7,1,19,1.4,19,1.9v2.4
			c0,0.5-0.3,0.9-0.8,0.9L17.9,5.1z"/>
		<path class="st0" d="M6.9,5.1C6.4,5.1,6,4.7,6,4.3V1.9C6,1.4,6.4,1,6.9,1h0.3C7.7,1,8,1.4,8,1.9v2.4c0,0.5-0.3,0.9-0.8,0.9
			L6.9,5.1z"/>
	</g>
	<g id="Change_Password">
	</g>
	<g id="Change_User">
	</g>
	<g id="Change_Language">
	</g>
	<g id="TakePicture">
	</g>
	<g id="PrivateAppointment">
	</g>
	<g id="Calculate">
	</g>
	<g id="CompleteCall">
	</g>
</g>
</svg>
