<?xml version="1.0" encoding="utf-8"?>
<!-- Generator: Adobe Illustrator 19.0.1, SVG Export Plug-In . SVG Version: 6.00 Build 0)  -->
<svg version="1.1" xmlns="http://www.w3.org/2000/svg" xmlns:xlink="http://www.w3.org/1999/xlink" x="0px" y="0px"
	 viewBox="0 0 24 24" style="enable-background:new 0 0 24 24;" xml:space="preserve">
<style type="text/css">
	.st0{fill:#788994;}
	.st1{fill-rule:evenodd;clip-rule:evenodd;fill:#788994;}
	.st2{fill:none;}
</style>
<g id="Slices">
</g>
<g id="Icons">
	<g id="ShowAllStores">
	</g>
	<g id="Move">
	</g>
	<g id="Sickness">
	</g>
	<g id="Barcode">
	</g>
	<g id="Issues">
	</g>
	<g id="Issue_Item">
	</g>
	<g id="Daily_Report">
	</g>
	<g id="DailyAgendaItem_x2B_">
	</g>
	<g id="CalFixedAppt">
	</g>
	<g id="Change_Password">
	</g>
	<g id="Change_User">
	</g>
	<g id="Change_Language">
	</g>
	<g id="TakePicture">
		<circle class="st0" cx="12.8" cy="12.3" r="4"/>
		<path class="st0" d="M18.9,5.5h-0.8L17,3.6C16.8,3.3,16.4,3,15.8,3H9.9c-0.6,0-1,0.3-1.2,0.6L7.6,5.5H6.1c0-0.5-0.4-0.8-0.8-0.8
			H3.5c-0.5,0-0.8,0.4-0.8,0.8v0.2C1.7,6,1,7,1,8.1v8.6c0,2.3,1.8,4.1,4.1,4.1h13.8c2.3,0,4.1-1.8,4.1-4.1v-7
			C23,7.4,21.2,5.5,18.9,5.5z M4,8C3.4,8,3,7.6,3,7c0-0.6,0.4-1,1-1c0.6,0,1,0.4,1,1C5,7.6,4.6,8,4,8z M12.9,18.3c-3.3,0-6-2.7-6-6
			c0-3.3,2.7-6,6-6c3.3,0,6,2.7,6,6C18.9,15.6,16.2,18.3,12.9,18.3z"/>
	</g>
	<g id="PrivateAppointment">
	</g>
	<g id="Calculate">
	</g>
	<g id="CompleteCall">
	</g>
</g>
</svg>
