<?xml version="1.0" encoding="utf-8"?>
<!-- Generator: Adobe Illustrator 24.0.3, SVG Export Plug-In . SVG Version: 6.00 Build 0)  -->
<svg version="1.1" id="Layer_1" xmlns="http://www.w3.org/2000/svg" xmlns:xlink="http://www.w3.org/1999/xlink" x="0px" y="0px"
	 viewBox="0 0 24 24" style="enable-background:new 0 0 24 24;" xml:space="preserve">
<style type="text/css">
	.st0{fill:#008899;}
</style>
<g id="Slices">
</g>
<g>
	<path class="st0" d="M10.7,10.3c-1.1,0-2,0.9-2,2.1s0.9,2.1,2,2.1c1.1,0,2-0.9,2-2.1C12.8,11.2,11.9,10.3,10.7,10.3z"/>
	<path class="st0" d="M16,17.1h-2v-2.7h2v-2.1h1.5v-4c0-0.8-0.6-1.3-1.3-1.3h-2l-1.3-1.3h-4L7.4,6.9H5.3C4.6,6.9,4,7.6,4,8.3v8.1
		c0,0.8,0.6,1.3,1.3,1.3H16V17.1z M10.7,15.7c-1.8,0-3.3-1.5-3.3-3.4c0-1.8,1.5-3.4,3.3-3.4s3.3,1.5,3.3,3.4S12.6,15.7,10.7,15.7z"
		/>
</g>
<path class="st0" d="M20,15.1h-2V13h-1.3v2.1h-2v1.3h2v2.1H18v-2.1h2V15.1z"/>
</svg>
