<?xml version="1.0" encoding="utf-8"?>
<!-- Generator: Adobe Illustrator 22.1.0, SVG Export Plug-In . SVG Version: 6.00 Build 0)  -->
<svg version="1.1" id="Layer_1" xmlns="http://www.w3.org/2000/svg" xmlns:xlink="http://www.w3.org/1999/xlink" x="0px" y="0px"
	 viewBox="0 0 24 24" style="enable-background:new 0 0 24 24;" xml:space="preserve">
<style type="text/css">
	.st0{fill:#788994;}
</style>
<g>
	<path class="st0" d="M17,13.7l-1.5-1.6L9,18.4c-0.3-0.1-0.5,0.1-0.6,0.4l-0.7,4.3c0,0.2,0,0.3,0.1,0.4c0.1,0.1,0.2,0.1,0.4,0.1
		c0,0,0,0,0.1,0l4.4-0.7c0.2,0,0.4-0.3,0.4-0.5l6.4-6.4l-1.4-1.2L17,13.7z M9.9,22.5L9,21.7l0.4-2.2L10,20l1.5,0.1l0.1,1.6l0.5,0.5
		L9.9,22.5z"/>
	<polygon class="st0" points="16.3,11.1 20.4,15.3 21.3,14.4 17.2,10.2 	"/>
	<g>
		<g>
			<path class="st0" d="M7.4,18.5L7.4,18.5c0.2-0.7,0.6-1.1,1.2-1.2l0.1-0.1H3.1v-14h7v7h5.5l1.2-1.2l0,0l1.3-1.3
				c0.2-0.2,0.5-0.4,0.8-0.6l-5.9-5.9h-10c-1.1,0-2,0.9-2,2v14c0,1.1,0.9,2,2,2h4.2L7.4,18.5z M12.1,2.8l5.5,5.5h-5.5V2.8z"/>
		</g>
	</g>
	<path class="st0" d="M22.9,10.5l-2-2c-0.5-0.6-1.4-0.6-2,0l-0.6,0.6l4,4l0.6-0.6C23.5,12,23.5,11.1,22.9,10.5z"/>
</g>
</svg>
