<?xml version="1.0" encoding="utf-8"?>
<!-- Generator: Adobe Illustrator 22.1.0, SVG Export Plug-In . SVG Version: 6.00 Build 0)  -->
<svg version="1.1" id="Layer_1" xmlns="http://www.w3.org/2000/svg" xmlns:xlink="http://www.w3.org/1999/xlink" x="0px" y="0px"
	 viewBox="0 0 24 24" style="enable-background:new 0 0 24 24;" xml:space="preserve">
<style type="text/css">
	.st0{fill:#788994;}
</style>
<g id="Slices">
</g>
<g>
	<path class="st0" d="M10.2,9.6c-1.6,0-2.8,1.3-2.8,2.9c0,1.6,1.3,2.9,2.8,2.9c1.6,0,2.8-1.3,2.8-2.9C13.1,10.9,11.8,9.6,10.2,9.6z"
		/>
	<path class="st0" d="M17.6,19.2h-2.8v-3.8h2.8v-2.9h2.1V6.8c0-1.1-0.8-1.9-1.9-1.9h-2.8l-1.9-1.9H7.4L5.5,4.8H2.6
		c-1,0-1.9,0.9-1.9,1.9v11.4c0,1.1,0.8,1.9,1.9,1.9h15V19.2z M10.2,17.2c-2.6,0-4.7-2.1-4.7-4.8c0-2.6,2.1-4.8,4.7-4.8
		s4.7,2.1,4.7,4.8C14.9,15.1,12.8,17.2,10.2,17.2z"/>
</g>
<path class="st0" d="M23.3,16.3h-2.8v-2.9h-1.9v2.9h-2.8v1.9h2.8v2.9h1.9v-2.9h2.8V16.3z"/>
</svg>
