<?xml version="1.0" encoding="utf-8"?>
<!-- Generator: Adobe Illustrator 23.0.1, SVG Export Plug-In . SVG Version: 6.00 Build 0)  -->
<svg version="1.1" id="Layer_1" xmlns="http://www.w3.org/2000/svg" xmlns:xlink="http://www.w3.org/1999/xlink" x="0px" y="0px"
	 viewBox="0 0 24 24" style="enable-background:new 0 0 24 24;" xml:space="preserve">
<style type="text/css">
	.st0{fill:#90C2C9;}
</style>
<g id="Slices">
</g>
<g id="Icons">
	<g id="ShowAllStores">
	</g>
	<g id="Move">
	</g>
	<g id="Sickness">
	</g>
	<g id="Barcode">
	</g>
	<g id="Issues">
	</g>
	<g id="Issue_Item">
	</g>
	<g id="Daily_Report">
	</g>
	<g id="DailyAgendaItem_x2B_">
	</g>
	<g id="CalFixedAppt">
	</g>
	<g id="Change_Password">
	</g>
	<g id="Change_User">
		<path class="st0" d="M15.2,11.2c-0.1,0-0.6-0.3-0.3-1.3l0,0c0.8-0.9,1.3-2.3,1.3-3.7C16.2,4.1,15,3,13.3,3c-1.4,0-2.7,0.9-3,2.5
			c0.8,0.6,1.4,1.7,1.4,3.2c0,0.4,0,0.7-0.1,1.1c0,0.1,0.1,0.1,0.1,0.2c0.3,0.9-0.3,1.2-0.4,1.3h-0.1c-0.2,0.7-0.6,1.3-1,1.7l0,0
			c-0.4,1.1,0.2,1.4,0.3,1.5c1.4,0.5,2.8,1.2,3.7,2c2.4-0.1,4.7-0.5,4.7-1.9v-0.4C19,13,17,11.9,15.2,11.2z"/>
		<path class="st0" d="M9.6,15c-0.1,0-0.7-0.3-0.3-1.5l0,0c1-1,1.4-2.6,1.4-4.3c0-2.5-1.4-3.8-3.2-3.8S4,6.8,4,9.2
			c0,1.6,0.7,3.3,1.7,4.3c0.4,1-0.3,1.4-0.4,1.4c-2,0.7-4.3,2-4.3,3.3v0.5C1,20.6,4.4,21,7.5,21s6.5-0.4,6.5-2.2v-0.5
			C14,17,11.7,15.6,9.6,15"/>
		<g>
			<path class="st0" d="M21,22.3l-0.7-1.4c3-1.6,4.9-3.9,1.3-7.6c1.7,2.6,0.8,4.2-2.3,5.8l-0.7-1.3c-0.1-0.1-0.2-0.2-0.3-0.1h-0.1
				c-0.1,0-0.1,0.1-0.1,0.2l-1.7,3.8c0,0.1,0,0.3,0.2,0.3l4.1,0.7c0.1,0,0.2,0,0.3-0.1C21,22.5,21,22.4,21,22.3z"/>
		</g>
	</g>
	<g id="Change_Language">
	</g>
	<g id="TakePicture">
	</g>
	<g id="PrivateAppointment">
	</g>
	<g id="Calculate">
	</g>
	<g id="CompleteCall">
	</g>
</g>
</svg>
