<?xml version="1.0" encoding="utf-8"?>
<!-- Generator: Adobe Illustrator 21.1.0, SVG Export Plug-In . SVG Version: 6.00 Build 0)  -->
<svg version="1.1" id="Layer_1" xmlns="http://www.w3.org/2000/svg" xmlns:xlink="http://www.w3.org/1999/xlink" x="0px" y="0px"
	 viewBox="0 0 24 24" style="enable-background:new 0 0 24 24;" xml:space="preserve">
<style type="text/css">
	.st0{fill:#90C2C9;}
</style>
<g id="Slices">
</g>
<g id="Icons">
	<g id="Relations">
	</g>
	<g id="DeliveryItem">
	</g>
	<g id="Expand">
	</g>
	<g id="Fridge">
	</g>
	<g id="Promotion_1_">
	</g>
	<g id="Day">
	</g>
	<g id="Contract">
	</g>
	<g id="Questionaire">
	</g>
	<g id="Open_Hours">
	</g>
	<g id="Invoice">
	</g>
	<g id="Ebene_23">
	</g>
	<g id="Back">
	</g>
	<g id="Order">
		<path class="st0" d="M18,2.1h-1.8L16,1.4C15.9,1.1,15.6,1,15.3,1H9.7C9.4,1,9.1,1.1,9,1.4L8.8,2.1H6.5C4.6,2.1,3,3.9,3,6.1V19
			c0,2.2,1.1,5,3,5h13c1.9,0,3-2.8,3-5V6.1C22,3.9,19.9,2.1,18,2.1z M20,19.7c0,1.3-0.8,2.3-2,2.3H7c-1.1,0-2-0.7-2-2V6
			c0-1.3,0.9-2,2-2h1l0,0C7.9,4.3,8.2,5,8.7,5h7.5c0.5,0,0.9-0.7,0.7-1l0,0h1c1.1,0,2,0.7,2,2L20,19.7L20,19.7z"/>
	</g>
	<g id="List">
	</g>
	<g id="Foward">
	</g>
	<g id="Attachment">
	</g>
	<g id="Focus">
	</g>
</g>
</svg>
