<?xml version="1.0" encoding="utf-8"?>
<!-- Generator: Adobe Illustrator 25.1.0, SVG Export Plug-In . SVG Version: 6.00 Build 0)  -->
<svg version="1.1" id="Capa_1" xmlns="http://www.w3.org/2000/svg" xmlns:xlink="http://www.w3.org/1999/xlink" x="0px" y="0px"
	 viewBox="0 0 24 24" style="enable-background:new 0 0 24 24;" xml:space="preserve">
<style type="text/css">
	.st0{fill:#90C2C9;}
</style>
<g id="Slices">
</g>
<g id="Icons">
	<g id="ShowAllStores">
	</g>
	<g id="Move">
	</g>
	<g id="Sickness">
	</g>
	<g id="Barcode">
	</g>
	<g id="Issues">
	</g>
	<g id="Issue_Item">
	</g>
	<g id="Daily_Report">
	</g>
	<g id="DailyAgendaItem_x2B_">
	</g>
	<g id="CalFixedAppt">
	</g>
	<g id="Change_Password">
	</g>
	<g id="Change_User">
	</g>
	<g id="Change_Language">
	</g>
	<g id="TakePicture">
	</g>
	<g id="PrivateAppointment">
	</g>
	<g id="Calculate">
	</g>
	<g id="CompleteCall">
		<path class="st0" d="M14,22H6c-1,0-1,0-1-1V4.2C5,3.2,5,3,6,3h7c0.6,0.2,1,0.2,1,1v2.9C14,7.4,14.5,8,15,8h3c0.9,0,1,0.1,1,1v6h2
			V7.8c0-1-0.9-1.9-2.4-3.4C18.4,4.2,18.2,4,18,3.7c-0.2-0.2-0.4-0.4-0.6-0.7c-1.5-1.5-2.4-2-3.3-2H6C4.1,1,3,2,3,4v16.4
			c0,2,1.5,3.6,3.4,3.6H14V22z"/>
		<polygon class="st0" points="17.2,23.2 13.5,19.5 15,18 17.2,20.3 22.3,15.3 23.7,16.7 		"/>
	</g>
</g>
</svg>
