<?xml version="1.0" encoding="utf-8"?>
<!-- Generator: Adobe Illustrator 20.1.0, SVG Export Plug-In . SVG Version: 6.00 Build 0)  -->
<svg version="1.1" id="Layer_1" xmlns="http://www.w3.org/2000/svg" xmlns:xlink="http://www.w3.org/1999/xlink" x="0px" y="0px"
	 viewBox="0 0 24 24" style="enable-background:new 0 0 24 24;" xml:space="preserve">
<style type="text/css">
	.st0{fill:#DD4411;}
</style>
<g id="Slices">
</g>
<g id="Icons">
	<g id="Relations">
	</g>
	<g id="DeliveryItem">
	</g>
	<g id="Expand">
	</g>
	<g id="Fridge">
	</g>
	<g id="Promotion_1_">
	</g>
	<g id="Day">
	</g>
	<g id="Contract">
		<path class="st0" d="M18.6,4.4C18.4,4.2,18.2,4,18,3.7c-0.2-0.2-0.4-0.4-0.6-0.7c-1.5-1.5-2.4-2-3.3-2H6C4.1,1,3,2,3,4v16.4
			c0,2,1.5,3.6,3.4,3.6h11.1c1.9,0,3.4-1.6,3.4-3.6V7.8C21,6.8,20.1,5.9,18.6,4.4z M19,21c0,1,0,1-1,1H6c-1,0-1,0-1-1V4.2
			C5,3.2,5,3,6,3h7c0.6,0.2,1,0.2,1,1v2.9C14,7.4,14.5,8,15,8h3c0.9,0,1,0.1,1,1V21z"/>
		<polygon class="st0" points="15,13.3 13.3,11.9 14.3,9.8 12.3,10.5 11.6,8.3 10.8,10.5 8.8,9.8 9.8,11.9 8.1,13.2 10,13.6 10,20 
			11.5,18 13,20 13,13.6 		"/>
	</g>
	<g id="Questionaire">
	</g>
	<g id="Open_Hours">
	</g>
	<g id="Invoice">
	</g>
	<g id="Ebene_23">
	</g>
	<g id="Back">
	</g>
	<g id="Order">
	</g>
	<g id="List">
	</g>
	<g id="Foward">
	</g>
	<g id="Attachment">
	</g>
	<g id="Focus">
	</g>
</g>
</svg>
