<?xml version="1.0" encoding="UTF-8"?>
<svg width="33px" height="34px" viewBox="0 0 33 34" version="1.1" xmlns="http://www.w3.org/2000/svg" xmlns:xlink="http://www.w3.org/1999/xlink">
    <title>Combined Shape</title>
    <g id="Layout" stroke="none" stroke-width="1" fill="none" fill-rule="evenodd">
        <g id="FullScreen_Seaside" transform="translate(-1535.000000, -114.000000)" fill="#008899" fill-rule="nonzero">
            <g id="Flyout">
                <g id="header">
                    <g id="Done-Copy-2" transform="translate(1504.000000, 96.000000)">
                        <g id="TabClipboard" transform="translate(31.000000, 18.000000)">
                            <path d="M24.8461538,10 C25.9230769,10 26.8461538,10.45 28.5384615,12.1 C28.6923077,12.4 29,12.55 29.1538462,12.85 C29.3076923,13.15 29.6153846,13.3 29.7692308,13.6 C31.3076923,15.1 33,16.15 33,17.05 L33,17.05 L33,31 C33,33.1 31.9230769,34 29.9230769,34 L29.9230769,34 L16.0769231,34 C14.0769231,34 13,33.1 13,31 L13,31 L13,13.15 C13,11.05 14.2307692,10 16.2307692,10 L16.2307692,10 Z M17.6153846,13 C16.5384615,13 16.0769231,12.25 16.0769231,13.3 L16.0769231,13.3 L16.0769231,29.5 C16.0769231,30.55 16.5384615,31 17.6153846,31 L17.6153846,31 L28.3846154,31 C29.4615385,31 29.9230769,30.55 29.9230769,29.5 L29.9230769,29.5 L29.9230769,18.4 C29.9230769,17.35 29.3076923,17.5 28.3846154,17.5 L28.3846154,17.5 L25.3076923,17.5 C24.8461538,17.5 23.7692308,16.45 23.7692308,16 L23.7692308,16 L23.7692308,13.15 C23.7692308,12.25 22.8461538,13.15 22.2307692,13 L22.2307692,13 Z M11.8461538,0 C12.9230769,0 13.8461538,0.45 15.5384615,1.95 C15.6923077,2.25 16,2.4 16.1538462,2.7 C16.3076923,3 16.6153846,3.15 16.7692308,3.45 C18.3076923,5.1 20,6 20,7.05 L20,7.05 L20,9 L16.9230769,9 L16.9230769,8.4 C16.9230769,7.35 16.3076923,7.5 15.3846154,7.5 L15.3846154,7.5 L12.3076923,7.5 C11.8461538,7.5 10.7692308,6.45 10.7692308,6 L10.7692308,6 L10.7692308,3.15 C10.7692308,2.25 9.84615385,3.15 9.23076923,3 L9.23076923,3 L4.61538462,3 C3.53846154,3 3.07692308,2.25 3.07692308,3.3 L3.07692308,3.3 L3.07692308,19.5 C3.07692308,20.55 3.53846154,21 4.61538462,21 L4.61538462,21 L12.3076923,21 L12.3076923,24 L3.07692308,24 C1.07692308,24 0,23.1 0,21 L0,21 L0,3.15 C0,1.05 1.23076923,0 3.23076923,0 L3.23076923,0 Z" id="Combined-Shape"></path>
                        </g>
                    </g>
                </g>
            </g>
        </g>
    </g>
</svg>