<?xml version="1.0" encoding="utf-8"?>
<!-- Generator: Adobe Illustrator 23.0.3, SVG Export Plug-In . SVG Version: 6.00 Build 0)  -->
<svg version="1.1" id="Layer_1" xmlns="http://www.w3.org/2000/svg" xmlns:xlink="http://www.w3.org/1999/xlink" x="0px" y="0px"
	 viewBox="0 0 24 24" style="enable-background:new 0 0 24 24;" xml:space="preserve">
<style type="text/css">
	.st0{fill:#90C2C9;}
</style>
<g id="Slices">
</g>
<polygon class="st0" points="22.8,17 19.8,17 19.8,14 17.8,14 17.8,17 14.8,17 14.8,19 17.8,19 17.8,22 19.8,22 19.8,19 22.8,19 "/>
<g>
	<g>
		<path class="st0" d="M20.5,1C19.1,1,18,2.1,18,3.5C18,4.9,19.1,6,20.5,6S23,4.9,23,3.5C23,2.1,21.9,1,20.5,1z M20.5,12L21,7h-1
			L20.5,12z M18.1,10.6c-0.8,0-7.8-0.6-9.9,1.7c-0.3,0.3-0.4,0.6-0.3,1c0.3,1,2.2,1.8,4.9,2.7h3.1c-0.5-0.2-1.1-0.4-1.7-0.6
			c-1.6-0.6-5-1.7-5.2-2.4L9,12.9c1.5-1.6,7.1-1.5,9.1-1.3c0.2,0,0.5-0.3,0.5-0.5S18.4,10.6,18.1,10.6z M6.1,21
			c-0.3,0-0.6,0.2-0.4,0.6c-0.1,0.3,0.1,0.6,0.4,0.6c1.2,0.1,2.4,0.2,3.4,0.2c4,0,6.3-1.1,7.3-2.3V20h-1.7
			C13.7,20.9,10.9,21.6,6.1,21z M3.5,11C2.1,11,1,12.1,1,13.5C1,14.9,2.1,16,3.5,16S6,14.9,6,13.5C6,12.1,4.9,11,3.5,11z M3.5,22
			L4,17H3L3.5,22z"/>
	</g>
</g>
</svg>
