<?xml version="1.0" encoding="utf-8"?>
<!-- Generator: Adobe Illustrator 23.0.1, SVG Export Plug-In . SVG Version: 6.00 Build 0)  -->
<svg version="1.1" id="Layer_1" xmlns="http://www.w3.org/2000/svg" xmlns:xlink="http://www.w3.org/1999/xlink" x="0px" y="0px"
	 viewBox="0 0 24 24" style="enable-background:new 0 0 24 24;" xml:space="preserve">
<style type="text/css">
	.st0{fill:#90C2C9;}
</style>
<g id="Slices">
</g>
<g id="Icons">
	<g id="SnackPyramid">
	</g>
	<g id="Survey">
	</g>
	<g id="RescheduleCall">
	</g>
	<g id="AllProducts">
	</g>
	<g id="CurrentLocation">
	</g>
	<g id="Delivery_Item">
		<g>
			<path class="st0" d="M20.5,19c0.2-0.2,0.4-0.4,0.7-0.6c0.2-0.2,0.4-0.4,0.7-0.6c1.5-1.5,2.1-2.5,2.1-3.4V6c0-2-1-3.1-3.1-3.1H4
				c-2.1,0-3.7,1.5-3.7,3.5v11.5c0,2,1.7,3.5,3.7,3.5h13C18,21.5,19,20.5,20.5,19z M3.4,19.4c-1,0-1,0-1-1V6c0-1,0-1,1-1h17.4
				c1,0,1.2,0,1.2,1v7.2c-0.2,0.6-0.2,1-1,1h-3c-0.5,0-1.1,0.5-1.1,1v3.1c0,0.9-0.1,1-1,1H3.4z"/>
		</g>
	</g>
	<g id="Edit_Order_Basket">
	</g>
	<g id="Notification">
	</g>
	<g id="SortOrder">
	</g>
	<g id="AllStores">
	</g>
	<g id="Visit">
	</g>
	<g id="Today">
	</g>
	<g id="Summary">
	</g>
	<g id="delete">
	</g>
	<g id="Delivery">
	</g>
	<g id="Public_Holiday">
	</g>
</g>
<g id="Icons_1_">
	<g id="SnackPyramid_1_">
	</g>
	<g id="Survey_1_">
	</g>
	<g id="RescheduleCall_1_">
	</g>
	<g id="AllProducts_1_">
	</g>
	<g id="CurrentLocation_1_">
	</g>
	<g id="Delivery_Item_1_">
	</g>
	<g id="Edit_Order_Basket_1_">
	</g>
	<g id="Notification_1_">
	</g>
	<g id="SortOrder_1_">
	</g>
	<g id="AllStores_1_">
	</g>
	<g id="Visit_1_">
		<g>
			<path class="st0" d="M15.6,13.1h-1.1c-0.3,0-0.6-0.2-0.6-0.6h-3.4c0,0.3-0.2,0.6-0.6,0.6H8.8c-0.3,0-0.6-0.2-0.6-0.6H6.5v4
				c0,0.3,0.2,0.6,0.6,0.6h10.2c0.3,0,0.6-0.2,0.6-0.6v-4h-1.7C16.1,12.9,15.9,13.1,15.6,13.1z"/>
			<path class="st0" d="M17.3,9.2h-2.8c0-1.2-1-2.3-2.3-2.3s-2.3,1-2.3,2.3H7.1c-0.3,0-0.6,0.2-0.6,0.6V12h1.7
				c0-0.3,0.2-0.6,0.6-0.6h1.1c0.3,0,0.6,0.2,0.6,0.6h3.4c0-0.3,0.2-0.6,0.6-0.6h1.1c0.3,0,0.6,0.2,0.6,0.6h1.7V9.7
				C17.8,9.4,17.6,9.2,17.3,9.2z M12.2,8c0.6,0,1,0.5,1.1,1.1H11C11.1,8.5,11.6,8,12.2,8z"/>
		</g>
	</g>
	<g id="Today_1_">
	</g>
	<g id="Summary_1_">
	</g>
	<g id="delete_1_">
	</g>
	<g id="Delivery_1_">
	</g>
	<g id="Public_Holiday_1_">
	</g>
</g>
</svg>
