<?xml version="1.0" encoding="utf-8"?>
<!-- Generator: Adobe Illustrator 23.0.3, SVG Export Plug-In . SVG Version: 6.00 Build 0)  -->
<svg version="1.1" id="Layer_1" xmlns="http://www.w3.org/2000/svg" xmlns:xlink="http://www.w3.org/1999/xlink" x="0px" y="0px"
	 viewBox="0 0 24 24" style="enable-background:new 0 0 24 24;" xml:space="preserve">
<style type="text/css">
	.st0{fill:#90C2C9;}
	.st1{fill:#90C2C9;stroke:#90C2C9;stroke-width:0.5;stroke-miterlimit:10;}
</style>
<g id="Slices">
</g>
<g>
	<g>
		<path class="st0" d="M18.1,10.6c-0.8,0-7.8-0.6-9.9,1.7c-0.3,0.3-0.4,0.6-0.3,1c0.3,1.1,2.5,2,5.6,2.9v-1.1
			c-1.7-0.6-4.4-1.6-4.6-2.2L9,12.9c1.5-1.6,7.1-1.5,9.1-1.3c0.2,0,0.5-0.3,0.5-0.5S18.4,10.6,18.1,10.6z M20.5,1
			C19.1,1,18,2.1,18,3.5C18,4.9,19.1,6,20.5,6S23,4.9,23,3.5C23,2.1,21.9,1,20.5,1z M20.5,12L21,7h-1L20.5,12z M6.1,21
			c-0.3,0-0.6,0.2-0.4,0.6c-0.1,0.3,0.1,0.6,0.4,0.6c1.2,0.1,2.4,0.2,3.4,0.2c1.6,0,2.9-0.2,4-0.5l0.6-1.4
			C12.5,21.1,9.9,21.5,6.1,21z M3.5,22L4,17H3L3.5,22z M3.5,11C2.1,11,1,12.1,1,13.5C1,14.9,2.1,16,3.5,16S6,14.9,6,13.5
			C6,12.1,4.9,11,3.5,11z"/>
	</g>
</g>
<path class="st1" d="M19.4,19.2l2.9,2.9V23h-0.8L18.6,20L15.7,23h-0.8v-0.8l2.9-2.9l-2.9-2.9v-0.8h0.8l2.9,2.9l2.9-2.9h0.8v0.8
	L19.4,19.2z"/>
</svg>
