<?xml version="1.0" encoding="utf-8"?>
<!-- Generator: Adobe Illustrator 20.1.0, SVG Export Plug-In . SVG Version: 6.00 Build 0)  -->
<svg version="1.1" id="Layer_1" xmlns="http://www.w3.org/2000/svg" xmlns:xlink="http://www.w3.org/1999/xlink" x="0px" y="0px"
	 viewBox="0 0 24 24" style="enable-background:new 0 0 24 24;" xml:space="preserve">
<style type="text/css">
	.st0{fill:#788994;}
</style>
<g id="Slices">
</g>
<g id="Icons">
	<g id="Relations">
	</g>
	<g id="DeliveryItem">
	</g>
	<g id="Expand">
	</g>
	<g id="Fridge">
	</g>
	<g id="Promotion_1_">
	</g>
	<g id="Day">
	</g>
	<g id="Contract">
	</g>
	<g id="Questionaire">
	</g>
	<g id="Open_Hours">
	</g>
	<g id="Invoice">
	</g>
	<g id="Ebene_23">
	</g>
	<g id="Back">
	</g>
	<g id="Order">
	</g>
	<g id="List">
	</g>
	<g id="Foward">
	</g>
	<g id="Attachment">
	</g>
	<g id="Focus">
		<g>
			<circle class="st0" cx="12" cy="12" r="3"/>
			<path class="st0" d="M23,11h-2.1c-0.5-4.2-3.8-7.5-7.9-7.9V1c0-0.6-0.4-1-1-1s-1,0.4-1,1v2.1C6.8,3.5,3.5,6.8,3.1,11H1
				c-0.6,0-1,0.4-1,1s0.4,1,1,1h2.1c0.5,4.2,3.8,7.5,7.9,7.9V23c0,0.6,0.4,1,1,1s1-0.4,1-1v-2.1c4.2-0.5,7.5-3.8,7.9-7.9H23
				c0.6,0,1-0.4,1-1S23.6,11,23,11z M19.2,12.6c-0.3,3.5-3.1,6.3-6.6,6.6C12.4,19.1,12.2,19,12,19s-0.4,0.1-0.6,0.2
				c-3.5-0.3-6.3-3.1-6.6-6.6C4.9,12.4,5,12.2,5,12s-0.1-0.4-0.2-0.6c0.3-3.5,3.1-6.3,6.6-6.6C11.6,4.9,11.8,5,12,5s0.4-0.1,0.6-0.2
				c3.5,0.3,6.3,3.1,6.6,6.6C19.1,11.6,19,11.8,19,12S19.1,12.4,19.2,12.6z"/>
		</g>
	</g>
</g>
</svg>
