<?xml version="1.0" encoding="UTF-8"?>
<svg xmlns="http://www.w3.org/2000/svg" xmlns:xlink="http://www.w3.org/1999/xlink" width="15px" height="15px" viewBox="0 0 15 15" version="1.1">
<g id="surface1">
<path style=" stroke:none;fill-rule:nonzero;fill:rgb(18.039216%,51.764706%,29.019608%);fill-opacity:1;" d="M 7.5 0 C 11.640625 0 15 3.359375 15 7.5 C 15 11.640625 11.640625 15 7.5 15 C 3.359375 15 0 11.640625 0 7.5 C 0 3.359375 3.359375 0 7.5 0 Z M 7.5 0 "/>
<path style=" stroke:none;fill-rule:nonzero;fill:rgb(100%,100%,100%);fill-opacity:1;" d="M 6.289062 10.546875 L 3.433594 7.671875 C 3.328125 7.570312 3.328125 7.394531 3.433594 7.292969 L 3.8125 6.910156 C 3.917969 6.808594 4.089844 6.808594 4.195312 6.910156 L 6.339844 9.074219 C 6.410156 9.144531 6.53125 9.144531 6.601562 9.074219 L 10.804688 4.835938 C 10.910156 4.730469 11.082031 4.730469 11.1875 4.835938 L 11.566406 5.214844 C 11.671875 5.320312 11.671875 5.492188 11.566406 5.597656 L 6.667969 10.546875 C 6.566406 10.667969 6.390625 10.667969 6.289062 10.546875 Z M 6.289062 10.546875 "/>
</g>
</svg>
