<?xml version="1.0" encoding="utf-8"?>
<!-- Generator: Adobe Illustrator 19.2.1, SVG Export Plug-In . SVG Version: 6.00 Build 0)  -->
<svg version="1.1" id="Layer_1" xmlns="http://www.w3.org/2000/svg" xmlns:xlink="http://www.w3.org/1999/xlink" x="0px" y="0px"
	 viewBox="0 0 24 24" style="enable-background:new 0 0 24 24;" xml:space="preserve">
<style type="text/css">
	.st0{fill:#788994;}
</style>
<g>
	<path class="st0" d="M8.9,13.1c3.1,0.7,3.7,1.8,3.7,2.9c0,0.6-0.4,1.6-1.8,2h4c0.4-0.5,0.6-1.2,0.6-2c0-3.4-2.9-4.6-5.7-5.3
		C6.9,9.9,6,9.2,6,8c0-1.3,1.2-2.3,3.3-2.3c2.2,0,2.6,0.7,2.7,2.2h3c-0.1-2.1-1.4-3.4-4-4V1H8v3C5.6,4.5,3.2,5.7,3.2,8.1
		C3.2,10.9,5.5,12.3,8.9,13.1z"/>
	<path class="st0" d="M10.9,22c-0.8,0-1.5-0.5-1.8-1.2L9,20.6v-0.9c0-0.7,0.4-1.3,1-1.5c-0.2,0-0.4,0-0.7,0c-2.5,0-3.2-0.8-3.3-2.2
		H3c0.1,2.7,2.7,3.5,5,4v3h3v-1C11,22,10.9,22,10.9,22z"/>
</g>
<path class="st0" d="M22,20l-3-3v2h-7.3c-0.4,0-0.7,0.3-0.7,0.7v0v0.7c0.2,0.4,0.6,0.6,1,0.6h7v2L22,20z"/>
</svg>
