<?xml version="1.0" encoding="utf-8"?>
<!-- Generator: Adobe Illustrator 19.2.1, SVG Export Plug-In . SVG Version: 6.00 Build 0)  -->
<svg version="1.1" id="Layer_1" xmlns="http://www.w3.org/2000/svg" xmlns:xlink="http://www.w3.org/1999/xlink" x="0px" y="0px"
	 viewBox="0 0 24 24" style="enable-background:new 0 0 24 24;" xml:space="preserve">
<style type="text/css">
	.st0{fill:#788994;}
</style>
<g>
	<path class="st0" d="M15.7,10.7C12.9,9.9,12,9.2,12,8c0-1.3,1.2-2.3,3.3-2.3c2.2,0,2.6,0.7,2.7,2.2h3c-0.1-2.1-1.4-3.4-4-4V1h-3v3
		c-2.4,0.5-4.8,1.7-4.8,4.1c0,2.8,2.3,4.2,5.7,5c3.1,0.7,3.7,1.8,3.7,2.9c0,0.8-0.6,2.2-3.3,2.2c-0.5,0-0.8,0-1.2-0.1L16,20l-2,2v1
		h3v-3c2.4-0.4,4.4-1.5,4.4-4C21.4,12.6,18.5,11.4,15.7,10.7z"/>
	<polygon class="st0" points="12,16 12,16 12,16 	"/>
</g>
<path class="st0" d="M13,20l-3-3v2H2.7C2.3,19,2,19.3,2,19.7v0v0.7C2.2,20.8,2.6,21,3,21h7v2L13,20z"/>
</svg>
