<?xml version="1.0" encoding="utf-8"?>
<!-- Generator: Adobe Illustrator 19.0.1, SVG Export Plug-In . SVG Version: 6.00 Build 0)  -->
<svg version="1.1" xmlns="http://www.w3.org/2000/svg" xmlns:xlink="http://www.w3.org/1999/xlink" x="0px" y="0px"
	 viewBox="0 0 24 24" style="enable-background:new 0 0 24 24;" xml:space="preserve">
<style type="text/css">
	.st0{fill:#788994;}
	.st1{fill-rule:evenodd;clip-rule:evenodd;fill:#788994;}
</style>
<g id="Slices">
</g>
<g id="Icons">
	<g id="Route">
	</g>
	<g id="Initiator">
	</g>
	<g id="Week">
	</g>
	<g id="B.Partner">
	</g>
	<g id="Task_List_1_">
	</g>
	<g id="Roles">
	</g>
	<g id="Draw">
		<g>
			<path class="st0" d="M13.6,19.9l0.5-4.4c0-0.2-0.1-0.5-0.4-0.5L9.4,7.1l-1.8,1l0,0L6.2,8.8l0,0L4.3,9.9l4.4,7.9c0,0,0,0,0,0
				c-0.1,0.3,0,0.5,0.2,0.7l4,1.8c0.1,0,0.1,0,0.2,0c0.1,0,0.2,0,0.2-0.1C13.5,20.2,13.6,20,13.6,19.9z M11,15.8l1.5,0.3l0.6-0.3
				L12.8,18l-1.1,0.6l-2.1-0.9l0.7-0.4L11,15.8z"/>
			<polygon class="st0" points="8.1,4.8 2.9,7.7 3.6,8.8 8.7,5.9 			"/>
			<path class="st0" d="M6.7,2.8C6.3,2.1,5.4,1.9,4.8,2.3L2.3,3.7C1.6,4,1.4,4.9,1.8,5.6l0.4,0.8l4.9-2.7L6.7,2.8z"/>
			<path class="st0" d="M21.4,5.7c-0.1-0.2-0.5-0.3-0.7-0.2c-0.1,0.1-3.4,2.2-4,5.1c-0.3,1.3,0,2.5,0.8,3.6c0.6,0.9,0.8,1.7,0.6,2.5
				c-0.7,2.3-4.3,3.7-4.3,3.7c-0.3,0.1-0.4,0.4-0.3,0.6c0.1,0.2,0.3,0.3,0.5,0.3c0.1,0,0.1,0,0.2,0c0.2-0.1,4.1-1.6,4.9-4.4
				c0.3-1.1,0.1-2.3-0.7-3.4c-0.6-0.9-0.9-1.9-0.7-2.9c0.5-2.5,3.5-4.4,3.5-4.4C21.5,6.3,21.6,6,21.4,5.7z"/>
		</g>
	</g>
	<g id="Copy">
	</g>
	<g id="User">
	</g>
	<g id="Unread_Message">
	</g>
	<g id="Edit_Message">
	</g>
	<g id="Inbox">
	</g>
	<g id="Advanced_Search">
	</g>
	<g id="Idea_x3F_">
	</g>
	<g id="Packages">
	</g>
	<g id="_x3F__1_">
	</g>
</g>
</svg>
