<?xml version="1.0" encoding="utf-8"?>
<!-- Generator: Adobe Illustrator 20.1.0, SVG Export Plug-In . SVG Version: 6.00 Build 0)  -->
<svg version="1.1" id="Layer_1" xmlns="http://www.w3.org/2000/svg" xmlns:xlink="http://www.w3.org/1999/xlink" x="0px" y="0px"
	 viewBox="0 0 72.9 64.6" style="enable-background:new 0 0 72.9 64.6;" xml:space="preserve">
<style type="text/css">
	.st0{fill:#F0F4F6;}
	.st1{fill:#B4C7D4;}
</style>
<g id="Slices">
</g>
<path class="st0" d="M27.6,39.2h-4.5l-1,1v4.5h5.5V39.2z M33.1,44.6h5.5v-5.5h-5.5V44.6z M22.2,51l2,2v2.5h3.5v-5.5h-5.5V51z
	 M63.9,6.5h-3.5v4.1c0,2.7-2.7,4.9-5.5,4.9s-5.5-2.2-5.5-4.9V6.5H30.4v4.1c0,2.7-2.7,4.9-5.5,4.9c-2.7,0-5.5-2.2-5.5-4.9V6.5h-3.8
	c-4.1,0-7.1,2.7-7.1,6.5v24.4l3.1,3.1l2.3-2.3V22.8h51.8v32.7c0,1.4-1.4,2.7-2.7,2.7H16.7c-1.4,0-2.7-1.4-2.7-2.7V53l-2.3-2.3
	l-3.1,3.1v2.6c0,4.1,3.3,7.4,7.4,7.4h48.3c4.1,0,7.4-3.3,7.4-7.4V13C71.3,9.2,68,6.5,63.9,6.5z M24.6,12.2l0.8,0.3
	c1.4,0,2.2-1.1,2.2-2.5V3.5c0-1.4-0.8-2.5-2.2-2.5h-0.8c-1.4,0-2.5,1.1-2.5,2.5V10C22.2,11.1,23.3,12.2,24.6,12.2z M54.6,12.2
	l0.8,0.3c1.4,0,2.2-1.1,2.2-2.5V3.5c0-1.4-0.8-2.5-2.2-2.5h-0.8c-1.4,0-2.5,1.1-2.5,2.5v6.3C52.2,11.1,53.3,12.2,54.6,12.2z
	 M33.1,55.6h5.5v-5.5h-5.5V55.6z M54.9,44.6h5.5v-5.5h-5.5V44.6z M38.5,28.3h-5.5v5.5h5.5V28.3z M44,55.6h5.5v-5.5H44V55.6z
	 M60.4,28.3h-5.5v5.5h5.5V28.3z M44,44.6h5.5v-5.5H44V44.6z M49.5,28.3H44v5.5h5.5V28.3z"/>
<path class="st1" d="M13.9,45.6l8.3,8.3v2.3h-2.3l-8.3-8.3l-8.3,8.3H1.2v-2.3l8.3-8.3l-8.3-8.3v-2.3h2.3l8.3,8.3l8.3-8.3h2.3v2.3
	L13.9,45.6z"/>
</svg>
