<?xml version="1.0" encoding="utf-8"?>
<!-- Generator: Adobe Illustrator 20.1.0, SVG Export Plug-In . SVG Version: 6.00 Build 0)  -->
<svg version="1.1" id="Layer_1" xmlns="http://www.w3.org/2000/svg" xmlns:xlink="http://www.w3.org/1999/xlink" x="0px" y="0px"
	 viewBox="0 0 72.9 64.6" style="enable-background:new 0 0 72.9 64.6;" xml:space="preserve">
<style type="text/css">
	.st0{fill:#B4C7D4;}
	.st1{fill:#F0F4F6;}
</style>
<g id="Slices">
</g>
<path class="st0" d="M47.2,42.6l8.3,8.3v2.3h-2.3L45,44.8l-8.3,8.3h-2.3v-2.3l8.3-8.3l-8.3-8.3v-2.3h2.3l8.3,8.3l8.3-8.3h2.3v2.3
	L47.2,42.6z"/>
<rect y="60.5" class="st0" width="72" height="3.1"/>
<rect x="3.1" y="14.8" class="st0" width="11.9" height="43.9"/>
<rect x="21.1" y="1.5" class="st1" width="11.9" height="57.1"/>
<rect x="57" y="40.5" class="st1" width="11.9" height="18.1"/>
<path class="st1" d="M39,26.5v5l5.9,5.9l5.9-5.9v-5H39z M50.9,43.4v-1.7l-0.9,0.9L50.9,43.4z M39,41.7v1.7l0.9-0.9L39,41.7z
	 M39,53.6v5h11.9v-5L45,47.6L39,53.6z"/>
</svg>
