<?xml version="1.0" encoding="utf-8"?>
<!-- Generator: Adobe Illustrator 24.0.3, SVG Export Plug-In . SVG Version: 6.00 Build 0)  -->
<svg version="1.1" id="Layer_1" xmlns="http://www.w3.org/2000/svg" xmlns:xlink="http://www.w3.org/1999/xlink" x="0px" y="0px"
	 viewBox="0 0 55.2 57.7" style="enable-background:new 0 0 55.2 57.7;" xml:space="preserve">
<style type="text/css">
	.st0{fill:#F0F4F6;}
	.st1{fill:#B4C7D4;}
</style>
<path class="st0" d="M21.5,33.5c0.7,0.7,1.4,1.2,2.2,1.7l3.6-3.6c0.3-0.3,0.5-0.7,0.6-1.2c-0.8-0.3-1.5-0.7-2.1-1.3l0,0
	c-1-1-1.6-2.4-1.6-3.8c0-1.5,0.6-2.8,1.6-3.8L38,9.3c2.1-2.1,5.7-2.1,7.8,0l0,0c1,1,1.6,2.4,1.6,3.8c0,1.5-0.6,2.8-1.6,3.8l-7,7
	c0.8,1.9,1.3,3.9,1.3,6c0,0.5,0,0.9-0.1,1.4l10.1-10c2.2-2.2,3.4-5.1,3.4-8.2c0-3.1-1.2-6-3.4-8.1c0,0,0,0,0,0
	c-4.5-4.5-11.9-4.5-16.4,0L21.5,17.2c-2.2,2.2-3.4,5.1-3.4,8.2C18.1,28.4,19.2,31.3,21.5,33.5C21.4,33.5,21.4,33.5,21.5,33.5
	L21.5,33.5z"/>
<g id="Slices">
</g>
<g id="Icons_1_">
	<g id="Relations_1_">
	</g>
	<g id="DeliveryItem_1_">
	</g>
	<g id="Expand_1_">
	</g>
	<g id="Fridge_1_">
	</g>
	<g id="Promotion_2_">
	</g>
	<g id="Day_1_">
	</g>
	<g id="Contract_1_">
	</g>
	<g id="Questionaire_1_">
	</g>
	<g id="Open_Hours_1_">
	</g>
	<g id="Invoice_1_">
	</g>
	<g id="Ebene_23_1_">
	</g>
	<g id="Back_1_">
	</g>
	<g id="List_1_">
	</g>
	<g id="Foward_1_">
	</g>
	<g id="Attachment_1_">
	</g>
	<g id="Focus_1_">
	</g>
</g>
<g>
	<path class="st0" d="M29.4,26.2c1,1,1.6,2.4,1.6,3.8c0,0.4-0.1,0.8-0.2,1.2H35l1.7,1.7c0.1-0.6,0.3-1.2,0.3-1.7l0-0.1
		c0.1-0.8,0.1-1.7,0-2.5c-0.1-1-0.4-2-0.8-2.9c0-0.1-0.1-0.2-0.1-0.3c-0.6-1.3-1.4-2.4-2.4-3.4c0,0,0,0,0,0
		c-0.7-0.7-1.4-1.2-2.2-1.7l-3.6,3.6c-0.3,0.3-0.5,0.7-0.6,1.2C28,25.1,28.8,25.5,29.4,26.2L29.4,26.2z"/>
	<path class="st0" d="M29.9,36.3v-3.1c-0.2,0.2-0.3,0.4-0.5,0.6L17.1,46c-2.1,2.1-5.7,2.1-7.8,0l0,0c-1-1-1.6-2.4-1.6-3.8
		c0-1.5,0.6-2.8,1.6-3.8l7-7c-0.8-1.9-1.3-3.9-1.3-6c0-0.5,0-0.9,0.1-1.4L5,34c-2.2,2.2-3.4,5.1-3.4,8.2c0,3.1,1.2,6,3.4,8.1
		c0,0,0,0,0,0c4.5,4.5,11.9,4.5,16.4,0l11.3-11.2L29.9,36.3z"/>
</g>
<path class="st1" d="M44.6,43.8l8.3,8.3v2.3h-2.3l-8.3-8.3L34,54.4h-2.1v-2.3l8.3-8.3l-8.3-8.3v-2.3h2.3l8.3,8.3l8.3-8.3h2.3v2.3
	L44.6,43.8z"/>
</svg>
