<?xml version="1.0" encoding="utf-8"?>
<!-- Generator: Adobe Illustrator 24.0.3, SVG Export Plug-In . SVG Version: 6.00 Build 0)  -->
<svg version="1.1" id="Layer_1" xmlns="http://www.w3.org/2000/svg" xmlns:xlink="http://www.w3.org/1999/xlink" x="0px" y="0px"
	 viewBox="0 0 72.9 64.6" style="enable-background:new 0 0 72.9 64.6;" xml:space="preserve">
<style type="text/css">
	.st0{fill:#F0F4F6;}
	.st1{fill:#B4C7D4;stroke:#FFFFFF;stroke-width:2;stroke-miterlimit:10;}
</style>
<g id="Slices">
</g>
<g id="Icons">
	<g id="Agenda">
	</g>
	<g id="Order">
	</g>
	<g id="Clipboard">
	</g>
	<g id="Track_Activities">
	</g>
	<g id="Todo">
	</g>
	<g id="Massages">
	</g>
	<g id="About_1_">
	</g>
	<g id="My_Settings">
	</g>
	<g id="Notifications">
	</g>
	<g id="Customer">
		<g>
			<path class="st0" d="M26,35.1c-5.8,2.3-12,6.2-12,9.9v1.6c0,4.6,7.4,6.3,15.6,6.7l-5.7-13.2L26,35.1z"/>
			<path class="st0" d="M40.6,34.4c-0.6-0.5-1.5-1.6-0.5-4.2l0,0c3-3.1,4.5-8.2,4.5-13.3C44.5,9,40.2,5,34.4,5
				c-5.9,0-10.9,4.1-10.9,11.7c0,5.1,2.3,10.2,5.3,13.3c1.1,2.9-0.6,4.1-1.2,4.5l-2.4,5.6L31,53.3c0.2,0,0.6,0,0.8,0L33,37.6h-0.2
				c-0.5,0-1-0.4-1-1v-1.8c0-0.5,0.4-1,1-1h3c0.5,0,1,0.4,1,1v1.8c0,0.5-0.4,1-1,1h-0.5l1.2,15.7c0.2,0,0.5,0,0.7,0L43.1,40
				L40.6,34.4z"/>
			<path class="st0" d="M42.2,35l2.3,5.1l-5.8,13.2c8.4-0.4,16.1-1.9,16.1-6.8V45C54.8,41.2,48.3,37.3,42.2,35z"/>
		</g>
	</g>
	<g id="Order_Basekt">
	</g>
	<g id="Logs">
	</g>
	<g id="Tour">
	</g>
	<g id="Daily_Report">
	</g>
	<g id="Issues">
	</g>
	<g id="Synchronize">
	</g>
</g>
<polygon class="st1" points="44.6,59.6 29.6,45.2 34.6,40.1 44.6,50.8 60.8,33.9 65.9,38.9 "/>
</svg>
