<?xml version="1.0" encoding="utf-8"?>
<!-- Generator: Adobe Illustrator 24.0.3, SVG Export Plug-In . SVG Version: 6.00 Build 0)  -->
<svg version="1.1" id="Layer_1" xmlns="http://www.w3.org/2000/svg" xmlns:xlink="http://www.w3.org/1999/xlink" x="0px" y="0px"
	 viewBox="0 0 72.9 64.6" style="enable-background:new 0 0 72.9 64.6;" xml:space="preserve">
<style type="text/css">
	.st0{fill:#F0F4F6;}
	.st1{fill:#B4C7D4;stroke:#FFFFFF;stroke-width:2;stroke-miterlimit:10;}
</style>
<g id="Icons_1_">
	<g id="SnackPyramid">
	</g>
	<g id="Survey">
		<path class="st0" d="M57.2,9.2C56.7,8.7,56.5,8.5,56,8s-0.7-0.7-1.2-1.2C52.2,4,50.6,3.1,49,3.1H34.5c-3.5,0-5.3,1.9-5.3,5.3v13.2
			c0.5,0,0.7,0,1.2,0c1.2,0,2.3,0.2,3.5,0.5v-12c0-1.9,0.7-2.3,2.3-2.3H47c1.2,0.2,0.7,0.9,0.7,2.3v3.7c0,0.7,2.1,3.3,3,3.3H56
			c1.4,0,0.9,0.7,0.9,2.3v19.5c0,1.9-0.7,1.4-2.3,1.4h-7c0,1.4-0.2,2.8-0.7,3.9h8.4c3.5,0,6.3-2.8,6.3-6.5V15.4
			C61.4,13.6,59.8,11.9,57.2,9.2z"/>
		<path class="st0" d="M31.5,24c-7.7,0-13.9,6.3-13.9,13.9c0,3.5,1.2,6.5,3.3,9.1c-0.9-0.5-1.9-0.2-2.8,0.5l-6,6
			c-0.9,0.9-0.9,2.6,0,3.5l1.2,1.2c0.9,0.9,2.6,0.9,3.5,0l6-6c0.7-0.7,0.9-1.9,0.5-2.8l0,0c2.3,1.6,5.1,2.8,8.4,2.8
			c7.7,0,13.9-6.3,13.9-13.9S39.1,24,31.5,24z M31.5,47.5c-5.1,0-9.3-4.2-9.3-9.3s4.2-9.3,9.3-9.3s9.3,4.2,9.3,9.3
			S36.6,47.5,31.5,47.5z"/>
		<g>
			<rect x="38.4" y="14.7" class="st0" width="4.6" height="2.3"/>
			<rect x="38.4" y="19.4" class="st0" width="13.9" height="2.3"/>
			<rect x="43.1" y="24" class="st0" width="9.3" height="2.3"/>
			<rect x="45.4" y="28.7" class="st0" width="7" height="2.3"/>
			<rect x="47.7" y="33.3" class="st0" width="4.6" height="2.3"/>
		</g>
	</g>
	<g id="RescheduleCall">
	</g>
	<g id="AllProducts">
	</g>
	<g id="CurrentLocation">
	</g>
	<g id="Delivery_Item">
	</g>
	<g id="Edit_Order_Basket">
	</g>
	<g id="Notification">
	</g>
	<g id="SortOrder">
	</g>
	<g id="AllStores">
	</g>
	<g id="Visit">
	</g>
	<g id="Today">
	</g>
	<g id="Summary">
	</g>
	<g id="delete">
	</g>
	<g id="Delivery">
	</g>
	<g id="Public_Holiday">
	</g>
</g>
<g id="Slices">
</g>
<polygon class="st1" points="44.6,59.6 29.6,45.2 34.6,40.1 44.6,50.8 60.8,33.9 65.9,38.9 "/>
</svg>
