<?xml version="1.0" encoding="UTF-8"?>
<svg width="85px" height="69px" viewBox="0 0 85 69" version="1.1" xmlns="http://www.w3.org/2000/svg" xmlns:xlink="http://www.w3.org/1999/xlink">
    <title>Group 5</title>
    <defs>
        <polygon id="path-1" points="0 0.414341693 84.3926143 0.414341693 84.3926143 67.9210353 0 67.9210353"></polygon>
    </defs>
    <g id="Layout" stroke="none" stroke-width="1" fill="none" fill-rule="evenodd">
        <g id="Activity-Performance" transform="translate(-1402.000000, -2569.000000)">
            <g id="Einstein-Analytics-Copy-2" transform="translate(1375.000000, 2465.000000)">
                <g id="Group-5" transform="translate(27.000000, 104.000000)">
                    <polygon id="Fill-1" fill="#B4C7D4" points="80.1803387 43 70.0006132 53.1314554 59.8208878 43 57 43 57 45.8062911 67.1809519 55.9401878 57 66.0716432 57 68.8779343 59.8208878 68.8779343 70.0006132 58.7476995 80.0576914 69 82.8798057 69 82.8798057 66.1924883 72.7000802 56.0610329 83 45.8062911 83 43"></polygon>
                    <g id="Group-4">
                        <mask id="mask-2" fill="white">
                            <use xlink:href="#path-1"></use>
                        </mask>
                        <g id="Clip-3"></g>
                        <path d="M12.8711857,26.5534804 C7.64975714,21.9970541 6.07118571,14.2031669 5.58547143,10.0064585 L16.8783286,10.0064585 C17.3640429,15.1624146 18.4569,21.5174303 21.1283286,27.1530102 C21.6140429,28.2321638 22.0997571,29.1914114 22.5854714,30.1506591 C18.8211857,30.0307531 15.5426143,28.8316936 12.8711857,26.5534804 L12.8711857,26.5534804 Z M62.7795429,27.1530102 C65.3283286,21.5174303 66.5426143,15.1624146 67.0295429,10.0064585 L78.3211857,10.0064585 C77.9581143,14.083261 76.4997571,21.9970541 71.1569,26.5534804 C68.6069,28.8316936 65.3283286,30.0307531 61.3211857,30.1506591 C61.8069,29.1914114 62.2926143,28.2321638 62.7795429,27.1530102 L62.7795429,27.1530102 Z M54.5211857,64.9018033 L59.3783286,60.104366 L59.3783286,56.2901575 L47.2354714,56.2901575 L47.2354714,44.2995619 C51.3640429,42.7407845 55.0069,39.7431356 58.2854714,35.4265212 C59.1366857,35.5464271 60.1069,35.5464271 60.9581143,35.5464271 C66.5426143,35.5464271 71.2795429,33.8677437 75.1640429,30.510377 C84.2711857,22.4766779 84.3926143,7.84815125 84.3926143,7.24862147 L84.3926143,4.61069044 L67.3926143,4.61069044 L67.3926143,0.413981975 L42.1354714,0.413981975 L42.0140429,0.413981975 L41.8926143,0.413981975 L16.6354714,0.413981975 C16.6354714,0.413981975 16.5140429,1.9727594 16.6354714,4.61069044 L-0.000242857143,4.61069044 L-0.000242857143,7.36852743 C-0.000242857143,7.96805721 0.121185714,22.5965839 9.22832857,30.6302829 C12.9926143,33.9876497 17.8497571,35.6663331 23.4354714,35.6663331 C24.2854714,35.6663331 25.1354714,35.6663331 25.9854714,35.5464271 C29.1426143,39.8630415 32.9069,42.8606904 37.0354714,44.4194679 L37.0354714,56.4100635 L24.8926143,56.4100635 L24.8926143,63.7243268 L20.8854714,63.7243268 L20.8854714,67.9210353 L42.0140429,67.9210353 L42.2569,67.9210353 L54.5211857,67.9210353 L54.5211857,64.9018033 Z" id="Fill-2" fill="#EBF0F0" mask="url(#mask-2)"></path>
                    </g>
                </g>
            </g>
        </g>
    </g>
</svg>