<?xml version="1.0" encoding="utf-8"?>
<!-- Generator: Adobe Illustrator 21.0.0, SVG Export Plug-In . SVG Version: 6.00 Build 0)  -->
<svg version="1.1" id="Layer_1" xmlns="http://www.w3.org/2000/svg" xmlns:xlink="http://www.w3.org/1999/xlink" x="0px" y="0px"
	 viewBox="0 0 55.2 57.7" style="enable-background:new 0 0 55.2 57.7;" xml:space="preserve">
<style type="text/css">
	.st0{fill:#F0F4F6;}
	.st1{fill:#B4C7D4;}
</style>
<g id="Slices">
</g>
<g id="Icons_1_">
	<g id="Relations_1_">
	</g>
	<g id="DeliveryItem_1_">
	</g>
	<g id="Expand_1_">
	</g>
	<g id="Fridge_1_">
	</g>
	<g id="Promotion_2_">
	</g>
	<g id="Day_1_">
	</g>
	<g id="Contract_1_">
	</g>
	<g id="Questionaire_1_">
	</g>
	<g id="Open_Hours_1_">
	</g>
	<g id="Invoice_1_">
	</g>
	<g id="Ebene_23_1_">
	</g>
	<g id="Back_1_">
	</g>
	<g id="List_1_">
	</g>
	<g id="Foward_1_">
	</g>
	<g id="Attachment_1_">
	</g>
	<g id="Focus_1_">
	</g>
</g>
<g>
	<path class="st0" d="M29.9,51.3l2.4-2.4H11.5c-2.4,0-4.4-1.5-4.4-4.4V13.8c0-2.9,2-4.4,4.4-4.4h2.2c-0.2,0.7,0.4,2.2,1.5,2.2h16.5
		c1.1,0,2-1.5,1.5-2.2h2.2c2.4,0,4.4,1.5,4.4,4.4v22.3l2.6,2.6l2-2V14c0-4.8-4.6-8.8-8.8-8.8h-4l-0.4-1.5c-0.2-0.7-0.9-0.9-1.5-0.9
		H17.5c-0.7,0-1.3,0.2-1.5,0.9l-0.4,1.5h-5.1c-4.2,0-7.7,4-7.7,8.8v28.3c0,4.8,2.4,11,6.6,11h20.5V51.3z"/>
</g>
<path class="st1" d="M44.6,43.8l8.3,8.3v2.3h-2.3l-8.3-8.3L34,54.4h-2.1v-2.3l8.3-8.3l-8.3-8.3v-2.3h2.3l8.3,8.3l8.3-8.3h2.3v2.3
	L44.6,43.8z"/>
</svg>
