<?xml version="1.0" encoding="utf-8"?>
<!-- Generator: Adobe Illustrator 22.1.0, SVG Export Plug-In . SVG Version: 6.00 Build 0)  -->
<svg version="1.1" id="Layer_1" xmlns="http://www.w3.org/2000/svg" xmlns:xlink="http://www.w3.org/1999/xlink" x="0px" y="0px"
	 viewBox="0 0 72.9 64.6" style="enable-background:new 0 0 72.9 64.6;" xml:space="preserve">
<style type="text/css">
	.st0{fill:#B4C7D4;}
</style>
<g id="Slices">
</g>
<g>
	<path class="st0" d="M66.3,16.4h-17l-8.4-7.8C41.4,7.8,41.6,7,41.6,6c0-2.9-2.3-5.2-5.2-5.2S31.3,3.2,31.3,6c0,0.9,0.2,1.8,0.7,2.6
		l-8.4,7.8h-17c-0.7,0-1.3,0.6-1.3,1.3v44.2c0,0.7,0.6,1.3,1.3,1.3h59.7c0.7,0,1.3-0.6,1.3-1.3V17.7C67.6,17,67,16.4,66.3,16.4z
		 M36.5,3.4C37.9,3.4,39,4.6,39,6c0,0.7-0.3,1.3-0.8,1.8c-0.5,0.5-1.1,0.8-1.8,0.8s-1.3-0.3-1.8-0.8c-0.5-0.5-0.8-1.1-0.8-1.8
		C33.9,4.6,35,3.4,36.5,3.4z M33.8,10.5c0.8,0.5,1.7,0.7,2.7,0.7s1.9-0.3,2.7-0.7l6.4,5.9H27.4L33.8,10.5z M63.2,19l-2.6,2.6H12.3
		L9.7,19H63.2z M59.8,43.9v6.8 M59.8,53.6v1.8H13.1v-5v0v-2.8V24.2h46.8v16.9V53.6 M7.9,20.9l2.6,2.6v32.7l-2.6,2.6V20.9z M9.7,60.6
		l2.6-2.6h48.3l2.6,2.6H9.7z M65,58.7l-2.6-2.6V23.4l2.6-2.6V58.7z"/>
</g>
</svg>
