<?xml version="1.0" encoding="UTF-8"?>
<svg width="98px" height="109px" viewBox="0 0 98 109" version="1.1" xmlns="http://www.w3.org/2000/svg" xmlns:xlink="http://www.w3.org/1999/xlink">
    <title>Empty Icon</title>
    <g id="Layout" stroke="none" stroke-width="1" fill="none" fill-rule="evenodd">
        <g id="FullScreen_Seaside" transform="translate(-690.000000, -457.000000)" fill="#B4C7D4" fill-rule="nonzero">
            <g id="Flyout">
                <g id="Table" transform="translate(0.000000, 360.000000)">
                    <g id="Empty-Message" transform="translate(690.000000, 97.000000)">
                        <g id="Empty-Icon">
                            <path d="M45.6740331,68.8184675 C45.8689273,70.6704043 47.4768051,72 49.3283007,72 C49.4744714,72 49.5719185,72 49.7180892,72 C51.7157555,71.8100578 53.1774625,70.053092 52.9825683,68.1061841 L51.2772434,52.1985214 C51.0823491,50.2516134 49.2795771,48.8270466 47.2819108,49.0169888 C45.2842445,49.2069311 43.8225375,50.9638968 44.0174317,52.9108048 L45.6740331,68.8184675 Z" id="Path"></path>
                            <path d="M67.2458575,72 C67.3917071,72 67.4889401,72 67.6347897,72 C69.4822173,72 71.0865624,70.6229188 71.2810285,68.8184675 L72.9826066,52.9108048 C73.1770726,50.9638968 71.7185771,49.2069311 69.7252999,49.0169888 C67.7320227,48.8270466 65.9332116,50.2516134 65.7387455,52.1985214 L64.0371674,68.1061841 C63.7454683,70.053092 65.2039638,71.8100578 67.2458575,72 Z" id="Path"></path>
                            <path d="M40,87 C33.9310345,87 29,91.9310345 29,98 C29,104.068966 33.9310345,109 40,109 C46.0689655,109 51,104.068966 51,98 C51,91.9310345 46.0689655,87 40,87 Z M40,101.887931 C37.8663793,101.887931 36.112069,100.133621 36.112069,98 C36.112069,95.8663793 37.8663793,94.112069 40,94.112069 C42.1336207,94.112069 43.887931,95.8663793 43.887931,98 C43.887931,100.133621 42.1336207,101.887931 40,101.887931 Z" id="Shape"></path>
                            <path d="M77,87 C70.9310345,87 66,91.9310345 66,98 C66,104.068966 70.9310345,109 77,109 C83.0689655,109 88,104.068966 88,98 C88,91.9310345 83.0689655,87 77,87 Z M77,101.887931 C74.8663793,101.887931 73.112069,100.133621 73.112069,98 C73.112069,95.8663793 74.8663793,94.112069 77,94.112069 C79.1336207,94.112069 80.887931,95.8663793 80.887931,98 C80.887931,100.133621 79.1810345,101.887931 77,101.887931 Z" id="Shape"></path>
                            <path d="M97.2541226,37.3738806 C96.5970001,36.5276119 95.5643791,36.0104478 94.4848208,36.0104478 L24.3135306,36.0104478 L21.3564796,24.6328358 C20.9340438,23.0813433 19.5728615,22 17.9300554,22 L3.52029884,22 C1.59586881,22 0,23.5985075 0,25.5261194 C0,27.4537313 1.59586881,29.0522388 3.52029884,29.0522388 L15.207691,29.0522388 L18.1178047,40.3358209 C18.1178047,40.3828358 18.164742,40.4768657 18.164742,40.5238806 L29.0541997,82.3671642 C29.4766356,83.9186567 30.8378178,85 32.4806239,85 L83.5953631,85 C85.1912319,85 86.5993514,83.9186567 87.0217873,82.3671642 L97.911245,40.4298507 C98.1459316,39.3485075 97.911245,38.2201493 97.2541226,37.3738806 Z M80.8260613,77.9477612 L35.2029884,77.9477612 L26.144086,43.0626866 L89.931901,43.0626866 L80.8260613,77.9477612 Z" id="Shape"></path>
                            <path d="M45.0350195,24.9734284 C45.7354086,25.6733636 46.6225681,26 47.5097276,26 C48.3968872,26 49.2840467,25.6733636 49.9844358,24.9734284 C51.3385214,23.6202203 51.3385214,21.3804277 49.9844358,20.0272197 L38.9649805,9.01490603 C37.6108949,7.66169799 35.3696498,7.66169799 34.0155642,9.01490603 C32.6614786,10.3681141 32.6614786,12.6079067 34.0155642,13.9611147 L45.0350195,24.9734284 Z" id="Path"></path>
                            <path d="M69.536965,26 C70.4241245,26 71.311284,25.6725146 72.0116732,24.9707602 L82.9844358,13.9766082 C84.3385214,12.619883 84.3385214,10.374269 82.9844358,9.01754386 C81.6303502,7.66081871 79.3891051,7.66081871 78.0350195,9.01754386 L67.0155642,20.0584795 C65.6614786,21.4152047 65.6614786,23.6608187 67.0155642,25.0175439 C67.7159533,25.6725146 68.6498054,26 69.536965,26 Z" id="Path"></path>
                            <path d="M58.5,23 C58.5,23 58.5,23 58.5,23 C60.4133333,23 62,21.3809524 62,19.4285714 L62,3.57142857 C62,1.61904762 60.4133333,0 58.5,0 C58.5,0 58.5,0 58.5,0 C56.5866667,0 55,1.61904762 55,3.57142857 L55,19.4285714 C55,21.4285714 56.5866667,23 58.5,23 Z" id="Path"></path>
                        </g>
                    </g>
                </g>
            </g>
        </g>
    </g>
</svg>