<?xml version="1.0" encoding="utf-8"?>
<!-- Generator: Adobe Illustrator 24.0.3, SVG Export Plug-In . SVG Version: 6.00 Build 0)  -->
<svg version="1.1" id="Layer_1" xmlns="http://www.w3.org/2000/svg" xmlns:xlink="http://www.w3.org/1999/xlink" x="0px" y="0px"
	 viewBox="0 0 24 24" style="enable-background:new 0 0 24 24;" xml:space="preserve">
<style type="text/css">
	.st0{fill:#B4C7D4;}
	.st1{fill:#F0F4F6;}
</style>
<polygon class="st0" points="19.9,21.9 16.3,18.3 12.7,21.9 11.4,21.9 11.4,20.6 15,17 11.4,13.4 11.4,12.1 12.7,12.1 16.3,15.7 
	19.9,12.1 21.2,12.1 21.2,13.4 17.6,17 21.2,20.6 21.2,21.9 "/>
<g>
	<path class="st1" d="M14.3,17H3V3h7v7h7v4.3l2-2V7l-6-6H3C1.9,1,1,1.9,1,3v14c0,1.1,0.9,2,2,2h9.3L14.3,17z M12,2.5L17.5,8H12V2.5z
		"/>
</g>
</svg>
