<?xml version="1.0" encoding="utf-8"?>
<!-- Generator: Adobe Illustrator 21.0.0, SVG Export Plug-In . SVG Version: 6.00 Build 0)  -->
<svg version="1.1" id="Layer_1" xmlns="http://www.w3.org/2000/svg" xmlns:xlink="http://www.w3.org/1999/xlink" x="0px" y="0px"
	 viewBox="0 0 55.2 57.7" style="enable-background:new 0 0 55.2 57.7;" xml:space="preserve">
<style type="text/css">
	.st0{fill:#F0F4F6;}
	.st1{fill:#B4C7D4;}
</style>
<g id="Slices">
</g>
<g>
	<g>
		<path class="st0" d="M4.3,1.8c-1,0-2.5,0.8-2.5,2v48.9c0,1,1.5,2.5,2.5,2.5c1,0,2.5-1.5,2.5-2.5V3.9C6.8,2.6,5.3,1.8,4.3,1.8z
			 M46.3,5.7C41.4,7.2,32.5,9,27.2,4.4C21.3-0.7,13.4,2.1,9.9,3.6C9.4,3.9,9.4,4.9,9.4,5.9v20.9c0,2,1.3,3.3,3.1,2.5
			c3.1-1.3,8.1-1.8,15,2.5c0.8,0.5,1.6,1,2.4,1.4v-2H35l3.7,3.7c4.8-0.4,8.5-2.6,10.1-3.8c0.8-0.5,1-1.3,1-2.3V8.2
			C49.8,6.4,48.1,4.9,46.3,5.7z"/>
	</g>
</g>
<path class="st1" d="M44.6,43.8l8.3,8.3v2.3h-2.3l-8.3-8.3L34,54.4h-2.1v-2.3l8.3-8.3l-8.3-8.3v-2.3h2.3l8.3,8.3l8.3-8.3h2.3v2.3
	L44.6,43.8z"/>
</svg>
