<?xml version="1.0" encoding="utf-8"?>
<!-- Generator: Adobe Illustrator 25.1.0, SVG Export Plug-In . SVG Version: 6.00 Build 0)  -->
<svg version="1.1" id="Layer_1" xmlns="http://www.w3.org/2000/svg" xmlns:xlink="http://www.w3.org/1999/xlink" x="0px" y="0px"
	 viewBox="0 0 72.9 64.6" style="enable-background:new 0 0 72.9 64.6;" xml:space="preserve">
<style type="text/css">
	.st0{fill:#B4C7D4;}
	.st1{fill:none;}
	.st2{fill:#F0F4F6;}
	.st3{fill:#FFFFFF;}
</style>
<g id="Slices">
</g>
<polygon class="st0" points="64.3,35.3 48.1,52.2 38.1,41.5 34.5,45.1 48.1,58.2 68,38.8 "/>
<g>
	<path class="st1" d="M33.3,43.8c-1.8-0.8-3.2-2.1-3.3-4.4h4.2c0.1,1,0.4,1.8,1.1,2.3l2.8-2.8l3,3.3c1.9-0.6,2.3-1.9,2.3-2.7
		c0-1.5-0.8-3-5.2-4c-4.8-1.1-8-3-8-6.9c0-3.3,3.4-5,6.7-5.7v-4.2h4.2v4c3.7,0.8,5.5,2.6,5.6,5.5h-4.2c-0.1-2.1-0.7-3-3.8-3
		c-2.9,0-4.6,1.4-4.6,3.2c0,1.7,1.3,2.6,5.2,3.7c3.9,1,8,2.6,8,7.3c0,2.7-1.7,4.2-4.1,5l4.8,5.1l9.5-9.9V14.5c0-3.4-2-6.4-4.8-6.4
		h-3.6l0.3,1c0.4,0.8-0.4,1.8-1.7,1.8h-19c-1.2,0-2.1-1-1.7-1.8l0.4-1h-3.7c-2.8,0-4.7,3.1-4.7,6.6v35c0,3.4,1.9,6.3,4.7,6.3h18.9
		L31.7,45.4L33.3,43.8z"/>
	<path class="st1" d="M57.1,52.5l-3.4,3.3C55.3,55.4,56.5,54.2,57.1,52.5z"/>
	<path class="st2" d="M57.1,52.5c-0.6,1.7-1.8,2.9-3.4,3.3L49.4,60H53c4.8,0,8.8-4.6,8.8-10.5V48L57.1,52.5z"/>
	<path class="st2" d="M23.7,55.9c-2.8,0-4.7-2.9-4.7-6.3v-35c0-3.4,1.9-6.6,4.7-6.6h3.7L27,9c-0.4,0.8,0.5,1.8,1.7,1.8h19
		c1.3,0,2.1-1,1.7-1.8l-0.3-1h3.6c2.8,0,4.8,3,4.8,6.4v25.2l4.1-4.3V14.5c-0.1-5.9-4-10.5-8.9-10.5h-5.1l-0.7-1.8
		c-0.3-0.5-0.9-1-1.7-1h-14c-0.8,0-1.5,0.4-1.7,1l-0.8,1.8h-5.2c-4.8,0-8.6,4.6-8.6,10.5v35c0,5.7,3.9,10.5,8.8,10.5h23l-4.3-4.1
		H23.7z"/>
	<path class="st2" d="M34.2,39.4H30c0.1,2.3,1.5,3.6,3.3,4.4l2.1-2.1C34.6,41.2,34.3,40.4,34.2,39.4z"/>
	<path class="st2" d="M47.4,39.4c0-4.7-4.1-6.4-8-7.3c-3.9-1.1-5.2-2.1-5.2-3.7c0-1.8,1.7-3.2,4.6-3.2c3.1,0,3.7,1,3.8,3h4.2
		c-0.1-2.9-2-4.7-5.6-5.5v-4H37v4.2c-3.4,0.7-6.7,2.4-6.7,5.7c0,3.9,3.2,5.8,8,6.9c4.4,1,5.2,2.5,5.2,4c0,0.8-0.5,2.1-2.3,2.7
		l2.2,2.3C45.7,43.6,47.4,42.1,47.4,39.4z"/>
	<polygon class="st3" points="48.1,61.2 49.4,60 46.8,60 	"/>
</g>
</svg>
