<?xml version="1.0" encoding="UTF-8"?>
<svg width="33px" height="29px" viewBox="0 0 33 29" version="1.1" xmlns="http://www.w3.org/2000/svg" xmlns:xlink="http://www.w3.org/1999/xlink">
    <title>Combined Shape</title>
    <g id="Layout" stroke="none" stroke-width="1" fill="none" fill-rule="evenodd">
        <g id="Orders-Done-Copy" transform="translate(-1457.000000, -116.000000)" fill="#008899">
            <g id="Primary-Toolbar---Cockpit" transform="translate(32.000000, 96.000000)">
                <g id="Done-Copy" transform="translate(1395.000000, 0.000000)">
                    <g id="Target" transform="translate(30.000000, 20.000000)">
                        <g id="Group-13">
                            <path d="M21.1120599,4.22222222 C27.672158,4.22222222 33.0003194,9.75895938 33.0003194,16.5740741 C33.0003194,23.3891888 27.672158,28.9259259 21.1120599,28.9259259 C16.9683995,28.9259259 13.3507189,26.6938382 11.2272673,23.3471559 C11.2105252,23.3471559 11.1993639,23.3558524 11.1826218,23.3558524 L11.1826218,23.3558524 L5.30476277,23.3558524 C4.72716162,23.3558524 4.25838387,22.8688514 4.25838387,22.2687967 C4.25838387,21.6687419 4.72716162,21.1817409 5.30476277,21.1817409 L5.30476277,21.1817409 L11.1826218,21.1817409 C11.1979687,21.1817409 11.2091301,21.1904374 11.2230818,21.1904374 L11.2230818,21.1904374 L12.6377861,21.1904374 C14.2227013,24.3646401 17.3939269,26.5126622 21.1120599,26.5126622 C26.3062848,26.5126622 30.6773582,22.1108112 30.6773582,16.5740741 C30.6773582,11.0373369 26.4416164,6.63693534 21.1120599,6.63693534 C18.0970935,6.63693534 15.4337105,8.04575956 13.6869553,10.2706003 L13.6869553,10.2706003 L13.1735321,10.2706003 C13.1665562,10.2706003 13.1609755,10.2749485 13.1553948,10.2749485 L13.1553948,10.2749485 L6.93850901,10.2749485 C6.36090786,10.2749485 5.89213012,9.78794753 5.89213012,9.18789277 C5.89213012,8.58783801 6.36090786,8.10083705 6.93850901,8.10083705 L6.93850901,8.10083705 L12.5066399,8.10083705 C14.6719466,5.72235912 17.7162116,4.22222222 21.1120599,4.22222222 Z M1.94327419,21.2745086 C2.60433871,21.2745086 3.14085484,21.7556938 3.14085484,22.3485827 C3.14085484,22.9414716 2.60433871,23.4226568 1.94327419,23.4226568 L1.19758065,23.4226568 C0.536516129,23.4226568 0,22.9414716 0,22.3485827 C0,21.7556938 0.536516129,21.2745086 1.19758065,21.2745086 L1.94327419,21.2745086 Z M21.2478178,10.6666667 L21.2478178,16.3362793 L26.6132226,19.6165225 L25.5708793,21.4074074 L19.1616097,17.6779201 L19.1616097,10.6666667 L21.2478178,10.6666667 Z M11.4135059,17.1111111 C11.4291857,17.8535066 11.5375189,18.5704969 11.7099968,19.2592593 L11.7099968,19.2592593 L7.45649366,19.2592593 C6.86636286,19.2592593 6.38741613,18.7779725 6.38741613,18.1851852 C6.38741613,17.5909865 6.86636286,17.1111111 7.45649366,17.1111111 L7.45649366,17.1111111 Z M11.7099968,12.8148148 C11.4098775,13.4915312 11.1893247,14.2123195 11.0441507,14.962963 L11.0441507,14.962963 L8.68786536,14.962963 C8.68786536,14.9601196 8.68926126,14.9586979 8.68926126,14.9558546 L8.68926126,14.9558546 L2.11176323,14.9558546 C1.53385911,14.9558546 1.06483548,14.4753291 1.06483548,13.8853347 C1.06483548,13.2939187 1.53385911,12.8148148 2.11176323,12.8148148 L2.11176323,12.8148148 Z M24.7796015,0 C26.0348197,0 27.0096774,1.11307223 27.0096774,2.54625427 C27.0096774,3.18322407 26.8702087,3.81856895 26.4518027,4.2962963 C24.7796015,3.34246652 23.1059772,2.86473917 21.1548387,2.86473917 C19.2037002,2.86473917 17.3906072,3.34246652 15.8578748,4.2962963 C15.4394687,3.81856895 15.3,3.18322407 15.3,2.54625427 C15.3,1.2739396 16.2762808,0.157617527 17.3906072,0 L17.3906072,0 Z" id="Combined-Shape"></path>
                        </g>
                    </g>
                </g>
            </g>
        </g>
    </g>
</svg>