<?xml version="1.0" encoding="utf-8"?>
<!-- Generator: Adobe Illustrator 23.1.1, SVG Export Plug-In . SVG Version: 6.00 Build 0)  -->
<svg version="1.1" id="Layer_1" xmlns="http://www.w3.org/2000/svg" xmlns:xlink="http://www.w3.org/1999/xlink" x="0px" y="0px"
	 viewBox="0 0 24 24" style="enable-background:new 0 0 24 24;" xml:space="preserve">
<style type="text/css">
	.st0{fill:#FFFFFF;}
</style>
<g id="Slices">
</g>
<path class="st0" d="M23.4,21.7l-2.6-2.6c-0.4-0.4-0.9-0.4-1.3-0.1c1-1.1,1.5-2.5,1.5-4c0-3.3-2.7-6-6-6s-6,2.7-6,6s2.7,6,6,6
	c1.4,0,2.7-0.5,3.8-1.3c-0.3,0.4-0.3,1.1,0,1.4l2.6,2.6c0.4,0.4,1.1,0.4,1.5,0l0.5-0.5C23.8,22.8,23.8,22.1,23.4,21.7z M15,19
	c-2.2,0-4-1.8-4-4s1.8-4,4-4s4,1.8,4,4C19,17.3,17.2,19,15,19z"/>
<g>
	<g>
		<path class="st0" d="M3,4h18c0.5,0,1-0.7,1-1.2V1.9C22,1.4,21.5,1,21,1H3C2.5,1,2,1.4,2,1.9v0.9C2,3.3,2.5,4,3,4z M23.9,11.1
			L22,6.6V6c0-0.5-0.1-1-0.6-1H3C2.5,5,2,5.5,2,6v0.6l-2,4.5c0,0,0,0.9,0.9,0.9c0,0,0,0,0.1,0v11.1C1,23.6,1.5,24,2,24h13v-2
			c-1.3,0-2.5-0.4-3.6-1H4v-6h4c0-1,0.2-1.9,0.5-2.7c-0.2,0.1-0.4,0.2-0.6,0.2c-0.7,0-1.3-0.6-1.3-1.3v-0.1l0.6-3.7h2.3l-0.3,3.7
			c0.5-0.7,1.1-1.3,1.7-1.8L11,7.4h2.3l0,0.8C13.8,8.1,14.4,8,14.9,8l0-0.6h2.3l0.2,1C18,8.6,18.6,9,19.1,9.3l-0.4-1.8H21l1.1,3.6
			c0,0.5-0.3,0.9-0.6,1.2C21.8,13.1,22,14,22,15c0,1.1-0.3,2.2-0.8,3.2c0.1,0.1,0.2,0.1,0.3,0.2l1.5,1.5V12
			C24,12,23.9,11.1,23.9,11.1z M4.8,11.2C4.8,11.2,4.8,11.2,4.8,11.2c0,0.8-0.6,1.4-1.3,1.4c-0.7-0.1-1.3-0.7-1.3-1.4l1.1-3.7h2.3
			L4.8,11.2z M19,24h1.3L19,22.7V24z"/>
	</g>
</g>
</svg>
