<?xml version="1.0" encoding="utf-8"?>
<!-- Generator: Adobe Illustrator 23.0.1, SVG Export Plug-In . SVG Version: 6.00 Build 0)  -->
<svg version="1.1" id="Layer_1" xmlns="http://www.w3.org/2000/svg" xmlns:xlink="http://www.w3.org/1999/xlink" x="0px" y="0px"
	 viewBox="0 0 24 24" style="enable-background:new 0 0 24 24;" xml:space="preserve">
<style type="text/css">
	.st0{fill:#90C2C9;}
</style>
<path class="st0" d="M12,1.2C6,1.2,1.2,6,1.2,12S6,22.8,12,22.8S22.8,18,22.8,12S18,1.2,12,1.2z M20.1,12c0,1.8-0.6,3.4-1.5,4.7
	L7.3,5.4c1.3-0.9,2.9-1.5,4.7-1.5C16.5,3.9,20.1,7.5,20.1,12z M3.9,12c0-1.8,0.6-3.4,1.5-4.7l11.3,11.3c-1.3,0.9-2.9,1.5-4.7,1.5
	C7.5,20.1,3.9,16.5,3.9,12z"/>
</svg>
