<?xml version="1.0" encoding="utf-8"?>
<!-- Generator: Adobe Illustrator 19.0.1, SVG Export Plug-In . SVG Version: 6.00 Build 0)  -->
<svg version="1.1" xmlns="http://www.w3.org/2000/svg" xmlns:xlink="http://www.w3.org/1999/xlink" x="0px" y="0px"
	 viewBox="0 0 24 24" style="enable-background:new 0 0 24 24;" xml:space="preserve">
<style type="text/css">
	.st0{fill:#788994;}
	.st1{fill:none;}
</style>
<g id="Slices">
</g>
<g id="Icons">
	<g id="Relations">
	</g>
	<g id="DeliveryItem">
	</g>
	<g id="Expand">
	</g>
	<g id="Fridge">
		<path class="st0" d="M17,1.1L17,1.1L7,1C5.6,1,4,2.6,4,4v16c0,1.4,0.6,3,2,3c0,0.5,0.5,1,1,1h1c0.5,0,1-0.5,1-1h6c0,0.5,0.5,1,1,1
			h1c0.5,0,1-0.5,1-1v-0.2c1.1-0.5,2-1.7,2-2.8V3.6C20,2.2,18.4,1.1,17,1.1z M18,20c0,0.5-0.6,1-1.1,1H7c-0.5,0-1-0.5-1-1V4
			c0-0.5,0.5-1,1-1h9h1c0.5,0,1,0.5,1,1V20z"/>
		<path class="st0" d="M8,5v5H7.5C7.2,10,7,10.2,7,10.5v3C7,13.8,7.2,14,7.5,14H8v5h8V5H8z M15,17H9v-1h6V17z M15,14H9v-0.5V13h6V14
			z M15,11H9v-0.5V10h6V11z M15,8H9V7h6V8z"/>
	</g>
	<g id="Promotion_1_">
	</g>
	<g id="Day">
	</g>
	<g id="Contract">
	</g>
	<g id="Questionaire">
	</g>
	<g id="Open_Hours">
	</g>
	<g id="Invoice">
	</g>
	<g id="Ebene_23">
	</g>
	<g id="Back">
	</g>
	<g id="Order">
	</g>
	<g id="List">
	</g>
	<g id="Foward">
	</g>
	<g id="Attachment">
	</g>
	<g id="Focus">
	</g>
</g>
</svg>
