<?xml version="1.0" encoding="utf-8"?>
<!-- Generator: Adobe Illustrator 19.0.1, SVG Export Plug-In . SVG Version: 6.00 Build 0)  -->
<svg version="1.1" xmlns="http://www.w3.org/2000/svg" xmlns:xlink="http://www.w3.org/1999/xlink" x="0px" y="0px"
	 viewBox="0 0 24 24" style="enable-background:new 0 0 24 24;" xml:space="preserve">
<style type="text/css">
	.st0{fill:#788994;}
	.st1{fill:none;stroke:#788994;stroke-linecap:round;stroke-linejoin:round;stroke-miterlimit:10;}
	.st2{fill:none;}
</style>
<g id="Slices">
</g>
<g id="Icons">
	<g id="Image">
		<path class="st0" d="M12,1C5.9,1,1,5.9,1,12c0,6.1,4.9,11,11,11c6.1,0,11-4.9,11-11C23,5.9,18.1,1,12,1z M14.3,19
			c-0.6,0.2-1-0.1-1.4,0c-0.3,0.1-0.7,0-1.2,0c-0.7,0-1.4-0.4-1.8-0.8c-0.4-0.3-0.4-0.8-0.4-1.3c0-0.2,0-0.4,0-0.6
			c0-0.2,0.1-0.4,0.1-0.7l0.7-2.5c0.1-0.2,0.1-0.5,0.2-0.7c0-0.2,0.1-0.4,0.1-0.6c0-0.3-0.1-0.5-0.2-0.7c-0.1-0.1-0.4-0.2-0.8-0.2
			c-0.2,0-0.4,0-0.6,0.1c-0.2,0.1-0.4,0.1-0.5,0.2l0.2-0.8c0.5-0.2,0.9-0.4,1.3-0.5c0.4-0.1,0.8-0.2,1.2-0.2c0.7,0,1.2,0.2,1.6,0.5
			c0.4,0.3,0.6,0.8,0.6,1.3c0,0.1,0,0.3,0,0.6c0,0.3-0.1,0.5-0.1,0.8l-0.7,2.5c-0.1,0.2-0.1,0.4-0.2,0.7c0,0.3-0.1,0.5-0.1,0.6
			c0,0.3,0.1,0.6,0.2,0.7c0.1,0.1,0.4,0.2,0.8,0.2c0.2,0,0.4,0,0.6-0.1c0.2-0.1,0.4-0.1,0.5-0.2L14.3,19z M14.2,7.2
			c-0.3,0.3-0.7,0.5-1.2,0.5c-0.5,0-0.9-0.2-1.2-0.5c-0.3-0.3-0.5-0.7-0.5-1.1c0-0.4,0.2-0.8,0.5-1.1c0.3-0.3,0.7-0.5,1.2-0.5
			c0.5,0,0.9,0.2,1.2,0.5c0.3,0.3,0.5,1.4,0.5,1.8C14.7,7.2,14.5,6.9,14.2,7.2z"/>
	</g>
	<g id="Address">
	</g>
	<g id="Main">
	</g>
	<g id="Map">
	</g>
	<g id="Holiday">
	</g>
	<g id="Login">
	</g>
	<g id="Logout">
	</g>
	<g id="Month">
	</g>
	<g id="Stocktaking">
	</g>
	<g id="Edit">
	</g>
	<g id="Shelf">
	</g>
	<g id="Order_Basekt">
	</g>
	<g id="Call">
	</g>
	<g id="Select_All">
	</g>
	<g id="Multi_Select">
	</g>
	<g id="Terms">
	</g>
</g>
</svg>
