<?xml version="1.0" encoding="utf-8"?>
<!-- Generator: Adobe Illustrator 21.1.0, SVG Export Plug-In . SVG Version: 6.00 Build 0)  -->
<svg version="1.1" id="Layer_1" xmlns="http://www.w3.org/2000/svg" xmlns:xlink="http://www.w3.org/1999/xlink" x="0px" y="0px"
	 viewBox="0 0 52 52" style="enable-background:new 0 0 52 52;" xml:space="preserve">
<style type="text/css">
	.st0{fill:#788994;}
</style>
<path class="st0" d="M24.1,2.7C16.5,3.5,10.5,9.4,9.7,17c-0.4,5.2,1.7,10.3,5.8,13.6c1.2,0.9,1.9,2.4,1.9,3.9l0,0c0,2.2,1.8,4,4,4
	c0,0,0.1,0,0.1,0h9c2.2,0,4-1.8,4-4l0,0c0-1.5,0.7-3,1.9-3.9c3.7-3,5.9-7.5,5.9-12.2C42.4,9.1,34,1.7,24.1,2.7z M33,43.2H19
	c-0.8,0-1.5,0.7-1.6,1.5c0,2.6,2.1,4.7,4.7,4.7h7.8c2.6,0,4.7-2.1,4.7-4.7l0,0C34.5,43.9,33.8,43.2,33,43.2z"/>
</svg>
