<?xml version="1.0" encoding="utf-8"?>
<!-- Generator: Adobe Illustrator 20.1.0, SVG Export Plug-In . SVG Version: 6.00 Build 0)  -->
<svg version="1.1" id="Layer_1" xmlns="http://www.w3.org/2000/svg" xmlns:xlink="http://www.w3.org/1999/xlink" x="0px" y="0px"
	 viewBox="0 0 24 24" style="enable-background:new 0 0 24 24;" xml:space="preserve">
<style type="text/css">
	.st0{fill:#788994;}
</style>
<path class="st0" d="M12,17c1.1,0,2-0.9,2-2c0-1.1-0.9-2-2-2c-1.1,0-2,0.9-2,2S10.9,17,12,17 M18,8c1.1,0,2,0.9,2,2v10
	c0,1.1-0.9,2-2,2H6c-1.1,0-2-0.9-2-2V10c0-1.1,0.9-2,2-2h1V6c0-2.8,2.2-5,5-5s5,2.2,5,5v2H18 M12,3c-1.7,0-3,1.3-3,3v2h6V6
	C15,4.3,13.7,3,12,3z"/>
</svg>
