<?xml version="1.0" encoding="utf-8"?>
<!-- Generator: Adobe Illustrator 22.1.0, SVG Export Plug-In . SVG Version: 6.00 Build 0)  -->
<svg version="1.1" id="Layer_1" xmlns="http://www.w3.org/2000/svg" xmlns:xlink="http://www.w3.org/1999/xlink" x="0px" y="0px"
	 viewBox="0 0 24 24" style="enable-background:new 0 0 24 24;" xml:space="preserve">
<style type="text/css">
	.st0{fill:#788994;}
</style>
<g id="Slices">
</g>
<g id="Icons">
	<g id="Image">
	</g>
	<g id="Address">
	</g>
	<g id="Main">
	</g>
	<g id="Map">
	</g>
	<g id="Holiday">
	</g>
	<g id="Login">
	</g>
	<g id="Logout">
		<g>
			<path class="st0" d="M17.2,18c0,0-1.2,0.1-1.2-1c0-0.2,0-0.9,0-2h-5c-0.5,0-1-0.5-1-1v-3c0-0.5,0.5-1,1-1h5c0-1,0-1.7,0-2
				c0-1.1,1.2-0.8,1.2-0.8l5.8,5.2L17.2,18z"/>
		</g>
		<path class="st0" d="M3.6,1.1h12c1.4,0,2.5,1.6,2.5,3V5h-2V4.2C16,3.7,15.5,3,15,3H4C3.5,3,3,3.7,3,4.2v17c0,0.5,0.5,1,1,1h11
			c0.5,0,1-0.2,1-0.7V20h2v1.4c0,1.4-1.1,2.6-2.5,2.6h-12C2.1,24,1,22.9,1,21.4L1.1,4.2C1.1,2.7,2.1,1.1,3.6,1.1z"/>
	</g>
	<g id="Month">
	</g>
	<g id="Stocktaking">
	</g>
	<g id="Edit">
	</g>
	<g id="Shelf">
	</g>
	<g id="Order_Basekt">
	</g>
	<g id="Call">
	</g>
	<g id="Select_All">
	</g>
	<g id="Multi_Select">
	</g>
	<g id="Terms">
	</g>
</g>
</svg>
