<?xml version="1.0" encoding="utf-8"?>
<!-- Generator: Adobe Illustrator 21.1.0, SVG Export Plug-In . SVG Version: 6.00 Build 0)  -->
<svg version="1.1" id="Layer_1" xmlns="http://www.w3.org/2000/svg" xmlns:xlink="http://www.w3.org/1999/xlink" x="0px" y="0px"
	 viewBox="0 0 24 24" style="enable-background:new 0 0 24 24;" xml:space="preserve">
<style type="text/css">
	.st0{fill:#788994;}
</style>
<g id="Slices">
</g>
<path class="st0" d="M22.8,8.1L12,0.3L1.2,8.1L0.3,8.7l0.4,0.8C1,10,1.4,10.6,1.8,11v10.7c0,1.1,0.9,2,2,2h16.4c1.1,0,2-0.9,2-2V11
	c0.4-0.4,0.8-1,1.1-1.5l0.4-0.8L22.8,8.1z M20.2,13.5v8.3h-4.4v-4.5c0-0.8-0.7-1.5-1.5-1.5H9.7c-0.8,0-1.5,0.7-1.5,1.5v4.5H3.8v-8.3
	h0V8.7l0,0L12,2.8l8.2,5.9l0,0L20.2,13.5L20.2,13.5z"/>
</svg>
