<?xml version="1.0" encoding="utf-8"?>
<!-- Generator: Adobe Illustrator 19.2.1, SVG Export Plug-In . SVG Version: 6.00 Build 0)  -->
<svg version="1.1" id="Icons" xmlns="http://www.w3.org/2000/svg" xmlns:xlink="http://www.w3.org/1999/xlink" x="0px" y="0px"
	 viewBox="0 0 48 48" style="enable-background:new 0 0 48 48;" xml:space="preserve">
<style type="text/css">
	.st0{fill:#008899;}
</style>
<title>MenuClipboardTruck</title>
<path class="st0" d="M44.4,30.5l-3.1-4.1c-0.6-0.8-0.8-1.4-1.8-1.4h-5.6c-0.8,0-2.4,0.2-2.4,1v14c0.2,1,1,1.8,2,2
	c0.3-2.4,1.8-4.7,4.3-4.7s4.4,2.3,4.7,4.7h2c0.8,0,1-1.1,1-1.9v-6.9C45.4,32.2,45,31.3,44.4,30.5z M35.5,34v-7h3.6
	c0.5,0.3,0.9,0.6,1.3,1l2.2,4c0.3,0.4-1.1,1.6-1.1,1.9L35.5,34L35.5,34z"/>
<ellipse class="st0" cx="20.9" cy="42.9" rx="3" ry="3"/>
<ellipse class="st0" cx="37.7" cy="43" rx="3" ry="3"/>
<path class="st0" d="M9.5,32h-2c-1.6,0-3-2.1-3-4V9c0-1.6,1.2-3,2.8-3c0.1,0,0.1,0,0.2,0h16c1.6,0,3,1.2,3,2.8c0,0.1,0,0.1,0,0.2v11
	h2V9c0.1-2.6-1.9-4.9-4.6-5c-0.1,0-0.3,0-0.4,0h-16c-2.8,0-5,2.2-5,5c0,0.1,0,0.1,0,0.2v19.1c0,3.2,2.2,5.7,4.9,5.7h2.1V32z"/>
<path class="st0" d="M11.5,23.6v16.5c0.1,1.1,0.9,1.9,2,1.9h2c0.6-2.6,2.8-4.6,5.5-4.7c2.5,0,4.2,2.4,4.5,4.7h2.8
	c1.1,0,2.1-0.9,2.2-2V23.5c-0.2-0.9-1-1.6-2-1.5h-15C12.5,22,11.7,22.7,11.5,23.6z"/>
<path class="st0" d="M44.4,30.5l-3.1-4.1c-0.6-0.8-0.8-1.4-1.8-1.4h-5.6c-0.8,0-1.7,0.3-1.7,1l-0.3,14.1c0.1,0.9,0.8,1.7,1.7,1.9
	c0.4-2.4,2.5-4.1,4.9-4c2.5,0,3.3,1.7,3.6,4h2c0.8,0,1.4-1.1,1.4-1.9v-6.9C45.4,32.2,45,31.3,44.4,30.5z M35.5,34v-7h3.6
	c0.5,0.3,0.9,0.6,1.3,1l2.2,4c0.3,0.4-1.1,1.6-1.1,1.9L35.5,34L35.5,34z"/>
<ellipse class="st0" cx="20.9" cy="42.9" rx="3" ry="3"/>
<ellipse class="st0" cx="37.7" cy="43" rx="3" ry="3"/>
<path class="st0" d="M11.5,23.6v16.5c0.1,1.1,0.9,1.9,2,1.9h3c0.3-2.4,1.5-4,4-4c2.3-0.1,4.4,1.7,4.6,4h3.2c1.1,0,2.1-0.9,2.2-2
	V23.5c-0.2-0.9-1-1.6-2-1.5h-15C12.5,22,11.7,22.7,11.5,23.6z"/>
<path class="st0" d="M20.5,7h-10C9.8,7,9,6.7,9.3,6.2l1.4-3.7c0.2-0.3,0.6-0.5,1-0.5h7.9c0.4,0,0.8,0.2,1,0.5l1.4,3.7
	C22,6.7,21.2,7,20.5,7z"/>
</svg>
