<?xml version="1.0" encoding="utf-8"?>
<!-- Generator: Adobe Illustrator 19.0.1, SVG Export Plug-In . SVG Version: 6.00 Build 0)  -->
<svg version="1.1" xmlns="http://www.w3.org/2000/svg" xmlns:xlink="http://www.w3.org/1999/xlink" x="0px" y="0px"
	 viewBox="0 0 48 48" style="enable-background:new 0 0 48 48;" xml:space="preserve">
<style type="text/css">
	.st0{fill:#008899;}
</style>
<g id="Slices">
</g>
<g id="Icons">
	<g id="Inventory">
	</g>
	<g id="Contracts">
	</g>
	<g id="Products">
		<path class="st0" d="M17.1,24.4c-2.7,0-5-2.2-5-5s2.2-5,5-5s5,2.2,5,5S19.9,24.4,17.1,24.4z M17.1,16.4c-1.6,0-3,1.3-3,3
			c0,1.6,1.3,3,3,3c1.6,0,3-1.3,3-3C20.1,17.8,18.8,16.4,17.1,16.4z"/>
		<path class="st0" d="M27.9,26c-2.2,3.6-6.2,6-10.8,6c-7,0-12.6-5.7-12.6-12.6S10.2,6.8,17.1,6.8c6.2,0,11.4,4.5,12.4,10.4
			c0.7-1.2,1.6-2.3,2.2-3.1C29.6,8,23.9,3.8,17.1,3.8c-8.6,0-15.6,7-15.6,15.6c0,8.6,7,15.6,15.6,15.6c4.2,0,7.9-1.6,10.8-4.3V26z"
			/>
		<path class="st0" d="M41.5,13.9l-1.1-6.2c-0.1-0.7,0.7-2.4,0-2.4h-2.3h-2.3c-0.7,0,0.1,1.5,0,2.3l-1.1,6.4c0,0.3-0.1,0.5-0.3,0.7
			c-1,1.2-4.3,5.3-4.3,7.6v21.1c0,0.8,0.7,1.5,1.5,1.5h6.4h6.4c0.8,0,1.5-0.7,1.5-1.5V22.2c0-2.3-3.3-6.4-4.3-7.6
			C41.6,14.4,41.5,14.2,41.5,13.9z"/>
	</g>
	<g id="Promotions">
	</g>
	<g id="Trip_List">
	</g>
	<g id="Reporting">
	</g>
	<g id="Payments">
	</g>
</g>
</svg>
