<?xml version="1.0" encoding="utf-8"?>
<!-- Generator: Adobe Illustrator 19.0.1, SVG Export Plug-In . SVG Version: 6.00 Build 0)  -->
<svg version="1.1" xmlns="http://www.w3.org/2000/svg" xmlns:xlink="http://www.w3.org/1999/xlink" x="0px" y="0px"
	 viewBox="0 0 48 48" style="enable-background:new 0 0 48 48;" xml:space="preserve">
<style type="text/css">
	.st0{fill-rule:evenodd;clip-rule:evenodd;fill:#008899;}
	.st1{fill:#008899;}
	.st2{fill:none;}
</style>
<g id="Slices">
</g>
<g id="Icons">
	<g id="Agenda">
	</g>
	<g id="Order">
	</g>
	<g id="Clipboard">
	</g>
	<g id="Track_Activities">
	</g>
	<g id="Todo">
	</g>
	<g id="Massages">
	</g>
	<g id="About_1_">
		<path class="st1" d="M24.3,2C12,2,2,12,2,24.3c0,12.3,10,22.3,22.3,22.3c12.3,0,22.3-10,22.3-22.3C46.6,12,36.6,2,24.3,2z
			 M29,36.6c-1.1,0.5-2.1,0.8-2.7,1c-0.7,0.2-1.5,0.4-2.4,0.4c-1.4,0-2.5-0.3-3.2-1c-0.8-0.7-1.2-1.5-1.2-2.6c0-0.4,0-0.8,0.1-1.2
			c0.1-0.4,0.2-0.9,0.3-1.4l1.4-5.1c0.1-0.5,0.2-0.9,0.3-1.4c0.1-0.4,0.1-0.8,0.1-1.2c0-0.6-0.1-1.1-0.4-1.4
			c-0.3-0.3-0.8-0.4-1.5-0.4c-0.4,0-0.8,0.1-1.1,0.2c-0.4,0.1-0.7,0.2-1,0.3l0.4-1.6c0.9-0.4,1.8-0.7,2.7-1c0.9-0.3,1.7-0.4,2.4-0.4
			c1.4,0,2.4,0.3,3.2,1c0.7,0.7,1.1,1.5,1.1,2.6c0,0.2,0,0.6-0.1,1.2c-0.1,0.6-0.1,1.1-0.3,1.5l-1.4,5.1c-0.1,0.4-0.2,0.9-0.3,1.4
			c-0.1,0.5-0.1,0.9-0.1,1.2c0,0.7,0.1,1.1,0.5,1.4c0.3,0.2,0.8,0.4,1.6,0.4c0.4,0,0.7-0.1,1.2-0.2c0.4-0.1,0.8-0.2,1-0.3L29,36.6z
			 M28.7,16C28,16.7,27.2,17,26.3,17c-0.9,0-1.7-0.3-2.4-0.9c-0.7-0.6-1-1.4-1-2.3c0-0.9,0.3-1.6,1-2.3c0.7-0.6,1.5-0.9,2.4-0.9
			c0.9,0,1.7,0.3,2.4,0.9c0.7,0.6,1,1.4,1,2.3C29.7,14.7,29.4,15.4,28.7,16z"/>
	</g>
	<g id="My_Settings">
	</g>
	<g id="Notifications">
	</g>
	<g id="Customer">
	</g>
	<g id="Order_Basekt">
	</g>
	<g id="Logs">
	</g>
	<g id="Tour">
	</g>
	<g id="Daily_Report">
	</g>
	<g id="Issues">
	</g>
	<g id="Synchronize">
	</g>
</g>
</svg>
