<?xml version="1.0" encoding="utf-8"?>
<!-- Generator: Adobe Illustrator 19.0.1, SVG Export Plug-In . SVG Version: 6.00 Build 0)  -->
<svg version="1.1" xmlns="http://www.w3.org/2000/svg" xmlns:xlink="http://www.w3.org/1999/xlink" x="0px" y="0px"
	 viewBox="0 0 48 48" style="enable-background:new 0 0 48 48;" xml:space="preserve">
<style type="text/css">
	.st0{fill-rule:evenodd;clip-rule:evenodd;fill:#008899;}
	.st1{fill:#008899;}
	.st2{fill:none;}
</style>
<g id="Slices">
</g>
<g id="Icons">
	<g id="Agenda">
		<rect x="22" y="22" class="st0" width="4" height="4"/>
		<rect x="22" y="28" class="st0" width="4" height="4"/>
		<rect x="28" y="28" class="st0" width="4" height="4"/>
		<rect x="34" y="28" class="st0" width="4" height="4"/>
		<rect x="16" y="28" class="st0" width="4" height="4"/>
		<rect x="16" y="34" class="st0" width="4" height="4"/>
		<rect x="10" y="28" class="st0" width="4" height="4"/>
		<rect x="10" y="34" class="st0" width="4" height="4"/>
		<rect x="28" y="22" class="st0" width="4" height="4"/>
		<rect x="34" y="22" class="st0" width="4" height="4"/>
		<path class="st1" d="M40.9,5H37v3.8c0,1.9-1,3.4-2.8,3.4c-1.9,0-3.2-1.5-3.2-3.4V5H17v3.8c0,1.9-1.3,3.4-3.2,3.4S11,10.6,11,8.8V5
			H7c-2.8,0-5,2.7-5,5.5v30.5C2,43.7,4.3,46,7.1,46h33.8c2.8,0,5.1-2.3,5.1-5.1V10.5C46,7.7,43.7,5,40.9,5z M43,40.9
			c0,0.9-1.1,2.1-2.1,2.1H7.1C6.1,43,5,41.9,5,40.9V17h38V40.9z"/>
		<path class="st1" d="M33.7,9.9c-0.9,0-1.7-0.8-1.7-1.7V3.7C32,2.8,32.8,2,33.7,2h0.7c0.9,0,1.5,0.8,1.5,1.7v4.5
			c0,0.9-0.7,1.7-1.6,1.7L33.7,9.9z"/>
		<path class="st1" d="M13.8,9.9c-0.9,0-1.7-0.8-1.7-1.7V3.7c0-0.9,0.8-1.7,1.7-1.7h0.7c0.9,0,1.5,0.8,1.5,1.7v4.5
			c0,0.9-0.7,1.7-1.6,1.7L13.8,9.9z"/>
	</g>
	<g id="Order">
	</g>
	<g id="Clipboard">
	</g>
	<g id="Track_Activities">
	</g>
	<g id="Todo">
	</g>
	<g id="Massages">
	</g>
	<g id="About_1_">
	</g>
	<g id="My_Settings">
	</g>
	<g id="Notifications">
	</g>
	<g id="Customer">
	</g>
	<g id="Order_Basekt">
	</g>
	<g id="Logs">
	</g>
	<g id="Tour">
	</g>
	<g id="Daily_Report">
	</g>
	<g id="Issues">
	</g>
	<g id="Synchronize">
	</g>
</g>
</svg>
