<?xml version="1.0" encoding="utf-8"?>
<!-- Generator: Adobe Illustrator 19.2.1, SVG Export Plug-In . SVG Version: 6.00 Build 0)  -->
<svg version="1.1" id="Icons" xmlns="http://www.w3.org/2000/svg" xmlns:xlink="http://www.w3.org/1999/xlink" x="0px" y="0px"
	 viewBox="0 0 48 48" style="enable-background:new 0 0 48 48;" xml:space="preserve">
<style type="text/css">
	.st0{fill:none;}
	.st1{fill:#008899;}
</style>
<title>MenuTruckStart</title>
<g id="Promotions">
	<g id="Icons-2">
		<g id="Start_of_Day">
			<rect x="2.6" y="5" class="st0" width="21.4" height="21.4"/>
			<path class="st1" d="M13.6,6.6c4.8,0,8.6,4.4,8.6,9c0,4.7-3.9,8.6-8.6,8.6c-4.7,0-8.6-3.8-8.6-8.5c0,0,0-0.1,0-0.1
				C5,10.8,9,6.6,13.6,6.6 M13.6,4.6c-6.1,0-11,4.9-11,11s4.9,11,11,11s11-4.9,11-11S19.7,4.6,13.6,4.6L13.6,4.6z"/>
			<path class="st1" d="M44.2,24.8l-3.6-5c-1-0.8-1.4-1.2-2.6-1.2h-6.6c-1,0-2,0.4-2,1.2v16.4c0.1,1.1,0.9,2,2,2.2
				c0.4-2.8,2-5.6,5-5.6s4.6,2.8,5,5.6h2.4c1,0,1.6-1.4,1.6-2.2V28C45.2,26.8,44.8,25.7,44.2,24.8z M33.4,28.6v-8h4.4
				c0.6,0.4,1.1,0.8,1.6,1.2l2.6,4.8c0.4,0.4-0.6,1.6-0.6,2L33.4,28.6L33.4,28.6z"/>
			<circle class="st1" cx="16.4" cy="39.6" r="3.6"/>
			<circle class="st1" cx="36.2" cy="39.8" r="3.6"/>
			<path class="st1" d="M25.6,14.4h-2.2v1c0,5.6-4.6,10.2-10.2,10.2c-2.9,0.1-5.8-1.1-7.8-3.2v13.8c0.2,1.1,1,1.9,2,2.2h4
				c0.4-2.8,2.2-5.6,5.2-5.6s4.4,2.8,4.8,5.6h4c1.1-0.2,1.9-1.1,2-2.2V16.4C27.4,15.3,26.6,14.5,25.6,14.4z"/>
			<polygon class="st1" points="11.4,8.6 11.4,20.6 17.4,14.6 			"/>
		</g>
	</g>
</g>
</svg>
