<?xml version="1.0" encoding="utf-8"?>
<!-- Generator: Adobe Illustrator 19.0.1, SVG Export Plug-In . SVG Version: 6.00 Build 0)  -->
<svg version="1.1" xmlns="http://www.w3.org/2000/svg" xmlns:xlink="http://www.w3.org/1999/xlink" x="0px" y="0px"
	 viewBox="0 0 48 48" style="enable-background:new 0 0 48 48;" xml:space="preserve">
<style type="text/css">
	.st0{fill-rule:evenodd;clip-rule:evenodd;fill:#008899;}
	.st1{fill:#008899;}
	.st2{fill:none;}
</style>
<g id="Slices">
</g>
<g id="Icons">
	<g id="Agenda">
	</g>
	<g id="Order">
		<path class="st1" d="M35.4,5h-3.8l-0.5-1.3C30.9,3.3,30.4,3,29.8,3H19.3c-0.6,0-1.1,0.3-1.3,0.7L17.4,5h-3.9C9.9,5,7,8.4,7,12.7
			v25.6c0,4.2,2.9,7.7,6.6,7.7h21.9c3.6,0,6.6-3.4,6.6-7.7V12.7C42,8.4,39.1,5,35.4,5z M39,38.3c0,2.5-1.4,4.7-3.6,4.7H13.5
			c-2.1,0-3.5-2.1-3.5-4.6V12.8c0-2.5,1.4-4.8,3.5-4.8h2.8l-0.3,0.7c-0.3,0.6,0.4,1.3,1.3,1.3h14.3c1,0,1.6-0.7,1.3-1.3L32.7,8h2.7
			c2.1,0,3.6,2.2,3.6,4.7V38.3z"/>
	</g>
	<g id="Clipboard">
	</g>
	<g id="Track_Activities">
	</g>
	<g id="Todo">
	</g>
	<g id="Massages">
	</g>
	<g id="About_1_">
	</g>
	<g id="My_Settings">
	</g>
	<g id="Notifications">
	</g>
	<g id="Customer">
	</g>
	<g id="Order_Basekt">
	</g>
	<g id="Logs">
	</g>
	<g id="Tour">
	</g>
	<g id="Daily_Report">
	</g>
	<g id="Issues">
	</g>
	<g id="Synchronize">
	</g>
</g>
</svg>
