<?xml version="1.0" encoding="utf-8"?>
<!-- Generator: Adobe Illustrator 24.0.3, SVG Export Plug-In . SVG Version: 6.00 Build 0)  -->
<svg version="1.1" id="Capa_1" xmlns="http://www.w3.org/2000/svg" xmlns:xlink="http://www.w3.org/1999/xlink" x="0px" y="0px"
	 viewBox="0 0 24 24" style="enable-background:new 0 0 24 24;" xml:space="preserve">
<style type="text/css">
	.st0{fill:#90C2C9;}
</style>
<g>
	<g>
		<path class="st0" d="M22.6,8.7L10.3,2.8c-0.1,0-0.3,0-0.3,0.2L7.3,8.5h1.5l2-4.1l10.6,5.1L18.7,15h1.1l2.9-6
			C22.8,8.9,22.7,8.7,22.6,8.7z M16.1,17.9h1.7v-1.6l-1.7-0.8V17.9z"/>
	</g>
</g>
<g>
	<g>
		<path class="st0" d="M4.4,13.1c0.6,0,1-0.4,1-1s-0.4-1-1-1s-1,0.4-1,1C3.4,12.7,3.8,13.1,4.4,13.1z M10.8,12.8
			c0.2,0,0.4,0,0.6-0.1c0.2,0.1,0.5,0.1,0.7,0.1c0.7,0,1.3-0.3,1.3-0.8c0-0.4-0.6-0.8-1.3-0.8c-0.3,0-0.5,0-0.7,0.1
			c-0.1-0.1-0.2-0.1-0.3-0.1h-0.2c-0.2,0-0.4,0.2-0.5,0.4c-0.6,0.1-1,0.3-1,0.5C9.5,12.6,10.1,12.8,10.8,12.8z M15,9.2H1.4
			c-0.2,0-0.3,0.1-0.3,0.3v11.7c0,0.2,0.1,0.3,0.3,0.3H15v-3.6h0.3V9.5C15.3,9.3,15.2,9.2,15,9.2z M14.3,18.2h-1
			c-0.5-1.3-1.1-3.1-2.1-2.8c-1.1,0.3-1.6,2.8-1.6,2.8S9,15.3,7.5,13.8s-3,4.4-3,4.4h-2v-7.7h11.8V18.2z"/>
	</g>
</g>
<path class="st0" d="M23.5,18.9h-2.8V16h-1.9v2.9H16v1.9h2.8v2.9h1.9v-2.9h2.8C23.5,20.8,23.5,18.9,23.5,18.9z"/>
</svg>
