<?xml version="1.0" encoding="utf-8"?>
<!-- Generator: Adobe Illustrator 19.0.1, SVG Export Plug-In . SVG Version: 6.00 Build 0)  -->
<svg version="1.1" xmlns="http://www.w3.org/2000/svg" xmlns:xlink="http://www.w3.org/1999/xlink" x="0px" y="0px"
	 viewBox="0 0 48 48" style="enable-background:new 0 0 48 48;" xml:space="preserve">
<style type="text/css">
	.st0{fill-rule:evenodd;clip-rule:evenodd;fill:#008899;}
	.st1{fill:#008899;}
	.st2{fill:none;}
</style>
<g id="Slices">
</g>
<g id="Icons">
	<g id="Agenda">
	</g>
	<g id="Order">
	</g>
	<g id="Clipboard">
	</g>
	<g id="Track_Activities">
	</g>
	<g id="Todo">
	</g>
	<g id="Massages">
	</g>
	<g id="About_1_">
	</g>
	<g id="My_Settings">
	</g>
	<g id="Notifications">
	</g>
	<g id="Customer">
	</g>
	<g id="Order_Basekt">
	</g>
	<g id="Logs">
	</g>
	<g id="Tour">
	</g>
	<g id="Daily_Report">
	</g>
	<g id="Issues">
	</g>
	<g id="Synchronize">
		<g>
			<path class="st1" d="M22.1,13.1v1.4c0,0.8,0.9,1.3,1.5,0.8l7-4.3c0.6-0.4,0.6-1.3,0-1.7l-7-4.3C23,4.5,22.1,5,22.1,5.8v1.6
				C13.6,8.2,7,15.3,7,24c0,4.2,1.5,8,4.1,10.9c0.4,0.4,1,0.4,1.4,0.1l2.7-2.4c0.4-0.4,0.4-1,0.1-1.4c-1.6-1.9-2.6-4.4-2.6-7.1
				C12.6,18.4,16.7,13.8,22.1,13.1z"/>
			<path class="st1" d="M40.3,24c0-4.2-1.5-7.9-4.1-10.9c-0.4-0.4-1-0.4-1.4-0.1l-2.7,2.4c-0.4,0.4-0.4,1-0.1,1.4
				c1.6,1.9,2.6,4.4,2.6,7.1c0,5.6-4.2,10.2-9.7,10.9v-1.4c0-0.8-0.9-1.3-1.5-0.8L16.7,37c-0.6,0.4-0.6,1.3,0,1.7l6.8,4.3
				c0.7,0.4,1.5-0.1,1.5-0.8v-1.6C33.5,39.9,40.3,32.7,40.3,24z"/>
		</g>
	</g>
</g>
</svg>
