<?xml version="1.0" encoding="utf-8"?>
<!-- Generator: Adobe Illustrator 19.2.1, SVG Export Plug-In . SVG Version: 6.00 Build 0)  -->
<svg version="1.1" id="Icons" xmlns="http://www.w3.org/2000/svg" xmlns:xlink="http://www.w3.org/1999/xlink" x="0px" y="0px"
	 viewBox="0 0 48 48" style="enable-background:new 0 0 48 48;" xml:space="preserve">
<style type="text/css">
	.st0{fill:#008899;}
</style>
<title>MenuTag</title>
<g id="Promotions">
	<path class="st0" d="M10.7,13.8c1.7,0,3.1-1.4,3.1-3.1c0-1.7-1.4-3.1-3.1-3.1C9,7.6,7.6,9,7.6,10.7S9,13.8,10.7,13.8
		C10.7,13.8,10.7,13.8,10.7,13.8 M43.3,23.1c0.8,0.8,1.2,1.8,1.2,2.9c0,1.1-0.4,2.1-1.2,2.9L28.9,43.3c-0.8,0.8-1.8,1.2-2.9,1.2
		c-1.1,0-2.1-0.4-2.9-1.2L4.7,24.8C3.9,24.1,3.5,23,3.5,22V7.6c0-2.3,1.8-4.1,4.1-4.1c0,0,0,0,0,0H22c1.1,0,2.1,0.4,2.9,1.2
		L43.3,23.1 M26,40.4L40.4,26L23,8.6L8.6,23L26,40.4"/>
	<g>
		<path class="st0" d="M17.2,20.8c-0.1-0.9,0.2-1.8,0.7-2.5c0.5-0.6,1.2-0.8,2-0.8c0.8,0,1.5,0.3,2,0.8c1,1.5,1,3.5,0,5
			c-0.5,0.6-1.2,0.8-2,0.8c-0.8,0-1.5-0.3-2-0.8C17.4,22.6,17.1,21.7,17.2,20.8z M19.1,20.8c-0.1,0.6,0,1.1,0.3,1.6
			c0.1,0.2,0.3,0.3,0.6,0.3c0.2,0,0.5-0.1,0.6-0.3c0.2-0.5,0.3-1.1,0.3-1.6c0.1-0.6,0-1.1-0.3-1.6c-0.2-0.3-0.7-0.4-1-0.2
			c-0.1,0-0.1,0.1-0.2,0.2C19.1,19.7,19,20.2,19.1,20.8L19.1,20.8z M21.5,30.5h-1.8l6.9-13h1.7L21.5,30.5z M25.6,27.4
			c-0.1-0.9,0.2-1.8,0.7-2.5c1.1-1.1,2.9-1.1,4,0c1,1.5,1,3.5,0,5c-0.5,0.6-1.2,0.8-2,0.8c-0.8,0-1.5-0.3-2-0.8
			C25.8,29.2,25.5,28.3,25.6,27.4z M27.4,27.4c-0.1,0.6,0,1.1,0.3,1.6c0.1,0.2,0.4,0.3,0.6,0.3c0.2,0,0.5-0.1,0.6-0.3
			c0.2-0.5,0.3-1.1,0.3-1.6c0-0.6,0-1.1-0.3-1.6c-0.1-0.2-0.4-0.3-0.6-0.3c-0.2,0-0.5,0.1-0.6,0.3C27.5,26.2,27.4,26.8,27.4,27.4
			L27.4,27.4z"/>
	</g>
</g>
</svg>
