<?xml version="1.0" encoding="utf-8"?>
<!-- Generator: Adobe Illustrator 19.0.1, SVG Export Plug-In . SVG Version: 6.00 Build 0)  -->
<svg version="1.1" xmlns="http://www.w3.org/2000/svg" xmlns:xlink="http://www.w3.org/1999/xlink" x="0px" y="0px"
	 viewBox="0 0 48 48" style="enable-background:new 0 0 48 48;" xml:space="preserve">
<style type="text/css">
	.st0{fill:#008899;}
</style>
<g id="Slices">
</g>
<g id="Icons">
	<g id="Inventory">
	</g>
	<g id="Contracts">
	</g>
	<g id="Products">
	</g>
	<g id="Promotions">
		<path class="st0" d="M9.8,45H9.2C8.6,45,8,44.4,8,43.8V4.2C8,3.6,8.6,3,9.2,3h0.5C10.4,3,11,3.6,11,4.2v39.5
			C11,44.4,10.4,45,9.8,45z"/>
		<path class="st0" d="M13,22.8c0,1.4,1.5,2.4,2.8,1.8c2.3-1,6-1.3,10.9,1.9c7.1,4.7,13.4,1,15.6-0.6c0.5-0.4,0.8-1,0.8-1.6v-15
			c0-1.3-1.3-2.3-2.6-1.9c-3.6,1.1-10,2.4-13.8-0.9c-4.2-3.7-10-1.7-12.5-0.6c-0.7,0.3-1.2,1-1.2,1.8V22.8z"/>
	</g>
	<g id="Trip_List">
	</g>
	<g id="Reporting">
	</g>
	<g id="Payments">
	</g>
</g>
</svg>
