<?xml version="1.0" encoding="utf-8"?>
<!-- Generator: Adobe Illustrator 21.0.0, SVG Export Plug-In . SVG Version: 6.00 Build 0)  -->
<svg version="1.1" id="Layer_1" xmlns="http://www.w3.org/2000/svg" xmlns:xlink="http://www.w3.org/1999/xlink" x="0px" y="0px"
	 viewBox="0 0 48 48" style="enable-background:new 0 0 48 48;" xml:space="preserve">
<style type="text/css">
	.st0{fill:#551155;}
	.st1{fill:#993399;}
</style>
<g id="Slices">
</g>
<rect x="34" y="33" class="st0" width="2" height="2"/>
<rect x="38" y="33" class="st0" width="2" height="2"/>
<rect x="42" y="33" class="st0" width="2" height="2"/>
<rect x="38" y="37" class="st0" width="2" height="2"/>
<rect x="30" y="37" class="st0" width="2" height="2"/>
<rect x="34" y="41" class="st0" width="2" height="2"/>
<rect x="38" y="41" class="st0" width="2" height="2"/>
<rect x="30" y="41" class="st0" width="2" height="2"/>
<rect x="42" y="37" class="st0" width="2" height="2"/>
<g>
	<path class="st0" d="M45.3,25H44v1.5c0,1-1,1.8-2,1.8s-2-0.8-2-1.8V25h-7v1.5c0,1-1,1.8-2,1.8s-2-0.8-2-1.8V25h-1.4
		c-1.5,0-2.6,1-2.6,2.4v15.9c0,1.5,1.2,2.7,2.7,2.7h17.7c1.5,0,2.7-1.2,2.7-2.7V27.4C48,26,46.8,25,45.3,25z M46,43c0,0.5-0.5,1-1,1
		H28c-0.5,0-1-0.5-1-1V31h19V43z"/>
	<path class="st0" d="M41.9,27.1h0.3c0.5,0,0.8-0.4,0.8-0.9v-2.4c0-0.5-0.3-0.9-0.8-0.9h-0.3c-0.5,0-0.9,0.4-0.9,0.9v2.4
		C41,26.7,41.4,27.1,41.9,27.1z"/>
	<path class="st1" d="M23,27.4c0-0.3,0-0.7,0.1-1c-0.3-0.6-0.4-1.5,0.1-3l0,0c2.6-2.7,3.9-7.1,3.9-11.4C27,5.5,23.4,2,18.4,2
		S9,5.5,9,12.1c0,4.3,2,8.7,4.6,11.4c1,2.7-0.8,3.7-1.2,3.9C7.2,29.2,1,32.7,1,36.2v1.3c0,4.7,9,5.8,17.4,5.8c1.5,0,3.1,0,4.6-0.1
		V27.4z"/>
	<path class="st0" d="M30.9,27.1h0.3c0.5,0,0.8-0.4,0.8-0.9v-2.4c0-0.5-0.3-0.9-0.8-0.9h-0.3c-0.5,0-0.9,0.4-0.9,0.9v2.4
		C30,26.7,30.4,27.1,30.9,27.1z"/>
</g>
<g>
	
		<rect x="32.2" y="37.8" transform="matrix(0.7071 -0.7071 0.7071 0.7071 -16.5982 35.9283)" class="st0" width="5.7" height="0.5"/>
</g>
<g>
	
		<rect x="34.8" y="35.2" transform="matrix(0.7071 -0.7071 0.7071 0.7071 -16.5982 35.9283)" class="st0" width="0.5" height="5.7"/>
</g>
</svg>
