<?xml version="1.0" encoding="utf-8"?>
<!-- Generator: Adobe Illustrator 19.0.1, SVG Export Plug-In . SVG Version: 6.00 Build 0)  -->
<svg version="1.1" xmlns="http://www.w3.org/2000/svg" xmlns:xlink="http://www.w3.org/1999/xlink" x="0px" y="0px"
	 viewBox="0 0 48 48" style="enable-background:new 0 0 48 48;" xml:space="preserve">
<style type="text/css">
	.st0{fill:#008899;}
</style>
<g id="Slices">
</g>
<g id="Icons">
	<g id="Inventory">
	</g>
	<g id="Contracts">
		<path class="st0" d="M36.5,10c-0.4-0.4-0.8-0.8-1.2-1.2c-0.4-0.4-0.8-0.8-1.2-1.2C31.2,4.6,29.5,3,27.8,3H14.5C10.9,3,8,6,8,9.6
			v29.8C8,43,10.9,46,14.5,46h19.8c3.6,0,6.6-3,6.6-6.6V16.2C41,14.5,39.4,12.8,36.5,10z M38,39.4c0,1.8-1.8,3.6-3.6,3.6H14.5
			c-1.8,0-3.5-1.8-3.5-3.6V9.6C11,7.8,12.7,6,14.5,6h12.1C27.8,6.3,28,8.1,28,9.5v5c0,0.9,0.5,1.4,1.4,1.4h5c1.7,0,3.6,0.2,3.6,1.9
			V39.4z"/>
		<polygon class="st0" points="21,25 21,39 23.9,36.1 27,39 27,25 23.9,27 		"/>
		<polygon class="st0" points="29.7,27 26.2,25.9 26,29.3 24.8,26.9 24.1,30.4 23,27 22,29.7 21.5,26.2 18.1,27 20.5,24.8 17,24.1 
			20.4,23 17.7,20.7 21.2,21.5 20,18.1 22.6,20.5 23.3,17 24.4,20.4 26.7,17.7 25.9,21.2 29.3,20 26.9,22.6 30.4,23.3 27,24.4 		"/>
	</g>
	<g id="Products">
	</g>
	<g id="Promotions">
	</g>
	<g id="Trip_List">
	</g>
	<g id="Reporting">
	</g>
	<g id="Payments">
	</g>
</g>
</svg>
