<?xml version="1.0" encoding="utf-8"?>
<!-- Generator: Adobe Illustrator 19.0.1, SVG Export Plug-In . SVG Version: 6.00 Build 0)  -->
<svg version="1.1" xmlns="http://www.w3.org/2000/svg" xmlns:xlink="http://www.w3.org/1999/xlink" x="0px" y="0px"
	 viewBox="0 0 48 48" style="enable-background:new 0 0 48 48;" xml:space="preserve">
<style type="text/css">
	.st0{fill-rule:evenodd;clip-rule:evenodd;fill:#008899;}
	.st1{fill:#008899;}
	.st2{fill:none;}
</style>
<g id="Slices">
</g>
<g id="Icons">
	<g id="Agenda">
	</g>
	<g id="Order">
	</g>
	<g id="Clipboard">
	</g>
	<g id="Track_Activities">
	</g>
	<g id="Todo">
	</g>
	<g id="Massages">
	</g>
	<g id="About_1_">
	</g>
	<g id="My_Settings">
	</g>
	<g id="Notifications">
	</g>
	<g id="Customer">
		<g>
			<path class="st1" d="M17.2,29.9c-4.8,1.9-9.9,5.1-9.9,8.2v1.3c0,3.8,6.1,5.2,12.9,5.5L15.5,34L17.2,29.9z"/>
			<path class="st1" d="M29.3,29.3c-0.5-0.4-1.2-1.3-0.4-3.5h0c2.5-2.6,3.7-6.8,3.7-11C32.5,8.3,29,5,24.2,5c-4.9,0-9,3.4-9,9.7
				c0,4.2,1.9,8.4,4.4,11c0.9,2.4-0.5,3.4-1,3.7l-2,4.6l4.8,10.9c0.2,0,0.5,0,0.7,0l1-13h-0.2c-0.4,0-0.8-0.3-0.8-0.8v-1.5
				c0-0.4,0.3-0.8,0.8-0.8h2.5c0.4,0,0.8,0.3,0.8,0.8v1.5c0,0.4-0.3,0.8-0.8,0.8H25l1,13c0.2,0,0.4,0,0.6,0l4.8-11L29.3,29.3z"/>
			<path class="st1" d="M30.6,29.8l1.9,4.2l-4.8,10.9c6.9-0.3,13.3-1.6,13.3-5.6v-1.3C41,34.9,35.7,31.7,30.6,29.8z"/>
		</g>
	</g>
	<g id="Order_Basekt">
	</g>
	<g id="Logs">
	</g>
	<g id="Tour">
	</g>
	<g id="Daily_Report">
	</g>
	<g id="Issues">
	</g>
	<g id="Synchronize">
	</g>
</g>
</svg>
