<?xml version="1.0" encoding="utf-8"?>
<!-- Generator: Adobe Illustrator 19.0.1, SVG Export Plug-In . SVG Version: 6.00 Build 0)  -->
<svg version="1.1" xmlns="http://www.w3.org/2000/svg" xmlns:xlink="http://www.w3.org/1999/xlink" x="0px" y="0px"
	 viewBox="0 0 48 48" style="enable-background:new 0 0 48 48;" xml:space="preserve">
<style type="text/css">
	.st0{fill:#008899;}
</style>
<g id="Slices">
</g>
<g id="Icons">
	<g id="Inventory">
	</g>
	<g id="Contracts">
	</g>
	<g id="Products">
	</g>
	<g id="Promotions">
	</g>
	<g id="Trip_List">
	</g>
	<g id="Reporting">
		<path class="st0" d="M39.8,4.2c-1.6,0-2.9,1.3-2.9,2.9c0,0.4,0.1,0.8,0.2,1.1l-3.6,3c-0.5-0.4-1.1-0.6-1.7-0.6
			c-1.1,0-2.1,0.7-2.6,1.6l-2.5-0.5C26.5,10.2,25.3,9,23.7,9c-1.6,0-2.9,1.3-2.9,2.9c0,0.4,0.1,0.8,0.2,1.2L17.4,16
			c-0.5-0.3-1.1-0.6-1.7-0.6c-1.6,0-2.9,1.3-2.9,2.9c0,0.3,0,0.5,0.1,0.7L9.6,21c-0.5-0.5-1.2-0.7-1.9-0.7c-1.6,0-2.9,1.3-2.9,2.9
			c0,1.6,1.3,2.9,2.9,2.9s2.9-1.3,2.9-2.9c0-0.3-0.1-0.5-0.1-0.8l3.3-1.9c0.5,0.5,1.2,0.8,2,0.8c1.6,0,2.9-1.3,2.9-2.9
			c0-0.4-0.1-0.8-0.2-1.1l3.7-2.9c0.5,0.3,1,0.5,1.6,0.5c1.1,0,2-0.6,2.5-1.5l2.6,0.5c0.2,1.5,1.4,2.6,2.9,2.6
			c1.6,0,2.9-1.3,2.9-2.9c0-0.4-0.1-0.7-0.2-1.1l3.6-3c0.5,0.3,1.1,0.6,1.7,0.6c1.6,0,2.9-1.3,2.9-2.9S41.4,4.2,39.8,4.2z"/>
		<path class="st0" d="M45,41h-2V21.5c0-0.9-0.7-1.5-1.6-1.5h-2.8c-0.9,0-1.6,0.7-1.6,1.5V41h-2V27.6c0-0.9-0.7-1.6-1.6-1.6h-2.8
			c-0.9,0-1.6,0.7-1.6,1.6V41h-2V24.6c0-0.9-0.7-1.6-1.6-1.6h-2.7c-0.9,0-1.6,0.7-1.6,1.6V41h-2.1V29.6c0-0.9-0.2-1.6-1.1-1.6h-3.2
			c-0.9,0-1.6,0.7-1.6,1.6V41h-2.1v-8.4c0-0.9-0.7-1.6-1.6-1.6H6.6C5.7,31,5,31.7,5,32.6V41H3c-0.6,0-1,0.4-1,1v1c0,0.6,0.4,1,1,1
			h3.6h2.7h5.3h2.7h5.3h2.7h5.3h2.8h5.2h2.8H45c0.6,0,1-0.4,1-1v-1C46,41.4,45.6,41,45,41z"/>
	</g>
	<g id="Payments">
	</g>
</g>
</svg>
