<?xml version="1.0" encoding="utf-8"?>
<!-- Generator: Adobe Illustrator 19.2.1, SVG Export Plug-In . SVG Version: 6.00 Build 0)  -->
<svg version="1.1" id="Layer_1" xmlns="http://www.w3.org/2000/svg" xmlns:xlink="http://www.w3.org/1999/xlink" x="0px" y="0px"
	 viewBox="0 0 48 48" style="enable-background:new 0 0 48 48;" xml:space="preserve">
<style type="text/css">
	.st0{fill:#008899;}
</style>
<g id="Slices">
</g>
<g id="Icons">
	<g id="Agenda">
	</g>
	<g id="Order">
	</g>
	<g id="Clipboard">
	</g>
	<g id="Track_Activities">
		<path class="st0" d="M32,17H22c-0.6,0-1-0.4-1-1v-1c0-0.6,0.4-1,1-1h10c0.6,0,1,0.4,1,1v1C33,16.6,32.6,17,32,17z"/>
		<path class="st0" d="M33.9,23.5C33.7,23.2,33.4,23,33,23H22c-0.6,0-1,0.4-1,1v1c0,0.6,0.4,1,1,1h6.8
			C30.2,24.7,31.9,23.9,33.9,23.5z"/>
		<path class="st0" d="M25.4,33.5c0-0.5,0.1-1,0.1-1.5h-3.8c-0.3,0-0.6,0.4-0.6,1v1c0,0.6,0.2,1,0.6,1h3.8
			C25.5,34.5,25.4,34,25.4,33.5z"/>
		<polygon class="st0" points="13.3,15.3 10,12 8.6,13.4 13.3,18.1 20,11.4 18.6,10 		"/>
		<polygon class="st0" points="13.3,24.3 10,21 8.6,22.4 13.3,27.1 20,20.4 18.6,19 		"/>
		<polygon class="st0" points="13.3,33.3 10,30 8.6,31.4 13.3,36.1 20,29.4 18.6,28 		"/>
		<path class="st0" d="M31.4,4h-3.8l-0.5-1.3C26.9,2.3,26.4,2,25.8,2H15.3c-0.6,0-1.1,0.3-1.3,0.7L13.4,4H9.6C5.9,4,3,7.4,3,11.7
			v25.6C3,41.6,5.9,45,9.6,45h21.9c0.6,0,1.1-0.1,1.7-0.3c-2-0.4-3.8-1.4-5.3-2.7H9.5C7.4,42,6,39.9,6,37.4V11.8C6,9.3,7.4,7,9.5,7
			h2.8L12,7.7C11.8,8.3,12.4,9,13.4,9h14.3c1,0,1.6-0.7,1.3-1.3L28.7,7h2.7c2.1,0,3.6,2.2,3.6,4.7V22c0.2,0,0.3,0,0.5,0
			c0.9,0,1.7,0.1,2.5,0.3V11.7C38,7.4,35.1,4,31.4,4z"/>
		<g>
			<path class="st0" d="M35.5,26.4c3.9,0,7.1,3.2,7.1,7.1s-3.2,7.1-7.1,7.1s-7.1-3.2-7.1-7.1S31.6,26.4,35.5,26.4 M35.5,24.4
				c-5,0-9.1,4.1-9.1,9.1s4.1,9.1,9.1,9.1s9.1-4.1,9.1-9.1S40.5,24.4,35.5,24.4L35.5,24.4z"/>
		</g>
		<polygon class="st0" points="37,28 35,28 35,33.2 31.3,36.8 32.8,38.3 37,34 37,34 37,34 		"/>
	</g>
	<g id="Todo">
	</g>
	<g id="Massages">
	</g>
	<g id="About_1_">
	</g>
	<g id="My_Settings">
	</g>
	<g id="Notifications">
	</g>
	<g id="Customer">
	</g>
	<g id="Order_Basekt">
	</g>
	<g id="Logs">
	</g>
	<g id="Tour">
	</g>
	<g id="Daily_Report">
	</g>
	<g id="Issues">
	</g>
	<g id="Synchronize">
	</g>
</g>
</svg>
