<?xml version="1.0" encoding="utf-8"?>
<!-- Generator: Adobe Illustrator 19.2.1, SVG Export Plug-In . SVG Version: 6.00 Build 0)  -->
<svg version="1.1" id="Icons" xmlns="http://www.w3.org/2000/svg" xmlns:xlink="http://www.w3.org/1999/xlink" x="0px" y="0px"
	 viewBox="0 0 48 48" style="enable-background:new 0 0 48 48;" xml:space="preserve">
<style type="text/css">
	.st0{fill:#008899;}
</style>
<title>MenuFolderUser</title>
<g id="Issues">
	<path class="st0" d="M34.6,8.9H22.9L20,6h-8.8C9.6,6,8.3,7.3,8.3,8.9v0v17.5c0,1.6,1.3,2.9,2.9,2.9h0h17.4c-1.7-2.2-2.6-5-2.6-7.8
		c0-5,3.3-8.6,8.1-8.6c1.2,0,2.3,0.2,3.4,0.7v-1.9C37.5,10.3,36.2,8.9,34.6,8.9C34.6,8.9,34.6,8.9,34.6,8.9z M5.4,11.8H2.5v20.4
		c0,1.6,1.3,2.9,2.9,2.9h0h16c0.8-1.2,1.8-2.2,3-2.9h-19L5.4,11.8L5.4,11.8z"/>
	<path class="st0" d="M37.8,31.5c-0.2-0.1-1.2-0.5-0.5-2.5l0,0c1.7-2.1,2.6-4.7,2.5-7.4c0-4.3-2.4-6.6-5.6-6.6S28,17.2,28,21.6
		c0,2.8,1.1,5.4,3,7.5c0.7,1.8-0.5,2.4-0.8,2.5c-3.4,1.3-7.5,3.6-7.5,5.8v0.9c0,3.1,5.9,3.8,11.4,3.8s11.3-0.7,11.3-3.8v-0.9
		C45.5,35,41.4,32.7,37.8,31.5z"/>
	<path class="st0" d="M37.8,31.5c-0.2-0.1-1.2-0.5-0.5-2.5l0,0c1.7-2.1,2.6-4.7,2.5-7.4c0-4.3-2.4-6.6-5.6-6.6S28,17.2,28,21.6
		c0,2.8,1.1,5.4,3,7.5c0.7,1.8-0.5,2.4-0.8,2.5c-3.4,1.3-7.5,3.6-7.5,5.8v0.9c0,3.1,5.9,3.8,11.4,3.8s11.3-0.7,11.3-3.8v-0.9
		C45.5,35,41.4,32.7,37.8,31.5z"/>
</g>
</svg>
