<?xml version="1.0" encoding="utf-8"?>
<!-- Generator: Adobe Illustrator 19.0.1, SVG Export Plug-In . SVG Version: 6.00 Build 0)  -->
<svg version="1.1" xmlns="http://www.w3.org/2000/svg" xmlns:xlink="http://www.w3.org/1999/xlink" x="0px" y="0px"
	 viewBox="0 0 48 48" style="enable-background:new 0 0 48 48;" xml:space="preserve">
<style type="text/css">
	.st0{fill-rule:evenodd;clip-rule:evenodd;fill:#008899;}
	.st1{fill:#008899;}
	.st2{fill:none;}
</style>
<g id="Slices">
</g>
<g id="Icons">
	<g id="Agenda">
	</g>
	<g id="Order">
	</g>
	<g id="Clipboard">
	</g>
	<g id="Track_Activities">
	</g>
	<g id="Todo">
	</g>
	<g id="Massages">
	</g>
	<g id="About_1_">
	</g>
	<g id="My_Settings">
	</g>
	<g id="Notifications">
	</g>
	<g id="Customer">
	</g>
	<g id="Order_Basekt">
	</g>
	<g id="Logs">
	</g>
	<g id="Tour">
		<g>
			<circle class="st1" cx="41" cy="29" r="5"/>
			<circle class="st1" cx="7" cy="9" r="5"/>
			<polygon class="st1" points="7,25 8,15 6,15 			"/>
			<polygon class="st1" points="41,45 42,35 40,35 			"/>
			<path class="st1" d="M37.9,43c-14.4,1.8-22-2.3-22.8-4.9c-0.4-1.2,0.2-2.6,1.4-3.1c0.8-0.4,2.4-0.9,4.2-1.5
				c6.4-2.1,11.1-3.8,11.7-6.1c0.2-0.7,0-1.5-0.6-2.1c-4.2-4.6-20-3.5-21.8-3.3c-0.6,0-1,0.5-0.9,1.1c0,0.6,0.5,1,1.1,0.9
				c4.6-0.4,17.2-0.6,20.2,2.7c0.1,0.1,0.1,0.2,0.1,0.2c-0.4,1.5-7.1,3.7-10.4,4.7c-1.9,0.6-3.5,1.1-4.4,1.6c-2.1,1-3.1,3.4-2.4,5.6
				c1,3.1,7.1,6.7,17.9,6.7c2.2,0,4.5-0.1,7.1-0.5c0.5-0.1,0.9-0.6,0.9-1.1S38.4,42.9,37.9,43z"/>
		</g>
	</g>
	<g id="Daily_Report">
	</g>
	<g id="Issues">
	</g>
	<g id="Synchronize">
	</g>
</g>
</svg>
