<?xml version="1.0" encoding="utf-8"?>
<!-- Generator: Adobe Illustrator 22.1.0, SVG Export Plug-In . SVG Version: 6.00 Build 0)  -->
<svg version="1.1" id="Layer_1" xmlns="http://www.w3.org/2000/svg" xmlns:xlink="http://www.w3.org/1999/xlink" x="0px" y="0px"
	 viewBox="0 0 24 24" style="enable-background:new 0 0 24 24;" xml:space="preserve">
<style type="text/css">
	.st0{fill:#788994;}
</style>
<g id="Slices">
</g>
<g>
	<path class="st0" d="M16.5,1.4H7.6C6.8,1.4,6.1,2.1,6.1,3V21c0,0.8,0.7,1.5,1.5,1.5h8.9c0.9,0,1.5-0.7,1.5-1.5V3
		C18.1,2.1,17.4,1.4,16.5,1.4z M9.9,2.4h4.4c0.1,0,0.2,0.2,0.2,0.4s-0.1,0.4-0.2,0.4H9.9c-0.1,0-0.2-0.2-0.2-0.4
		C9.7,2.5,9.8,2.4,9.9,2.4z M12.1,21.1c-0.5,0-1-0.4-1-1s0.4-1,1-1c0.5,0,1,0.4,1,1S12.6,21.1,12.1,21.1z M16.9,17.7H7.2V4h9.7V17.7
		L16.9,17.7z"/>
</g>
</svg>
