<?xml version="1.0" encoding="utf-8"?>
<!-- Generator: Adobe Illustrator 19.0.1, SVG Export Plug-In . SVG Version: 6.00 Build 0)  -->
<svg version="1.1" xmlns="http://www.w3.org/2000/svg" xmlns:xlink="http://www.w3.org/1999/xlink" x="0px" y="0px"
	 viewBox="0 0 48 48" style="enable-background:new 0 0 48 48;" xml:space="preserve">
<style type="text/css">
	.st0{fill:#788994;}
</style>
<g id="Slices">
</g>
<g id="Icons">
	<g id="Inventory">
	</g>
	<g id="Contracts">
	</g>
	<g id="Products">
	</g>
	<g id="Promotions">
	</g>
	<g id="Trip_List">
	</g>
	<g id="Reporting">
	</g>
	<g id="Payments">
		<path class="st0" d="M43,20H8c-0.6,0-1,0.4-1,1v21c0,0.6,0.4,1,1,1h35c0.6,0,1-0.4,1-1v-0.5V35V21C44,20.4,43.6,20,43,20z M15,40
			l-1.2-1.3c0-0.1,0.1-0.3,0.1-0.4c0-1.2-1-2.1-2.1-2.1c-0.1,0-0.3,0.1-0.4,0.1L10,34.8v-7l1.2-1.2c0.1,0,0.3,0.1,0.4,0.1
			c1.2,0,2.1-1,2.1-2.1c0-0.1-0.1-0.3-0.1-0.4l1.2-1.2h21.6l1.2,1.2c0,0.1-0.1,0.3-0.1,0.4c0,1.2,1,2.1,2.1,2.1
			c0.1,0,0.3-0.1,0.4-0.1l0.9,0.9v8l-0.7,0.7c-0.1,0-0.3-0.1-0.4-0.1c-1.2,0-2.1,1-2.1,2.1c0,0.1,0.1,0.3,0.1,0.4L36.6,40H15z"/>
		<g>
			<path class="st0" d="M6,20.9c0-1.4,1.2-2.5,2.5-2.5h1.4l0.1-0.2L29.1,7.7l1.5,0.4c0,0.1,0.1,0.3,0.1,0.4c0.6,1,1.9,1.4,2.9,0.9
				c0.1-0.1,0.2-0.2,0.3-0.3l1.5,0.4l3.3,6.1l-0.4,1.5c-0.1,0-0.3,0.1-0.4,0.1c-0.5,0.3-0.8,1.2-1,1.7h4.7c0.7,0,1.2-0.8,0.9-1.5
				L39,10.6h0l-4.3-7.8c-0.3-0.5-0.9-0.7-1.4-0.4l-7.8,4.3h0L11,14.6l-7.8,4.3c-0.5,0.3-0.7,0.9-0.4,1.3l3.2,6L6,20.9z"/>
			<g>
				<circle class="st0" cx="37" cy="31.4" r="2.1"/>
				<ellipse class="st0" cx="25.8" cy="31.5" rx="6.5" ry="5.6"/>
				<circle class="st0" cx="15.1" cy="31.6" r="2.1"/>
				<circle class="st0" cx="31.9" cy="15" r="2.1"/>
				<path class="st0" d="M29.1,16.9c-1.5-2.7-5.3-3.6-8.4-1.8c-1.4,0.8-2.5,2.5-3.1,3.8H30C29.9,18.4,29.4,17.4,29.1,16.9z"/>
			</g>
		</g>
	</g>
</g>
</svg>
