<?xml version="1.0" encoding="utf-8"?>
<!-- Generator: Adobe Illustrator 21.0.0, SVG Export Plug-In . SVG Version: 6.00 Build 0)  -->
<svg version="1.1" id="Layer_1" xmlns="http://www.w3.org/2000/svg" xmlns:xlink="http://www.w3.org/1999/xlink" x="0px" y="0px"
	 viewBox="0 0 30 30" style="enable-background:new 0 0 30 30;" xml:space="preserve">
<style type="text/css">
	.st0{fill:#BBBB00;}
</style>
<g id="Icons">
	<g id="ShowAllStores">
		<g>
			<path class="st0" d="M4.7,5.2h21.2c0.6,0,1.2-0.8,1.2-1.4V2.7c0-0.6-0.6-1.1-1.2-1.1H4.7c-0.6,0-1.2,0.5-1.2,1.1v1.1
				C3.5,4.4,4.1,5.2,4.7,5.2z"/>
			<path class="st0" d="M29.3,13.6L27,8.3V7.6c0-0.6-0.1-1.2-0.7-1.2H4.7C4.1,6.4,3.5,7,3.5,7.6v0.7l-2.4,5.3c0,0,0,1.1,1.1,1.1
				c0,0,0,0,0.1,0v13.1c0,0.6,0.6,1.1,1.2,1.1h15.3V18.2h4.7v10.6h2.8c0.6,0,1.9-0.5,1.9-1.1V14.6l0,0
				C29.4,14.6,29.3,13.6,29.3,13.6z M2.3,14.3v0.2C2.3,14.4,2.3,14.3,2.3,14.3z M9.6,9.2h2.7L12,13.6l0,0l0,0c0,0,0,0,0,0.1
				c0,0.8-0.7,1.5-1.5,1.5s-1.5-0.7-1.5-1.5v-0.1l0,0l0,0l0,0L9.6,9.2z M3.7,13.7C3.7,13.7,3.7,13.6,3.7,13.7L3.7,13.7
				C3.7,13.6,3.7,13.6,3.7,13.7L5,9.3h2.7l-0.9,4.4l0,0l0,0c0,0,0,0,0,0.1c0,0.8-0.7,1.5-1.5,1.5C4.4,15.2,3.7,14.5,3.7,13.7z
				 M15.3,25.2H5.8v-7.1h9.4V25.2z M15.5,15.2c-0.8,0-1.5-0.7-1.5-1.5c0,0,0,0,0-0.1l0,0l0,0l0.1-4.4h2.7l0.1,4.4l0,0l0,0l0,0
				c0,0,0,0,0,0.1C17,14.5,16.3,15.2,15.5,15.2z M22.1,13.7c0,0.8-0.7,1.5-1.5,1.5c-0.8,0-1.5-0.7-1.5-1.5c0,0,0,0,0-0.1l0,0l0,0
				l0,0l-0.4-4.4h2.7L22.1,13.7C22.1,13.6,22.1,13.6,22.1,13.7L22.1,13.7C22.1,13.6,22.1,13.7,22.1,13.7z M27.2,13.6L27.2,13.6
				C27.2,13.6,27.2,13.7,27.2,13.6c0,0.9-0.7,1.6-1.5,1.6c-0.8,0-1.5-0.7-1.5-1.4c0-0.1,0-0.1,0-0.1l-0.9-4.4h2.7L27.2,13.6
				L27.2,13.6z M28.2,14.4v-0.1V14.4z"/>
		</g>
	</g>
	<g id="Move">
	</g>
	<g id="Sickness">
	</g>
	<g id="Barcode">
	</g>
	<g id="Issues">
	</g>
	<g id="Issue_Item">
	</g>
	<g id="Daily_Report">
	</g>
	<g id="DailyAgendaItem_x2B_">
	</g>
	<g id="CalFixedAppt">
	</g>
	<g id="Change_Password">
	</g>
	<g id="Change_User">
	</g>
	<g id="Change_Language">
	</g>
	<g id="TakePicture">
	</g>
	<g id="PrivateAppointment">
	</g>
	<g id="Calculate">
	</g>
	<g id="CompleteCall">
	</g>
</g>
</svg>
