<?xml version="1.0" encoding="utf-8"?>
<!-- Generator: Adobe Illustrator 22.1.0, SVG Export Plug-In . SVG Version: 6.00 Build 0)  -->
<svg version="1.1" id="Layer_1" xmlns="http://www.w3.org/2000/svg" xmlns:xlink="http://www.w3.org/1999/xlink" x="0px" y="0px"
	 viewBox="0 0 72.9 64.6" style="enable-background:new 0 0 72.9 64.6;" xml:space="preserve">
<style type="text/css">
	.st0{fill:#B4C7D4;}
	.st1{fill:#F0F4F6;}
</style>
<g id="Slices">
</g>
<g>
	<g>
		<path class="st0" d="M42.6,58.8l2.8-2.8H17.2c-2.5,0-2.5,0-2.5-2.5V10.8c0-2.5,0-3,2.5-3H35c1.5,0.5,2.5,0.5,2.5,2.5v7.4
			c0,1.3,1.3,2.8,2.5,2.8h7.6c2.3,0,2.5,0.3,2.5,2.5v18.5l4.8,4.8V20c0.3-2.5-2-4.8-5.8-8.6c-0.5-0.5-1-1-1.5-1.8
			c-0.5-0.5-1-1-1.5-1.8C42.3,4,40,2.7,37.7,2.7H17.2c-4.8,0-7.6,2.5-7.6,7.6V52c0,5.1,3.8,9.2,8.6,9.2h24.4V58.8z"/>
	</g>
</g>
<path class="st0" d="M57.3,51.4l8.3,8.3V62h-2.3L55,53.7L46.7,62h-2.3v-2.3l8.3-8.3l-8.3-8.3v-2.3h2.3l8.3,8.3l8.3-8.3h2.3v2.3
	L57.3,51.4z"/>
<polygon class="st1" points="30.3,43.9 20.9,34.9 24,31.7 30.3,38.4 40.5,27.8 43.7,30.9 "/>
</svg>
