<?xml version="1.0" encoding="utf-8"?>
<!-- Generator: Adobe Illustrator 20.1.0, SVG Export Plug-In . SVG Version: 6.00 Build 0)  -->
<svg version="1.1" id="Layer_1" xmlns="http://www.w3.org/2000/svg" xmlns:xlink="http://www.w3.org/1999/xlink" x="0px" y="0px"
	 viewBox="0 0 114 114" style="enable-background:new 0 0 114 114;" xml:space="preserve">
<style type="text/css">
	.st0{fill:#038899;}
	.st1{fill:none;stroke:#90C2CA;stroke-width:5;stroke-linecap:round;stroke-linejoin:round;stroke-dasharray:0.9965,8.9688;}
	.st2{opacity:0.5;}
	.st3{fill:#01444D;}
</style>
<g>
	<circle class="st0" cx="56.4" cy="57.4" r="50.8"/>
	<circle class="st1" cx="56.4" cy="57.4" r="50.8"/>
</g>
<g class="st2">
	<path class="st3" d="M56.4,92.6c-13.5,0-25.8-8.1-31.2-21l6.1-2.7c4.1,10.2,14.2,16.3,25.1,16.3c10.9,0,21-6.8,25.1-16.3l6.1,2.7
		C82.2,85.2,70,92.6,56.4,92.6L56.4,92.6z M56.4,92.6"/>
	<path class="st3" d="M49.6,43.8c0,3.7-3.1,6.8-6.8,6.8c-3.7,0-6.8-3.1-6.8-6.8c0-3.7,3-6.8,6.8-6.8C46.6,37.1,49.6,40.1,49.6,43.8
		L49.6,43.8z M49.6,43.8"/>
	<path class="st3" d="M76.7,43.8c0,3.7-3.1,6.8-6.8,6.8c-3.7,0-6.8-3.1-6.8-6.8c0-3.7,3.1-6.8,6.8-6.8
		C73.7,37.1,76.7,40.1,76.7,43.8L76.7,43.8z M76.7,43.8"/>
</g>
</svg>
