<?xml version="1.0" encoding="utf-8"?>
<!-- Generator: Adobe Illustrator 19.2.1, SVG Export Plug-In . SVG Version: 6.00 Build 0)  -->
<svg version="1.1" id="Layer_1" xmlns="http://www.w3.org/2000/svg" xmlns:xlink="http://www.w3.org/1999/xlink" x="0px" y="0px"
	 viewBox="0 0 24 24" style="enable-background:new 0 0 24 24;" xml:space="preserve">
<style type="text/css">
	.st0{fill:#788994;}
</style>
<g id="Slices">
</g>
<g id="Icons">
	<g id="Inventory">
	</g>
	<g id="Contracts">
	</g>
	<g id="Products">
	</g>
	<g id="Promotions">
	</g>
	<g id="Trip_List">
	</g>
	<g id="Reporting">
	</g>
	<g id="Payments">
		<path class="st0" d="M16,18.7V20l-0.3,0.1c0,0-0.1,0-0.2,0c-0.5,0-0.8,0.4-0.8,0.8c0,0,0,0.1,0,0.2L14,22H6l-0.6-1
			c0,0,0-0.1,0-0.2c0-0.5-0.4-0.8-0.8-0.8c0,0-0.1,0-0.2,0L4,19.5v-2.7l0.5-0.5c0,0,0.1,0,0.2,0c0.5,0,0.8-0.4,0.8-0.8
			c0,0,0-0.1,0-0.2L5.8,15h6.6c-0.1-0.3-0.2-0.6-0.3-1H3.4C3.2,14,3,14.2,3,14.4v8.1c0,0.2,0.2,0.4,0.4,0.4h13.2
			c0.2,0,0.4-0.2,0.4-0.4v-0.2v-2.5V19C16.7,18.9,16.3,18.8,16,18.7z"/>
		<g>
			<path class="st0" d="M7.6,9.9l-3.3,1.8l-3,1.7c-0.2,0.1-0.3,0.3-0.2,0.5l1.2,2.3v-2.1c0-0.5,0.5-1,1-1h0.5l0-0.1l4.4-2.4
				C8.1,10.4,7.8,10.2,7.6,9.9z"/>
			<path class="st0" d="M11.4,12.6c-0.6-1-2.1-1.4-3.3-0.7c-0.5,0.3-1,1-1.2,1.5h4.8C11.7,13.2,11.5,12.8,11.4,12.6z M12,12.5
				c0-0.5,0.1-1,0.2-1.4c-0.3,0.1-0.6,0.4-0.6,0.8C11.6,12.1,11.8,12.4,12,12.5z M5.9,17.5c-0.4,0-0.8,0.4-0.8,0.8s0.4,0.8,0.8,0.8
				c0.4,0,0.8-0.4,0.8-0.8S6.4,17.5,5.9,17.5z M14.1,17.5c-0.3,0.1-0.5,0.4-0.5,0.8c0,0.4,0.4,0.8,0.8,0.8c0.4,0,0.8-0.3,0.8-0.8
				C14.8,18,14.5,17.8,14.1,17.5z M10.1,16.1c-1.4,0-2.5,1-2.5,2.2s1.1,2.2,2.5,2.2c1.4,0,2.5-1,2.5-2.2S11.5,16.1,10.1,16.1z"/>
		</g>
	</g>
</g>
<g>
	<g>
		<path class="st0" d="M18.5,8.2c-2.5,0-4.5,2-4.5,4.5s2,4.5,4.5,4.5s4.5-2,4.5-4.5S21,8.2,18.5,8.2z M21,13.2h-2v2h-1v-2h-2v-1h2
			v-2h1v2h2V13.2z"/>
	</g>
</g>
<g>
	<g>
		<path class="st0" d="M12.5,10.2c0.8-1.9,2.4-3.3,4.4-3.8C17,6.1,17,5.9,17,5.7c0-2.5-2-4.5-4.5-4.5S8,3.2,8,5.7S10,10.2,12.5,10.2
			C12.5,10.2,12.5,10.2,12.5,10.2z M10,6.2v-1h5v1H10z"/>
	</g>
</g>
</svg>
