<?xml version="1.0" encoding="utf-8"?>
<!-- Generator: Adobe Illustrator 23.0.1, SVG Export Plug-In . SVG Version: 6.00 Build 0)  -->
<svg version="1.1" id="Capa_1" xmlns="http://www.w3.org/2000/svg" xmlns:xlink="http://www.w3.org/1999/xlink" x="0px" y="0px"
	 viewBox="0 0 41.4 30.9" style="enable-background:new 0 0 41.4 30.9;" xml:space="preserve">
<style type="text/css">
	.st0{fill:#788994;}
	.st1{fill:#408FCD;}
</style>
<g id="Slices">
</g>
<path class="st0" d="M38.7,16.2c-1.1-2-2.8-3.5-4.9-4.3c0,0-0.1,0-0.1,0c-0.2,0-0.5,0.2-0.6,0.4l-0.6,1.9c-0.1,0.3,0.1,0.5,0.3,0.8
	c1.3,0.6,2.5,1.5,3.2,2.9c1.4,2.7,0.5,6-1.8,7.7l-0.4-0.7c-0.1-0.2-0.3-0.3-0.5-0.3c-0.2,0-0.4,0.1-0.5,0.3l-2.3,3.9
	c-0.3,0.4,0,0.9,0.5,0.9c0,0,0,0,0,0l4.6,0.3c0.4,0,0.8-0.4,0.6-0.9l-0.4-0.8C39.5,25.6,40.9,20.5,38.7,16.2z"/>
<g>
	<path class="st0" d="M22.2,24.8c1.1,2,2.8,3.5,4.9,4.3c0,0,0.1,0,0.1,0c0.2,0,0.5-0.2,0.6-0.4l0.7-1.9c0.1-0.3-0.1-0.5-0.3-0.8
		c-1.3-0.6-2.5-1.5-3.2-2.9c-1.4-2.8-0.6-6.1,1.9-7.8l0.4,0.8c0.1,0.2,0.3,0.3,0.5,0.3c0.2,0,0.4-0.1,0.5-0.3l2.3-3.9
		c0.2-0.4,0-0.9-0.5-0.9c0,0,0,0,0,0l-4.5-0.4c-0.4,0-0.8,0.4-0.6,0.9l0.4,0.7C21.5,15.3,20,20.6,22.2,24.8z"/>
</g>
<g>
	<path class="st1" d="M20.4,25.8C18,21.1,19.2,15.4,23,12c-0.1-0.6,0-1.1,0.3-1.7c0.5-0.8,1.3-1.2,2.2-1.3
		c-2.3-3.9-6.5-6.5-11.3-6.5c-7.2,0-13.1,5.8-13.1,13s5.8,13,13.1,13c2.5,0,4.8-0.7,6.8-1.9C20.8,26.4,20.6,26.1,20.4,25.8z
		 M14.3,22.4c-1,0-1.8-0.8-1.8-1.8s0.8-1.8,1.8-1.8s1.8,0.8,1.8,1.8S15.3,22.4,14.3,22.4z M16.1,17.1c0,0.4-0.2,0.6-0.6,0.6h-2.4
		c-0.4,0-0.6-0.2-0.6-0.6V9.4c0-0.4,0.2-0.6,0.6-0.6h2.4c0.4,0,0.6,0.2,0.6,0.6V17.1z"/>
</g>
</svg>
