<?xml version="1.0" encoding="utf-8"?>
<!-- Generator: Adobe Illustrator 25.2.1, SVG Export Plug-In . SVG Version: 6.00 Build 0)  -->
<svg version="1.1" id="Layer_1" xmlns="http://www.w3.org/2000/svg" xmlns:xlink="http://www.w3.org/1999/xlink" x="0px" y="0px"
	 viewBox="0 0 39.2 28" style="enable-background:new 0 0 39.2 28;" xml:space="preserve">
<style type="text/css">
	.st0{fill:#788994;}
	.st1{fill:none;}
</style>
<g id="Capa_2">
	<g id="Capa_1-2">
		<path class="st0" d="M38.1,14.2c-1.1-2-2.8-3.5-4.9-4.3h-0.1c-0.3,0-0.5,0.2-0.6,0.4l-0.6,1.9c-0.1,0.3,0.1,0.5,0.3,0.8
			c1.4,0.6,2.5,1.6,3.2,2.9c1.3,2.7,0.6,5.9-1.8,7.7l-0.4-0.7c-0.2-0.3-0.5-0.4-0.8-0.2c-0.1,0.1-0.2,0.1-0.2,0.2l-2.3,3.9
			c-0.2,0.2-0.1,0.6,0.1,0.8c0.1,0.1,0.3,0.1,0.4,0.1l0,0L35,28c0.4,0,0.6-0.3,0.6-0.7c0-0.1,0-0.2,0-0.2l-0.4-0.8
			C39,23.5,40.2,18.4,38.1,14.2z"/>
		<path class="st0" d="M21.6,22.8c1.1,2,2.8,3.5,4.9,4.3h0.1c0.3,0,0.5-0.2,0.6-0.4l0.7-1.9c0.1-0.3-0.1-0.5-0.3-0.8
			c-1.4-0.6-2.5-1.6-3.2-2.9c-1.4-2.7-0.6-6.1,1.9-7.8l0.4,0.8c0.2,0.3,0.5,0.4,0.8,0.2c0.1-0.1,0.2-0.1,0.2-0.2l2.3-3.9
			c0.2-0.3,0.1-0.6-0.2-0.8c-0.1-0.1-0.2-0.1-0.3-0.1l0,0L25,8.9c-0.4,0-0.6,0.3-0.6,0.6c0,0.1,0,0.2,0,0.2l0.4,0.7
			C20.9,13.3,19.5,18.5,21.6,22.8z"/>
		<path class="st1" d="M4.3,13.5c0,5.1,4.2,9.3,9.3,9.3c1.7,0,3.4-0.5,4.9-1.4L5.7,8.7C4.7,10.1,4.3,11.8,4.3,13.5z"/>
		<path class="st1" d="M13.5,4.3c-1.7,0-3.4,0.5-4.9,1.4l11.1,11.1c0.4-2.1,1.3-4,2.8-5.6l-0.1-0.3C21.3,7,17.7,4.2,13.5,4.3z"/>
		<path d="M20.7,23.3c-1.1-2-1.4-4.3-1-6.5L8.7,5.7c1.5-0.9,3.2-1.4,4.9-1.4c4.1,0,7.8,2.7,8.9,6.7l0.1,0.3c0.3-0.3,0.6-0.6,1-0.9
			v-0.1c-0.2-0.5-0.2-1.1,0.1-1.5C24,8.2,24.5,7.9,25,7.9L25.9,8l-0.1-0.3C22.6,1,14.5-1.9,7.7,1.3s-9.6,11.3-6.4,18.1
			c2.2,4.7,7,7.7,12.2,7.7c2.9,0,5.7-0.9,8-2.6C21.2,24.1,21,23.7,20.7,23.3L20.7,23.3z M13.5,22.8c-5.1,0-9.3-4.2-9.3-9.3
			c0-1.7,0.5-3.4,1.4-4.9l12.8,12.8C17,22.3,15.3,22.8,13.5,22.8z"/>
	</g>
</g>
</svg>
