<?xml version="1.0" encoding="utf-8"?>
<!-- Generator: Adobe Illustrator 21.1.0, SVG Export Plug-In . SVG Version: 6.00 Build 0)  -->
<svg version="1.1" id="Layer_1" xmlns="http://www.w3.org/2000/svg" xmlns:xlink="http://www.w3.org/1999/xlink" x="0px" y="0px"
	 viewBox="0 0 24 24" style="enable-background:new 0 0 24 24;" xml:space="preserve">
<style type="text/css">
	.st0{fill:#788994;}
</style>
<g id="Slices">
</g>
<g id="Icons">
	<g id="Relations">
	</g>
	<g id="DeliveryItem">
	</g>
	<g id="Expand">
	</g>
	<g id="Fridge">
	</g>
	<g id="Promotion_1_">
	</g>
	<g id="Day">
	</g>
	<g id="Contract">
	</g>
	<g id="Questionaire">
	</g>
	<g id="Open_Hours">
	</g>
	<g id="Invoice">
	</g>
	<g id="Ebene_23">
	</g>
	<g id="Back">
	</g>
	<g id="List">
	</g>
	<g id="Foward">
	</g>
	<g id="Attachment">
	</g>
	<g id="Focus">
	</g>
</g>
<g id="Relations_1_">
</g>
<g id="DeliveryItem_1_">
</g>
<g id="Expand_1_">
</g>
<g id="Fridge_1_">
</g>
<path class="st0" d="M12.2,15.2c0.4-0.2,0.8-0.3,1.4-0.3c0.8,0,1.9,0.3,3.1,1.1c1.1,0.7,2.1,1,3,1c1.6,0,3-0.8,3.5-1.2
	c0.3-0.2,0.3-0.4,0.3-0.7V8.8c0-0.4-0.4-0.9-0.8-0.9c-0.1,0-0.2,0-0.3,0.1c-0.8,0.3-1.9,0.5-3,0.5c-1,0-2.1-0.2-2.9-0.9
	C15.8,7,15,6.7,14.2,6.7c-1.1,0-2.1,0.4-2.8,0.6c-0.2,0.1-0.2,0.4-0.2,0.7v6.3c0,0.5,0.3,0.8,0.6,0.8C11.9,15.2,12,15.2,12.2,15.2z"
	/>
<path class="st0" d="M10.3,23.1V7.5c0-0.4-0.5-0.7-0.9-0.7c-0.3,0-0.9,0.3-0.9,0.7v15.7C8.5,23.4,9,24,9.4,24
	C9.8,24,10.3,23.5,10.3,23.1z"/>
<g id="Day_1_">
</g>
<g id="Contract_1_">
</g>
<g id="Questionaire_1_">
</g>
<g id="Open_Hours_1_">
</g>
<g id="Invoice_1_">
</g>
<g id="Ebene_23_1_">
</g>
<g id="Back_1_">
</g>
<g id="Order">
</g>
<g id="List_1_">
</g>
<g id="Foward_1_">
</g>
<g id="Attachment_1_">
</g>
<g id="Focus_1_">
</g>
<path class="st0" d="M2,19V5c0-1.3,0.9-2,2-2h1C4.9,3.3,5.2,4,5.7,4h7.5c0.5,0,0.9-0.7,0.7-1h1c1.1,0,2,0.7,2,2v0.9l0,0
	c0.5,0.4,1.2,0.7,2.1,0.7V5.1c0-2.2-2.1-4-4-4h-1.8L13,0.4C12.9,0.1,12.6,0,12.3,0H6.7C6.4,0,6.1,0.1,6,0.4L5.8,1.1H3.5
	C1.6,1.1,0,2.9,0,5.1V18c0,2.2,1.1,5,3,5h3.6v-2H4C2.9,21,2,20.3,2,19z"/>
</svg>
