<?xml version="1.0" encoding="utf-8"?>
<!-- Generator: Adobe Illustrator 21.1.0, SVG Export Plug-In . SVG Version: 6.00 Build 0)  -->
<svg version="1.1" id="Layer_1" xmlns="http://www.w3.org/2000/svg" xmlns:xlink="http://www.w3.org/1999/xlink" x="0px" y="0px"
	 viewBox="0 0 24 24" style="enable-background:new 0 0 24 24;" xml:space="preserve">
<style type="text/css">
	.st0{fill:#788994;}
</style>
<g id="Slices">
</g>
<g id="Icons">
	<g id="ShowAllStores">
	</g>
	<g id="Move">
	</g>
	<g id="Sickness">
	</g>
	<g id="Barcode">
	</g>
	<g id="Issues">
	</g>
	<g id="Issue_Item">
	</g>
	<g id="Daily_Report">
	</g>
	<g id="DailyAgendaItem_x2B_">
	</g>
	<g id="CalFixedAppt">
		<path class="st0" d="M21.1,2.2h-1.3v1.6c0,1-1,1.9-2.1,1.9c-1,0-2.1-0.8-2.1-1.9V2.2H8.3v1.6c0,1-1,1.9-2.1,1.9S4.2,4.8,4.2,3.8
			V2.2H2.7C1.2,2.2,0,3.3,0,4.7v16.5C0,22.8,1.3,24,2.8,24h18.3c1.6,0,2.8-1.2,2.8-2.8V4.7C23.9,3.3,22.6,2.2,21.1,2.2z M21.8,20.9
			c0,0.5-0.5,1-1,1H3.1c-0.5,0-1-0.5-1-1V8.5h19.7V20.9z"/>
		<path class="st0" d="M17.5,4.4c-0.5,0-0.9-0.4-0.9-0.9V1.1c0-0.5,0.4-0.9,0.9-0.9h0.3c0.5,0,0.8,0.4,0.8,0.9v2.5
			c0,0.5-0.3,0.9-0.8,0.9L17.5,4.4z"/>
		<path class="st0" d="M6.1,4.4C5.6,4.4,5.2,4,5.2,3.6V1.1c0-0.5,0.4-0.9,0.9-0.9h0.3c0.5,0,0.8,0.4,0.8,0.9v2.5
			c0,0.5-0.3,0.9-0.8,0.9L6.1,4.4z"/>
	</g>
	<g id="Change_Password">
	</g>
	<g id="Change_User">
	</g>
	<g id="Change_Language">
	</g>
	<g id="TakePicture">
	</g>
	<g id="PrivateAppointment">
	</g>
	<g id="Calculate">
	</g>
	<g id="CompleteCall">
	</g>
</g>
<path class="st0" d="M11,9.9h2v8.3h-2V9.9 M13,19.2v1.5h-2v-1.5H13z"/>
</svg>
