<?xml version="1.0" encoding="utf-8"?>
<!-- Generator: Adobe Illustrator 20.1.0, SVG Export Plug-In . SVG Version: 6.00 Build 0)  -->
<svg version="1.1" id="Layer_1" xmlns="http://www.w3.org/2000/svg" xmlns:xlink="http://www.w3.org/1999/xlink" x="0px" y="0px"
	 viewBox="0 0 24 24" style="enable-background:new 0 0 24 24;" xml:space="preserve">
<style type="text/css">
	.st0{fill:#77AA99;}
</style>
<g id="Slices">
</g>
<g id="Icons">
	<g id="Image">
	</g>
	<g id="Address">
	</g>
	<g id="Main">
	</g>
	<g id="Map">
	</g>
	<g id="Holiday">
		<path class="st0" d="M11,9.3l1.2-0.7L13,9.3c0,0,1.4,11.1-3.1,14.7H2C2,24,10.6,23.2,11,9.3z"/>
		<path class="st0" d="M12,2.9c0,0,7.8-5.9,9.3,3.3c-3.9-3.3-7.6-2.1-8.3-0.6c2.7-1,13.6,2.3,6.8,11.2c-0.2-5.5-4.5-9.1-7.7-9.3
			C9.8,7.8,4.5,10,3.6,16.8c-4.4-9,1.8-12.2,6.3-11.6C8,3.2,3.4,3.6,2,7.2C1.7,2,6.2-1.3,12,2.9z"/>
	</g>
	<g id="Login">
	</g>
	<g id="Logout">
	</g>
	<g id="Month">
	</g>
	<g id="Stocktaking">
	</g>
	<g id="Edit">
	</g>
	<g id="Shelf">
	</g>
	<g id="Order_Basekt">
	</g>
	<g id="Call">
	</g>
	<g id="Select_All">
	</g>
	<g id="Multi_Select">
	</g>
	<g id="Terms">
	</g>
</g>
</svg>
