<?xml version="1.0" encoding="utf-8"?>
<!-- Generator: Adobe Illustrator 19.0.1, SVG Export Plug-In . SVG Version: 6.00 Build 0)  -->
<svg version="1.1" xmlns="http://www.w3.org/2000/svg" xmlns:xlink="http://www.w3.org/1999/xlink" x="0px" y="0px"
	 viewBox="0 0 24 24" style="enable-background:new 0 0 24 24;" xml:space="preserve">
<style type="text/css">
	.st0{fill:#008899;}
	.st1{fill:none;stroke:#008899;stroke-linecap:round;stroke-linejoin:round;stroke-miterlimit:10;}
	.st2{fill:none;}
</style>
<g id="Slices">
</g>
<g id="Icons">
	<g id="Image">
	</g>
	<g id="Address">
	</g>
	<g id="Main">
	</g>
	<g id="Map">
	</g>
	<g id="Holiday">
	</g>
	<g id="Login">
	</g>
	<g id="Logout">
	</g>
	<g id="Month">
	</g>
	<g id="Stocktaking">
	</g>
	<g id="Edit">
	</g>
	<g id="Shelf">
	</g>
	<g id="Order_Basekt">
	</g>
	<g id="Call">
		<path class="st0" d="M19.8,15.8c-1.3-1-2.6-1.7-3.9-0.6l-0.8,0.6c-0.6,0.5-1.6,2.6-5.6-1.8c-4-4.4-1.6-5-1.1-5.5l0.8-0.6
			c1.3-1,0.8-2.4-0.1-3.7L8.6,3.4C7.7,2,6.7,1.2,5.4,2.2L4.7,2.8c-0.6,0.4-2.1,1.6-2.5,4c-0.5,2.9,1,6.2,4.3,9.8
			C9.8,20.2,13,22,16.1,22c2.5,0,4.1-1.3,4.6-1.8l0.7-0.6c1.3-1,0.5-2.1-0.8-3.2L19.8,15.8z"/>
	</g>
	<g id="Select_All">
	</g>
	<g id="Multi_Select">
	</g>
	<g id="Terms">
	</g>
</g>
</svg>
