<?xml version="1.0" encoding="utf-8"?>
<!-- Generator: Adobe Illustrator 23.0.6, SVG Export Plug-In . SVG Version: 6.00 Build 0)  -->
<svg version="1.1" id="Capa_1" xmlns="http://www.w3.org/2000/svg" xmlns:xlink="http://www.w3.org/1999/xlink" x="0px" y="0px"
	 viewBox="0 0 24 24" style="enable-background:new 0 0 24 24;" xml:space="preserve">
<style type="text/css">
	.st0{fill:#535B6E;}
</style>
<g>
	<path class="st0" d="M23,8.5L10.7,2.6c-0.1,0-0.3,0-0.3,0.2L7.7,8.3h1.5l2-4.1l10.6,5.1l-3.4,6.9l-1.9-0.9V19l1.1,0.5
		c0.1,0.1,0.3,0,0.4-0.1l5.1-10.6C23.2,8.7,23.1,8.5,23,8.5z"/>
	<path class="st0" d="M15.4,9H1.8C1.6,9,1.5,9.1,1.5,9.3V21c0,0.2,0.1,0.3,0.3,0.3h13.6c0.2,0,0.3-0.1,0.3-0.3V9.3
		C15.7,9.1,15.6,9,15.4,9z M14.6,18h-0.9c-0.5-1.3-1.1-3.1-2.1-2.8C10.5,15.5,10,18,10,18s-0.6-2.9-2.1-4.4s-3,4.4-3,4.4h-2v-7.7
		h11.8V18H14.6z"/>
	<circle class="st0" cx="4.8" cy="11.9" r="1"/>
	<path class="st0" d="M11.2,12.6c0.2,0,0.4,0,0.6-0.1c0.2,0.1,0.5,0.1,0.7,0.1c0.7,0,1.3-0.3,1.3-0.8c0-0.4-0.6-0.8-1.3-0.8
		c-0.3,0-0.5,0-0.7,0.1C11.7,11,11.6,11,11.5,11h-0.2c-0.2,0-0.4,0.2-0.5,0.4c-0.6,0.1-1,0.3-1,0.5C9.9,12.4,10.5,12.6,11.2,12.6z"
		/>
</g>
</svg>
