<?xml version="1.0" encoding="utf-8"?>
<!-- Generator: Adobe Illustrator 24.0.3, SVG Export Plug-In . SVG Version: 6.00 Build 0)  -->
<svg version="1.1" id="Capa_1" xmlns="http://www.w3.org/2000/svg" xmlns:xlink="http://www.w3.org/1999/xlink" x="0px" y="0px"
	 viewBox="0 0 24 24" style="enable-background:new 0 0 24 24;" xml:space="preserve">
<style type="text/css">
	.st0{fill:#535B6E;}
</style>
<g>
	<path class="st0" d="M20.2,9.4L11.1,5c-0.1,0-0.2,0-0.2,0.1l-2,4.1H10l1.5-3l7.8,3.8l-2.5,5.1l-1.4-0.7v2.7l0.8,0.4
		c0.1,0.1,0.2,0,0.3-0.1l3.8-7.8C20.4,9.5,20.3,9.4,20.2,9.4z"/>
	<path class="st0" d="M14.6,9.8H4.5c-0.1,0-0.2,0.1-0.2,0.2v8.7c0,0.1,0.1,0.2,0.2,0.2h10.1c0.1,0,0.2-0.1,0.2-0.2V10
		C14.8,9.8,14.7,9.8,14.6,9.8z M14,16.4h-0.7c-0.4-1-0.8-2.3-1.6-2.1c-0.8,0.2-1.2,2.1-1.2,2.1s-0.4-2.1-1.6-3.3s-2.2,3.3-2.2,3.3
		H5.4v-5.7h8.7L14,16.4L14,16.4z"/>
	<circle class="st0" cx="6.8" cy="11.9" r="0.7"/>
	<path class="st0" d="M11.5,12.4c0.1,0,0.3,0,0.4-0.1c0.1,0.1,0.4,0.1,0.5,0.1c0.5,0,1-0.2,1-0.6c0-0.3-0.4-0.6-1-0.6
		c-0.2,0-0.4,0-0.5,0.1c-0.1-0.1-0.1-0.1-0.2-0.1h-0.1c-0.1,0-0.3,0.1-0.4,0.3c-0.4,0.1-0.7,0.2-0.7,0.4
		C10.5,12.3,11,12.4,11.5,12.4z"/>
</g>
</svg>
