<?xml version="1.0" encoding="utf-8"?>
<!-- Generator: Adobe Illustrator 23.1.1, SVG Export Plug-In . SVG Version: 6.00 Build 0)  -->
<svg version="1.1" id="Layer_1" xmlns="http://www.w3.org/2000/svg" xmlns:xlink="http://www.w3.org/1999/xlink" x="0px" y="0px"
	 viewBox="0 0 24 24" style="enable-background:new 0 0 24 24;" xml:space="preserve">
<style type="text/css">
	.st0{fill:#FFFFFF;}
</style>
<g id="Slices">
</g>
<g id="Icons">
	<g id="SnackPyramid">
	</g>
	<g id="Survey">
	</g>
	<g id="RescheduleCall">
	</g>
	<g id="AllProducts">
	</g>
	<g id="CurrentLocation">
	</g>
	<g id="Delivery_Item">
	</g>
	<g id="Edit_Order_Basket">
	</g>
	<g id="Notification">
	</g>
	<g id="SortOrder">
	</g>
	<g id="AllStores">
	</g>
	<g id="Visit">
		<g>
			<path class="st0" d="M18,14h-2c-0.6,0-1-0.4-1-1H9c0,0.6-0.4,1-1,1H6c-0.6,0-1-0.4-1-1H2v7c0,0.6,0.4,1,1,1h18c0.6,0,1-0.4,1-1
				v-7h-3C19,13.6,18.6,14,18,14z"/>
			<path class="st0" d="M21,7h-5c0-2.2-1.8-4-4-4S8,4.8,8,7H3C2.4,7,2,7.4,2,8v4h3c0-0.6,0.4-1,1-1h2c0.6,0,1,0.4,1,1h6
				c0-0.6,0.4-1,1-1h2c0.6,0,1,0.4,1,1h3V8C22,7.4,21.6,7,21,7z M12,5c1,0,1.8,0.9,2,2h-4C10.2,5.9,11,5,12,5z"/>
		</g>
	</g>
	<g id="Today">
	</g>
	<g id="Summary">
	</g>
	<g id="delete">
	</g>
	<g id="Delivery">
	</g>
	<g id="Public_Holiday">
	</g>
</g>
</svg>
