<?xml version="1.0" encoding="utf-8"?>
<!-- Generator: Adobe Illustrator 20.1.0, SVG Export Plug-In . SVG Version: 6.00 Build 0)  -->
<svg version="1.1" id="Layer_1" xmlns="http://www.w3.org/2000/svg" xmlns:xlink="http://www.w3.org/1999/xlink" x="0px" y="0px"
	 viewBox="0 0 24 24" style="enable-background:new 0 0 24 24;" xml:space="preserve">
<style type="text/css">
	.st0{fill:#77AA99;}
</style>
<g id="Slices">
</g>
<g id="Icons">
	<g id="ShowAllStores">
	</g>
	<g id="Move">
	</g>
	<g id="Sickness">
	</g>
	<g id="Barcode">
	</g>
	<g id="Issues">
	</g>
	<g id="Issue_Item">
	</g>
	<g id="Daily_Report">
	</g>
	<g id="DailyAgendaItem_x2B_">
	</g>
	<g id="CalFixedAppt">
	</g>
	<g id="Change_Password">
	</g>
	<g id="Change_User">
	</g>
	<g id="Change_Language">
	</g>
	<g id="TakePicture">
	</g>
	<g id="PrivateAppointment">
		<rect x="4" y="1" class="st0" width="1" height="3"/>
		<rect x="12" y="1" class="st0" width="1" height="3"/>
		<rect x="9" y="9" class="st0" width="2" height="2"/>
		<rect x="6" y="9" class="st0" width="2" height="2"/>
		<rect x="3" y="9" class="st0" width="2" height="2"/>
		<rect x="12" y="9" class="st0" width="2" height="2"/>
		<rect x="12" y="12" class="st0" width="2" height="2"/>
		<rect x="5" y="12" class="st0" width="2" height="2"/>
		<polygon class="st0" points="11.2,12.2 10.8,11.8 9.5,13.1 8.2,11.8 7.8,12.2 9.1,13.5 7.8,14.8 8.2,15.2 9.5,13.9 10.8,15.2 
			11.2,14.8 9.9,13.5 		"/>
		<path class="st0" d="M23,15h-1v-4h-1h-1h-3h-0.8H15v4h-1c-0.9,0-1,0.1-1,1H3c-0.4,0-1,0.1-1-0.2V6.9h13V10h2V4c0-1.1-0.9-2-2-2h-1
			v1.6c0,0.7-0.8,1.3-1.5,1.3s-1.6-0.6-1.6-1.3V2H6v1.6c0,0.7-0.8,1.3-1.6,1.3C3.7,4.9,3,4.3,3,3.6V2H2C0.8,2,0,2.9,0,4v12
			c0,1.1,0.9,2,2,2h11v5c0,0.9,0.1,1,1,1h9c0.9,0,1-0.1,1-1v-7C24,15.1,23.9,15,23,15z M17,13h3v2h-3V13z M19,20.3V22h-1v-1.8
			c-0.3-0.3-0.5-0.7-0.5-1.3c0-0.8,0.4-1.5,1-1.5s1,0.7,1,1.5C19.5,19.6,19.3,20.1,19,20.3z"/>
	</g>
	<g id="Calculate">
	</g>
	<g id="CompleteCall">
	</g>
</g>
</svg>
