<?xml version="1.0" encoding="utf-8"?>
<!-- Generator: Adobe Illustrator 19.2.1, SVG Export Plug-In . SVG Version: 6.00 Build 0)  -->
<svg version="1.1" id="Icons" xmlns="http://www.w3.org/2000/svg" xmlns:xlink="http://www.w3.org/1999/xlink" x="0px" y="0px"
	 viewBox="0 0 21 20" style="enable-background:new 0 0 21 20;" xml:space="preserve">
<style type="text/css">
	.st0{fill:#788994;}
</style>
<title>ItemType</title>
<g id="_">
	<rect x="8" y="4" class="st0" width="3" height="5"/>
</g>
<path class="st0" d="M20,14l-3-3v2H9.7C9.3,13,9,13.3,9,13.7v0v0.7c0.2,0.4,0.6,0.6,1,0.6h7v2L20,14z"/>
<path class="st0" d="M17.2,2H1.8C1.3,2,1,2.3,1,2.8c0,0,0,0,0,0v14.5C1,17.7,1.3,18,1.8,18l0,0H9v-2H3V4h13v6h2V2.8
	C18,2.3,17.7,2,17.2,2L17.2,2z"/>
</svg>
