<?xml version="1.0" encoding="utf-8"?>
<!-- Generator: Adobe Illustrator 19.0.1, SVG Export Plug-In . SVG Version: 6.00 Build 0)  -->
<svg version="1.1" xmlns="http://www.w3.org/2000/svg" xmlns:xlink="http://www.w3.org/1999/xlink" x="0px" y="0px"
	 viewBox="0 0 24 24" style="enable-background:new 0 0 24 24;" xml:space="preserve">
<style type="text/css">
	.st0{fill:#788994;}
</style>
<g id="Slices">
</g>
<g id="Icons">
	<g id="SnackPyramid">
	</g>
	<g id="Survey">
	</g>
	<g id="RescheduleCall">
	</g>
	<g id="AllProducts">
		<g>
			<path class="st0" d="M6.5,10c0,1.4,1.1,2.5,2.5,2.5s2.5-1.1,2.5-2.5S10.4,7.5,9,7.5S6.5,8.6,6.5,10z M10.5,10
				c0,0.8-0.7,1.5-1.5,1.5S7.5,10.8,7.5,10S8.2,8.5,9,8.5S10.5,9.2,10.5,10z"/>
			<path class="st0" d="M14.7,8.3c0.4-0.7,1-1.5,1.4-2C14.8,3.8,12.1,2,9,2c-4.4,0-8,3.6-8,8s3.6,8,8,8c1.9,0,3.6-0.7,5-1.8v-2.9
				c-1.1,1.6-2.9,2.7-5,2.7c-3.3,0-6-2.7-6-6s2.7-6,6-6C11.7,4,14,5.8,14.7,8.3z"/>
			<path class="st0" d="M23,22V11.2c0-1.3-1.5-3.5-2-4.1C20.9,7,21,6.1,21,6V3.3C20.9,2.9,20.4,2,20,2h-0.7h-1.2
				c-0.4,0-1,0.8-1.1,1.2V6c0,0.1,0.1,1,0,1.1c-0.5,0.6-2,2.8-2,4.1V22c0,0.4,0.4,1,0.8,1h3.5h3.5C23.2,23,23,22.4,23,22z"/>
		</g>
	</g>
	<g id="CurrentLocation">
	</g>
	<g id="Delivery_Item">
	</g>
	<g id="Edit_Order_Basket">
	</g>
	<g id="Notification">
	</g>
	<g id="SortOrder">
	</g>
	<g id="AllStores">
	</g>
	<g id="Visit">
	</g>
	<g id="Today">
	</g>
	<g id="Summary">
	</g>
	<g id="delete">
	</g>
	<g id="Delivery">
	</g>
	<g id="Public_Holiday">
	</g>
</g>
</svg>
