<?xml version="1.0" encoding="utf-8"?>
<!-- Generator: Adobe Illustrator 24.0.3, SVG Export Plug-In . SVG Version: 6.00 Build 0)  -->
<svg version="1.1" id="Layer_1" xmlns="http://www.w3.org/2000/svg" xmlns:xlink="http://www.w3.org/1999/xlink" x="0px" y="0px"
	 viewBox="0 0 24 24" style="enable-background:new 0 0 24 24;" xml:space="preserve">
<style type="text/css">
	.st0{fill:#90C2C9;}
</style>
<g id="Slices">
</g>
<g id="Icons">
	<g id="Relations">
	</g>
	<g id="DeliveryItem">
	</g>
	<g id="Expand">
	</g>
	<g id="Fridge">
	</g>
	<g id="Promotion_1_">
		<path class="st0" d="M6,11.8c0,0.8,0.5,1.3,1.2,1c1.2-0.5,3.2-0.7,5.9,1c3.8,2.5,7.3,0.5,8.4-0.3c0.3-0.2,0.4-0.5,0.4-0.9V4.5
			c0-0.7-0.7-1.3-1.4-1C18.6,4.1,15.1,4.8,13,3c-2.3-2-5.4-0.9-6.8-0.3C6,2.8,6,3.2,6,3.6V11.8z"/>
		<path class="st0" d="M4,23L4,23c-0.4,0-1-0.6-1-1V2.8C3,2.3,3.6,2,4,2l0,0c0.4,0,1,0.3,1,0.8V22C5,22.4,4.4,23,4,23z"/>
	</g>
	<g id="Day">
	</g>
	<g id="Contract">
	</g>
	<g id="Questionaire">
	</g>
	<g id="Open_Hours">
	</g>
	<g id="Invoice">
	</g>
	<g id="Ebene_23">
	</g>
	<g id="Back">
	</g>
	<g id="Order">
	</g>
	<g id="List">
	</g>
	<g id="Foward">
	</g>
	<g id="Attachment">
	</g>
	<g id="Focus">
	</g>
</g>
</svg>
