<?xml version="1.0" encoding="utf-8"?>
<!-- Generator: Adobe Illustrator 19.0.1, SVG Export Plug-In . SVG Version: 6.00 Build 0)  -->
<svg version="1.1" xmlns="http://www.w3.org/2000/svg" xmlns:xlink="http://www.w3.org/1999/xlink" x="0px" y="0px"
	 viewBox="0 0 24 24" style="enable-background:new 0 0 24 24;" xml:space="preserve">
<style type="text/css">
	.st0{fill:#788994;}
</style>
<g id="Slices">
</g>
<g id="Icons">
	<g id="SnackPyramid">
	</g>
	<g id="Survey">
	</g>
	<g id="RescheduleCall">
	</g>
	<g id="AllProducts">
	</g>
	<g id="CurrentLocation">
	</g>
	<g id="Delivery_Item">
	</g>
	<g id="Edit_Order_Basket">
	</g>
	<g id="Notification">
	</g>
	<g id="SortOrder">
	</g>
	<g id="AllStores">
	</g>
	<g id="Visit">
	</g>
	<g id="Today">
	</g>
	<g id="Summary">
	</g>
	<g id="delete">
	</g>
	<g id="Delivery">
	</g>
	<g id="Public_Holiday">
		<g>
			<path class="st0" d="M7.6,18.8c-0.4,0.3-0.7,0.8-0.7,1.4c0,1,0.8,1.8,1.8,1.8c0.9,0,1.6-0.6,1.7-1.4C9.6,20.2,8.7,19.6,7.6,18.8z
				"/>
		</g>
		<g>
			<g>
				<path class="st0" d="M19.4,2.9c0.5,0,0.9,0.4,0.9,0.9c0,0.5-0.4,0.9-0.9,0.9c-0.5,0-0.9-0.4-0.9-0.9c0-0.2,0.1-0.5,0.3-0.6
					C18.9,3,19.1,2.9,19.4,2.9L19.4,2.9 M19.4,2L19.4,2c-1,0-1.8,0.8-1.8,1.8c0,1,0.8,1.8,1.8,1.8c1,0,1.8-0.8,1.8-1.8
					C21.1,2.8,20.4,2,19.4,2L19.4,2z"/>
			</g>
		</g>
		<g>
			<path class="st0" d="M18.6,4.9c-1.6-1.6-5.7-1.8-9.4,2C7.6,8.4,4.4,8,3.5,9c-0.9,0.9-0.8,4,3.1,7.9c3.9,3.9,7,4.1,7.9,3.1
				c0.9-0.9,0.7-3.9,2.3-5.5C20.5,10.7,20.1,6.5,18.6,4.9z M10.4,10.7c-0.8,1-2.2,2.1-3.9,2.2C5.1,12.1,5.2,11,5.2,11
				s1.9,0.3,4.4-1.7c2.7-2,3.9-4.7,7.2-3.7C14.5,5.5,11.5,9.3,10.4,10.7z"/>
		</g>
	</g>
</g>
</svg>
