<?xml version="1.0" encoding="utf-8"?>
<!-- Generator: Adobe Illustrator 20.1.0, SVG Export Plug-In . SVG Version: 6.00 Build 0)  -->
<svg version="1.1" id="Layer_1" xmlns="http://www.w3.org/2000/svg" xmlns:xlink="http://www.w3.org/1999/xlink" x="0px" y="0px"
	 viewBox="0 0 24 24" style="enable-background:new 0 0 24 24;" xml:space="preserve">
<style type="text/css">
	.st0{fill:#788994;}
</style>
<g id="Slices">
</g>
<path class="st0" d="M20.8,12.8H19c-0.5,0-0.8,0.4-0.8,0.8c-0.4,3.4-3.3,6-6.8,6c-3.8,0-6.9-3-6.9-6.8c0-3.7,3.1-6.7,6.9-6.8v1.1
	c0,0.5,0.4,0.7,0.8,0.5l5.7-2.9c0.4-0.2,0.4-0.6,0-0.8l-5.7-2.9c-0.4-0.2-0.8,0-0.8,0.5v1.1C5.6,2.7,1,7.3,1,12.8
	C1,18.5,5.6,23,11.3,23c5.5,0,9.9-4.2,10.3-9.4C21.6,13.1,21.3,12.8,20.8,12.8z"/>
</svg>
