<?xml version="1.0" encoding="utf-8"?>
<!-- Generator: Adobe Illustrator 22.1.0, SVG Export Plug-In . SVG Version: 6.00 Build 0)  -->
<svg version="1.1" id="Capa_1" xmlns="http://www.w3.org/2000/svg" xmlns:xlink="http://www.w3.org/1999/xlink" x="0px" y="0px"
	 viewBox="0 0 24 24" style="enable-background:new 0 0 24 24;" xml:space="preserve">
<style type="text/css">
	.st0{fill:#788994;}
</style>
<g>
	<path class="st0" d="M22.6,8.7L10.3,2.8C10.2,2.8,10,2.8,10,3L7.3,8.5h1.5l2-4.1l10.6,5.1L18,16.4l-1.9-0.9v3.7l1.1,0.5
		c0.1,0.1,0.3,0,0.4-0.1L22.7,9C22.8,8.9,22.7,8.7,22.6,8.7z"/>
	<path class="st0" d="M15,9.2H1.4c-0.2,0-0.3,0.1-0.3,0.3v11.7c0,0.2,0.1,0.3,0.3,0.3H15c0.2,0,0.3-0.1,0.3-0.3V9.5
		C15.3,9.3,15.2,9.2,15,9.2z M14.2,18.2h-0.9c-0.5-1.3-1.1-3.1-2.1-2.8c-1.1,0.3-1.6,2.8-1.6,2.8s-0.6-2.9-2.1-4.4
		c-1.5-1.5-3,4.4-3,4.4h-2v-7.7h11.8V18.2z"/>
	<circle class="st0" cx="4.4" cy="12.1" r="1"/>
	<path class="st0" d="M10.8,12.8c0.2,0,0.4,0,0.6-0.1c0.2,0.1,0.5,0.1,0.7,0.1c0.7,0,1.3-0.3,1.3-0.8c0-0.4-0.6-0.8-1.3-0.8
		c-0.3,0-0.5,0-0.7,0.1c-0.1-0.1-0.2-0.1-0.3-0.1h-0.2c-0.2,0-0.4,0.2-0.5,0.4c-0.6,0.1-1,0.3-1,0.5C9.5,12.6,10.1,12.8,10.8,12.8z"
		/>
</g>
</svg>
