<?xml version="1.0" encoding="utf-8"?>
<!-- Generator: Adobe Illustrator 23.0.2, SVG Export Plug-In . SVG Version: 6.00 Build 0)  -->
<svg version="1.1" id="Capa_1" xmlns="http://www.w3.org/2000/svg" xmlns:xlink="http://www.w3.org/1999/xlink" x="0px" y="0px"
	 viewBox="0 0 24 24" style="enable-background:new 0 0 24 24;" xml:space="preserve">
<style type="text/css">
	.st0{fill:#535B6E;}
</style>
<g>
	<g>
		<path class="st0" d="M1.5,12.7v9c0,0.8,0.7,1.5,1.5,1.5h7.5V12.7H1.5z"/>
	</g>
</g>
<g>
	<g>
		<path class="st0" d="M22.5,6.7h-4.7c0.3-0.2,0.6-0.5,0.8-0.7c1.2-1.2,1.2-3.2,0-4.4c-1.2-1.2-3.2-1.2-4.4,0
			c-0.7,0.7-2.4,3.3-2.1,5.1h-0.1c0.2-1.8-1.5-4.4-2.1-5.1c-1.2-1.2-3.2-1.2-4.4,0c-1.2,1.2-1.2,3.2,0,4.4c0.2,0.2,0.5,0.4,0.8,0.7
			H1.5C0.7,6.7,0,7.4,0,8.2v2.2c0,0.4,0.3,0.8,0.8,0.8h9.8v-3h3v3h9.8c0.4,0,0.8-0.3,0.8-0.8V8.2C24,7.4,23.3,6.7,22.5,6.7z
			 M10.4,6.7c0,0-0.1,0-0.3,0c-1,0-3-1.1-3.7-1.7c-0.6-0.6-0.6-1.7,0-2.3c0.3-0.3,0.7-0.5,1.1-0.5c0.4,0,0.8,0.2,1.1,0.5
			C9.8,3.7,10.8,6.3,10.4,6.7z M13.9,6.7c-0.2,0-0.3,0-0.3,0c-0.3-0.4,0.7-3,1.7-4c0.6-0.6,1.7-0.6,2.3,0c0.6,0.6,0.6,1.7,0,2.3
			C16.9,5.7,14.9,6.7,13.9,6.7z"/>
	</g>
</g>
<g>
	<g>
		<path class="st0" d="M13.5,12.7v10.5H21c0.8,0,1.5-0.7,1.5-1.5v-9H13.5z"/>
	</g>
</g>
</svg>
