<?xml version="1.0" encoding="utf-8"?>
<!-- Generator: Adobe Illustrator 19.0.1, SVG Export Plug-In . SVG Version: 6.00 Build 0)  -->
<svg version="1.1" xmlns="http://www.w3.org/2000/svg" xmlns:xlink="http://www.w3.org/1999/xlink" x="0px" y="0px"
	 viewBox="0 0 24 24" style="enable-background:new 0 0 24 24;" xml:space="preserve">
<style type="text/css">
	.st0{fill:#788994;}
	.st1{fill-rule:evenodd;clip-rule:evenodd;fill:#788994;}
</style>
<g id="Slices">
</g>
<g id="Icons">
	<g id="Route">
	</g>
	<g id="Initiator">
	</g>
	<g id="Week">
	</g>
	<g id="B.Partner">
	</g>
	<g id="Task_List_1_">
		<path class="st0" d="M13.5,8.2l-2.4-2.4c-0.2-0.2-0.2-0.5,0-0.7s0.5-0.2,0.7,0l1.6,1.6l2.6-2.6c0.2-0.2,0.5-0.2,0.7,0
			s0.2,0.5,0,0.7L13.5,8.2z"/>
		<path class="st0" d="M13.5,13l-2.4-2.4c-0.2-0.2-0.2-0.5,0-0.7s0.5-0.2,0.7,0l1.6,1.6l2.6-2.6c0.2-0.2,0.5-0.2,0.7,0
			s0.2,0.5,0,0.7L13.5,13z"/>
	</g>
	<g id="Roles">
		<g>
			<path class="st1" d="M21.2,1h-0.7h-0.6l-0.3-0.7C19.6,0.1,19.4,0,19.1,0H15c-0.2,0-0.5,0.1-0.5,0.3L14.2,1h-1.3
				c-0.9,0-1.8,0.5-2.3,1.2c0.6,0.2,1.1,0.5,1.6,0.9c0.1,0,0.3,0,0.5,0H21c0.8,0,1,0.1,1,1v10c0,0.9-0.2,1-1,1h-7.9
				c1.3,0.5,2.7,1.2,3.6,2h5.2c1.4,0,2.1-0.5,2.1-2.1V3.8C24,2.2,22.7,1,21.2,1z"/>
		</g>
		<path class="st0" d="M10.4,15.4c-0.1,0-0.9-0.4-0.4-1.8h0c1.2-1.3,1.8-3.4,1.8-5.4c0-3.1-1.7-4.8-4.1-4.8S3.3,5,3.3,8.1
			c0,2.1,0.9,4.1,2.2,5.4c0.5,1.3-0.4,1.8-0.6,1.8c-2.5,0.9-5.4,2.6-5.4,4.2v0.6c0,2.3,4.3,2.8,8.3,2.8c4,0,8.2-0.5,8.2-2.8v-0.6
			C16,17.9,13,16.2,10.4,15.4z"/>
		<rect x="18" y="6" class="st0" width="3" height="1"/>
		<rect x="18" y="9" class="st0" width="3" height="1"/>
		<rect x="18" y="12" class="st0" width="3" height="1"/>
	</g>
	<g id="Draw">
	</g>
	<g id="Copy">
	</g>
	<g id="User">
	</g>
	<g id="Unread_Message">
	</g>
	<g id="Edit_Message">
	</g>
	<g id="Inbox">
	</g>
	<g id="Advanced_Search">
	</g>
	<g id="Idea_x3F_">
	</g>
	<g id="Packages">
	</g>
	<g id="_x3F__1_">
	</g>
</g>
</svg>
