<?xml version="1.0" encoding="utf-8"?>
<!-- Generator: Adobe Illustrator 23.0.1, SVG Export Plug-In . SVG Version: 6.00 Build 0)  -->
<svg version="1.1" id="Layer_1" xmlns="http://www.w3.org/2000/svg" xmlns:xlink="http://www.w3.org/1999/xlink" x="0px" y="0px"
	 viewBox="0 0 24 24" style="enable-background:new 0 0 24 24;" xml:space="preserve">
<style type="text/css">
	.st0{fill:#90C2C9;}
	.st1{enable-background:new    ;}
</style>
<g id="Slices">
</g>
<g id="Icons">
	<g id="Outbox">
	</g>
	<g id="Show_all">
	</g>
	<g id="Reply">
	</g>
	<g id="Display_Traffic">
	</g>
	<g id="Visit_Item">
	</g>
	<g id="Route">
		<g>
			<path class="st0" d="M18.2,5.3c0,0.1,0.1,0.2,0.1,0.4c0.1,0.4,0.5,0.6,0.8,0.4l0.4-0.2c0.4-0.3,0.5,0,0.5,0.4v12.9
				c0,0.2,0.2,0.4,0,0.5L17.6,21c-0.1,0.1-0.3,0.1-0.5,0l-4.5-1.9c-0.2,0-0.4-0.1-0.6-0.1s-0.5,0.1-0.7,0.2L7.6,21
				c-0.1,0.1-0.3,0.1-0.5,0L4,19.6c-0.1,0,0-0.2,0-0.4V6.1c0-0.4,0.1-0.7,0.5-0.5l2.3,1C7,6.7,7.2,6.8,7.4,6.8
				c0.2,0,0.5-0.1,0.7-0.2l0.4-0.2C8.6,6.3,8.8,6.2,8.8,6s0.1-0.3,0.1-0.4C9,5.1,8.5,4.7,8.1,4.9L7.7,5.1c-0.1,0.1-0.3,0.1-0.5,0
				L2.8,3.2C2.5,3.1,2.1,3.4,2.1,3.8v16.4c0,0.2,0.1,0.4,0.3,0.5l4.8,2.1c0.1,0.1,0.3,0.1,0.5,0l4.1-2.1c0.1-0.1,0.3-0.1,0.5,0
				l4.9,2.1c0.1,0.1,0.3,0.1,0.5,0l4.1-2c0.2-0.1,0.3-0.3,0.3-0.5V3.8c0-0.4-0.4-0.7-0.8-0.5l-2.7,1.4C18.3,4.8,18.1,5.1,18.2,5.3z"
				/>
		</g>
		<g class="st1">
			<path class="st0" d="M15.9,5.8c0,0.3-0.1,0.6-0.2,0.9s-0.3,0.4-0.5,0.6c-0.2,0.2-0.5,0.3-0.8,0.4c-0.3,0.1-0.7,0.1-1.1,0.1h-2.6
				V1.3H13c0.5,0,0.8,0,1.1,0.1c0.2,0,0.5,0.1,0.7,0.2c0.2,0.1,0.4,0.3,0.5,0.5s0.2,0.5,0.2,0.7c0,0.3-0.1,0.6-0.2,0.9
				c-0.2,0.2-0.4,0.4-0.7,0.5v0c0.4,0.1,0.7,0.3,1,0.5C15.8,5,15.9,5.4,15.9,5.8z M13.8,3.1c0-0.1,0-0.2-0.1-0.3
				c-0.1-0.1-0.1-0.2-0.3-0.2c-0.1,0-0.2-0.1-0.4-0.1c-0.1,0-0.4,0-0.7,0h-0.1v1.4h0.2c0.3,0,0.5,0,0.6,0c0.1,0,0.2,0,0.3-0.1
				c0.1-0.1,0.2-0.1,0.3-0.3C13.8,3.4,13.8,3.3,13.8,3.1z M14.2,5.8c0-0.2,0-0.4-0.1-0.5c-0.1-0.1-0.2-0.2-0.4-0.3
				C13.6,5,13.5,5,13.3,5c-0.2,0-0.4,0-0.7,0h-0.3v1.6h0.1c0.4,0,0.7,0,0.9,0c0.2,0,0.3,0,0.5-0.1c0.1-0.1,0.3-0.2,0.3-0.3
				C14.2,6.1,14.2,6,14.2,5.8z"/>
		</g>
		<g class="st1">
			<path class="st0" d="M5,17.8l2.2-6.5H9l2.2,6.5H9.5l-0.4-1.3H7l-0.4,1.3H5z M8.7,15.3l-0.7-2.2l-0.7,2.2H8.7z"/>
		</g>
		<g>
			<path class="st0" d="M13,16.5c-0.2,0-0.4-0.1-0.5-0.4s0.1-0.5,0.3-0.6c0,0,2.9-0.8,3.9-3.1c0.6-1.2,0.5-2.6-0.3-4.2
				c-0.1-0.3,0-0.5,0.2-0.7c0.2-0.1,0.5,0,0.7,0.2c0.9,1.9,1,3.6,0.3,5.1c-1.2,2.6-4.4,3.6-4.6,3.6C13.1,16.5,13,16.5,13,16.5z"/>
		</g>
	</g>
	<g id="Forward">
	</g>
	<g id="Rounding_Order">
	</g>
	<g id="Recipients">
	</g>
	<g id="Add_Product">
	</g>
	<g id="Add_Project_Group">
	</g>
	<g id="Foreign_product">
	</g>
	<g id="Forward_1_">
	</g>
	<g id="Start_of_Day">
	</g>
	<g id="TPM">
	</g>
	<g id="End_of_the_Day">
	</g>
</g>
</svg>
