<?xml version="1.0" encoding="utf-8"?>
<!-- Generator: Adobe Illustrator 24.0.3, SVG Export Plug-In . SVG Version: 6.00 Build 0)  -->
<svg version="1.1" id="Icons" xmlns="http://www.w3.org/2000/svg" xmlns:xlink="http://www.w3.org/1999/xlink" x="0px" y="0px"
	 viewBox="0 0 30 30" style="enable-background:new 0 0 30 30;" xml:space="preserve">
<style type="text/css">
	.st0{fill:#FFFFFF;}
	.st1{fill:#9BA2AB;}
</style>
<title>ItemType</title>
<g id="_">
	<polygon class="st0" points="11,6 15,5.8 15,13 11,13 	"/>
</g>
<g id="Icons_1_">
	<g id="Route">
	</g>
	<g id="Initiator">
	</g>
	<g id="Week">
	</g>
	<g id="B.Partner">
	</g>
	<g id="Task_List_1_">
	</g>
	<g id="Roles">
	</g>
	<g id="Draw">
	</g>
	<g id="Copy">
	</g>
	<g id="User">
		<path class="st1" d="M18,4h-6l-1.9-2H5C4.1,2,3,3.1,3,4v9c0,0.9,1.1,2,2,2l9.9-0.1c0-0.3-0.1-0.6-0.1-1c0-3.5,2.1-6.1,5.2-6.7V6
			C20,5.1,18.9,4,18,4z M2,16V5L0,5.1v4.1v7.3c0,1,1.1,1.5,2,1.5h13.7c-0.3-0.6-0.5-1.3-0.7-2H2z"/>
		<path class="st1" d="M23.9,21.2c-0.1,0-0.9-0.4-0.4-1.8l0,0c1.2-1.3,1.8-3.4,1.8-5.4c0-3.1-1.7-4.8-4.1-4.8s-4.4,1.6-4.4,4.8
			c0,2.1,0.9,4.1,2.2,5.4c0.5,1.3-0.4,1.8-0.6,1.8c-2.5,1-5.4,2.6-5.4,4.3v0.6c0,2.3,4.3,2.8,8.3,2.8s8.2-0.5,8.2-2.8v-0.6
			C29.5,23.8,26.6,22.1,23.9,21.2z"/>
	</g>
	<g id="Unread_Message">
	</g>
	<g id="Edit_Message">
	</g>
	<g id="Inbox">
	</g>
	<g id="Advanced_Search">
	</g>
	<g id="Idea_x3F_">
	</g>
	<g id="Packages">
	</g>
	<g id="_x3F__1_">
	</g>
</g>
</svg>
