<?xml version="1.0" encoding="utf-8"?>
<!-- Generator: Adobe Illustrator 20.1.0, SVG Export Plug-In . SVG Version: 6.00 Build 0)  -->
<svg version="1.1" id="Layer_1" xmlns="http://www.w3.org/2000/svg" xmlns:xlink="http://www.w3.org/1999/xlink" x="0px" y="0px"
	 viewBox="0 0 24 24" style="enable-background:new 0 0 24 24;" xml:space="preserve">
<style type="text/css">
	.st0{fill:#551155;}
</style>
<g id="Slices">
</g>
<path class="st0" d="M14.9,18.5c-0.6-0.6-1.4-0.9-2.2-0.8c-1.5,0.1-3.1-0.4-4.3-1.6c-1.1-1.1-1.6-2.5-1.6-3.9c0-0.5,0.1-1.1,0.2-1.6
	l3.3,3.3c1.7,0.4,4.1-2.1,3.7-3.7L10.7,7c0.5-0.1,1-0.2,1.6-0.2c1.4,0,2.8,0.5,3.9,1.6c1.2,1.2,1.7,2.8,1.6,4.3
	c-0.1,0.8,0.2,1.6,0.8,2.2l2.5,2.5c0.9-1.6,1.5-3.4,1.5-5.4c0-5.8-4.7-10.5-10.5-10.5S1.5,6.2,1.5,12S6.2,22.5,12,22.5
	c2,0,3.8-0.5,5.4-1.5C17.4,21,14.9,18.5,14.9,18.5z"/>
</svg>
