<?xml version="1.0" encoding="utf-8"?>
<!-- Generator: Adobe Illustrator 20.1.0, SVG Export Plug-In . SVG Version: 6.00 Build 0)  -->
<svg version="1.1" id="Layer_1" xmlns="http://www.w3.org/2000/svg" xmlns:xlink="http://www.w3.org/1999/xlink" x="0px" y="0px"
	 viewBox="0 0 24 24" style="enable-background:new 0 0 24 24;" xml:space="preserve">
<style type="text/css">
	.st0{fill:#DD4411;}
</style>
<g id="Slices">
</g>
<g id="Icons">
	<g id="Image">
	</g>
	<g id="Address">
	</g>
	<g id="Main">
	</g>
	<g id="Map">
	</g>
	<g id="Holiday">
	</g>
	<g id="Login">
	</g>
	<g id="Logout">
	</g>
	<g id="Month">
	</g>
	<g id="Stocktaking">
	</g>
	<g id="Edit">
	</g>
	<g id="Shelf">
		<path class="st0" d="M21.2,2h-0.4C20.4,2,20,2.3,20,2.8V4l0,0H3.9V2.8C3.9,2.3,3.6,2,3.1,2H2.8C2.3,2,2,2.3,2,2.8v19.5
			C2,22.7,2.3,23,2.8,23h0.4C3.6,23,4,22.7,4,22.2V21h16l0,0v1.2c0,0.4,0.3,0.8,0.8,0.8h0.4c0.4,0,0.8-0.3,0.8-0.8V2.8
			C22,2.3,21.7,2,21.2,2z M3.9,11H20l0,0v3l0,0H3.9V11z M20,6C20.1,6,20.1,6,20,6v3l0,0H3.9V6H20z M20,19H3.9v-3H20l0,0V19
			C20.1,19,20.1,19,20,19z"/>
	</g>
	<g id="Order_Basekt">
	</g>
	<g id="Call">
	</g>
	<g id="Select_All">
	</g>
	<g id="Multi_Select">
	</g>
	<g id="Terms">
	</g>
</g>
</svg>
