<?xml version="1.0" encoding="utf-8"?>
<!-- Generator: Adobe Illustrator 19.0.1, SVG Export Plug-In . SVG Version: 6.00 Build 0)  -->
<svg version="1.1" xmlns="http://www.w3.org/2000/svg" xmlns:xlink="http://www.w3.org/1999/xlink" x="0px" y="0px"
	 viewBox="0 0 24 24" style="enable-background:new 0 0 24 24;" xml:space="preserve">
<style type="text/css">
	.st0{fill:#788994;}
</style>
<g id="Slices">
</g>
<g id="Icons">
	<g id="SnackPyramid">
	</g>
	<g id="Survey">
	</g>
	<g id="RescheduleCall">
	</g>
	<g id="AllProducts">
	</g>
	<g id="CurrentLocation">
	</g>
	<g id="Delivery_Item">
		<g>
			<path class="st0" d="M18.6,4.4C18.4,4.2,18.2,4,18,3.7c-0.2-0.2-0.4-0.4-0.6-0.7C15.9,1.5,15,1,14.1,1H6C4.1,1,3,2,3,4v16.4
				c0,2,1.5,3.6,3.4,3.6h11.1c1.9,0,3.4-1.6,3.4-3.6V7.8C21,6.8,20.1,5.9,18.6,4.4z M19,21c0,1,0,1-1,1H6c-1,0-1,0-1-1V4.2
				C5,3.2,5,3,6,3h7c0.6,0.2,1,0.2,1,1v2.9C14,7.4,14.5,8,15,8h3c0.9,0,1,0.1,1,1V21z"/>
			<circle class="st0" cx="10" cy="19" r="1.3"/>
			<circle class="st0" cx="15" cy="19" r="1.3"/>
			<path class="st0" d="M16,10H9.5L8.8,7L6.1,7c0,0,0,0,0,0c-0.6,0-1,0.4-1,1c0,0.6,0.4,1,1,1l1.1,0l2,8h6.5l1.7-4.9
				c0.2-0.5,0.1-1-0.2-1.5C17,10.3,16.5,10,16,10z M14.3,15h-3.5L10,12h5.3L14.3,15z"/>
		</g>
	</g>
	<g id="Edit_Order_Basket">
	</g>
	<g id="Notification">
	</g>
	<g id="SortOrder">
	</g>
	<g id="AllStores">
	</g>
	<g id="Visit">
	</g>
	<g id="Today">
	</g>
	<g id="Summary">
	</g>
	<g id="delete">
	</g>
	<g id="Delivery">
	</g>
	<g id="Public_Holiday">
	</g>
</g>
</svg>
