<?xml version="1.0" encoding="utf-8"?>
<!-- Generator: Adobe Illustrator 24.0.3, SVG Export Plug-In . SVG Version: 6.00 Build 0)  -->
<svg version="1.1" id="Layer_1" xmlns="http://www.w3.org/2000/svg" xmlns:xlink="http://www.w3.org/1999/xlink" x="0px" y="0px"
	 viewBox="0 0 24 24" style="enable-background:new 0 0 24 24;" xml:space="preserve">
<style type="text/css">
	.st0{fill:#90C2C9;}
</style>
<path class="st0" d="M11.5,18.6c-0.3,0.1-0.5,0.1-0.8-0.1c-0.4-0.4-0.8-1-0.8-1.5c0-1-1.7-0.7-1.7-2.7c0-1.6-1.9-2-3.5-1.9
	c-0.4,0-0.7-0.3-0.7-0.7v-6c0-0.5,0.5-0.8,0.9-0.6l3.6,1.8h0.1L8.8,7c1.5,0.9,1.2,1.6,0.6,2.7c-0.7,1.2-1,0-2-0.3s-2,0.3-1.7,1
	s1.3,0,2,0.7s0.7,1.7,2.7,1s2.3-0.3,3,0.3c0.7,0.7,1,2,0,3c-0.6,0.6-0.8,1.8-1.1,2.7c0,0.2-0.2,0.3-0.3,0.4L11.5,18.6z M19.9,7v8
	c0,0.5-0.4,0.8-0.8,0.6c-1.5-0.6-0.3-3.2-1.4-4.6c-1-1.3-2.4,0-3.7-2c-1.2-2,0.4-3.4,1.9-4.1c0.2-0.1,0.4-0.1,0.6,0l3.1,1.5
	C19.8,6.5,19.9,6.8,19.9,7z M21.5,5.1l-6-3c-0.3-0.1-0.6-0.1-0.9,0L9.1,4.9L3.5,2.1c-0.3-0.2-0.8-0.2-1,0C2.1,2.3,2,2.6,2,3v15
	c0,0.4,0.2,0.7,0.5,0.9l6,3c0.3,0.1,0.6,0.1,0.9,0l5.6-2.8l5.6,2.8C20.7,22,20.8,22,21,22s0.4,0,0.5-0.2c0.3-0.2,0.5-0.5,0.5-0.8V6
	C22,5.6,21.9,5.3,21.5,5.1z"/>
</svg>
