<?xml version="1.0" encoding="utf-8"?>
<!-- Generator: Adobe Illustrator 24.0.3, SVG Export Plug-In . SVG Version: 6.00 Build 0)  -->
<svg version="1.1" id="Layer_1" xmlns="http://www.w3.org/2000/svg" xmlns:xlink="http://www.w3.org/1999/xlink" x="0px" y="0px"
	 viewBox="0 0 24 24" style="enable-background:new 0 0 24 24;" xml:space="preserve">
<style type="text/css">
	.st0{fill:#90C2C9;}
</style>
<path class="st0" d="M21.7,19.8l-2.2-2.2c-0.3-0.3-0.8-0.3-1.1-0.1c0.9-0.9,1.3-2.1,1.3-3.4c0-2.8-2.3-5.2-5.2-5.2S9.3,11.2,9.3,14
	s2.3,5.2,5.2,5.2c1.2,0,2.3-0.4,3.3-1.1c-0.3,0.3-0.3,0.9,0,1.2l2.2,2.2c0.3,0.3,0.9,0.3,1.3,0l0.4-0.4C22,20.7,22,20.1,21.7,19.8z
	 M14.5,17.5c-1.9,0-3.4-1.5-3.4-3.4s1.5-3.4,3.4-3.4c1.9,0,3.4,1.5,3.4,3.4C17.9,16,16.4,17.5,14.5,17.5z"/>
<g>
	<g>
		<path class="st0" d="M4.2,4.6h15.5c0.4,0,0.9-0.6,0.9-1V2.8c0-0.4-0.4-0.8-0.9-0.8H4.2C3.7,2,3.3,2.3,3.3,2.8v0.8
			C3.3,4,3.7,4.6,4.2,4.6z M22.1,10.7l-1.6-3.9V6.3c0-0.4-0.1-0.9-0.5-0.9H4.2c-0.4,0-0.9,0.4-0.9,0.9v0.5l-1.7,3.9
			c0,0,0,0.8,0.8,0.8c0,0,0,0,0.1,0V21c0,0.4,0.4,0.8,0.9,0.8h11.2V20c-1.1,0-2.1-0.3-3.1-0.9H5V14h3.4c0-0.9,0.2-1.6,0.4-2.3
			c-0.2,0.1-0.3,0.2-0.5,0.2c-0.6,0-1.1-0.5-1.1-1.1v-0.1l0.5-3.2h2l-0.3,3.2c0.4-0.6,0.9-1.1,1.5-1.5L11,7.5h2v0.7
			C13.4,8.1,14,8,14.4,8V7.5h2l0.2,0.9c0.5,0.2,1,0.5,1.5,0.8l-0.3-1.5h2l0.9,3.1c0,0.4-0.3,0.8-0.5,1c0.3,0.7,0.4,1.5,0.4,2.3
			c0,0.9-0.3,1.9-0.7,2.7c0.1,0.1,0.2,0.1,0.3,0.2l1.3,1.3v-6.8C22.2,11.4,22.1,10.7,22.1,10.7z M5.7,10.8L5.7,10.8
			c0,0.7-0.5,1.2-1.1,1.2c-0.6-0.1-1.1-0.6-1.1-1.2l0.9-3.2h2L5.7,10.8z M17.9,21.7H19l-1.1-1.1V21.7z"/>
	</g>
</g>
</svg>
