<?xml version="1.0" encoding="utf-8"?>
<!-- Generator: Adobe Illustrator 25.1.0, SVG Export Plug-In . SVG Version: 6.00 Build 0)  -->
<svg version="1.1" id="Capa_1" xmlns="http://www.w3.org/2000/svg" xmlns:xlink="http://www.w3.org/1999/xlink" x="0px" y="0px"
	 viewBox="0 0 19.8 23" style="enable-background:new 0 0 19.8 23;" xml:space="preserve">
<style type="text/css">
	.st0{fill:#008899;}
</style>
<g>
	<polygon class="st0" points="7.9,5.6 5.6,7.9 4.2,6.4 3.5,7.1 5.6,9.2 8.6,6.3 	"/>
	<polygon class="st0" points="4.2,10.8 3.5,11.5 5.6,13.6 8.6,10.7 7.9,10 5.6,12.3 	"/>
	<rect x="9.1" y="7.7" class="st0" width="5.3" height="0.9"/>
	<rect x="10" y="12.1" class="st0" width="4.4" height="0.9"/>
	<path class="st0" d="M16.8,16.8H6.2c-1.8,0-2.8,0.7-2.8,2.3c0,0-0.1,1.6-1.2,1.9C2,20.8,2,20.6,2,20V3.2C2,2.2,2,2,3,2h11.9
		c1,0,1,0,1,1v12.6h2v-12C18,1.7,16.5,0.1,14.5,0c0,0,0,0,0,0H3C1.5-0.2,0.2,0.9,0,2.3C0,2.6,0,2.8,0,3v16.4
		c-0.1,1.9,1.4,3.5,3.4,3.6c0,0,0,0,0,0h12.4c0.7,0,1.4-0.1,2-0.3c1.2-0.4,2-1.6,2-2.8C19.8,18.2,18.4,16.8,16.8,16.8z M17.8,19.7
		c0,0.4-0.2,0.8-0.6,1c-0.8,0.3-1.6,0.4-2.4,0.3H8.4H5.1c0.5-0.8,0.2-2.3,1.1-2.3h6.1h4.1h0.4c0.5,0,1,0.3,1,0.9
		C17.8,19.6,17.8,19.7,17.8,19.7z"/>
</g>
</svg>
