<?xml version="1.0" encoding="utf-8"?>
<!-- Generator: Adobe Illustrator 21.0.0, SVG Export Plug-In . SVG Version: 6.00 Build 0)  -->
<svg version="1.1" id="Layer_1" xmlns="http://www.w3.org/2000/svg" xmlns:xlink="http://www.w3.org/1999/xlink" x="0px" y="0px"
	 viewBox="0 0 32 32" style="enable-background:new 0 0 32 32;" xml:space="preserve">
<style type="text/css">
	.st0{fill:#C0C0C0;}
</style>
<path class="st0" d="M16.8,11.2c-5.7,0-10.4,4.6-10.4,10.4S11.1,32,16.8,32s10.4-4.6,10.4-10.4S22.5,11.2,16.8,11.2z M16.8,29
	c-4.1,0-7.4-3.3-7.4-7.4s3.3-7.4,7.4-7.4s7.4,3.3,7.4,7.4S20.9,29,16.8,29z M19,22.6l2.2-2.2l-3.1-0.4l-1.4-2.8l-1.4,2.8l-3.1,0.4
	l2.2,2.2L14,25.7l2.7-1.5l2.7,1.5C19.5,25.7,19,22.6,19,22.6z M11.4,0l7.9,10.7h-5.3L6.1,0H11.4z M20.2,9.6L27.4,0h-5.3l-4.5,6
	C17.6,6,20.2,9.6,20.2,9.6z"/>
</svg>
