<svg viewBox="0 0 24 24" fill="none" xmlns="http://www.w3.org/2000/svg">
<path d="M22.3445 13.9422H22.2891C22.2891 13.357 22.2891 12.6796 22.2891 12.0483C22.2891 11.8374 22.2474 11.6285 22.1664 11.4336C22.0854 11.2387 21.9667 11.0618 21.817 10.9128C21.6674 10.7638 21.4897 10.6458 21.2943 10.5655C21.0989 10.4852 20.8896 10.4441 20.6782 10.4447L19.6259 10.4079C19.1966 9.75352 18.6427 8.88721 18.1442 8.03933C17.2995 6.61083 16.2979 6.72142 16.2979 6.72142H12.6931V5.44038C12.6931 5.24606 12.6158 5.0597 12.4781 4.9223C12.3405 4.7849 12.1538 4.7077 11.9592 4.7077H1.65699C1.46235 4.7077 1.27568 4.7849 1.13805 4.9223C1.00042 5.0597 0.923096 5.24606 0.923096 5.44038V16.5781C0.923096 16.6743 0.942078 16.7695 0.97896 16.8584C1.01584 16.9473 1.0699 17.0281 1.13805 17.0961C1.2062 17.1642 1.2871 17.2181 1.37614 17.255C1.46518 17.2918 1.56061 17.3107 1.65699 17.3107H2.954C3.1476 17.8681 3.51033 18.3514 3.99176 18.6934C4.4732 19.0355 5.04942 19.2193 5.64033 19.2193C6.23123 19.2193 6.80745 19.0355 7.28889 18.6934C7.77033 18.3514 8.13306 17.8681 8.32666 17.3107H15.8225C16.0161 17.8681 16.3789 18.3514 16.8603 18.6934C17.3417 19.0355 17.918 19.2193 18.5089 19.2193C19.0998 19.2193 19.676 19.0355 20.1574 18.6934C20.6389 18.3514 21.0016 17.8681 21.1952 17.3107H22.3445C22.5391 17.3107 22.7258 17.2335 22.8634 17.0961C23.0011 16.9587 23.0784 16.7724 23.0784 16.5781V14.6749C23.0784 14.5787 23.0594 14.4834 23.0225 14.3945C22.9856 14.3057 22.9316 14.2249 22.8634 14.1568C22.7953 14.0888 22.7144 14.0348 22.6253 13.998C22.5363 13.9612 22.4409 13.9422 22.3445 13.9422ZM5.64033 17.7485C5.36646 17.7485 5.09874 17.6674 4.87102 17.5155C4.64331 17.3636 4.46583 17.1477 4.36103 16.8951C4.25622 16.6425 4.2288 16.3646 4.28223 16.0964C4.33566 15.8282 4.46754 15.5819 4.66119 15.3886C4.85485 15.1952 5.10158 15.0636 5.37018 15.0102C5.63879 14.9569 5.91721 14.9843 6.17023 15.0889C6.42325 15.1935 6.63951 15.3707 6.79167 15.5981C6.94382 15.8254 7.02503 16.0927 7.02503 16.3661C7.02503 16.7327 6.87914 17.0843 6.61946 17.3436C6.35978 17.6029 6.00757 17.7485 5.64033 17.7485ZM13.9486 10.4954C13.7697 10.479 13.6045 10.3929 13.4887 10.2558C13.373 10.1187 13.316 9.94152 13.3301 9.76274V8.4817C13.316 8.30292 13.373 8.12578 13.4887 7.98865C13.6045 7.85152 13.7697 7.76543 13.9486 7.74902H16.081C16.7134 7.74902 17.1149 8.54161 17.1149 8.54161C17.1149 8.54161 17.6088 9.36645 17.8304 9.76274C18.0519 10.159 18.0288 10.4954 17.2119 10.4954H13.9486ZM18.5089 17.7485C18.235 17.7485 17.9673 17.6674 17.7396 17.5155C17.5118 17.3636 17.3344 17.1477 17.2296 16.8951C17.1248 16.6425 17.0973 16.3646 17.1508 16.0964C17.2042 15.8282 17.3361 15.5819 17.5297 15.3886C17.7234 15.1952 17.9701 15.0636 18.2387 15.0102C18.5073 14.9569 18.7857 14.9843 19.0388 15.0889C19.2918 15.1935 19.508 15.3707 19.6602 15.5981C19.8124 15.8254 19.8936 16.0927 19.8936 16.3661C19.8936 16.7327 19.7477 17.0843 19.488 17.3436C19.2283 17.6029 18.8761 17.7485 18.5089 17.7485Z" fill="#DD7A01"/>
</svg>
