<?xml version="1.0" encoding="utf-8"?>
<!-- Generator: Adobe Illustrator 21.0.0, SVG Export Plug-In . SVG Version: 6.00 Build 0)  -->
<svg version="1.1" id="Layer_1" xmlns="http://www.w3.org/2000/svg" xmlns:xlink="http://www.w3.org/1999/xlink" x="0px" y="0px"
	 viewBox="0 0 56 56" style="enable-background:new 0 0 56 56;" xml:space="preserve">
<style type="text/css">
	.st0{fill:#F3F6F8;}
	.st1{fill:#B4C7D4;}
</style>
<circle class="st0" cx="28" cy="28" r="28"/>
<path class="st1" d="M42.4,32.6l-3.6-8.3v-1.1c0-0.9-0.2-1.9-1.1-1.9H3.8c-0.9,0-1.9,0.9-1.9,1.9v1.1L0,28.5
	c0.1,6.1,2.1,11.7,5.5,16.2v-5h14.8v11.1h-8.6c4.1,2.9,8.9,4.8,14.2,5.1V39.8h7.4v15.7c2.6-0.5,5.1-1.4,7.4-2.5V34.2
	C42.6,34.2,42.4,32.6,42.4,32.6z M7.1,32.8c0,0,0,0,0,0.2c0,1.3-1.1,2.3-2.4,2.3c-1.4-0.2-2.5-1.3-2.5-2.5l2-6.9h4.2L7.1,32.8z
	 M15.3,32.6c0,0,0,0,0,0.2c0,1.3-1.1,2.3-2.4,2.3c-1.3,0-2.4-1.1-2.4-2.3v-0.2l0.9-6.9h4.2L15.3,32.6z M20.8,35.1
	c-1.3,0-2.4-1.1-2.4-2.3c0,0,0,0,0-0.2l0.2-6.9h4.2l0.2,6.9c0,0,0,0,0,0.2C23.1,34,22,35.1,20.8,35.1z M28.8,35.1
	c-1.3,0-2.4-1.1-2.4-2.3c0,0,0,0,0-0.2l-0.6-6.9H30l1.1,7C31.1,34,30,35.1,28.8,35.1z M36.8,35.1c-1.3,0-2.4-1.1-2.4-2.2
	c0-0.2,0-0.2,0-0.2L33,25.9h4.2l1.9,6.7C39.1,34,38,35.1,36.8,35.1z M3.8,19.5h33.3c0.9,0,1.9-1.3,1.9-2.2v-1.7
	c0-0.9-0.9-1.7-1.9-1.7H3.8c-0.7,1.2-1.4,2.5-1.9,3.9C2.2,18.6,3,19.5,3.8,19.5z"/>
</svg>
