<?xml version="1.0" encoding="utf-8"?>
<!-- Generator: Adobe Illustrator 19.0.1, SVG Export Plug-In . SVG Version: 6.00 Build 0)  -->
<svg version="1.1" xmlns="http://www.w3.org/2000/svg" xmlns:xlink="http://www.w3.org/1999/xlink" x="0px" y="0px"
	 viewBox="0 0 24 24" style="enable-background:new 0 0 24 24;" xml:space="preserve">
<style type="text/css">
	.st0{fill:#788994;}
	.st1{fill-rule:evenodd;clip-rule:evenodd;fill:#788994;}
	.st2{fill:none;}
</style>
<g id="Slices">
</g>
<g id="Icons">
	<g id="ShowAllStores">
		<g>
			<path class="st0" d="M3,4h18c0.5,0,1-0.7,1-1.2V1.9C22,1.4,21.5,1,21,1H3C2.5,1,2,1.4,2,1.9v0.9C2,3.3,2.5,4,3,4z"/>
			<path class="st0" d="M23.9,11.1L22,6.6V6c0-0.5-0.1-1-0.6-1H3C2.5,5,2,5.5,2,6v0.6l-2,4.5c0,0,0,0.9,0.9,0.9c0,0,0,0,0.1,0v11.1
				C1,23.6,1.5,24,2,24h13v-9h4v9h2.4c0.5,0,1.6-0.4,1.6-0.9V12c0,0,0,0,0,0C24,12,23.9,11.1,23.9,11.1z M1,11.7v0.2
				C1,11.8,1,11.7,1,11.7z M7.2,7.4h2.3l-0.3,3.7c0,0,0,0,0,0h0c0,0,0,0,0,0.1c0,0.7-0.6,1.3-1.3,1.3c-0.7,0-1.3-0.6-1.3-1.3
				c0,0,0-0.1,0-0.1c0,0,0,0,0,0h0c0,0,0,0,0,0L7.2,7.4z M2.2,11.2C2.2,11.2,2.2,11.1,2.2,11.2L2.2,11.2C2.2,11.1,2.2,11.1,2.2,11.2
				l1.1-3.7h2.3l-0.8,3.7c0,0,0,0,0,0h0c0,0,0,0,0,0.1c0,0.7-0.6,1.3-1.3,1.3C2.8,12.5,2.2,11.9,2.2,11.2z M12,21H4v-6h8V21z
				 M12.2,12.5c-0.7,0-1.3-0.6-1.3-1.3c0,0,0,0,0-0.1h0c0,0,0,0,0,0L11,7.4h2.3l0.1,3.7c0,0,0,0,0,0h0c0,0,0,0,0,0c0,0,0,0,0,0.1
				C13.5,11.9,12.9,12.5,12.2,12.5z M17.8,11.2c0,0.7-0.6,1.3-1.3,1.3c-0.7,0-1.3-0.6-1.3-1.3c0,0,0,0,0-0.1c0,0,0,0,0,0h0
				c0,0,0,0,0,0l-0.3-3.7h2.3L17.8,11.2C17.8,11.1,17.8,11.1,17.8,11.2L17.8,11.2C17.8,11.1,17.8,11.2,17.8,11.2z M22.1,11.1
				L22.1,11.1C22.1,11.1,22.1,11.2,22.1,11.1c0,0.8-0.6,1.4-1.3,1.4c-0.7,0-1.3-0.6-1.3-1.2c0-0.1,0-0.1,0-0.1l-0.8-3.7h2.3
				L22.1,11.1C22.1,11.1,22.1,11.1,22.1,11.1z M23,11.8v-0.1C23,11.7,23,11.8,23,11.8z"/>
		</g>
	</g>
	<g id="Move">
	</g>
	<g id="Sickness">
	</g>
	<g id="Barcode">
	</g>
	<g id="Issues">
	</g>
	<g id="Issue_Item">
	</g>
	<g id="Daily_Report">
	</g>
	<g id="DailyAgendaItem_x2B_">
	</g>
	<g id="CalFixedAppt">
	</g>
	<g id="Change_Password">
	</g>
	<g id="Change_User">
	</g>
	<g id="Change_Language">
	</g>
	<g id="TakePicture">
	</g>
	<g id="PrivateAppointment">
	</g>
	<g id="Calculate">
	</g>
	<g id="CompleteCall">
	</g>
</g>
</svg>
