<?xml version="1.0" encoding="UTF-8"?>
<svg id="Layer_1" data-name="Layer 1" xmlns="http://www.w3.org/2000/svg" viewBox="0 0 32 28.34">
  <defs>
    <style>
      .cls-1, .cls-2 {
        fill: #1c3b4f;
      }

      .cls-2, .cls-3 {
        fill-rule: evenodd;
      }

      .cls-3 {
        fill: #1264a3;
      }
    </style>
  </defs>
  <g id="In_progress_visit_791X701" data-name="In progress visit 791X701">
    <g id="Group_427321273" data-name="Group 427321273">
      <g id="Group_427321272" data-name="Group 427321272">
        <path id="Vector" class="cls-1" d="M26.06,5.49h-6.86c0-3.02-2.47-5.49-5.49-5.49s-5.49,2.47-5.49,5.49H1.37c-.82,0-1.37.55-1.37,1.37v5.49h4.11c0-.82.55-1.37,1.37-1.37h2.74c.82,0,1.37.55,1.37,1.37h8.23c0-.82.55-1.37,1.37-1.37h2.74c.82,0,1.37.55,1.37,1.37h4.11v-5.49c0-.82-.55-1.37-1.37-1.37ZM13.71,2.74c1.37,0,2.47,1.23,2.74,2.74h-5.49c.27-1.51,1.37-2.74,2.74-2.74Z"/>
      </g>
      <path id="Subtract" class="cls-3" d="M26.06,28.34c3.28,0,5.94-2.66,5.94-5.94s-2.66-5.94-5.94-5.94-5.94,2.66-5.94,5.94,2.66,5.94,5.94,5.94ZM26.7,22.18c0,.1.02.2.1.27l1.39,1.41c.15.15.15.37,0,.52l-.52.52c-.15.15-.37.15-.52,0l-1.83-1.83c-.05-.07-.1-.17-.1-.27v-3c0-.2.17-.37.37-.37h.74c.2,0,.37.17.37.37v2.38Z"/>
      <path id="Subtract_2" data-name="Subtract 2" class="cls-2" d="M19.2,15.09h2.74c.82,0,1.37-.55,1.37-1.37h4.11v1.43c-.47-.1-.96-.15-1.46-.15-4.04,0-7.31,3.27-7.31,7.31,0,.83.14,1.63.39,2.38H1.37c-.82,0-1.37-.55-1.37-1.37v-9.6h4.11c0,.82.55,1.37,1.37,1.37h2.74c.82,0,1.37-.55,1.37-1.37h8.23c0,.82.55,1.37,1.37,1.37Z"/>
    </g>
  </g>
</svg>