<?xml version="1.0" encoding="utf-8"?>
<!-- Generator: Adobe Illustrator 20.1.0, SVG Export Plug-In . SVG Version: 6.00 Build 0)  -->
<svg version="1.1" id="Layer_1" xmlns="http://www.w3.org/2000/svg" xmlns:xlink="http://www.w3.org/1999/xlink" x="0px" y="0px"
	 viewBox="0 0 24 24" style="enable-background:new 0 0 24 24;" xml:space="preserve">
<style type="text/css">
	.st0{fill:#788994;}
</style>
<g id="Slices">
</g>
<path class="st0" d="M6,12.5c0,2.2,1.8,4,4,4c1.8,0,3.2-1.2,3.8-2.7l2.2-1.3l0,0c0,3.3-2.7,6-6,6s-6-2.7-6-6s2.7-6,6-6
	c1.1,0,2.1,0.3,3,0.8l-2.2,1.3c-0.2,0-0.5-0.1-0.8-0.1C7.8,8.5,6,10.3,6,12.5z M10,10.5c-1.1,0-2,0.9-2,2s0.9,2,2,2s2-0.9,2-2l0,0
	l3.4-1.9c1-0.6,2.7-0.3,3.7,0.2L24,7.8l-3.2-1.6L21,2.6l-4.9,2.9c-0.1,1.1-0.7,2.7-1.7,3.3l-3.4,2C10.7,10.6,10.4,10.5,10,10.5z
	 M18,12.4L18,12.4c0,4.5-3.6,8.1-8,8.1s-8-3.6-8-8s3.6-8,8-8c1.5,0,2.9,0.4,4,1.1C14.4,5,14.5,4,14.2,3.4c-1.3-0.6-2.7-0.9-4.2-0.9
	C4.5,2.5,0,7,0,12.5s4.5,10,10,10c5.2,0,9.5-4,10-9.1C19.7,12.8,18.9,12.3,18,12.4z"/>
</svg>
