<?xml version="1.0" encoding="utf-8"?>
<!-- Generator: Adobe Illustrator 19.0.1, SVG Export Plug-In . SVG Version: 6.00 Build 0)  -->
<svg version="1.1" xmlns="http://www.w3.org/2000/svg" xmlns:xlink="http://www.w3.org/1999/xlink" x="0px" y="0px"
	 viewBox="0 0 24 24" style="enable-background:new 0 0 24 24;" xml:space="preserve">
<style type="text/css">
	.st0{fill:#788994;}
	.st1{fill-rule:evenodd;clip-rule:evenodd;fill:#788994;}
</style>
<g id="Slices">
</g>
<g id="Icons">
	<g id="Route">
	</g>
	<g id="Initiator">
	</g>
	<g id="Week">
	</g>
	<g id="B.Partner">
	</g>
	<g id="Task_List_1_">
		<path class="st1" d="M16.1,5H7.9C7.4,5,7,4.6,7.2,4.3l1.1-2.9C8.4,1.1,8.7,1,9,1h6c0.3,0,0.6,0.1,0.8,0.4l1.1,2.9
			C17,4.6,16.6,5,16.1,5z"/>
		<g>
			<path class="st0" d="M18.2,4C19.5,4,20,4.6,20,6v14.1c0,1.4-0.5,1.9-1.8,1.9H5.7C4.5,22,4,21.5,4,20.1V6.2C4,4.9,4.5,4,5.7,4
				H18.2 M17,2H6C3.9,2,2,2.7,2,5v16c0,2.3,0.9,3,3,3h14c2.1,0,3-0.7,3-3V5c0-2.3-1.9-3-4-3H17z"/>
		</g>
		<path class="st0" d="M18,10h-5c-0.6,0-1-0.4-1-1v0c0-0.6,0.4-1,1-1h5c0.6,0,1,0.4,1,1v0C19,9.6,18.6,10,18,10z"/>
		<path class="st0" d="M16,15h-3c-0.6,0-1-0.4-1-1v0c0-0.6,0.4-1,1-1h3c0.6,0,1,0.4,1,1v0C17,14.6,16.6,15,16,15z"/>
		<path class="st0" d="M17,20h-4c-0.6,0-1-0.4-1-1v0c0-0.6,0.4-1,1-1h4c0.6,0,1,0.4,1,1v0C18,19.6,17.6,20,17,20z"/>
		<path class="st0" d="M8,10.7L5.6,8.4c-0.2-0.2-0.2-0.5,0-0.7s0.5-0.2,0.7,0L8,9.3l2.6-2.6c0.2-0.2,0.5-0.2,0.7,0s0.2,0.5,0,0.7
			L8,10.7z"/>
		<path class="st0" d="M8,15.7l-2.4-2.4c-0.2-0.2-0.2-0.5,0-0.7s0.5-0.2,0.7,0L8,14.3l2.6-2.6c0.2-0.2,0.5-0.2,0.7,0s0.2,0.5,0,0.7
			L8,15.7z"/>
		<path class="st0" d="M8,20.7l-2.4-2.4c-0.2-0.2-0.2-0.5,0-0.7s0.5-0.2,0.7,0L8,19.3l2.6-2.6c0.2-0.2,0.5-0.2,0.7,0s0.2,0.5,0,0.7
			L8,20.7z"/>
	</g>
	<g id="Roles">
	</g>
	<g id="Draw">
	</g>
	<g id="Copy">
	</g>
	<g id="User">
	</g>
	<g id="Unread_Message">
	</g>
	<g id="Edit_Message">
	</g>
	<g id="Inbox">
	</g>
	<g id="Advanced_Search">
	</g>
	<g id="Idea_x3F_">
	</g>
	<g id="Packages">
	</g>
	<g id="_x3F__1_">
	</g>
</g>
</svg>
