<?xml version="1.0" encoding="utf-8"?>
<!-- Generator: Adobe Illustrator 25.1.0, SVG Export Plug-In . SVG Version: 6.00 Build 0)  -->
<svg version="1.1" id="Layer_1" xmlns="http://www.w3.org/2000/svg" xmlns:xlink="http://www.w3.org/1999/xlink" x="0px" y="0px"
	 viewBox="0 0 24 24" style="enable-background:new 0 0 24 24;" xml:space="preserve">
<style type="text/css">
	.st0{fill:#788994;}
</style>
<g id="Slices">
</g>
<g>
	<g>
		<path class="st0" d="M14.3,11.4L12.9,10c-0.5,0-0.9,0.1-1.3,0.5c-0.9,0.9-0.4,1.6-1.6,3.1c0,0,3-0.1,3.8-0.9
			C14.2,12.4,14.4,11.9,14.3,11.4z"/>
	</g>
</g>
<g>
	<g>
		<path class="st0" d="M21.8,2.5c-0.7-0.7-5.5,3.5-7.7,5.6c0,0-0.3,0.3-0.5,0.7l1.9,1.9c0.4-0.3,0.7-0.5,0.7-0.5
			C18.4,8,22.6,3.2,21.8,2.5z"/>
	</g>
</g>
<g>
	<g>
		<path class="st0" d="M20,11.1c-0.6-0.5-1.1-0.9-1.7-1.2c-0.4,0.5-0.8,0.9-1.2,1.2L17,11.2h-0.1c0,0-0.4,0.3-0.8,0.6
			c-0.3,0.2-0.5,0.3-0.7,0.4c-0.1,0.5-0.4,1-0.8,1.4c-0.6,0.6-1.5,0.9-2.9,1.1c-0.9,0.1-1.7,0.1-1.7,0.2H9c0.1,0,0.1,0.1,0.2,0.1
			c0.6,0.6,0.6,1.6,0,2.2s-1.6,0.6-2.2,0S6.4,15.6,7,15c0.2-0.2,0.3-0.3,0.5-0.4L9,12.8c0.4-0.6,0.5-1,0.7-1.4
			c0.1-0.5,0.3-1.2,1-1.9c0.4-0.4,0.9-0.7,1.4-0.8c0.1-0.2,0.3-0.4,0.4-0.7c0.3-0.4,0.6-0.8,0.6-0.8V7.1L13.2,7
			c0.3-0.3,0.7-0.7,1.2-1.2c-0.3-0.5-0.7-1.1-1.2-1.7c-2.1-2.2-5.8-2.3-8.2,0L4.9,4.2c-4.2,4.2-4.2,11,0,15.2s11,4.2,15.2,0l0.1-0.1
			C22.6,17,22.4,13.3,20,11.1z M8.5,5.2c0.7-0.5,1.7-0.2,2.1,0.5c0.5,0.7,0.2,1.7-0.5,2.1C9.4,8.2,8.4,8,8,7.3S7.8,5.6,8.5,5.2z
			 M6.2,12.6c-0.8-0.1-1.5-0.9-1.4-1.7C5,10,5.7,9.4,6.6,9.5C7.4,9.6,8,10.4,8,11.2C7.9,12.1,7.1,12.7,6.2,12.6z M13.5,19.5
			c-0.8,0.1-1.6-0.5-1.7-1.4c-0.1-0.8,0.5-1.6,1.4-1.7c0.8-0.1,1.6,0.5,1.7,1.4C14.9,18.6,14.3,19.4,13.5,19.5z M19.2,15.9
			c-0.5,0.7-1.4,0.9-2.1,0.5c-0.7-0.5-0.9-1.4-0.5-2.1c0.5-0.7,1.4-0.9,2.1-0.5C19.4,14.2,19.6,15.2,19.2,15.9z"/>
	</g>
</g>
</svg>
