<?xml version="1.0" encoding="utf-8"?>
<!-- Generator: Adobe Illustrator 19.2.1, SVG Export Plug-In . SVG Version: 6.00 Build 0)  -->
<svg version="1.1" id="Layer_1" xmlns="http://www.w3.org/2000/svg" xmlns:xlink="http://www.w3.org/1999/xlink" x="0px" y="0px"
	 viewBox="0 0 24 24" style="enable-background:new 0 0 24 24;" xml:space="preserve">
<style type="text/css">
	.st0{fill:#788994;}
</style>
<g id="Slices">
</g>
<path class="st0" d="M12,1C5.9,1,1,5.9,1,12s4.9,11,11,11s11-4.9,11-11S18.1,1,12,1z M12,21c-5,0-9-4-9-9s4-9,9-9s9,4,9,9
	S17,21,12,21z"/>
<path class="st0" d="M13,5.1V13l-5,5c1.1,0.8,2.5,1,4,1c3.9,0,7-3.1,7-7C19,8.5,16.4,5.6,13,5.1z"/>
<path class="st0" d="M11.5,12L11.5,12c-0.3,0-0.5-0.2-0.5-0.5v-5C11,6.2,11.2,6,11.5,6h0C11.8,6,12,6.2,12,6.5v5
	C12,11.8,11.8,12,11.5,12z"/>
<path class="st0" d="M7.6,16.1L7.6,16.1c-0.2-0.2-0.2-0.5,0-0.7l3.5-3.5c0.2-0.2,0.5-0.2,0.7,0l0,0c0.2,0.2,0.2,0.5,0,0.7l-3.5,3.5
	C8.1,16.3,7.8,16.3,7.6,16.1z"/>
</svg>
