<?xml version="1.0" encoding="utf-8"?>
<!-- Generator: Adobe Illustrator 20.1.0, SVG Export Plug-In . SVG Version: 6.00 Build 0)  -->
<svg version="1.1" id="Capa_1" xmlns="http://www.w3.org/2000/svg" xmlns:xlink="http://www.w3.org/1999/xlink" x="0px" y="0px"
	 viewBox="0 0 24 24" style="enable-background:new 0 0 24 24;" xml:space="preserve">
<style type="text/css">
	.st0{fill:#788994;}
</style>
<path class="st0" d="M14.2,12.1h1.6v3.1l2.7,1.5l-0.8,1.4l-3.5-2V12.1 M3.3,1.2h15.3c1.2,0,2.2,1,2.2,2.2V10
	c1.4,1.4,2.2,3.3,2.2,5.3c0,4.2-3.4,7.6-7.6,7.6c-2.1,0-4-0.8-5.3-2.2H3.3c-1.2,0-2.2-1-2.2-2.2V3.4C1.1,2.2,2.1,1.2,3.3,1.2
	 M3.3,15.3v3.3h5.1c-0.5-1-0.7-2.1-0.7-3.3H3.3 M3.3,7.7h6.5V4.4H3.3V7.7 M18.5,7.7V4.4H12v3.3H18.5 M3.3,13.2H8
	c0.4-1.3,1.1-2.4,2-3.3H3.3V13.2 M15.3,10.1c-2.9,0-5.3,2.4-5.3,5.3l0,0c0,2.9,2.4,5.3,5.3,5.3c2.9,0,5.3-2.4,5.3-5.3l0,0
	C20.6,12.4,18.2,10.1,15.3,10.1z"/>
</svg>
