<?xml version="1.0" encoding="utf-8"?>
<!-- Generator: Adobe Illustrator 23.0.1, SVG Export Plug-In . SVG Version: 6.00 Build 0)  -->
<svg version="1.1" id="Layer_1" xmlns="http://www.w3.org/2000/svg" xmlns:xlink="http://www.w3.org/1999/xlink" x="0px" y="0px"
	 viewBox="0 0 24 24" style="enable-background:new 0 0 24 24;" xml:space="preserve">
<style type="text/css">
	.st0{fill:none;}
	.st1{fill:#788994;}
</style>
<g id="Slices">
</g>
<g id="Icons">
	<g id="Route">
	</g>
	<g id="Initiator">
	</g>
	<g id="Week">
		<rect x="2" y="11" class="st0" width="19" height="13"/>
		<g>
			<path class="st1" d="M20.3,3H19v1.5c0,1-1,1.8-2,1.8s-2-0.8-2-1.8V3H8v1.5c0,1-1,1.8-2,1.8S4,5.5,4,4.5V3H2.6C1.1,3,0,4,0,5.4
				v15.9C0,22.8,1.2,24,2.7,24h17.7c1.5,0,2.7-1.2,2.7-2.7V5.4C23,4,21.8,3,20.3,3z M21,21c0,0.5-0.5,1-1,1H3c-0.5,0-1-0.5-1-1V9h19
				V21z"/>
			<path class="st1" d="M5.9,5.1h0.3C6.7,5.2,7,4.7,7,4.3V1.9C7,1.4,6.7,1,6.2,1H5.9C5.4,1,5,1.4,5,1.9v2.4C5,4.7,5.4,5.1,5.9,5.1z"
				/>
			<path class="st1" d="M16.9,5.1h0.3c0.5,0,0.8-0.4,0.8-0.9V1.9C18,1.4,17.7,1,17.2,1h-0.3C16.4,1,16,1.4,16,1.9v2.4
				C16,4.7,16.4,5.1,16.9,5.1z"/>
		</g>
		<g>
			<path class="st1" d="M16.3,10.9c-0.2-0.1-0.3,0-0.5,0.1L15,11.9c-0.5-0.4-1-0.8-1.6-1c-0.6-0.2-1.2-0.4-1.8-0.4
				c-0.7,0-1.3,0.1-1.9,0.4c-0.6,0.3-1.1,0.6-1.6,1.1c-0.4,0.4-0.8,1-1.1,1.6c-0.3,0.6-0.4,1.2-0.4,1.9c0,0.7,0.1,1.3,0.4,1.9
				c0.3,0.6,0.6,1.1,1.1,1.6c0.4,0.4,1,0.8,1.6,1.1c0.6,0.3,1.2,0.4,1.9,0.4c0.7,0,1.4-0.2,2.1-0.5c0.7-0.3,1.2-0.7,1.7-1.3
				c0,0,0.1-0.1,0-0.1c0-0.1,0-0.1-0.1-0.1l-0.9-0.9c0,0-0.1-0.1-0.2-0.1c-0.1,0-0.1,0-0.1,0.1c-0.3,0.4-0.7,0.7-1.2,0.9
				c-0.5,0.2-0.9,0.3-1.4,0.3c-0.4,0-0.9-0.1-1.3-0.3c-0.4-0.2-0.8-0.4-1.1-0.7c-0.3-0.3-0.5-0.6-0.7-1.1c-0.2-0.4-0.3-0.8-0.3-1.3
				c0-0.4,0.1-0.9,0.3-1.3c0.2-0.4,0.4-0.8,0.7-1.1c0.3-0.3,0.6-0.5,1.1-0.7c0.4-0.2,0.8-0.3,1.3-0.3c0.9,0,1.6,0.3,2.2,0.9
				l-0.9,0.9c-0.1,0.1-0.2,0.3-0.1,0.4c0.1,0.2,0.2,0.3,0.4,0.3h2.9c0.1,0,0.2,0,0.3-0.1c0.1-0.1,0.1-0.2,0.1-0.3v-2.9
				C16.5,11.1,16.4,11,16.3,10.9L16.3,10.9z M16.3,10.9"/>
		</g>
	</g>
	<g id="B.Partner">
	</g>
	<g id="Task_List_1_">
	</g>
	<g id="Roles">
	</g>
	<g id="Draw">
	</g>
	<g id="Copy">
	</g>
	<g id="User">
	</g>
	<g id="Unread_Message">
	</g>
	<g id="Edit_Message">
	</g>
	<g id="Inbox">
	</g>
	<g id="Advanced_Search">
	</g>
	<g id="Idea_x3F_">
	</g>
	<g id="Packages">
	</g>
	<g id="_x3F__1_">
	</g>
</g>
</svg>
