<?xml version="1.0" encoding="utf-8"?>
<!-- Generator: Adobe Illustrator 23.0.1, SVG Export Plug-In . SVG Version: 6.00 Build 0)  -->
<svg version="1.1" id="Icons" xmlns="http://www.w3.org/2000/svg" xmlns:xlink="http://www.w3.org/1999/xlink" x="0px" y="0px"
	 viewBox="0 0 24 24" style="enable-background:new 0 0 24 24;" xml:space="preserve">
<style type="text/css">
	.st0{fill:#90C2C9;}
	.st1{fill:#FFFFFF;}
</style>
<title>Traffic</title>
<g id="Display_Traffic">
	<path class="st0" d="M12.2,16.5h0.9l1.1-1.6l2.2-2.9c0.5-0.6,1.4-0.7,1.9-0.2c0.1,0.1,0.1,0.1,0.2,0.2l2,2.9l0.1,0.1L15.7,1.5h-3.6
		v4h-2v-4H6.6l-5.4,15h9v-4h2V16.5z M12.1,10.5h-2v-3h2V10.5z"/>
	<path class="st0" d="M16.4,14.1c0.4-0.6,1.2-0.7,1.8-0.3c0.1,0.1,0.2,0.2,0.3,0.3l2,3.2l2.1,3.5c0.3,0.5,0.1,1.2-0.5,1.5
		c-0.2,0.1-0.4,0.1-0.6,0.1h-8.3c-0.6,0-1.2-0.4-1.2-1c0-0.2,0-0.4,0.1-0.6l2.1-3.5L16.4,14.1z"/>
	<rect x="17.1" y="16.5" class="st1" width="1" height="3"/>
</g>
</svg>
