<svg width="24" height="24" viewBox="0 0 24 24" fill="none" xmlns="http://www.w3.org/2000/svg">
<path d="M22.3442 13.9423H22.2889C22.2889 13.3571 22.2889 12.6797 22.2889 12.0484C22.2889 11.8374 22.2472 11.6285 22.1662 11.4337C22.0851 11.2388 21.9664 11.0618 21.8168 10.9128C21.6671 10.7639 21.4895 10.6459 21.2941 10.5655C21.0987 10.4852 20.8893 10.4442 20.678 10.4448L19.6256 10.4079C19.1964 9.75359 18.6425 8.88727 18.144 8.03939C17.2993 6.61089 16.2977 6.72148 16.2977 6.72148H12.6928V5.44044C12.6928 5.24613 12.6155 5.05977 12.4779 4.92236C12.3403 4.78496 12.1536 4.70776 11.959 4.70776H1.65675C1.4621 4.70776 1.27544 4.78496 1.1378 4.92236C1.00017 5.05977 0.922852 5.24613 0.922852 5.44044V16.5781C0.922852 16.6743 0.941834 16.7696 0.978716 16.8585C1.0156 16.9474 1.06966 17.0282 1.1378 17.0962C1.20595 17.1642 1.28686 17.2182 1.3759 17.255C1.46494 17.2918 1.56037 17.3108 1.65675 17.3108H2.95375C3.14735 17.8682 3.51008 18.3515 3.99152 18.6935C4.47296 19.0356 5.04918 19.2194 5.64008 19.2194C6.23098 19.2194 6.80721 19.0356 7.28864 18.6935C7.77008 18.3515 8.13281 17.8682 8.32641 17.3108H15.8223C16.0159 17.8682 16.3786 18.3515 16.8601 18.6935C17.3415 19.0356 17.9177 19.2194 18.5086 19.2194C19.0995 19.2194 19.6757 19.0356 20.1572 18.6935C20.6386 18.3515 21.0013 17.8682 21.1949 17.3108H22.3442C22.5389 17.3108 22.7256 17.2336 22.8632 17.0962C23.0008 16.9588 23.0781 16.7724 23.0781 16.5781V14.675C23.0781 14.5788 23.0592 14.4835 23.0223 14.3946C22.9854 14.3057 22.9313 14.2249 22.8632 14.1569C22.795 14.0889 22.7141 14.0349 22.6251 13.9981C22.5361 13.9613 22.4406 13.9423 22.3442 13.9423ZM5.64008 17.7486C5.36621 17.7486 5.09849 17.6675 4.87078 17.5156C4.64307 17.3637 4.46559 17.1478 4.36078 16.8952C4.25598 16.6426 4.22855 16.3646 4.28198 16.0965C4.33541 15.8283 4.46729 15.582 4.66095 15.3886C4.8546 15.1953 5.10133 15.0636 5.36994 15.0103C5.63855 14.957 5.91696 14.9843 6.16999 15.089C6.42301 15.1936 6.63927 15.3708 6.79142 15.5981C6.94358 15.8255 7.02479 16.0927 7.02479 16.3661C7.02479 16.7328 6.8789 17.0844 6.61922 17.3437C6.35953 17.6029 6.00733 17.7486 5.64008 17.7486ZM13.9483 10.4955C13.7694 10.4791 13.6042 10.393 13.4885 10.2558C13.3727 10.1187 13.3157 9.94158 13.3298 9.7628V8.48176C13.3157 8.30298 13.3727 8.12585 13.4885 7.98871C13.6042 7.85158 13.7694 7.76549 13.9483 7.74908H16.0808C16.7131 7.74908 17.1147 8.54167 17.1147 8.54167C17.1147 8.54167 17.6086 9.36651 17.8301 9.7628C18.0517 10.1591 18.0286 10.4955 17.2116 10.4955H13.9483ZM18.5086 17.7486C18.2347 17.7486 17.967 17.6675 17.7393 17.5156C17.5116 17.3637 17.3341 17.1478 17.2293 16.8952C17.1245 16.6426 17.0971 16.3646 17.1505 16.0965C17.2039 15.8283 17.3358 15.582 17.5295 15.3886C17.7231 15.1953 17.9699 15.0636 18.2385 15.0103C18.5071 14.957 18.7855 14.9843 19.0385 15.089C19.2915 15.1936 19.5078 15.3708 19.66 15.5981C19.8121 15.8255 19.8933 16.0927 19.8933 16.3661C19.8933 16.7328 19.7474 17.0844 19.4877 17.3437C19.2281 17.6029 18.8759 17.7486 18.5086 17.7486Z" fill="white"/>
</svg>
