<?xml version="1.0" encoding="utf-8"?>
<!-- Generator: Adobe Illustrator 19.0.1, SVG Export Plug-In . SVG Version: 6.00 Build 0)  -->
<svg version="1.1" xmlns="http://www.w3.org/2000/svg" xmlns:xlink="http://www.w3.org/1999/xlink" x="0px" y="0px"
	 viewBox="0 0 24 24" style="enable-background:new 0 0 24 24;" xml:space="preserve">
<style type="text/css">
	.st0{fill:#788994;}
</style>
<g id="Slices">
</g>
<g id="Icons">
	<g id="SnackPyramid">
	</g>
	<g id="Survey">
	</g>
	<g id="RescheduleCall">
	</g>
	<g id="AllProducts">
	</g>
	<g id="CurrentLocation">
	</g>
	<g id="Delivery_Item">
	</g>
	<g id="Edit_Order_Basket">
	</g>
	<g id="Notification">
	</g>
	<g id="SortOrder">
	</g>
	<g id="AllStores">
	</g>
	<g id="Visit">
	</g>
	<g id="Today">
	</g>
	<g id="Summary">
	</g>
	<g id="delete">
		<g>
			<path class="st0" d="M5,20.5C5,21.9,5.6,23,7,23h9c1.4,0,3-1.1,3-2.5V7H5V20.5z M15,9h2v11h-2V9z M11,9h2v11h-2V9z M7,9h2v11H7V9
				z"/>
			<path class="st0" d="M19,4h-3V3.9C16,2.2,14.8,1,13,1h-2C9.2,1,8,2.2,8,3.9V4H5C4.4,4,4,4.4,4,5v1h16V5C20,4.4,19.6,4,19,4z
				 M10,3.9C10,3.7,10,3,11,3h2c1,0,1,0.6,1,0.8V4H10V3.9z"/>
		</g>
	</g>
	<g id="Delivery">
	</g>
	<g id="Public_Holiday">
	</g>
</g>
</svg>
