<?xml version="1.0" encoding="utf-8"?>
<!-- Generator: Adobe Illustrator 21.1.0, SVG Export Plug-In . SVG Version: 6.00 Build 0)  -->
<svg version="1.1" id="Layer_1" xmlns="http://www.w3.org/2000/svg" xmlns:xlink="http://www.w3.org/1999/xlink" x="0px" y="0px"
	 viewBox="0 0 24 24" style="enable-background:new 0 0 24 24;" xml:space="preserve">
<style type="text/css">
	.st0{fill:#90C2C9;}
</style>
<g id="Slices">
</g>
<g id="Icons">
	<g id="Route">
		<g>
			<circle class="st0" cx="20.5" cy="13.5" r="2.5"/>
			<circle class="st0" cx="3.5" cy="3.5" r="2.5"/>
			<polygon class="st0" points="3.5,12 4,7 3,7 			"/>
			<polygon class="st0" points="20.5,22 21,17 20,17 			"/>
			<path class="st0" d="M17.9,21c-7.3,0.9-10-1.2-10.4-2.4C7.3,18,7.6,17.3,8.2,17c0.4-0.2,1.2-0.4,2.1-0.7c3.2-1,5.5-1.9,5.8-3
				c0.1-0.4,0-0.7-0.3-1c-2.1-2.3-9.1-1.7-9.9-1.7c-0.3,0-0.5,0.3-0.5,0.5s0.3,0.5,0.5,0.5c2-0.2,7.6-0.3,9.1,1.3l0.1,0.1
				c-0.2,0.7-3.6,1.8-5.2,2.4C9,15.7,8.1,16,7.7,16.2c-1,0.5-1.6,1.7-1.2,2.8c0.4,1.4,2.6,3.4,8,3.4c1,0,2.2-0.1,3.4-0.2
				c0.3,0,0.5-0.3,0.4-0.6C18.5,21.2,18.2,21,17.9,21z"/>
		</g>
	</g>
	<g id="Initiator">
	</g>
	<g id="Week">
	</g>
	<g id="B.Partner">
	</g>
	<g id="Task_List_1_">
	</g>
	<g id="Roles">
	</g>
	<g id="Draw">
	</g>
	<g id="Copy">
	</g>
	<g id="User">
	</g>
	<g id="Unread_Message">
	</g>
	<g id="Edit_Message">
	</g>
	<g id="Inbox">
	</g>
	<g id="Advanced_Search">
	</g>
	<g id="Idea_x3F_">
	</g>
	<g id="Packages">
	</g>
	<g id="_x3F__1_">
	</g>
</g>
</svg>
