<?xml version="1.0" encoding="utf-8"?>
<!-- Generator: Adobe Illustrator 19.0.1, SVG Export Plug-In . SVG Version: 6.00 Build 0)  -->
<svg version="1.1" xmlns="http://www.w3.org/2000/svg" xmlns:xlink="http://www.w3.org/1999/xlink" x="0px" y="0px"
	 viewBox="0 0 24 24" style="enable-background:new 0 0 24 24;" xml:space="preserve">
<style type="text/css">
	.st0{fill:#788994;}
	.st1{fill:none;stroke:#788994;stroke-width:2;stroke-linecap:round;stroke-miterlimit:10;}
	.st2{fill:#FFFFFF;}
	.st3{fill:none;stroke:#788994;stroke-miterlimit:10;}
	.st4{fill:none;stroke:#788994;stroke-width:2;stroke-miterlimit:10;}
	.st5{fill:none;}
</style>
<g id="Slices">
</g>
<g id="Icons">
	<g id="Outbox">
	</g>
	<g id="Show_all">
	</g>
	<g id="Reply">
	</g>
	<g id="Display_Traffic">
	</g>
	<g id="Visit_Item">
	</g>
	<g id="Route">
	</g>
	<g id="Forward">
	</g>
	<g id="Rounding_Order">
	</g>
	<g id="Recipients">
	</g>
	<g id="Add_Product">
	</g>
	<g id="Add_Project_Group">
	</g>
	<g id="Foreign_product">
	</g>
	<g id="Forward_1_">
	</g>
	<g id="Start_of_Day">
	</g>
	<g id="TPM">
	</g>
	<g id="End_of_the_Day">
		<g>
			<rect x="0.6" y="2.1" class="st5" width="10.7" height="10.7"/>
			<path class="st0" d="M6.1,3c2.4,0,4.3,2.2,4.3,4.5s-1.9,4.3-4.3,4.3c-2.4,0-4.3-1.9-4.3-4.3S3.8,3,6.1,3 M6.1,2
				c-3,0-5.5,2.5-5.5,5.5c0,3,2.5,5.5,5.5,5.5c3,0,5.5-2.5,5.5-5.5C11.6,4.5,9.2,2,6.1,2L6.1,2z"/>
		</g>
		<path class="st0" d="M21.4,12l-1.8-2.5C19.1,9.1,18.9,9,18.3,9H15c-0.5,0-1,0.2-1,0.6v8.2c0,0.5,0.5,1.1,1,1.1
			c0.2-1.4,1-2.8,2.5-2.8c1.5,0,2.3,1.4,2.5,2.8h1.2c0.5,0,0.8-0.7,0.8-1.1c0,0,0-3.3,0-4.1C22,12.9,21.4,12,21.4,12z M16,14v-4h2.2
			c0.1,0,0.8,0.6,0.8,0.6l1.3,2.4c0.2,0.2-0.3,0.8-0.3,1H16z"/>
		<g>
			<circle class="st0" cx="7.5" cy="19.5" r="1.8"/>
		</g>
		<g>
			<circle class="st0" cx="17.4" cy="19.5" r="1.8"/>
		</g>
		<path class="st0" d="M12.1,7H11c0,0.1,0,0.4,0,0.5c0,2.8-2.3,5.1-5.1,5.1c-1.5,0-3-0.6-3.9-1.6v6.9C2,18.3,2.6,19,3,19h2
			c0.2-1.4,1.1-2.8,2.6-2.8c1.5,0,2.2,1.4,2.4,2.8h2c0.5,0,1-0.7,1-1.1V7.9C13,7.5,12.6,7,12.1,7z"/>
		<rect x="4" y="5" class="st0" width="4" height="4"/>
	</g>
</g>
</svg>
