<?xml version="1.0" encoding="utf-8"?>
<!-- Generator: Adobe Illustrator 20.1.0, SVG Export Plug-In . SVG Version: 6.00 Build 0)  -->
<svg version="1.1" id="Layer_1" xmlns="http://www.w3.org/2000/svg" xmlns:xlink="http://www.w3.org/1999/xlink" x="0px" y="0px"
	 viewBox="0 0 24 24" style="enable-background:new 0 0 24 24;" xml:space="preserve">
<style type="text/css">
	.st0{fill:#008899;}
</style>
<g id="Slices">
</g>
<g id="Icons">
	<g id="SnackPyramid">
	</g>
	<g id="Survey">
	</g>
	<g id="RescheduleCall">
	</g>
	<g id="AllProducts">
	</g>
	<g id="CurrentLocation">
	</g>
	<g id="Delivery_Item">
	</g>
	<g id="Edit_Order_Basket">
	</g>
	<g id="Notification">
	</g>
	<g id="SortOrder">
	</g>
	<g id="AllStores">
	</g>
	<g id="Visit">
	</g>
	<g id="Today">
	</g>
	<g id="Summary">
	</g>
	<g id="delete">
	</g>
	<g id="Delivery">
		<g>
			<path class="st0" d="M21.4,10.1l-1.8-2.5C19.1,7.2,18.9,7,18.3,7H15c-0.5,0-1,0.2-1,0.6v8.2c0,0.5,0.5,1.1,1,1.1
				c0.2-1.4,1-2.8,2.5-2.8s2.3,1.4,2.5,2.8h1.2c0.5,0,0.8-0.7,0.8-1.1c0,0,0-3.3,0-4.1C22,11,21.4,10.1,21.4,10.1z M20,12h-4V8h2.2
				C18.4,8,19,8.6,19,8.6l1.3,2.4C20.5,11.3,20,11.8,20,12z"/>
			<circle class="st0" cx="7.5" cy="17.5" r="1.8"/>
			<circle class="st0" cx="17.4" cy="17.6" r="1.8"/>
			<path class="st0" d="M12,5H3C2.4,5,2,5.4,2,6v9.9C2,16.5,2.5,17,3.1,17H5c0.2-1.4,1.1-2.8,2.6-2.8S9.8,15.6,10,17h1.9
				c0.6,0,1.1-0.5,1.1-1.1V6C13,5.4,12.6,5,12,5z"/>
		</g>
	</g>
	<g id="Public_Holiday">
	</g>
</g>
</svg>
