<?xml version="1.0" encoding="utf-8"?>
<!-- Generator: Adobe Illustrator 19.0.1, SVG Export Plug-In . SVG Version: 6.00 Build 0)  -->
<svg version="1.1" xmlns="http://www.w3.org/2000/svg" xmlns:xlink="http://www.w3.org/1999/xlink" x="0px" y="0px"
	 viewBox="0 0 24 24" style="enable-background:new 0 0 24 24;" xml:space="preserve">
<style type="text/css">
	.st0{fill:#788994;}
	.st1{fill:none;stroke:#788994;stroke-width:2;stroke-linecap:round;stroke-miterlimit:10;}
	.st2{fill:#FFFFFF;}
	.st3{fill:none;stroke:#788994;stroke-miterlimit:10;}
	.st4{fill:none;stroke:#788994;stroke-width:2;stroke-miterlimit:10;}
	.st5{fill:none;}
</style>
<g id="Slices">
</g>
<g id="Icons">
	<g id="Outbox">
	</g>
	<g id="Show_all">
	</g>
	<g id="Reply">
	</g>
	<g id="Display_Traffic">
	</g>
	<g id="Visit_Item">
	</g>
	<g id="Route">
	</g>
	<g id="Forward">
	</g>
	<g id="Rounding_Order">
	</g>
	<g id="Recipients">
	</g>
	<g id="Add_Product">
	</g>
	<g id="Add_Project_Group">
	</g>
	<g id="Foreign_product">
	</g>
	<g id="Forward_1_">
	</g>
	<g id="Start_of_Day">
		<g>
			<rect x="2.6" y="2.2" class="st5" width="10.7" height="10.7"/>
			<path class="st0" d="M8.1,3c2.4,0,4.3,2.2,4.3,4.5s-1.9,4.3-4.3,4.3c-2.4,0-4.3-1.9-4.3-4.3S5.8,3,8.1,3 M8.1,2
				c-3,0-5.5,2.5-5.5,5.5c0,3,2.5,5.5,5.5,5.5c3,0,5.5-2.5,5.5-5.5C13.6,4.5,11.2,2,8.1,2L8.1,2z"/>
		</g>
		<path class="st0" d="M23.4,12.1l-1.8-2.5C21.1,9.2,20.9,9,20.3,9H17c-0.5,0-1,0.2-1,0.6v8.2c0,0.5,0.5,1.1,1,1.1
			c0.2-1.4,1-2.8,2.5-2.8c1.5,0,2.3,1.4,2.5,2.8h1.2c0.5,0,0.8-0.7,0.8-1.1c0,0,0-3.3,0-4.1C24,13,23.4,12.1,23.4,12.1z M18,14v-4
			h2.2c0.1,0,0.8,0.6,0.8,0.6l1.3,2.4c0.2,0.2-0.3,0.8-0.3,1H18z"/>
		<g>
			<circle class="st0" cx="9.5" cy="19.5" r="1.8"/>
		</g>
		<g>
			<circle class="st0" cx="19.4" cy="19.6" r="1.8"/>
		</g>
		<path class="st0" d="M14.1,7H13c0,0.1,0,0.4,0,0.5c0,2.8-2.3,5.1-5.1,5.1c-1.5,0-3-0.6-3.9-1.6v6.9C4,18.3,4.6,19,5,19h2
			c0.2-1.4,1.1-2.8,2.6-2.8c1.5,0,2.2,1.4,2.4,2.8h2c0.5,0,1-0.7,1-1.1V8C15,7.5,14.6,7,14.1,7z"/>
		<polygon class="st0" points="7,4 7,10 10,7 		"/>
	</g>
	<g id="TPM">
	</g>
	<g id="End_of_the_Day">
	</g>
</g>
</svg>
