<?xml version="1.0" encoding="utf-8"?>
<!-- Generator: Adobe Illustrator 21.0.0, SVG Export Plug-In . SVG Version: 6.00 Build 0)  -->
<svg version="1.1" id="Layer_1" xmlns="http://www.w3.org/2000/svg" xmlns:xlink="http://www.w3.org/1999/xlink" x="0px" y="0px"
	 viewBox="0 0 56 56" style="enable-background:new 0 0 56 56;" xml:space="preserve">
<style type="text/css">
	.st0{fill:#F3F6F8;}
	.st1{fill:#B4C7D4;}
</style>
<circle class="st0" cx="28" cy="28" r="28"/>
<path class="st1" d="M19.6,44.1l-8.3,4.5c-0.5,0.3-0.9,0.6-1.3,0.9c4.8,4,11.1,6.5,17.9,6.5c6.8,0,13-2.4,17.8-6.4
	c-0.4-0.4-0.9-0.7-1.5-1l-8.9-4.4c-1.1-0.6-1.9-1.7-1.9-3v-3.5c0.2-0.3,0.5-0.6,0.8-1.1c1.2-1.7,2.1-3.6,2.8-5.5
	c1.1-0.3,2-1.4,2-2.6v-3.7c0-0.8-0.4-1.5-0.9-2v-5.3c0,0,1.1-8.3-10.2-8.3c-11.3,0-10.2,8.3-10.2,8.3v5.3c-0.6,0.5-0.9,1.2-0.9,2
	v3.7c0,1,0.5,1.8,1.3,2.3c0.9,4,3.4,6.9,3.4,6.9v3.4C21.4,42.4,20.7,43.5,19.6,44.1z"/>
</svg>
