<?xml version="1.0" encoding="utf-8"?>
<!-- Generator: Adobe Illustrator 19.0.1, SVG Export Plug-In . SVG Version: 6.00 Build 0)  -->
<svg version="1.1" xmlns="http://www.w3.org/2000/svg" xmlns:xlink="http://www.w3.org/1999/xlink" x="0px" y="0px"
	 viewBox="0 0 24 24" style="enable-background:new 0 0 24 24;" xml:space="preserve">
<style type="text/css">
	.st0{fill:#788994;}
	.st1{fill-rule:evenodd;clip-rule:evenodd;fill:#788994;}
</style>
<g id="Slices">
</g>
<g id="Icons">
	<g id="Route">
	</g>
	<g id="Initiator">
	</g>
	<g id="Week">
	</g>
	<g id="B.Partner">
	</g>
	<g id="Task_List_1_">
	</g>
	<g id="Roles">
	</g>
	<g id="Draw">
	</g>
	<g id="Copy">
	</g>
	<g id="User">
		<path class="st0" d="M14.9,15c-0.1,0-0.9-0.4-0.4-1.8h0c1.2-1.3,1.8-3.4,1.8-5.4c0-3.1-1.7-4.8-4.1-4.8S7.8,4.6,7.8,7.8
			c0,2.1,0.9,4.1,2.2,5.4c0.5,1.3-0.4,1.8-0.6,1.8C6.9,16,4,17.6,4,19.3v0.6c0,2.3,4.3,2.8,8.3,2.8c4,0,8.2-0.5,8.2-2.8v-0.6
			C20.5,17.6,17.6,15.9,14.9,15z"/>
	</g>
	<g id="Unread_Message">
	</g>
	<g id="Edit_Message">
	</g>
	<g id="Inbox">
	</g>
	<g id="Advanced_Search">
	</g>
	<g id="Idea_x3F_">
	</g>
	<g id="Packages">
	</g>
	<g id="_x3F__1_">
	</g>
</g>
</svg>
