<?xml version="1.0" encoding="utf-8"?>
<!-- Generator: Adobe Illustrator 19.0.1, SVG Export Plug-In . SVG Version: 6.00 Build 0)  -->
<svg version="1.1" xmlns="http://www.w3.org/2000/svg" xmlns:xlink="http://www.w3.org/1999/xlink" x="0px" y="0px"
	 viewBox="0 0 24 24" style="enable-background:new 0 0 24 24;" xml:space="preserve">
<style type="text/css">
	.st0{fill:#788994;}
	.st1{fill-rule:evenodd;clip-rule:evenodd;fill:#788994;}
</style>
<g id="Slices">
</g>
<g id="Icons">
	<g id="Route">
	</g>
	<g id="Initiator">
	</g>
	<g id="Week">
	</g>
	<g id="B.Partner">
		<g>
			<path class="st0" d="M8,15c-2.7,1.1-5,2.6-5,4.4v0.7c0,2.1,2.3,2.7,6,2.9l-3-5.9L8,15z"/>
			<path class="st0" d="M15,14.5c-0.3-0.2-0.7-0.7-0.1-2h0C16.3,11,17,8.7,17,6.4C17,2.9,15,1,12.3,1c-2.7,0-5,1.9-5,5.4
				c0,2.3,1.1,4.7,2.5,6.1c0.5,1.3-0.3,1.9-0.6,2L8,17l2.2,6c0.1,0,0.5,0,0.6,0l0.6-7.2h-0.1c-0.2,0-0.4-0.2-0.4-0.4v-0.8
				c0-0.2,0.2-0.4,0.4-0.4h1.4c0.2,0,0.4,0.2,0.4,0.4v0.8c0,0.2-0.2,0.4-0.4,0.4h-0.1l0.6,7.2c0.1,0,0.6,0,0.7,0l2.1-5.9L15,14.5z"
				/>
			<path class="st0" d="M17,15l1,2.1L15,23c3.8-0.2,6.6-0.8,6.6-2.9v-0.7C21.6,17.6,19.8,16,17,15z"/>
		</g>
	</g>
	<g id="Task_List_1_">
	</g>
	<g id="Roles">
	</g>
	<g id="Draw">
	</g>
	<g id="Copy">
	</g>
	<g id="User">
	</g>
	<g id="Unread_Message">
	</g>
	<g id="Edit_Message">
	</g>
	<g id="Inbox">
	</g>
	<g id="Advanced_Search">
	</g>
	<g id="Idea_x3F_">
	</g>
	<g id="Packages">
	</g>
	<g id="_x3F__1_">
	</g>
</g>
</svg>
