<?xml version="1.0" encoding="utf-8"?>
<!-- Generator: Adobe Illustrator 19.0.1, SVG Export Plug-In . SVG Version: 6.00 Build 0)  -->
<svg version="1.1" xmlns="http://www.w3.org/2000/svg" xmlns:xlink="http://www.w3.org/1999/xlink" x="0px" y="0px"
	 viewBox="0 0 48 48" style="enable-background:new 0 0 48 48;" xml:space="preserve">
<style type="text/css">
	.st0{fill-rule:evenodd;clip-rule:evenodd;fill:#788994;}
	.st1{fill:#788994;}
	.st2{fill:none;}
</style>
<g id="Slices">
</g>
<g id="Icons">
	<g id="Agenda">
	</g>
	<g id="Order">
	</g>
	<g id="Clipboard">
	</g>
	<g id="Track_Activities">
	</g>
	<g id="Todo">
	</g>
	<g id="Massages">
	</g>
	<g id="About_1_">
	</g>
	<g id="My_Settings">
		<path class="st1" d="M48,40.8v-2.7h-1.9c-0.2-0.9-0.5-1.7-1-2.4l1.4-1.4l-1.9-1.9l-1.4,1.4c-0.7-0.5-1.5-0.8-2.4-1V31h-2.7v1.9
			c-0.9,0.2-1.7,0.5-2.4,1l-1.4-1.4l-1.9,1.9l1.4,1.4c-0.5,0.7-0.8,1.5-1,2.4H31v2.7h1.9c0.2,0.9,0.5,1.7,1,2.4l-1.4,1.4l1.9,1.9
			l1.4-1.4c0.7,0.5,1.5,0.8,2.4,1V48h2.7v-1.9c0.9-0.2,1.7-0.5,2.4-1l1.4,1.4l1.9-1.9l-1.4-1.4c0.5-0.7,0.8-1.5,1-2.4H48z
			 M40.1,43.5c-2.7,0.4-5-1.9-4.6-4.6c0.3-1.7,1.6-3.1,3.3-3.3c2.7-0.4,5,1.9,4.6,4.6C43.2,41.8,41.8,43.2,40.1,43.5z"/>
		<path class="st1" d="M30.4,43.9l1.1-1.1h-1.5c-0.5,0-0.9-0.4-0.9-0.9v-4.9c0-0.5,0.4-0.9,0.9-0.9h1.5l-1.1-1.1
			c-0.4-0.4-0.4-0.9,0-1.3l2.4-2.4c-1.8-1-3.8-1.8-5.7-2.5c-0.3-0.1-1.8-0.8-0.8-3.9h0C28.7,22.4,30,18,30,13.7
			c0-6.6-3.6-10.1-8.6-10.1S12,7.1,12,13.7c0,4.3,2,8.7,4.6,11.4c1,2.7-0.8,3.7-1.2,3.9C10.2,30.9,4,34.4,4,37.9v1.3
			c0,4.7,9,5.8,17.4,5.8c3,0,6-0.1,8.7-0.5C30.1,44.3,30.2,44.1,30.4,43.9z"/>
	</g>
	<g id="Notifications">
	</g>
	<g id="Customer">
	</g>
	<g id="Order_Basekt">
	</g>
	<g id="Logs">
	</g>
	<g id="Tour">
	</g>
	<g id="Daily_Report">
	</g>
	<g id="Issues">
	</g>
	<g id="Synchronize">
	</g>
</g>
</svg>
