<?xml version="1.0" encoding="utf-8"?>
<!-- Generator: Adobe Illustrator 22.1.0, SVG Export Plug-In . SVG Version: 6.00 Build 0)  -->
<svg version="1.1" id="Capa_1" xmlns="http://www.w3.org/2000/svg" xmlns:xlink="http://www.w3.org/1999/xlink" x="0px" y="0px"
	 viewBox="0 0 32 32" style="enable-background:new 0 0 32 32;" xml:space="preserve">
<style type="text/css">
	.st0{fill:#D91E18;}
</style>
<path class="st0" d="M30.8,25.7L17.3,3.8c-0.7-1.2-2.2-1.2-3,0L0.8,25.7c-0.8,1.4,0,3.3,1.5,3.3h27.1C30.8,28.9,31.7,27,30.8,25.7z
	 M15.8,24.2c-1,0-1.8-0.8-1.8-1.8c0-1,0.8-1.8,1.8-1.8s1.8,0.8,1.8,1.8C17.6,23.4,16.8,24.2,15.8,24.2z M17.6,18.9
	c0,0.4-0.2,0.6-0.6,0.6h-2.4c-0.4,0-0.6-0.2-0.6-0.6v-7.7c0-0.4,0.2-0.6,0.6-0.6H17c0.4,0,0.6,0.2,0.6,0.6V18.9z"/>
</svg>
