<svg  viewBox="0 0 22 27" fill="none" xmlns="http://www.w3.org/2000/svg">
<path d="M17.4766 1.25581H15.1544L14.8489 0.439535C14.7266 0.188372 14.4211 0 14.0544 0H7.63776C7.27109 0 6.96554 0.188372 6.84332 0.439535L6.47665 1.25581H4.09332C1.89332 1.25581 0.121094 3.3907 0.121094 6.0907V22.1651C0.121094 24.8023 1.89332 27 4.15443 27H17.5378C19.7378 27 21.5711 24.8651 21.5711 22.1651V6.0907C21.51 3.3907 19.7378 1.25581 17.4766 1.25581ZM19.6766 22.1651C19.6766 23.7349 18.8211 25.1163 17.4766 25.1163H4.09332C2.80998 25.1163 1.95443 23.7977 1.95443 22.2279V6.15349C1.95443 4.58372 2.80998 3.13953 4.09332 3.13953H5.80443L5.62109 3.57907C5.43776 3.95581 5.86554 4.39535 6.41554 4.39535H15.1544C15.7655 4.39535 16.1322 3.95581 15.9489 3.57907L15.8266 3.13953H17.4766C18.76 3.13953 19.6766 4.52093 19.6766 6.0907V22.1651Z" fill="#2C3E50"/>
<path d="M11.3226 14.1727C9.51613 13.6636 8.93548 13.2182 8.93548 12.4545C8.93548 11.6273 9.70968 10.9909 11.0645 10.9909C12.4839 10.9909 12.7419 11.4364 12.8065 12.3909H14.7419C14.6774 11.0545 13.8387 10.2273 12.1613 9.84545V8H10.2258V9.90909C8.67742 10.2273 7.12903 10.9909 7.12903 12.5182C7.12903 14.3 8.6129 15.1909 10.8065 15.7C12.8065 16.1455 13.1935 16.8455 13.1935 17.5455C13.1935 18.0545 12.8065 18.9455 11.0645 18.9455C9.45161 18.9455 9 18.4364 8.93548 17.5455H7C7.06452 19.2636 8.74194 19.7727 10.2258 20.0909V22H12.1613V20.0909C13.7097 19.8364 15 19.1364 15 17.5455C15 15.3818 13.129 14.6182 11.3226 14.1727Z" fill="#2C3E50"/>
</svg>
