<svg width="25" height="24" viewBox="0 0 25 24" fill="none" xmlns="http://www.w3.org/2000/svg">
<path d="M22.154 17.3494C23.6603 17.3494 24.8813 16.0548 24.8813 14.4578C24.8813 12.8609 23.6603 11.5663 22.154 11.5663C20.6478 11.5663 19.4268 12.8609 19.4268 14.4578C19.4268 16.0548 20.6478 17.3494 22.154 17.3494Z" fill="#B8BCC0"/>
<path d="M3.60838 5.78313C5.11461 5.78313 6.33565 4.48853 6.33565 2.89157C6.33565 1.2946 5.11461 0 3.60838 0C2.10215 0 0.881104 1.2946 0.881104 2.89157C0.881104 4.48853 2.10215 5.78313 3.60838 5.78313Z" fill="#B8BCC0"/>
<path d="M3.60771 12.1448L4.15316 6.36169H3.06226L3.60771 12.1448Z" fill="#B8BCC0"/>
<path d="M22.1536 23.7107L22.6991 17.9276H21.6082L22.1536 23.7107Z" fill="#B8BCC0"/>
<path d="M20.4623 22.5542C12.6078 23.5952 8.46232 21.2241 8.02595 19.7205C7.80777 19.0265 8.13504 18.2169 8.78959 17.9277C9.22595 17.6964 10.0987 17.4072 11.0805 17.0603C14.5714 15.8458 17.135 14.8627 17.4623 13.5325C17.5714 13.1277 17.4623 12.6651 17.135 12.3181C14.8441 9.65784 6.22595 10.294 5.24414 10.4097C4.91686 10.4097 4.69868 10.6988 4.75323 11.0458C4.75323 11.3928 5.02595 11.6241 5.35323 11.5663C7.86232 11.335 14.735 11.2193 16.3714 13.1277C16.426 13.1856 16.426 13.2434 16.426 13.2434C16.2078 14.1109 12.5532 15.3831 10.7532 15.9615C9.71686 16.3084 8.84413 16.5976 8.35323 16.8868C7.20777 17.4651 6.66232 18.853 7.04414 20.1253C7.58959 21.9181 10.9169 24 16.8078 24C18.0078 24 19.2623 23.9422 20.6805 23.7109C20.9532 23.653 21.1714 23.3639 21.1714 23.0747C21.1714 22.7856 20.735 22.4964 20.4623 22.5542Z" fill="#B8BCC0"/>
</svg>
