<svg viewBox="0 0 24 24" fill="none" xmlns="http://www.w3.org/2000/svg">
<g clip-path="url(#clip0_1793_45394)">
<path d="M12 11H10V13H12V11Z" fill="#2C3E50"/>
<path d="M16 11H14V13H16V11Z" fill="#2C3E50"/>
<path d="M20 11H18V13H20V11Z" fill="#2C3E50"/>
<path d="M16 15H14V17H16V15Z" fill="#2C3E50"/>
<path d="M12 15H10V17H12V15Z" fill="#2C3E50"/>
<path d="M8 15H6V17H8V15Z" fill="#2C3E50"/>
<path d="M12 19H10V21H12V19Z" fill="#2C3E50"/>
<path d="M16 19H14V21H16V19Z" fill="#2C3E50"/>
<path d="M8 19H6V21H8V19Z" fill="#2C3E50"/>
<path d="M20 15H18V17H20V15Z" fill="#2C3E50"/>
<path d="M21.3 3H20V4.5C20 5.5 19 6.3 18 6.3C17 6.3 16 5.5 16 4.5V3H9V4.5C9 5.5 8 6.3 7 6.3C6 6.3 5 5.5 5 4.5V3H3.6C2.1 3 1 4 1 5.4V21.3C1 22.8 2.2 24 3.7 24H21.4C22.9 24 24.1 22.8 24.1 21.3V5.4C24 4 22.8 3 21.3 3ZM22 21C22 21.5 21.5 22 21 22H4C3.5 22 3 21.5 3 21V9H22V21Z" fill="#2C3E50"/>
<path d="M17.9 5.1C17.4 5.1 17 4.7 17 4.2V1.9C17 1.4 17.4 1 17.9 1H18.2C18.7 1 19 1.4 19 1.9V4.3C19 4.8 18.7 5.2 18.2 5.2L17.9 5.1Z" fill="#2C3E50"/>
<path d="M6.9 5.1C6.4 5.1 6 4.7 6 4.3V1.9C6 1.4 6.4 1 6.9 1H7.2C7.7 1 8 1.4 8 1.9V4.3C8 4.8 7.7 5.2 7.2 5.2L6.9 5.1Z" fill="#2C3E50"/>
</g>
<defs>
<clipPath id="clip0_1793_45394">
<rect width="24" height="24" fill="white"/>
</clipPath>
</defs>
</svg>
