<svg viewBox="0 0 24 24" fill="none" xmlns="http://www.w3.org/2000/svg">
<path d="M12.7998 16.3C15.0089 16.3 16.7998 14.5091 16.7998 12.3C16.7998 10.0908 15.0089 8.29999 12.7998 8.29999C10.5907 8.29999 8.7998 10.0908 8.7998 12.3C8.7998 14.5091 10.5907 16.3 12.7998 16.3Z" fill="white"/>
<path d="M18.9 5.5H18.1L17 3.6C16.8 3.3 16.4 3 15.8 3H9.9C9.3 3 8.9 3.3 8.7 3.6L7.6 5.5H6.1C6.1 5 5.7 4.7 5.3 4.7H3.5C3 4.7 2.7 5.1 2.7 5.5V5.7C1.7 6 1 7 1 8.1V16.7C1 19 2.8 20.8 5.1 20.8H18.9C21.2 20.8 23 19 23 16.7V9.7C23 7.4 21.2 5.5 18.9 5.5ZM4 8C3.4 8 3 7.6 3 7C3 6.4 3.4 6 4 6C4.6 6 5 6.4 5 7C5 7.6 4.6 8 4 8ZM12.9 18.3C9.6 18.3 6.9 15.6 6.9 12.3C6.9 9 9.6 6.3 12.9 6.3C16.2 6.3 18.9 9 18.9 12.3C18.9 15.6 16.2 18.3 12.9 18.3Z" fill="white"/>
</svg>
