<?xml version="1.0" encoding="utf-8"?>
<!-- Generator: Adobe Illustrator 23.0.1, SVG Export Plug-In . SVG Version: 6.00 Build 0)  -->
<svg version="1.1" id="Layer_1" xmlns="http://www.w3.org/2000/svg" xmlns:xlink="http://www.w3.org/1999/xlink" x="0px" y="0px"
	 viewBox="0 0 32 32" style="enable-background:new 0 0 32 32;" xml:space="preserve">
<style type="text/css">
	.st0{fill:#77828C;}
</style>
<g>
	<g>
		<circle class="st0" cx="16" cy="16" r="15"/>
		<path class="st0" d="M16,2c7.7,0,14,6.3,14,14s-6.3,14-14,14S2,23.7,2,16S8.3,2,16,2 M16,0C7.2,0,0,7.2,0,16s7.2,16,16,16
			s16-7.2,16-16S24.8,0,16,0L16,0z"/>
	</g>
</g>
<g>
	<path d="M19,8c0.1,0,0.3,0,0.4,0.1c0.2,0.2,0.2,0.6,0,0.8l-7.3,7l7.3,7c0.2,0.2,0.2,0.6,0,0.8c-0.2,0.2-0.6,0.2-0.8,0L10.5,16
		l8.1-7.8C18.7,8,18.8,8,19,8z"/>
</g>
</svg>
