<svg width="32" height="33" viewBox="0 0 32 33" fill="none" xmlns="http://www.w3.org/2000/svg">
<path fill-rule="evenodd" clip-rule="evenodd" d="M20.336 15.4797L31.6098 4.11924C32.1301 3.59892 32.1301 2.81843 31.6098 2.2981L29.8753 0.476965C29.355 -0.0433605 28.5745 -0.0433605 28.0542 0.476965L16.6938 11.8374C16.3469 12.1843 15.8266 12.1843 15.4797 11.8374L4.11924 0.390244C3.59892 -0.130081 2.81843 -0.130081 2.2981 0.390244L0.476965 2.21138C-0.0433604 2.73171 -0.0433604 3.5122 0.476965 4.03252L11.8374 15.393C12.1843 15.7398 12.1843 16.2602 11.8374 16.6071L0.390244 28.0542C-0.130081 28.5745 -0.130081 29.355 0.390244 29.8753L2.21138 31.6965C2.73171 32.2168 3.5122 32.2168 4.03252 31.6965L15.393 20.3361C15.7398 19.9892 16.2602 19.9892 16.607 20.3361L27.9675 31.6965C28.4878 32.2168 29.2683 32.2168 29.7886 31.6965L31.6098 29.8753C32.1301 29.355 32.1301 28.5745 31.6098 28.0542L20.336 16.6938C19.9892 16.3469 19.9892 15.8266 20.336 15.4797V15.4797Z" fill="white"/>
</svg>
