<?xml version="1.0" encoding="UTF-8"?>
<svg viewBox="0 0 29 29" version="1.1" xmlns="http://www.w3.org/2000/svg" xmlns:xlink="http://www.w3.org/1999/xlink">
    <title>Combined Shape</title>
    <g id="Layout" stroke="none" stroke-width="1" fill="none" fill-rule="evenodd">
        <g id="Mobile--Grid-two-lines" transform="translate(-616.000000, -73.000000)" fill="#FFFFFF" fill-rule="nonzero">
            <g id="Header">
                <g id="Paste" transform="translate(600.000000, 57.000000)">
                    <path d="M26.6615385,16 C27.6307692,16 28.4615385,16.375 29.9846154,17.625 C30.1230769,17.875 30.4,18 30.5384615,18.25 C30.6769231,18.5 30.9538462,18.625 31.0923077,18.875 C32.4769231,20.25 34,21 34,21.875 L34,21.875 L34,23.5 L31.2307692,23.5 L31.2307692,23 C31.2307692,22.125 30.6769231,22.25 29.8461538,22.25 L29.8461538,22.25 L27.0769231,22.25 C26.6615385,22.25 25.6923077,21.375 25.6923077,21 L25.6923077,21 L25.6923077,18.625 C25.6923077,17.875 24.8615385,18.625 24.3076923,18.5 L24.3076923,18.5 L20.1538462,18.5 C19.1846154,18.5 18.7692308,17.875 18.7692308,18.75 L18.7692308,18.75 L18.7692308,32.25 C18.7692308,33.125 19.1846154,33.5 20.1538462,33.5 L20.1538462,33.5 L27,33.5 L27,27.625 C27,25.9398148 28.0271605,25.0660151 29.7105624,25.0036008 L29.9076923,25 L37.6615385,25 C38.6307692,25 39.4615385,25.375 40.9846154,26.75 C41.1230769,27 41.4,27.125 41.5384615,27.375 C41.6769231,27.625 41.9538462,27.75 42.0923077,28 C43.4769231,29.25 45,30.125 45,30.875 L45,30.875 L45,42.5 C45,44.25 44.0307692,45 42.2307692,45 L42.2307692,45 L29.7692308,45 C27.9692308,45 27,44.25 27,42.5 L27,42.5 L27,36 L18.7692308,36 C17.0358974,36 16.0729345,35.3045267 16.0039816,33.6903419 L16,33.5 L16,18.625 C16,16.875 17.1076923,16 18.9076923,16 L18.9076923,16 Z M31.1538462,27.5 C30.1846154,27.5 29.7692308,26.875 29.7692308,27.75 L29.7692308,27.75 L29.7692308,41.25 C29.7692308,42.125 30.1846154,42.5 31.1538462,42.5 L31.1538462,42.5 L40.8461538,42.5 C41.8153846,42.5 42.2307692,42.125 42.2307692,41.25 L42.2307692,41.25 L42.2307692,32 C42.2307692,31.125 41.6769231,31.25 40.8461538,31.25 L40.8461538,31.25 L38.0769231,31.25 C37.6615385,31.25 36.6923077,30.375 36.6923077,30 L36.6923077,30 L36.6923077,27.625 C36.6923077,26.875 35.8615385,27.625 35.3076923,27.5 L35.3076923,27.5 Z" id="Combined-Shape"></path>
                </g>
            </g>
        </g>
    </g>
</svg>