<?xml version="1.0" encoding="utf-8"?>
<!-- Generator: Adobe Illustrator 24.1.0, SVG Export Plug-In . SVG Version: 6.00 Build 0)  -->
<svg version="1.1" id="Layer_1" xmlns="http://www.w3.org/2000/svg" xmlns:xlink="http://www.w3.org/1999/xlink" x="0px" y="0px"
	 viewBox="0 0 24 24" style="enable-background:new 0 0 24 24;" xml:space="preserve">
<style type="text/css">
	.st0{fill:#FFFFFF;}
</style>
<g id="Slices">
</g>
<g id="Icons">
	<g id="SnackPyramid">
	</g>
	<g id="Survey">
	</g>
	<g id="RescheduleCall">
	</g>
	<g id="AllProducts">
	</g>
	<g id="CurrentLocation">
	</g>
	<g id="Edit_Order_Basket">
	</g>
	<g id="Notification">
	</g>
	<g id="SortOrder">
	</g>
	<g id="AllStores">
	</g>
	<g id="Visit">
	</g>
	<g id="Today">
	</g>
	<g id="Summary">
	</g>
	<g id="delete">
	</g>
	<g id="Delivery">
	</g>
	<g id="Public_Holiday">
	</g>
</g>
<g id="Icons_1_">
	<g id="SnackPyramid_1_">
	</g>
	<g id="Survey_1_">
	</g>
	<g id="RescheduleCall_1_">
	</g>
	<g id="AllProducts_1_">
	</g>
	<g id="CurrentLocation_1_">
	</g>
	<g id="Delivery_Item_1_">
	</g>
	<g id="Edit_Order_Basket_1_">
	</g>
	<g id="Notification_1_">
	</g>
	<g id="SortOrder_1_">
	</g>
	<g id="AllStores_1_">
	</g>
	<g id="Today_1_">
	</g>
	<g id="Summary_1_">
	</g>
	<g id="delete_1_">
	</g>
	<g id="Delivery_1_">
	</g>
	<g id="Public_Holiday_1_">
	</g>
</g>
<g>
	<path class="st0" d="M20.9,2.9H4c-2.1,0-3.7,1.5-3.7,3.5v11.5c0,2,1.7,3.5,3.7,3.5h13c1,0.1,2-0.9,3.5-2.4c0.2-0.2,0.4-0.4,0.7-0.6
		c0.2-0.2,0.4-0.4,0.7-0.6c1.5-1.5,2.1-2.5,2.1-3.4V6C24,4,23,2.9,20.9,2.9z M22,13.2c-0.2,0.6-0.2,1-1,1h-3c0,0-0.1,0-0.1,0v-1.7
		h-1.7c-0.1,0.4-0.3,0.6-0.6,0.6h-1.1c-0.3,0-0.6-0.2-0.6-0.6h-3.4c0,0.3-0.2,0.6-0.6,0.6H8.8c-0.3,0-0.6-0.2-0.6-0.6H6.5v4
		c0,0.3,0.2,0.6,0.6,0.6h9.8v1.2c0,0.9-0.1,1-1,1H3.4v0.1c-1,0-1,0-1-1V6c0-1,0-1,1-1h17.4c1,0,1.2,0,1.2,1V13.2z"/>
	<path class="st0" d="M17.3,9.2h-2.8c0-1.2-1-2.3-2.3-2.3s-2.3,1-2.3,2.3H7.1c-0.3,0-0.6,0.2-0.6,0.6V12h1.7c0-0.3,0.2-0.6,0.6-0.6
		h1.1c0.3,0,0.6,0.2,0.6,0.6h3.4c0-0.3,0.2-0.6,0.6-0.6h1.1c0.3,0,0.6,0.2,0.6,0.6h1.7V9.7C17.8,9.4,17.6,9.2,17.3,9.2z M11,9.1
		C11.1,8.5,11.6,8,12.2,8c0.6,0,1,0.5,1.1,1.1H11z"/>
</g>
</svg>
