<?xml version="1.0" encoding="UTF-8"?>
<svg xmlns="http://www.w3.org/2000/svg" xmlns:xlink="http://www.w3.org/1999/xlink" width="15px" height="15px" viewBox="0 0 15 15" version="1.1">
<g id="surface1">
<path style=" stroke:none;fill-rule:nonzero;fill:rgb(72.941176%,1.960784%,9.019608%);fill-opacity:1;" d="M 7.5 0 C 11.640625 0 15 3.359375 15 7.5 C 15 11.640625 11.640625 15 7.5 15 C 3.359375 15 0 11.640625 0 7.5 C 0 3.359375 3.359375 0 7.5 0 Z M 7.5 0 "/>
<path style=" stroke:none;fill-rule:nonzero;fill:rgb(100%,100%,100%);fill-opacity:1;" d="M 8.46875 7.464844 L 10.738281 5.199219 C 10.839844 5.09375 10.839844 4.9375 10.738281 4.835938 L 10.375 4.472656 C 10.269531 4.367188 10.113281 4.367188 10.007812 4.472656 L 7.742188 6.738281 C 7.671875 6.808594 7.570312 6.808594 7.5 6.738281 L 5.234375 4.453125 C 5.128906 4.351562 4.972656 4.351562 4.871094 4.453125 L 4.503906 4.816406 C 4.402344 4.921875 4.402344 5.078125 4.503906 5.179688 L 6.773438 7.449219 C 6.84375 7.515625 6.84375 7.621094 6.773438 7.691406 L 4.488281 9.976562 C 4.382812 10.078125 4.382812 10.234375 4.488281 10.339844 L 4.851562 10.703125 C 4.957031 10.804688 5.113281 10.804688 5.214844 10.703125 L 7.5 8.433594 C 7.570312 8.367188 7.671875 8.367188 7.742188 8.433594 L 10.007812 10.703125 C 10.113281 10.804688 10.269531 10.804688 10.375 10.703125 L 10.738281 10.339844 C 10.839844 10.234375 10.839844 10.078125 10.738281 9.976562 L 8.46875 7.707031 C 8.417969 7.636719 8.417969 7.535156 8.46875 7.464844 Z M 8.46875 7.464844 "/>
</g>
</svg>
