<svg viewBox="0 0 24 24" fill="none" xmlns="http://www.w3.org/2000/svg">
<path d="M13.6008 19.8996L14.1008 15.4996C14.1008 15.2996 14.0008 14.9996 13.7008 14.9996L9.40078 7.09961L7.60078 8.09961L6.20078 8.79961L4.30078 9.89961L8.70078 17.7996C8.60078 18.0996 8.70078 18.2996 8.90078 18.4996L12.9008 20.2996C13.0008 20.2996 13.0008 20.2996 13.1008 20.2996C13.2008 20.2996 13.3008 20.2996 13.3008 20.1996C13.5008 20.1996 13.6008 19.9996 13.6008 19.8996ZM11.0008 15.7996L12.5008 16.0996L13.1008 15.7996L12.8008 17.9996L11.7008 18.5996L9.60078 17.6996L10.3008 17.2996L11.0008 15.7996Z" fill="white"/>
<path d="M8.10234 4.7998L2.90234 7.6998L3.60234 8.7998L8.70234 5.8998L8.10234 4.7998Z" fill="white"/>
<path d="M6.70152 2.79957C6.30152 2.09957 5.40152 1.89957 4.80152 2.29957L2.30152 3.69957C1.60152 3.99957 1.40152 4.89957 1.80152 5.59957L2.20152 6.39957L7.10152 3.69957L6.70152 2.79957Z" fill="white"/>
<path d="M21.4023 5.69919C21.3023 5.49919 20.9023 5.39919 20.7023 5.49919C20.6023 5.59919 17.3023 7.69919 16.7023 10.5992C16.4023 11.8992 16.7023 13.0992 17.5023 14.1992C18.1023 15.0992 18.3023 15.8992 18.1023 16.6992C17.4023 18.9992 13.8023 20.3992 13.8023 20.3992C13.5023 20.4992 13.4023 20.7992 13.5023 20.9992C13.6023 21.1992 13.8023 21.2992 14.0023 21.2992C14.1023 21.2992 14.1023 21.2992 14.2023 21.2992C14.4023 21.1992 18.3023 19.6992 19.1023 16.8992C19.4023 15.7992 19.2023 14.5992 18.4023 13.4992C17.8023 12.5992 17.5023 11.5992 17.7023 10.5992C18.2023 8.09919 21.2023 6.19919 21.2023 6.19919C21.5023 6.29919 21.6023 5.99919 21.4023 5.69919Z" fill="white"/>
</svg>
