<svg viewBox="0 0 73 65" fill="none" xmlns="http://www.w3.org/2000/svg">
<path d="M64.3 35.2998L48.1 52.1998L38.1 41.4998L34.5 45.0998L48.1 58.1998L68 38.7998L64.3 35.2998Z" fill="#77828C"/>
<path d="M57.0984 52.5C56.4984 54.2 55.2984 55.4 53.6984 55.8L49.3984 60H52.9984C57.7984 60 61.7984 55.4 61.7984 49.5V48L57.0984 52.5Z" fill="#B8BCC0"/>
<path d="M23.6984 55.9002C20.8984 55.9002 18.9984 53.0002 18.9984 49.6002V14.6002C18.9984 11.2002 20.8984 8.0002 23.6984 8.0002H27.3984L26.9984 9.0002C26.5984 9.8002 27.4984 10.8002 28.6984 10.8002H47.6984C48.9984 10.8002 49.7984 9.8002 49.3984 9.0002L49.0984 8.0002H52.6984C55.4984 8.0002 57.4984 11.0002 57.4984 14.4002V39.6002L61.5984 35.3002V14.5002C61.4984 8.6002 57.5984 4.0002 52.6984 4.0002H47.5984L46.8984 2.2002C46.5984 1.7002 45.9984 1.2002 45.1984 1.2002H31.1984C30.3984 1.2002 29.6984 1.6002 29.4984 2.2002L28.6984 4.0002H23.4984C18.6984 4.0002 14.8984 8.6002 14.8984 14.5002V49.5002C14.8984 55.2002 18.7984 60.0002 23.6984 60.0002H46.6984L42.3984 55.9002H23.6984Z" fill="#B8BCC0"/>
<path d="M34.2 39.4004H30C30.1 41.7004 31.5 43.0004 33.3 43.8004L35.4 41.7004C34.6 41.2004 34.3 40.4004 34.2 39.4004Z" fill="#B8BCC0"/>
<path d="M47.3969 39.4002C47.3969 34.7002 43.2969 33.0002 39.3969 32.1002C35.4969 31.0002 34.1969 30.0002 34.1969 28.4002C34.1969 26.6002 35.8969 25.2002 38.7969 25.2002C41.8969 25.2002 42.4969 26.2002 42.5969 28.2002H46.7969C46.6969 25.3002 44.7969 23.5002 41.1969 22.7002V18.7002H36.9969V22.9002C33.5969 23.6002 30.2969 25.3002 30.2969 28.6002C30.2969 32.5002 33.4969 34.4002 38.2969 35.5002C42.6969 36.5002 43.4969 38.0002 43.4969 39.5002C43.4969 40.3002 42.9969 41.6002 41.1969 42.2002L43.3969 44.5002C45.6969 43.6002 47.3969 42.1002 47.3969 39.4002Z" fill="#B8BCC0"/>
<path d="M48.0969 61.2L49.3969 60H46.7969L48.0969 61.2Z" fill="#B8BCC0"/>
</svg>
