<?xml version="1.0" encoding="utf-8"?>
<!-- Generator: Adobe Illustrator 23.0.1, SVG Export Plug-In . SVG Version: 6.00 Build 0)  -->
<svg version="1.1" id="Layer_1" xmlns="http://www.w3.org/2000/svg" xmlns:xlink="http://www.w3.org/1999/xlink" x="0px" y="0px"
	 viewBox="0 0 72.9 64.6" style="enable-background:new 0 0 72.9 64.6;" xml:space="preserve">
<style type="text/css">
	.st0{fill:#77828C;}
	.st1{fill:#B8BCC0;}
</style>
<g id="Slices">
</g>
<path class="st0" d="M56.6,49.3L67,59.7v2.9h-2.9L53.7,52.2L43.3,62.6h-2.9v-2.9l10.4-10.4L40.4,38.9V36h2.9l10.4,10.4L64.1,36H67
	v2.9L56.6,49.3z"/>
<path class="st1" d="M48.1,49.3H12.2v-4.4v-2.5V21.6h41.6v15v7l2.2-2.2V20.9l2.3-2.3v20.5l2.3-2.3v-21c0-0.6-0.5-1.2-1.2-1.2H44.4
	l-7.5-6.9c0.4-0.7,0.6-1.4,0.6-2.3c0-2.6-2-4.6-4.6-4.6c-2.6,0-4.5,2.1-4.5,4.6c0,0.8,0.2,1.6,0.6,2.3l-7.5,6.9H6.5
	c-0.6,0-1.2,0.5-1.2,1.2v39.3c0,0.6,0.5,1.2,1.2,1.2h34.7L48.1,49.3z M33,3.1c1.2,0,2.2,1.1,2.2,2.3C35.2,6,35,6.6,34.5,7
	s-1,0.7-1.6,0.7c-0.6,0-1.2-0.3-1.6-0.7c-0.4-0.4-0.7-1-0.7-1.6C30.7,4.2,31.7,3.1,33,3.1z M30.6,9.4C31.3,9.9,32.1,10,33,10
	c0.9,0,1.7-0.3,2.4-0.6l5.7,5.2H24.9L30.6,9.4z M9.9,50l-2.3,2.3V18.6L9.9,21V50z"/>
</svg>
