<?xml version="1.0" encoding="utf-8"?>
<!-- Generator: Adobe Illustrator 23.0.1, SVG Export Plug-In . SVG Version: 6.00 Build 0)  -->
<svg version="1.1" id="Layer_1" xmlns="http://www.w3.org/2000/svg" xmlns:xlink="http://www.w3.org/1999/xlink" x="0px" y="0px"
	 viewBox="0 0 24 24" style="enable-background:new 0 0 24 24;" xml:space="preserve">
<style type="text/css">
	.st0{fill:#77828C;}
	.st1{fill:#B8BCC0;}
</style>
<polygon class="st0" points="20.7,23 16.3,18.6 11.9,23 10.3,23 10.3,21.4 14.7,17 10.3,12.6 10.3,11 11.9,11 16.3,15.4 20.7,11 
	22.3,11 22.3,12.6 17.9,17 22.3,21.4 22.3,23 "/>
<g>
	<path class="st1" d="M14.3,17H3V3h7v7h7v4.3l2-2V7l-6-6H3C1.9,1,1,1.9,1,3v14c0,1.1,0.9,2,2,2h9.3L14.3,17z M12,2.5L17.5,8H12V2.5z
		"/>
</g>
</svg>
