<?xml version="1.0" encoding="utf-8"?>
<!-- Generator: Adobe Illustrator 24.0.3, SVG Export Plug-In . SVG Version: 6.00 Build 0)  -->
<svg version="1.1" id="Layer_1" xmlns="http://www.w3.org/2000/svg" xmlns:xlink="http://www.w3.org/1999/xlink" x="0px" y="0px"
	 viewBox="0 0 24 24" style="enable-background:new 0 0 24 24;" xml:space="preserve">
<style type="text/css">
	.st0{fill:#2C3E50;}
</style>
<g id="Slices">
</g>
<g id="Icons">
	<g id="Agenda">
	</g>
	<g id="Order">
	</g>
	<g id="Clipboard">
	</g>
	<g id="Track_Activities">
	</g>
	<g id="Todo">
	</g>
	<g id="Massages">
	</g>
	<g id="About_1_">
		<path class="st0" d="M12.3,0.6C5.8,0.6,0.6,5.8,0.6,12.3S5.8,24,12.3,24S24,18.8,24,12.3S18.8,0.6,12.3,0.6z M14.8,18.8
			c-0.6,0.3-1.1,0.4-1.4,0.5c-0.4,0.1-0.8,0.2-1.3,0.2c-0.7,0-1.3-0.2-1.7-0.5c-0.4-0.4-0.6-0.8-0.6-1.4c0-0.2,0-0.4,0.1-0.6
			c0.1-0.2,0.1-0.5,0.2-0.7l0.7-2.7c0.1-0.3,0.1-0.5,0.2-0.7c0.1-0.2,0.1-0.4,0.1-0.6c0-0.3-0.1-0.6-0.2-0.7
			c-0.2-0.2-0.4-0.2-0.8-0.2c-0.2,0-0.4,0.1-0.6,0.1c-0.2,0.1-0.4,0.1-0.5,0.2L9,10.7c0.5-0.2,0.9-0.4,1.4-0.5
			c0.5-0.2,0.9-0.2,1.3-0.2c0.7,0,1.3,0.2,1.7,0.5c0.4,0.4,0.6,0.8,0.6,1.4c0,0.1,0,0.3-0.1,0.6c-0.1,0.3-0.1,0.6-0.2,0.8L13,15.9
			c-0.1,0.2-0.1,0.5-0.2,0.7c-0.1,0.3-0.1,0.5-0.1,0.6c0,0.4,0.1,0.6,0.3,0.7c0.2,0.1,0.4,0.2,0.8,0.2c0.2,0,0.4-0.1,0.6-0.1
			c0.2-0.1,0.4-0.1,0.5-0.2L14.8,18.8z M14.6,7.9c-0.4,0.4-0.8,0.5-1.3,0.5c-0.5,0-0.9-0.2-1.3-0.5c-0.4-0.3-0.5-0.7-0.5-1.2
			c0-0.5,0.2-0.8,0.5-1.2c0.4-0.3,0.8-0.5,1.3-0.5c0.5,0,0.9,0.2,1.3,0.5c0.4,0.3,0.5,0.7,0.5,1.2S15,7.6,14.6,7.9z"/>
	</g>
	<g id="My_Settings">
	</g>
	<g id="Notifications">
	</g>
	<g id="Customer">
	</g>
	<g id="Order_Basekt">
	</g>
	<g id="Logs">
	</g>
	<g id="Tour">
	</g>
	<g id="Daily_Report">
	</g>
	<g id="Issues">
	</g>
	<g id="Synchronize">
	</g>
</g>
</svg>
