<svg  viewBox="0 0 48 48" fill="none" xmlns="http://www.w3.org/2000/svg">
<g clip-path="url(#clip0_1264_42941)">
<path d="M36 33H34V35H36V33Z" fill="#2C3E50"/>
<path d="M40 33H38V35H40V33Z" fill="#2C3E50"/>
<path d="M44 33H42V35H44V33Z" fill="#2C3E50"/>
<path d="M40 37H38V39H40V37Z" fill="#2C3E50"/>
<path d="M32 37H30V39H32V37Z" fill="#2C3E50"/>
<path d="M36 41H34V43H36V41Z" fill="#2C3E50"/>
<path d="M40 41H38V43H40V41Z" fill="#2C3E50"/>
<path d="M32 41H30V43H32V41Z" fill="#2C3E50"/>
<path d="M44 37H42V39H44V37Z" fill="#2C3E50"/>
<path d="M45.3 25H44V26.5C44 27.5 43 28.3 42 28.3C41 28.3 40 27.5 40 26.5V25H33V26.5C33 27.5 32 28.3 31 28.3C30 28.3 29 27.5 29 26.5V25H27.6C26.1 25 25 26 25 27.4V43.3C25 44.8 26.2 46 27.7 46H45.4C46.9 46 48.1 44.8 48.1 43.3V27.4C48 26 46.8 25 45.3 25ZM46 43C46 43.5 45.5 44 45 44H28C27.5 44 27 43.5 27 43V31H46V43Z" fill="#2C3E50"/>
<path d="M41.9 27.1004H42.2C42.7 27.1004 43 26.7004 43 26.2004V23.8004C43 23.3004 42.7 22.9004 42.2 22.9004H41.9C41.4 22.9004 41 23.3004 41 23.8004V26.2004C41 26.7004 41.4 27.1004 41.9 27.1004Z" fill="#2C3E50"/>
<path d="M23 27.4C23 27.1 23 26.7 23.1 26.4C22.8 25.8 22.7 24.9 23.2 23.4C25.8 20.7 27.1 16.3 27.1 12C27 5.5 23.4 2 18.4 2C13.4 2 9 5.5 9 12.1C9 16.4 11 20.8 13.6 23.5C14.6 26.2 12.8 27.2 12.4 27.4C7.2 29.2 1 32.7 1 36.2V37.5C1 42.2 10 43.3 18.4 43.3C19.9 43.3 21.5 43.3 23 43.2V27.4Z" fill="#2C3E50"/>
<path d="M30.9 27.1004H31.2C31.7 27.1004 32 26.7004 32 26.2004V23.8004C32 23.3004 31.7 22.9004 31.2 22.9004H30.9C30.4 22.9004 30 23.3004 30 23.8004V26.2004C30 26.7004 30.4 27.1004 30.9 27.1004Z" fill="#2C3E50"/>
<path d="M36.9016 35.8865L32.8711 39.917L33.2246 40.2705L37.2551 36.2401L36.9016 35.8865Z" fill="#2C3E50"/>
<path d="M33.2246 35.8867L32.8711 36.2402L36.9016 40.2707L37.2551 39.9172L33.2246 35.8867Z" fill="#2C3E50"/>
</g>
</svg>
