<?xml version="1.0" encoding="utf-8"?>
<!-- Generator: Adobe Illustrator 24.2.3, SVG Export Plug-In . SVG Version: 6.00 Build 0)  -->
<svg version="1.1" id="Capa_1" xmlns="http://www.w3.org/2000/svg" xmlns:xlink="http://www.w3.org/1999/xlink" x="0px" y="0px"
	 viewBox="0 0 24 24" style="enable-background:new 0 0 24 24;" xml:space="preserve">
<style type="text/css">
	.st0{fill:#FFFFFF;}
</style>
<g>
	<path class="st0" d="M23.8,8.2L10.5,1.8c-0.1,0-0.3,0-0.3,0.1l-2.9,6h1.6l2.2-4.4l11.4,5.5l-3.6,7.4l-2-1v3.9L18,20
		c0.1,0.1,0.3,0,0.4-0.1l5.5-11.4C24.1,8.4,23.9,8.2,23.8,8.2z"/>
	<path class="st0" d="M15.6,8.8H0.9C0.8,8.8,0.6,9,0.6,9.1v12.7c0,0.1,0.1,0.3,0.3,0.3h14.7c0.1,0,0.3-0.1,0.3-0.3V9.1
		C15.9,8.8,15.8,8.8,15.6,8.8z M14.8,18.4h-1c-0.6-1.5-1.2-3.3-2.3-3.1c-1.2,0.3-1.7,3.1-1.7,3.1s-0.6-3.1-2.3-4.8s-3.2,4.8-3.2,4.8
		H2.2v-8.3h12.7L14.8,18.4L14.8,18.4z"/>
	<circle class="st0" cx="4.3" cy="11.9" r="1"/>
	<path class="st0" d="M11.1,12.6c0.1,0,0.4,0,0.6-0.1c0.1,0.1,0.6,0.1,0.7,0.1c0.7,0,1.5-0.3,1.5-0.9c0-0.4-0.6-0.9-1.5-0.9
		c-0.3,0-0.6,0-0.7,0.1c-0.1-0.1-0.1-0.1-0.3-0.1h-0.1c-0.1,0-0.4,0.1-0.6,0.4c-0.6,0.1-1,0.3-1,0.6C9.7,12.5,10.4,12.6,11.1,12.6z"
		/>
</g>
</svg>
