<svg viewBox="0 0 24 24" fill="none" xmlns="http://www.w3.org/2000/svg">
<path d="M22.9992 8.49961L10.6992 2.59961C10.5992 2.59961 10.3992 2.59961 10.3992 2.79961L7.69922 8.29961H9.19922L11.1992 4.19961L21.7992 9.29961L18.3992 16.1996L16.4992 15.2996V18.9996L17.5992 19.4996C17.6992 19.5996 17.8992 19.4996 17.9992 19.3996L23.0992 8.79961C23.1992 8.69961 23.0992 8.49961 22.9992 8.49961Z" fill="white"/>
<path d="M15.4 9H1.8C1.6 9 1.5 9.1 1.5 9.3V21C1.5 21.2 1.6 21.3 1.8 21.3H15.4C15.6 21.3 15.7 21.2 15.7 21V9.3C15.7 9.1 15.6 9 15.4 9ZM14.6 18H13.7C13.2 16.7 12.6 14.9 11.6 15.2C10.5 15.5 10 18 10 18C10 18 9.4 15.1 7.9 13.6C6.4 12.1 4.9 18 4.9 18H2.9V10.3H14.7V18H14.6Z" fill="white"/>
<path d="M4.80078 12.8994C5.35307 12.8994 5.80078 12.4517 5.80078 11.8994C5.80078 11.3471 5.35307 10.8994 4.80078 10.8994C4.2485 10.8994 3.80078 11.3471 3.80078 11.8994C3.80078 12.4517 4.2485 12.8994 4.80078 12.8994Z" fill="white"/>
<path d="M11.2008 12.6C11.4008 12.6 11.6008 12.6 11.8008 12.5C12.0008 12.6 12.3008 12.6 12.5008 12.6C13.2008 12.6 13.8008 12.3 13.8008 11.8C13.8008 11.4 13.2008 11 12.5008 11C12.2008 11 12.0008 11 11.8008 11.1C11.7008 11 11.6008 11 11.5008 11H11.3008C11.1008 11 10.9008 11.2 10.8008 11.4C10.2008 11.5 9.80078 11.7 9.80078 11.9C9.90078 12.4 10.5008 12.6 11.2008 12.6Z" fill="white"/>
</svg>
