<?xml version="1.0" encoding="utf-8"?>
<!-- Generator: Adobe Illustrator 24.1.0, SVG Export Plug-In . SVG Version: 6.00 Build 0)  -->
<svg version="1.1" id="Capa_1" xmlns="http://www.w3.org/2000/svg" xmlns:xlink="http://www.w3.org/1999/xlink" x="0px" y="0px"
	 viewBox="0 0 24 25" style="enable-background:new 0 0 24 25;" xml:space="preserve">
<style type="text/css">
	.st0{filter:url(#Adobe_OpacityMaskFilter);}
	.st1{fill-rule:evenodd;clip-rule:evenodd;fill:#FFFFFF;}
	.st2{mask:url(#mask-2_1_);fill-rule:evenodd;clip-rule:evenodd;fill:#FFFFFF;}
	.st3{filter:url(#Adobe_OpacityMaskFilter_1_);}
	.st4{mask:url(#mask-4_1_);fill-rule:evenodd;clip-rule:evenodd;fill:#FFFFFF;}
</style>
<g id="Reload" transform="translate(857.000000, 23.000000)">
	<g id="Group-7" transform="translate(31.000000, 23.000000)">
		<g id="Group-3">
			<g id="Clip-2">
			</g>
			<defs>
				<filter id="Adobe_OpacityMaskFilter" filterUnits="userSpaceOnUse" x="-888" y="-46" width="19.8" height="24">
					<feColorMatrix  type="matrix" values="1 0 0 0 0  0 1 0 0 0  0 0 1 0 0  0 0 0 1 0"/>
				</filter>
			</defs>
			<mask maskUnits="userSpaceOnUse" x="-888" y="-46" width="19.8" height="24" id="mask-2_1_">
				<g class="st0">
					<polygon id="path-1_1_" class="st1" points="-888,-46 -868.2,-46 -868.2,-22 -888,-22 					"/>
				</g>
			</mask>
			<path id="Fill-1" class="st2" d="M-876.8-24.1h-7c-1.1,0-2.1-0.7-2.1-2.1v-14.6c0-1.4,0.9-2.1,2.1-2.1h1c-0.1,0.3,0.2,1,0.7,1
				h7.8c0.5,0,0.9-0.7,0.7-1h1c1.1,0,2.1,0.7,2.1,2.1v5.2c0.8,0,1.5,0.2,2.2,0.5v-5.6c0-2.3-2.2-4.2-4.2-4.2h-1.9l-0.2-0.7
				c-0.1-0.3-0.4-0.4-0.7-0.4h-5.8c-0.3,0-0.6,0.1-0.7,0.4l-0.2,0.7h-2.4c-2,0-3.7,1.9-3.7,4.2v13.5c0,2.3,1.1,5.2,3.1,5.2h10.3
				C-875.5-22.5-876.2-23.2-876.8-24.1"/>
		</g>
		<g id="Group-6" transform="translate(10.434783, 11.478261)">
			<g id="Clip-5">
			</g>
			<defs>
				<filter id="Adobe_OpacityMaskFilter_1_" filterUnits="userSpaceOnUse" x="-887.5" y="-46" width="12.5" height="12.5">
					<feColorMatrix  type="matrix" values="1 0 0 0 0  0 1 0 0 0  0 0 1 0 0  0 0 0 1 0"/>
				</filter>
			</defs>
			<mask maskUnits="userSpaceOnUse" x="-887.5" y="-46" width="12.5" height="12.5" id="mask-4_1_">
				<g class="st3">
					<polygon id="path-3_1_" class="st1" points="-887.5,-46 -875.1,-46 -875.1,-33.5 -887.5,-33.5 					"/>
				</g>
			</mask>
			<path id="Fill-4" class="st4" d="M-875.9-40.1c-0.6-0.1-1.1,0.3-1.1,0.9c-0.3,2.1-2.1,3.5-4.2,3.5c-2.3,0-4.2-1.9-4.2-4.2
				c0-2.3,1.9-4.2,4.2-4.2c1.3,0,2.5,0.6,3.3,1.7l0.1,0.1l-0.8,0.8c-0.1,0.1-0.1,0.2-0.1,0.3c0,0.1,0.1,0.2,0.2,0.2
				c1.4,0.2,2.8,0.1,2.9,0.1c0.1,0,0.1,0,0.2-0.1c0,0,0.1-0.1,0.1-0.2c0-0.1,0.1-1.6-0.1-2.9c0-0.1-0.1-0.2-0.2-0.2
				c-0.1,0-0.2,0-0.3,0.1l-0.4,0.4c-1.3-1.6-2.9-2.4-4.9-2.4c-3.4,0-6.3,2.8-6.3,6.3s2.8,6.3,6.3,6.3c3.1,0,5.7-2.3,6.2-5.4
				C-874.9-39.4-875.3-39.9-875.9-40.1"/>
		</g>
	</g>
</g>
</svg>
