<svg viewBox="0 0 20 23" fill="none" xmlns="http://www.w3.org/2000/svg">
<g clip-path="url(#clip0_1776_45344)">
<path d="M7.9 5.60059L5.6 7.90059L4.2 6.40059L3.5 7.10059L5.6 9.20059L8.6 6.30059L7.9 5.60059Z" fill="white"/>
<path d="M4.2 10.8L3.5 11.5L5.6 13.6L8.6 10.7L7.9 10L5.6 12.3L4.2 10.8Z" fill="white"/>
<path d="M14.4016 7.7002H9.10156V8.6002H14.4016V7.7002Z" fill="white"/>
<path d="M14.4 12.1006H10V13.0006H14.4V12.1006Z" fill="white"/>
<path d="M16.8008 16.8001H6.20082C4.40082 16.8001 3.40082 17.5001 3.40082 19.1001C3.40082 19.1001 3.30082 20.7001 2.20082 21.0001C2.00082 20.8001 2.00082 20.6001 2.00082 20.0001V3.20012C2.00082 2.20012 2.00082 2.00012 3.00082 2.00012H14.9008C15.9008 2.00012 15.9008 2.00012 15.9008 3.00012V15.6001H17.9008V3.60012C18.0008 1.70012 16.5008 0.100116 14.5008 0.000116074H3.00082C1.50082 -0.199884 0.200815 0.900116 0.000815372 2.30012C0.000815372 2.60012 0.000815372 2.80012 0.000815372 3.00012V19.4001C-0.0991846 21.3001 1.40082 22.9001 3.40082 23.0001H15.8008C16.5008 23.0001 17.2008 22.9001 17.8008 22.7001C19.0008 22.3001 19.8008 21.1001 19.8008 19.9001C19.8008 18.2001 18.4008 16.8001 16.8008 16.8001ZM17.8008 19.7001C17.8008 20.1001 17.6008 20.5001 17.2008 20.7001C16.4008 21.0001 15.6008 21.1001 14.8008 21.0001H8.40082H5.10082C5.60082 20.2001 5.30082 18.7001 6.20082 18.7001H12.3008H16.4008H16.8008C17.3008 18.7001 17.8008 19.0001 17.8008 19.6001C17.8008 19.6001 17.8008 19.7001 17.8008 19.7001Z" fill="white"/>
</g>
</svg>
