<svg viewBox="0 0 24 24" fill="none" xmlns="http://www.w3.org/2000/svg">
<rect width="24" height="24" rx="12" fill="#BA0517"/>
<path d="M13.5507 11.9446L17.1784 8.31691C17.3446 8.15076 17.3446 7.90153 17.1784 7.73537L16.5969 7.15383C16.4307 6.98768 16.1815 6.98768 16.0153 7.15383L12.3877 10.7815C12.2769 10.8923 12.1107 10.8923 12 10.7815L8.37227 7.12614C8.20612 6.95999 7.95688 6.95999 7.79073 7.12614L7.20919 7.70768C7.04304 7.87383 7.04304 8.12306 7.20919 8.28922L10.8369 11.9169C10.9477 12.0277 10.9477 12.1938 10.8369 12.3046L7.1815 15.96C7.01535 16.1261 7.01535 16.3754 7.1815 16.5415L7.76304 17.1231C7.92919 17.2892 8.17842 17.2892 8.34458 17.1231L12 13.4954C12.1107 13.3846 12.2769 13.3846 12.3877 13.4954L16.0153 17.1231C16.1815 17.2892 16.4307 17.2892 16.5969 17.1231L17.1784 16.5415C17.3446 16.3754 17.3446 16.1261 17.1784 15.96L13.5507 12.3323C13.4677 12.2215 13.4677 12.0554 13.5507 11.9446Z" fill="white"/>
</svg>
