<svg viewBox="0 0 24 23" fill="none" xmlns="http://www.w3.org/2000/svg">
<mask id="mask0_2616_12117" style="mask-type:luminance" maskUnits="userSpaceOnUse" x="0" y="0" width="24" height="23">
<path d="M23.8999 0H0V22.9999H23.8999V0Z" fill="white"/>
</mask>
<g mask="url(#mask0_2616_12117)">
<path d="M3.67861 3.64412H20.3145C20.7766 3.64412 21.2387 2.99717 21.2387 2.53506V1.70327C21.2157 1.4745 21.1083 1.26252 20.9375 1.10871C20.7666 0.954905 20.5445 0.870319 20.3145 0.871472H3.67861C3.44869 0.870319 3.22661 0.954905 3.05571 1.10871C2.88481 1.26252 2.77738 1.4745 2.75439 1.70327V2.53506C2.75439 2.99717 3.2165 3.64412 3.67861 3.64412Z" fill="#2C3E50"/>
<path d="M22.9947 10.2061L21.2387 6.04717V5.49264C21.2387 5.03053 21.1463 4.56842 20.6842 4.56842H3.67863C3.43919 4.58558 3.21396 4.68848 3.04421 4.85822C2.87447 5.02796 2.77158 5.2532 2.75441 5.49264V6.04717L0.905977 10.2061C0.903449 10.316 0.923236 10.4254 0.964143 10.5274C1.00505 10.6295 1.06623 10.7222 1.14398 10.8C1.22172 10.8777 1.31443 10.9389 1.41649 10.9798C1.51855 11.0207 1.62785 11.0404 1.73777 11.0379H1.83019V21.2968C1.85319 21.5255 1.96062 21.7375 2.13151 21.8913C2.30241 22.0451 2.5245 22.1297 2.75441 22.1286H14.7692V13.8106H18.4661V22.1286H20.6842C21.1463 22.1286 22.163 21.7589 22.163 21.2968V11.0379C22.2754 11.0513 22.3895 11.0391 22.4965 11.0019C22.6034 10.9648 22.7007 10.904 22.7808 10.8239C22.8608 10.7439 22.9217 10.6466 22.9588 10.5396C22.9959 10.4326 23.0081 10.3186 22.9947 10.2061ZM7.56034 6.78654H9.68604L9.40878 10.2061V10.2986C9.40878 10.6172 9.2822 10.9228 9.05687 11.1481C8.83155 11.3734 8.52594 11.5001 8.20729 11.5001C7.88864 11.5001 7.58304 11.3734 7.35772 11.1481C7.1324 10.9228 7.00581 10.6172 7.00581 10.2986V10.2061L7.56034 6.78654ZM2.93925 10.2986L3.95589 6.87896H6.08159L5.34222 10.2986V10.391C5.33745 10.7082 5.20933 11.011 4.98504 11.2353C4.76075 11.4596 4.45791 11.5877 4.14074 11.5925C3.8206 11.5518 3.52492 11.4 3.30533 11.1635C3.08573 10.9269 2.95617 10.6208 2.93925 10.2986ZM11.9966 19.3559H4.60284V13.8106H11.9966V19.3559ZM12.1814 11.5001C11.8643 11.4952 11.5614 11.3671 11.3371 11.1428C11.1128 10.9185 10.9847 10.6158 10.9799 10.2986V10.2061L11.0723 6.78654H13.198L13.2905 10.2061V10.2986C13.3063 10.4524 13.2892 10.6078 13.2403 10.7545C13.1914 10.9013 13.1118 11.0358 13.0069 11.1495C12.9021 11.2631 12.7742 11.3531 12.6319 11.4135C12.4895 11.474 12.336 11.5035 12.1814 11.5001ZM17.357 10.2986C17.357 10.6172 17.2305 10.9228 17.0052 11.1481C16.7798 11.3734 16.4742 11.5001 16.1555 11.5001C15.837 11.5001 15.5313 11.3734 15.306 11.1481C15.0807 10.9228 14.9541 10.6172 14.9541 10.2986V10.2061L14.6768 6.78654H16.8025L17.357 10.2986ZM21.3312 10.2061C21.3373 10.37 21.3112 10.5335 21.2542 10.6873C21.1971 10.841 21.1103 10.982 20.9987 11.1022C20.8871 11.2223 20.7529 11.3194 20.6038 11.3876C20.4547 11.4559 20.2936 11.4941 20.1297 11.5001C19.8271 11.4989 19.5359 11.3842 19.3135 11.179C19.091 10.9737 18.9536 10.6926 18.9282 10.391V10.2986L18.1888 6.87896H20.3145L21.3312 10.2061Z" fill="#2C3E50"/>
</g>
</svg>
