<svg viewBox="0 0 24 24" fill="none" xmlns="http://www.w3.org/2000/svg">
<path d="M18.6665 14.2222H16.4443C15.7776 14.2222 15.3332 13.7778 15.3332 13.1111H8.66648C8.66648 13.7778 8.22203 14.2222 7.55536 14.2222H5.33313C4.66646 14.2222 4.22202 13.7778 4.22202 13.1111H0.888672V20.8889C0.888672 21.5556 1.33312 22 1.99979 22H21.9999C22.6665 22 23.111 21.5556 23.111 20.8889V13.1111H19.7776C19.7776 13.7778 19.3332 14.2222 18.6665 14.2222Z" fill="#2C3E50"/>
<path d="M21.9999 6.4444H16.4443C16.4443 3.99995 14.4443 1.99994 11.9998 1.99994C9.55537 1.99994 7.55536 3.99995 7.55536 6.4444H1.99979C1.33312 6.4444 0.888672 6.88884 0.888672 7.55551V12H4.22202C4.22202 11.3333 4.66646 10.8889 5.33313 10.8889H7.55536C8.22203 10.8889 8.66648 11.3333 8.66648 12H15.3332C15.3332 11.3333 15.7776 10.8889 16.4443 10.8889H18.6665C19.3332 10.8889 19.7776 11.3333 19.7776 12H23.111V7.55551C23.111 6.88884 22.6665 6.4444 21.9999 6.4444ZM11.9998 4.22217C13.1109 4.22217 13.9998 5.22217 14.2221 6.4444H9.77759C9.99981 5.22217 10.8887 4.22217 11.9998 4.22217Z" fill="#2C3E50"/>
</svg>
