<svg viewBox="0 0 24 24" fill="none" xmlns="http://www.w3.org/2000/svg">
<path fill-rule="evenodd" clip-rule="evenodd" d="M16.1001 5H7.90006C7.40006 5 7.00006 4.6 7.20006 4.3L8.30006 1.4C8.40006 1.1 8.70006 1 9.00006 1H15.0001C15.3001 1 15.6001 1.1 15.8001 1.4L16.9001 4.3C17.0001 4.6 16.6001 5 16.1001 5Z" fill="#2C3E50"/>
<path d="M18.2 4C19.5 4 20 4.6 20 6V20.1C20 21.5 19.5 22 18.2 22H5.7C4.5 22 4 21.5 4 20.1V6.2C4 4.9 4.5 4 5.7 4H18.2ZM17 2H6C3.9 2 2 2.7 2 5V21C2 23.3 2.9 24 5 24H19C21.1 24 22 23.3 22 21V5C22 2.7 20.1 2 18 2H17Z" fill="#2C3E50"/>
<path d="M18 10H13C12.4 10 12 9.6 12 9C12 8.4 12.4 8 13 8H18C18.6 8 19 8.4 19 9C19 9.6 18.6 10 18 10Z" fill="#2C3E50"/>
<path d="M16 15H13C12.4 15 12 14.6 12 14C12 13.4 12.4 13 13 13H16C16.6 13 17 13.4 17 14C17 14.6 16.6 15 16 15Z" fill="#2C3E50"/>
<path d="M17 20H13C12.4 20 12 19.6 12 19C12 18.4 12.4 18 13 18H17C17.6 18 18 18.4 18 19C18 19.6 17.6 20 17 20Z" fill="#2C3E50"/>
<path d="M8.0002 10.7L5.6002 8.39999C5.4002 8.19999 5.4002 7.89999 5.6002 7.69999C5.8002 7.49999 6.1002 7.49999 6.3002 7.69999L8.0002 9.29999L10.6002 6.69999C10.8002 6.49999 11.1002 6.49999 11.3002 6.69999C11.5002 6.89999 11.5002 7.19999 11.3002 7.39999L8.0002 10.7Z" fill="#2C3E50"/>
<path d="M8.0002 15.7L5.6002 13.3C5.4002 13.1 5.4002 12.8 5.6002 12.6C5.8002 12.4 6.1002 12.4 6.3002 12.6L8.0002 14.3L10.6002 11.7C10.8002 11.5 11.1002 11.5 11.3002 11.7C11.5002 11.9 11.5002 12.2 11.3002 12.4L8.0002 15.7Z" fill="#2C3E50"/>
<path d="M8.0002 20.7L5.6002 18.3C5.4002 18.1 5.4002 17.8 5.6002 17.6C5.8002 17.4 6.1002 17.4 6.3002 17.6L8.0002 19.3L10.6002 16.7C10.8002 16.5 11.1002 16.5 11.3002 16.7C11.5002 16.9 11.5002 17.2 11.3002 17.4L8.0002 20.7Z" fill="#2C3E50"/>
</svg>
