<svg width="97" height="97" viewBox="0 0 97 97" fill="none" xmlns="http://www.w3.org/2000/svg">
<path fill-rule="evenodd" clip-rule="evenodd" d="M60.7923 28.032H36.2067C34.7075 28.032 33.5082 26.8327 34.1079 25.9333L37.406 17.2384C37.7058 16.3389 38.6053 16.0391 39.5047 16.0391H57.4942C58.3937 16.0391 59.2931 16.3389 59.8928 17.2384L63.1909 25.9333C63.4907 26.8327 62.2914 28.032 60.7923 28.032Z" fill="#2C3E50"/>
<path d="M67.0882 25.0316C70.9859 25.0316 72.485 26.8306 72.485 31.0281V73.3034C72.485 77.5009 70.9859 79.0001 67.0882 79.0001H29.6101C26.0122 79.0001 24.5131 77.5009 24.5131 73.3034V31.6278C24.5131 27.7301 26.0122 25.0316 29.6101 25.0316H67.0882ZM63.4903 19.0352H30.5096C24.2133 19.0352 18.5166 21.1339 18.5166 28.0299V76.0018C18.5166 82.8978 21.215 84.9965 27.5113 84.9965H69.4868C75.7831 84.9965 78.4815 82.8978 78.4815 76.0018V28.0299C78.4815 21.1339 72.7848 19.0352 66.4885 19.0352H63.4903Z" fill="#2C3E50"/>
<path d="M66.4895 43.0219H51.4982C49.6993 43.0219 48.5 41.8226 48.5 40.0236C48.5 38.2247 49.6993 37.0254 51.4982 37.0254H66.4895C68.2884 37.0254 69.4877 38.2247 69.4877 40.0236C69.4877 41.8226 68.2884 43.0219 66.4895 43.0219Z" fill="#2C3E50"/>
<path d="M60.493 58.0141H51.4982C49.6993 58.0141 48.5 56.8148 48.5 55.0158C48.5 53.2169 49.6993 52.0176 51.4982 52.0176H60.493C62.2919 52.0176 63.4912 53.2169 63.4912 55.0158C63.4912 56.8148 62.2919 58.0141 60.493 58.0141Z" fill="#2C3E50"/>
<path d="M63.4912 73.0063H51.4982C49.6993 73.0063 48.5 71.807 48.5 70.008C48.5 68.2091 49.6993 67.0098 51.4982 67.0098H63.4912C65.2902 67.0098 66.4895 68.2091 66.4895 70.008C66.4895 71.807 65.2902 73.0063 63.4912 73.0063Z" fill="#2C3E50"/>
<path d="M36.5059 45.1224L29.3101 38.2264C28.7104 37.6268 28.7104 36.7273 29.3101 36.1277C29.9097 35.528 30.8092 35.528 31.4089 36.1277L36.5059 40.9249L44.3013 33.1294C44.901 32.5298 45.8004 32.5298 46.4001 33.1294C46.9997 33.7291 46.9997 34.6285 46.4001 35.2282L36.5059 45.1224Z" fill="#2C3E50"/>
<path d="M36.5059 60.1126L29.3101 52.9169C28.7104 52.3172 28.7104 51.4177 29.3101 50.8181C29.9097 50.2184 30.8092 50.2184 31.4089 50.8181L36.5059 55.9151L44.3013 48.1197C44.901 47.52 45.8004 47.52 46.4001 48.1197C46.9997 48.7193 46.9997 49.6188 46.4001 50.2184L36.5059 60.1126Z" fill="#2C3E50"/>
<path d="M36.5059 75.1048L29.3101 67.909C28.7104 67.3094 28.7104 66.4099 29.3101 65.8103C29.9097 65.2106 30.8092 65.2106 31.4089 65.8103L36.5059 70.9073L44.3013 63.1118C44.901 62.5122 45.8004 62.5122 46.4001 63.1118C46.9997 63.7115 46.9997 64.611 46.4001 65.2106L36.5059 75.1048Z" fill="#2C3E50"/>
</svg>
