<svg viewBox="0 0 24 24" fill="none" xmlns="http://www.w3.org/2000/svg">
<path fill-rule="evenodd" clip-rule="evenodd" d="M8.03141 5.35364H16.016C16.4314 5.35364 16.7545 5.03056 16.7545 4.61517V3.13824C16.7545 1.93824 15.7853 0.922852 14.5853 0.922852H9.50833C8.30833 0.922852 7.3391 1.93824 7.3391 3.13824V4.61517C7.29295 5.03056 7.61602 5.35364 8.03141 5.35364V5.35364ZM19.9851 2.76889H19.2467C19.0159 2.76889 18.8774 2.90735 18.8774 3.13812V4.61505C18.8774 6.23044 17.5851 7.56891 15.9698 7.56891H8.03129C6.41591 7.56891 5.1236 6.23044 5.1236 4.61505V3.13812C5.1236 2.90735 4.98514 2.76889 4.75437 2.76889H4.01591C2.81591 2.76889 1.84668 3.78428 1.84668 4.98428V20.8613C1.84668 22.0613 2.81591 23.0767 4.01591 23.0767H19.9851C21.1851 23.0767 22.1544 22.0613 22.1544 20.8613V4.98428C22.1544 3.78428 21.1851 2.76889 19.9851 2.76889V2.76889Z" fill="#2D3E50"/>
</svg>
