<svg width="24" height="24" viewBox="0 0 24 24" fill="none" xmlns="http://www.w3.org/2000/svg">
<path fill-rule="evenodd" clip-rule="evenodd" d="M3.69209 4.84613C3.69209 4.47689 3.36901 4.15381 2.99978 4.15381H1.61516C1.24593 4.15381 0.922852 4.47689 0.922852 4.84613V6.23079C0.922852 6.60003 1.24593 6.92311 1.61516 6.92311H2.99978C3.36901 6.92311 3.69209 6.60003 3.69209 6.23079V4.84613ZM23.0767 4.84613C23.0767 4.47689 22.7537 4.15381 22.3844 4.15381H6.23056C5.86133 4.15381 5.53825 4.47689 5.53825 4.84613V6.23079C5.53825 6.60003 5.86133 6.92311 6.23056 6.92311H22.3844C22.7537 6.92311 23.0767 6.60003 23.0767 6.23079V4.84613ZM3.69209 11.3077C3.69209 10.9384 3.36901 10.6153 2.99978 10.6153H1.61516C1.24593 10.6153 0.922852 10.9384 0.922852 11.3077V12.6923C0.922852 13.0616 1.24593 13.3846 1.61516 13.3846H2.99978C3.36901 13.3846 3.69209 13.0616 3.69209 12.6923V11.3077ZM21.2306 11.3077C21.2306 10.9384 20.9075 10.6153 20.5383 10.6153H6.23056C5.86133 10.6153 5.53825 10.9384 5.53825 11.3077V12.6923C5.53825 13.0616 5.86133 13.3846 6.23056 13.3846H20.5383C20.9075 13.3846 21.2306 13.0616 21.2306 12.6923V11.3077ZM3.69209 17.7692C3.69209 17.4 3.36901 17.0769 2.99978 17.0769H1.61516C1.24593 17.0769 0.922852 17.4 0.922852 17.7692V19.1539C0.922852 19.5231 1.24593 19.8462 1.61516 19.8462H2.99978C3.36901 19.8462 3.69209 19.5231 3.69209 19.1539V17.7692ZM23.0767 17.7692C23.0767 17.4 22.7537 17.0769 22.3844 17.0769H6.23056C5.86133 17.0769 5.53825 17.4 5.53825 17.7692V19.1539C5.53825 19.5231 5.86133 19.8462 6.23056 19.8462H22.3844C22.7537 19.8462 23.0767 19.5231 23.0767 19.1539V17.7692Z" fill="#2D3E50"/>
</svg>
