<?xml version="1.0" encoding="utf-8"?>
<!-- Generator: Adobe Illustrator 24.1.0, SVG Export Plug-In . SVG Version: 6.00 Build 0)  -->
<svg version="1.1" id="Icons" xmlns="http://www.w3.org/2000/svg" xmlns:xlink="http://www.w3.org/1999/xlink" x="0px" y="0px"
	 viewBox="0 0 24 24" style="enable-background:new 0 0 24 24;" xml:space="preserve">
<style type="text/css">
	.st0{fill:#FFFFFF;}
</style>
<path class="st0" d="M12.2,16.5h0.9l1.1-1.6l2.2-2.9c0.5-0.6,1.4-0.7,1.9-0.2c0.1,0.1,0.1,0.1,0.2,0.2l2,2.9l0.1,0.1L15.7,1.5h-3.6
	v4h-2v-4H6.6l-5.4,15h9v-4h2V16.5z M12.1,10.5h-2v-3h2V10.5z"/>
<path class="st0" d="M22.6,20.8l-2.1-3.5l-2-3.2c-0.1-0.1-0.2-0.2-0.3-0.3c-0.6-0.4-1.4-0.3-1.8,0.3l-2.2,3.2l-2.1,3.5
	C12,21,12,21.2,12,21.4c0,0.6,0.6,1,1.2,1h8.3c0.2,0,0.4,0,0.6-0.1C22.7,22,22.9,21.3,22.6,20.8z M17.6,21.1c-0.3,0-0.5-0.2-0.5-0.5
	s0.2-0.5,0.5-0.5c0.3,0,0.5,0.2,0.5,0.5S17.9,21.1,17.6,21.1z M18.1,19.5h-1v-3h1V19.5z"/>
</svg>
