<?xml version="1.0" encoding="utf-8"?>
<!-- Generator: Adobe Illustrator 23.0.1, SVG Export Plug-In . SVG Version: 6.00 Build 0)  -->
<svg version="1.1" id="Layer_1" xmlns="http://www.w3.org/2000/svg" xmlns:xlink="http://www.w3.org/1999/xlink" x="0px" y="0px"
	 viewBox="0 0 24 24" style="enable-background:new 0 0 24 24;" xml:space="preserve">
<style type="text/css">
	.st0{fill:#FFFFFF;}
</style>
<g id="Slices">
</g>
<g>
	<g>
		<path class="st0" d="M18.1,10.6c-0.8,0-7.8-0.6-9.9,1.7c-0.3,0.3-0.4,0.6-0.3,1c0.3,1.1,2.6,2,5.7,3c0.2-0.3,0.4-0.6,0.6-0.8
			c-0.1,0-0.1,0-0.2-0.1c-1.6-0.6-5-1.7-5.2-2.4L9,12.9c1.5-1.6,7.1-1.5,9.1-1.3c0.2,0,0.5-0.3,0.5-0.5S18.4,10.6,18.1,10.6z
			 M20.5,1C19.1,1,18,2.1,18,3.5S19.1,6,20.5,6S23,4.9,23,3.5S21.9,1,20.5,1z M20.5,12L21,7h-1L20.5,12z M3.5,22L4,17H3L3.5,22z
			 M3.5,11C2.1,11,1,12.1,1,13.5S2.1,16,3.5,16S6,14.9,6,13.5S4.9,11,3.5,11z M6.1,21c-0.3,0-0.6,0.2-0.4,0.6
			c-0.1,0.3,0.1,0.6,0.4,0.6c1.2,0.1,2.4,0.2,3.4,0.2c1.7,0,3.1-0.2,4.2-0.5c-0.2-0.3-0.4-0.7-0.5-1.1C11.6,21.2,9.3,21.4,6.1,21z"
			/>
	</g>
</g>
<path class="st0" d="M22.1,19.1h-0.7c-0.2,0-0.3,0.2-0.3,0.3c-0.2,1.4-1.3,2.4-2.8,2.4s-2.8-1.2-2.8-2.8c0-1.5,1.3-2.7,2.8-2.8v0.4
	c0,0.2,0.2,0.3,0.3,0.2l2.3-1.2c0.2-0.1,0.2-0.2,0-0.3l-2.3-1.2c-0.2-0.1-0.3,0-0.3,0.2v0.4c-2.4,0-4.2,1.9-4.2,4.1
	c0,2.3,1.9,4.1,4.2,4.1c2.2,0,4-1.7,4.2-3.8C22.5,19.2,22.3,19.1,22.1,19.1z"/>
</svg>
