<?xml version="1.0" encoding="UTF-8"?>
<svg width="53px" height="43px" viewBox="0 0 53 43" version="1.1" xmlns="http://www.w3.org/2000/svg" xmlns:xlink="http://www.w3.org/1999/xlink">
    <title>Shape</title>
    <g id="Layout" stroke="none" stroke-width="1" fill="none" fill-rule="evenodd">
        <g id="Paste_-yellow" transform="translate(-440.000000, -1350.000000)" fill="#FFFFFF" fill-rule="nonzero">
            <g id="Group-4" transform="translate(408.000000, 1318.000000)">
                <g id="CheckCircle" transform="translate(31.500000, 31.500000)">
                    <path d="M52.8759677,38.0632184 L29.5522997,1.98275862 C28.3429243,0.00574712644 25.7514056,0.00574712644 24.3692624,1.98275862 L1.04559438,38.0632184 C-0.336548906,40.3697318 1.04559438,43.5 3.63711305,43.5 L50.4572169,43.5 C52.8759677,43.335249 54.4308789,40.2049808 52.8759677,38.0632184 Z M26.5,35.5 C24.8333333,35.5 23.5,34.1666667 23.5,32.5 C23.5,30.8333333 24.8333333,29.5 26.5,29.5 C28.1666667,29.5 29.5,30.8333333 29.5,32.5 C29.5,34.1666667 28.1666667,35.5 26.5,35.5 Z M29.5,27.4213483 C29.5,28.1404494 29.1666667,28.5 28.5,28.5 L24.5,28.5 C23.8333333,28.5 23.5,28.1404494 23.5,27.4213483 L23.5,13.5786517 C23.5,12.8595506 23.8333333,12.5 24.5,12.5 L28.5,12.5 C29.1666667,12.5 29.5,12.8595506 29.5,13.5786517 L29.5,27.4213483 Z" id="Shape"></path>
                </g>
            </g>
        </g>
    </g>
</svg>