<?xml version="1.0" encoding="utf-8"?>
<!-- Generator: Adobe Illustrator 23.0.1, SVG Export Plug-In . SVG Version: 6.00 Build 0)  -->
<svg version="1.1" id="Layer_1" xmlns="http://www.w3.org/2000/svg" xmlns:xlink="http://www.w3.org/1999/xlink" x="0px" y="0px"
	 viewBox="0 0 82 32" style="enable-background:new 0 0 82 32;" xml:space="preserve">
<style type="text/css">
	.st0{fill:#4F754F;}
	.st1{fill:#B8BCC0;}
	.st2{fill:#77828C;}
	.st3{fill:#FFFFFF;}
</style>
<path class="st0" d="M41,32H17C8.2,32,1,24.8,1,16l0,0C1,7.2,8.2,0,17,0h24V32z"/>
<path class="st1" d="M41.1,32h24.3c8.8,0,15.9-7.1,15.9-15.9l0,0c0-8.8-7.2-16.1-16-16.1H41.1V32z"/>
<path class="st2" d="M65.9,11.3l-1.2-1.2l-4.8,4.8l-4.8-4.8l-1.2,1.2l4.8,4.8l-4.8,4.8l1.2,1.2l4.8-4.8l4.8,4.8l1.2-1.2l-4.8-4.8
	L65.9,11.3z"/>
<path class="st3" d="M31.1,11.3L20.3,22.1l-4.9-4.9l1.3-1.3l3.7,3.7l9.5-9.5L31.1,11.3z"/>
</svg>
