<?xml version="1.0" encoding="utf-8"?>
<!-- Generator: Adobe Illustrator 23.0.1, SVG Export Plug-In . SVG Version: 6.00 Build 0)  -->
<svg version="1.1" id="Layer_1" xmlns="http://www.w3.org/2000/svg" xmlns:xlink="http://www.w3.org/1999/xlink" x="0px" y="0px"
	 viewBox="0 0 82 32" style="enable-background:new 0 0 82 32;" xml:space="preserve">
<style type="text/css">
	.st0{fill:#2C3E50;}
	.st1{fill:#FFFFFF;}
</style>
<path class="st0" d="M17,2h24v28H16.9C9.2,30,3,23.8,3,16.1C3,8.3,9.3,2,17,2"/>
<path class="st1" d="M40,2v28H17C9.3,30,3,23.7,3,16S9.3,2,17,2H40 M42,0H17C8.2,0,1,7.2,1,16s7.2,16,16,16h25V0L42,0z"/>
<path class="st1" d="M66,2c7.7,0,14,6.3,14,14.1C80,23.8,73.8,30,66.1,30H42V2H66 M66,0H40v32h26.1C74.9,32,82,24.9,82,16.1
	S74.8,0,66,0L66,0z"/>
<path class="st1" d="M66,17h-5v5h-2v-5h-5v-2h5v-5h2v5h5V17z"/>
<path class="st1" d="M29,17h-5l0,0h-2l0,0h-5v-2h5l0,0h2l0,0h5V17z"/>
</svg>
