<?xml version="1.0" encoding="utf-8"?>
<!-- Generator: Adobe Illustrator 21.0.0, SVG Export Plug-In . SVG Version: 6.00 Build 0)  -->
<svg version="1.1" id="objects" xmlns="http://www.w3.org/2000/svg" xmlns:xlink="http://www.w3.org/1999/xlink" x="0px" y="0px"
	 viewBox="0 0 290 450" style="enable-background:new 0 0 290 450;" xml:space="preserve">
<style type="text/css">
	.st0{opacity:0.7;fill:#F0F4F6;enable-background:new    ;}
	.st1{fill:#00AAB7;}
	.st2{fill:#7CBC73;}
	.st3{fill:#D8C8D3;}
	.st4{fill:#AEC93D;}
	.st5{fill:none;stroke:#FFFFFF;stroke-width:8;stroke-linecap:round;stroke-linejoin:round;stroke-miterlimit:10;}
	.st6{fill:#DF1B75;}
	.st7{fill:#DF205A;}
	.st8{fill:#D9E7E8;}
	.st9{fill:#FFFFFF;}
	.st10{fill:#715768;}
	.st11{fill:none;stroke:#ADADAD;stroke-width:2;stroke-miterlimit:10;stroke-dasharray:6,8;}
	.st12{display:none;opacity:0.18;enable-background:new    ;}
	.st13{fill:#008899;}
	.st14{fill:#F0F4F6;}
	.st15{fill:#B4C7D4;}
</style>
<rect x="-79.9" y="0.3" class="st0" width="449.7" height="449.7"/>
<path class="st1" d="M270.7,282.1L277,356l92.7-5.6v-57.7c0,0-12.9-2.2-37.1-1.5C310.6,292,270.7,282.1,270.7,282.1z"/>
<g>
	<g>
		<polygon class="st2" points="201.6,6 236.4,2.7 241.8,22.4 212.9,35.9 		"/>
	</g>
	<g>
		<polygon class="st2" points="75.5,165.5 96.9,211 130.4,211 120.8,176.2 104.4,147 		"/>
	</g>
	<g>
		<polyline class="st3" points="261.4,70.9 273.9,116.2 358.8,99.4 350.5,60.5 339.1,35.2 257.2,71 		"/>
	</g>
	<g>
		<polyline class="st4" points="-0.5,153 12,198.3 72.7,169.3 61.7,149.5 43.4,124.8 -18.1,136.2 		"/>
	</g>
	<g>
		<path class="st5" d="M356.4,103.4"/>
	</g>
	<g id="Calles_anchas">
		<g>
			<g>
				<g>
					<path class="st6" d="M14.7,31.4h-1.3c0-0.4,0-0.8,0-1.3h1.3C14.7,30.5,14.7,30.9,14.7,31.4z"/>
				</g>
			</g>
			<g>
				<g>
					<path class="st6" d="M14.7,27.4h-1.3c0-0.3,0-0.6,0-0.8c0-0.6,0-1.3,0.1-1.9h1.3c0,0.7,0,1.4-0.1,1.9
						C14.7,26.8,14.7,27.1,14.7,27.4z M15,22h-1.3c0-0.8,0.1-1.8,0.1-2.6h1.3C15,20.2,15,21.1,15,22z M15.2,16.6h-1.3l0.1-2.8h1.3
						L15.2,16.6z"/>
				</g>
			</g>
			<g>
				<g>
					
						<rect x="14.1" y="9.9" transform="matrix(3.154915e-02 -0.9995 0.9995 3.154915e-02 3.7923 24.9233)" class="st6" width="1.3" height="1.3"/>
				</g>
			</g>
		</g>
		<g>
			<g>
				<g>
					<path class="st6" d="M42.3,119.1c-0.3-0.4-0.4-0.8-0.6-1.1l1.1-0.7c0.1,0.4,0.4,0.7,0.6,1.1L42.3,119.1z"/>
				</g>
			</g>
			<g>
				<g>
					<path class="st6" d="M40.4,115.9c-0.4-0.7-0.8-1.4-1.1-1.9l-0.1-0.1l1.1-0.7l0.1,0.1c0.4,0.6,0.7,1.3,1.1,1.9L40.4,115.9z
						 M37.9,111.7c-0.4-0.8-0.8-1.5-1.1-2.2l1.1-0.6c0.3,0.7,0.7,1.4,1.1,2.1L37.9,111.7z M35.7,107.3c-0.3-0.7-0.6-1.5-0.8-2.4
						l1.3-0.4c0.3,0.8,0.6,1.5,0.8,2.2L35.7,107.3z M34.1,102.6c-0.3-0.7-0.4-1.5-0.7-2.4l1.3-0.4c0.3,0.8,0.4,1.7,0.7,2.4
						L34.1,102.6z M32.8,97.9c-0.1-0.7-0.4-1.5-0.7-2.4l1.3-0.3c0.3,0.8,0.4,1.7,0.7,2.4L32.8,97.9z M31.3,93.3
						c-0.3-0.7-0.6-1.5-1-2.2l1.3-0.6c0.3,0.8,0.7,1.5,1,2.2L31.3,93.3z M29.5,88.8l-1-2.2l1.3-0.6l1,2.2L29.5,88.8z M27.5,84.2
						c-0.3-0.7-0.6-1.5-1-2.2l1.3-0.4c0.3,0.8,0.6,1.5,1,2.2L27.5,84.2z"/>
				</g>
			</g>
			<g>
				<g>
					<polygon class="st6" points="25.7,79.6 25.2,78.5 26.4,78 27,79.2 					"/>
				</g>
			</g>
		</g>
		<g>
			<g>
				<g>
					<path class="st6" d="M68.9,169.1l-1.3,0.1c0,0,0-0.4-0.3-1.3l1.3-0.3C68.9,168.7,68.9,169.1,68.9,169.1z"/>
				</g>
			</g>
			<g>
				<g>
					<path class="st6" d="M67,165.9c-0.1-0.6-0.4-1.4-0.6-2.1l1.3-0.4c0.3,0.8,0.4,1.5,0.6,2.1L67,165.9z"/>
				</g>
			</g>
			<g>
				<g>
					<path class="st6" d="M65.7,161.8c-0.1-0.4-0.3-0.8-0.4-1.3l1.3-0.4c0.1,0.4,0.3,0.8,0.4,1.3L65.7,161.8z"/>
				</g>
			</g>
		</g>
	</g>
	<g>
		<polygon class="st7" points="315.7,77.8 311.1,78 311.1,73.4 304.2,73.5 304.3,78.1 299.7,78.3 300,85.1 304.5,85.1 304.6,89.5 
			311.4,89.4 311.4,84.8 316,84.8 		"/>
	</g>
	<g>
		<g>
			<path class="st8" d="M369.8,20.9c-9.4,3.3-19.3,6.9-29.2,10.6L325.2,0.3h-15.6c-4,1.9-9,4.3-15.1,7.2c-9.6,4.6-19.2,9.4-24.2,12
				c-0.3,0-0.4,0-0.7,0.1l-16.7,5.3l-8.5,1.5c-1-3.2-1.8-6-2.2-8.2c-0.6-2.8-1.3-5.4-1.8-8.1c-1-4-1.7-7.2-1.9-9.9h-5.1
				c0,0.1,0,0.3,0,0.4l-11.1,1.5V0.3h-4.6v2.5l-10.3,1.4c-0.4-1.3-0.8-2.6-1.3-4h-10.7c0.8,2.6,1.5,5.3,2.4,7.8
				c-0.4-0.3-0.8-0.4-1.4-0.4l-36.8,0.1c-0.7,0-1.3,0.3-1.7,0.8c-0.4,0.6-0.6,1.1-0.6,1.8l3.1,17.5c-3.6,0-7.6,0-11.8,0.1l-0.1-4.7
				l7.6-0.4c1.3-0.1,2.2-1.1,2.1-2.4c-0.1-1.3-1.1-2.2-2.4-2.1l-13.6,0.8c-1.3,0.1-2.1,1.1-2.1,2.2c0,1.3,1,2.2,2.2,2.2h1.8l0.1,4.4
				c-17.2,0.6-29.2,2.1-35.4,4.4c-0.1,0-0.1,0-0.3,0.1l-17.1-8.3l8.1-16.1c4.3,0.7,8.6,1.3,12.8,1.5c28.6,1.4,34.7,1,36.4-1.9
				c0.7-1.1,1.5-4.2,1.8-7.6h-4.6c-0.3,2.1-0.7,4.2-1,5c-2.2,1-11.8,0.8-21,0.4l0.4-5.6h-5.1l-0.4,5.3c-2.4-0.1-4.4-0.1-6.4-0.3
				c-3.8-0.1-7.6-0.7-11.5-1.3c0.1-1.1,0.4-2.4,0.6-3.8h-4.6c-0.1,1-0.3,1.9-0.4,2.9C92.1,2.1,88,1.1,83.9,0H68.2
				c6.7,2.2,16.4,5.1,26.4,7.2l-7.5,15l-24-11.7l0.3-10.4h-3.2L59.9,10c-5.1,0-22.1,0-40.2-0.1C19.9,6.8,19.9,3.5,20,0H9.7
				C9.6,3.5,9.6,6.7,9.5,9.8c-7.9,0-15.7,0-22.4-0.1l1.7-9.7h-4.6l-1.7,9.7c-7.2,0-12.4-0.1-13.9-0.1c-3.9-0.1-7.8,1.3-10.7,2.8
				C-43.6,8.5-45.8,4.6-49,0h-12.8c5.3,7.1,8.3,12,10.1,16.3c2.9,6.9,2.2,12.9,0.7,25c-0.1,1.5-0.4,3.3-0.6,5
				c-2.2,18.9-0.1,32.7,1.9,40.9l-30.3,2.4v4.6l27-2.1c0,0.1,0,0.3,0.1,0.6l3.9,13.5l-7.2,1.4c0,0,0,0-0.1,0l-12.2,2.4L-77,95.9
				c-0.6-1-1.8-1.5-2.9-1.4v7.8l7.5,12.2c0.7,1,1.8,1.5,3.1,1.4l11.8-2.2l4.7,12.4l-10.4,5.1c-1.4,0.7-1.9,2.5-1.3,3.9
				c0.7,1.4,2.5,1.9,3.9,1.3l12.6-6.7c1.3-0.7,1.9-2.2,1.4-3.6l-5.3-13.8l4.4-0.8l7.5,26l-3.3,1c-0.8,0.3-1.5,0.8-1.8,1.7
				c-0.3,0.8-0.3,1.8,0.1,2.5l37.2,66c-0.7,0.4-1.4,0.8-2.1,1.4c-2.2,1.4-4.4,2.9-6.8,4.4l-33.9-47.7c-0.8-1.1-2.2-1.5-3.5-1
				l-20.1,8.5c-1.8-1.9-3.8-4-5.8-6.4v8.8c0.4,0.4,0.8,0.8,1.1,1.3l-1.1,1.4v8.9l5.1-6c6.3,6.4,11,10.7,14.6,13.9
				c5.4,4.9,7.2,6.5,7.2,8.8v2.9c-6.3,1.7-17,7.2-27.1,13.3v12.2c11.3-7.1,24.6-14.6,30.3-15.7c2.5,2.2,7.1,6.1,11.5,11.1
				c-14.5,9.3-30.2,18.6-41.8,22.9v26.7c5.7,15.3,14.5,44.9,17.9,63.6l0,0l-7.2,0.7l-10.6-56v31.1l4.9,25.3l-4.9,0.4v5.8l5.8-0.6
				l6.5,34.6c0.3,1.3,1.3,2.2,2.6,2.4l4.2,0.4c1,6,2.6,11.5,5.7,14.7c0.8,1,1.7,1.8,2.5,2.5c-8.8,1.7-18.1,5.3-27.2,8.9
				c0,0-0.1,0-0.1,0.1v11.1c1.3-0.6,2.6-1,3.9-1.5c18.6-7.2,36.3-14,44.2-4.4c2.2,2.6,4.4,5.3,6.7,7.6c-4.6,11.7-4.4,20.6-3.9,24.7
				h10.4l0,0c-0.1-0.3-1.3-5.6,0.8-14c0.7,0.7,1.5,1,2.5,0.8c0.1,0,0.3-0.1,0.6-0.1h0.1c5.1,5.3,10,9.9,13.9,13.5H15
				c-2.1-1.8-9.6-8.2-18.9-17.4l7.5-2.8c1.5-0.6,2.2-2.2,1.7-3.8c-0.6-1.5-2.2-2.2-3.8-1.7l-10,3.6c-1.5-1.5-3.1-3.1-4.4-4.7
				c1-1.8,2.1-3.8,3.3-5.8c1.3-1.9,2.8-4,4.3-6c2.4-3.2,4.6-6.1,6.1-9c0.1-0.4,0.4-0.7,0.6-1.1c7.5-0.7,16.8-2.1,25.8-4.2L41.1,450
				h6l-14.3-54.2c1.8-0.6,3.6-1.1,5.4-1.7L54.9,450H61l-17.2-57.8c2.9-1.3,5.7-2.5,8.1-4c7.5-4.6,16.8-7.5,28.6-10l6.1,19.9l0,0
				l12.9,41.7c-1.4,0.6-2.2,1-2.2,1c-0.1,0-0.3,0.1-0.4,0.1c-6.5,3.5-12.8,6.5-18.6,8.9h23.9c2.6-1.1,11.8-5.1,20.3-9
				c1.5,4.6,2.5,7.6,2.6,8.2c0.1,0.3,0.1,0.6,0.3,0.8l0,0h12.5c-1.3-1.4-2.2-2.8-3.1-4.4c-0.4-1.1-1.4-4.3-2.9-8.9
				c1.1-0.6,2.1-1,2.9-1.4c10.7-5.1,22.7-7.8,36.3-7.9l1,22.7h43.1c9.9-1.7,18.2-3.3,20-3.9c6.9-2.2,93.1-15.1,99.8-14.3
				c0.4,0.1,1,0.1,1.4,0.1c0.8-0.1,1.7-0.7,2.1-1.5c0.7-1.4,0.1-3.2-1.4-3.9c-1.3-0.6-3.5-1.7-51.7,5.4c-22.2,3.3-48.5,7.5-52,8.6
				c-6.1,1.9-45.4,8.3-55.6,7.6l-0.8-20.8c1.4,0,2.9,0.1,4.4,0.1c4.3,0.3,9,0.4,14,0.4l0.4,14.6c0,1.7,1.4,2.9,3.1,2.8
				c0.1,0,0.3,0,0.4,0c1.4-0.3,2.5-1.5,2.4-2.9l-0.4-14.5c20.6-0.3,42.4-2.1,45-2.4c9.6,0,28.5-1.9,46.8-4.7c0,0,0,0,0.1,0l0,0
				c11.4-1.8,22.7-4,31.1-6.4c9.6-2.6,25.8-6.4,45.4-7.2v-10.3c-16.3,0.7-32.8,3.2-48.2,7.6c-6.9,1.9-16,3.8-25.4,5.4
				c-2.4-8.6-7.5-28.6-12.2-50.4c11.7-0.3,24.9-1.4,41.4-3.2c12.1-1.4,28.2-1.9,44.6-1.9v-10.3c-16.7,0.1-33.2,0.7-45.9,2.1
				c-17.1,1.9-30.6,2.9-42.4,3.2c-1.9-9.3-3.8-18.8-5-27.5c-1.5-10.3-3.3-22.4-5.1-35c3.8-0.4,11.8-0.7,20.8,1.4
				c7.1,1.7,23.6,3.8,39.2,4.9c10.1,0.7,27.4,1.5,38.4,0v-4.6c-18.5,2.9-63.5-1.7-76.6-4.7c-9.7-2.4-18.5-1.9-22.5-1.5
				c-0.8-6.3-1.8-12.6-2.6-18.9l5.3-0.1c0.1,0,0.3,0,0.4,0c1.3-0.1,2.1-1.3,2.1-2.5l0.3-14.6c1.5,0.4,3.3,0.4,4.9-0.4
				c2.4-1.3,3.3-4,3.2-8.1c-0.3-5.7-0.3-9-0.3-10.8l7.9-1.4c0.7-0.1,1.3-0.6,1.7-1.1c0.4-0.6,0.6-1.3,0.4-1.9c0,0-0.1-0.8-0.4-2.5
				c3.3,0.1,6.7,0.3,10.1,0.4l-0.8,4.2c-0.1,0.8,0.4,1.7,1.3,1.9c0.8,0.1,1.7-0.4,1.9-1.3l1-4.6c2.9,0.1,5.8,0.3,8.8,0.4l0.1,9
				c0,0.8,0.7,1.7,1.7,1.5c0.1,0,0.1,0,0.3,0c0.8-0.1,1.4-0.8,1.4-1.7l-0.1-8.8c2.4,0.1,4.9,0.3,7.2,0.4l0.1,8.3
				c0,1.3,1.1,2.2,2.4,2.2c0.1,0,0.3,0,0.3,0c1.1-0.1,1.9-1.1,1.9-2.2l-0.1-7.9c1.5,0.1,2.9,0.3,4.4,0.4l-0.4,7.1
				c0,1.3,0.8,2.4,2.1,2.4c1.3,0,2.4-0.8,2.4-2.1l0.4-6.9c2.2,0.3,4.3,0.4,6.4,0.7l-1.4,5.8c-0.1,0.7,0,1.4,0.4,1.9
				c0.4,0.6,1.1,0.8,1.8,0.8l6.1-0.1l-2.6,41c-0.1,1.3,0.8,2.4,2.1,2.4c0.1,0,0.4,0,0.6,0c1-0.1,1.8-1,1.8-2.1l2.9-43.5
				c0-0.7-0.1-1.3-0.6-1.7c-0.4-0.4-1.1-0.7-1.7-0.7l-5.7,0.1l0.8-3.5c5.7,0.7,11,1.5,15.6,2.6c1.3,0.3,2.5,0.6,3.8,0.8v-6.5
				c-0.6-0.1-1-0.1-1.5-0.3c0.4-2.1,0.8-5,1.1-9.3c0.1-2.9,0.3-6,0.3-9.3c0,0,0,0,0.1,0v-4.6h-0.1c-0.1-9.6-1-20.8-2.5-33.6
				c0-0.1,0-0.4-0.1-0.6c0-0.1,0-0.4,0-0.6l-0.3-9.4l3.1,0.1v-5.8l-3.8-0.1c-0.3-3.8-0.7-7.4-1-11c1.3,0,2.9,0.1,4.9,0.1v-5.8
				c-2.4,0-4.2,0-5.4-0.1c-0.4-3.5-0.7-6.8-1.1-10l6.5,0.1v-5.1l-7.2-0.1c-0.6-4.6-1.3-8.9-1.8-13.2c1.7-0.1,4.9-0.1,9-0.3v-5.1
				c-4.9,0.1-8.5,0.3-9.9,0.4c-2.4-14.9-4.9-27.1-6.9-36.5l16.8-7.2v-4.9L352,55.6c-1.9-8.1-3.5-13.5-4.2-16
				c7.4-2.6,14.7-5.3,22-7.9V20.9z M-76.6,157.5c0.7,0.3,1.5,0.3,2.2-0.1l27-12.9c1.4-0.7,2.1-2.4,1.4-3.9c-0.7-1.4-2.4-2.1-3.9-1.4
				l-24.3,11.7c-1-2.1-2.4-5.1-3.9-8.5l9.9-4.6c0.7-0.3,1.3-1,1.5-1.7c0.3-0.7,0.1-1.5-0.1-2.2l-13.1-24.6v12.4l6.5,12.2l-6.5,2.9
				v15.4c0.6,1.3,1.1,2.5,1.7,3.6C-77.9,156.8-77.4,157.3-76.6,157.5z M272.1,23.5c5-2.5,14.7-7.4,24.5-12.1
				c9.9-4.7,17.1-8.2,21.5-10.1c0.3-0.1,0.6-0.4,0.8-0.7L335,33.2c-8.3,2.9-16.5,6-24.3,8.8l-17.4-13.9l-9-5.3
				c-0.7-0.6-1.7-0.6-2.4-0.1c-4.4,2.4-9.2,3.6-10,2.9C272,25.7,271.7,25.2,272.1,23.5z M267.4,25.7c0.1,1.4,0.7,2.5,1.7,3.3
				c1.9,1.7,5.1,1.7,9.6,0c1.7-0.6,3.2-1.3,4.2-1.8l22.8,16.5c-20.8,7.5-38.8,13.9-47.9,17.2c-2.9-6.9-5.8-14.2-8.3-20.8
				c4.7-3.5,8.8-6.9,12-9.6C263.5,28.7,266.1,26.6,267.4,25.7z M217.6,270.3L217.6,270.3l-10.8,0.3l-0.3-13.3c0,0,0,0,0-0.1
				l-0.4-15.7l26.3,4.3c0.8,0.1,1.8-0.1,2.4-0.7c0.7-0.6,1-1.4,1-2.4l-1.3-23.8h0.1h0.1h1.7c1.5,0,3.2,0,5,0l-4,51
				c-0.4,0-0.8,0-1.1-0.1c-0.1,0-0.1,0-0.3,0L217.6,270.3z M219.8,347.8c-3.5,0.4-7.2,0.8-11.3,1.4l-1.7-72.8l8.1-0.1L219.8,347.8z
				 M32.8,351.7l1.3,4.6c-0.6,0.1-1,0.4-1.5,0.6c-12.6,5.1-19.5,4.3-22.8,2.6c-2.8-1.3-3.6-3.3-3.9-4c0.6-0.8,3.3-3.9,15-6.7
				c18.5-4.4,50.7-16.3,62.3-20.4c2.1,3.8,4,7.2,5.6,10.3c-9.7,2.6-29.5,8.1-49.1,15.6l-1.1-3.9c-0.4-1.5-1.9-2.5-3.6-2.1
				C33.4,348.7,32.4,350.2,32.8,351.7z M197.7,102c-1,0.4-1.5,1.4-1.4,2.5c0.1,0.7,0.6,1.3,1.1,1.7c0.4,0.3,1,0.3,1.5,0.3
				c0.1,0,0.3,0,0.4-0.1c1.3-0.4,11.8-4.3,17.2-7.5c1.1-0.7,1.4-2.1,0.7-3.1c-0.7-1.1-2.1-1.4-3.1-0.7c-1.1,0.7-2.5,1.4-3.9,2.1
				l-3.1-6.4c6.4-2.6,12.6-5,18.5-7.2c2.4,8.2,5,20.1,7.6,33.4l-3.9,0.6c-1.8,0.1-19.6,1.3-32.2,7.6c-7.4,3.6-17.1,4.6-25.8,4.4
				c-0.6-0.3-1.1-0.4-1.7-0.3c-0.3,0-0.7,0.1-1,0.3c-4.6-0.1-8.6-0.4-11.8-0.7c-1.8-0.1-3.3-0.3-4.6-0.3c-5-0.3-8.5,1.1-10.7,2.6
				c-1-3.1-1.9-5.6-2.9-7.4c18.2-11.4,42.4-22.4,64.3-31.3l2.9,6.3L197.7,102L197.7,102z M215.4,210.4l-3.9-38.9l8.8-1.4l7.9,40.4
				l0.1,1.8l-13.2-0.4C215.4,211.4,215.4,211,215.4,210.4z M211.1,166.2l-3.9-39.7c1.4-0.4,2.9-0.8,4.3-1.3l7.8,39.7L211.1,166.2z
				 M226.1,169.3l7.9-1.3l0,0c0.7-0.1,1.3-0.6,1.7-1.1c0.4-0.6,0.6-1.4,0.4-2.1l-7.5-39.2c-0.3-1.4-1.7-2.4-3.1-2.1
				c-1.4,0.3-2.4,1.7-2.1,3.1l6.9,36.7l-5.4,0.8l-7.8-40c7.1-1.4,12.8-1.7,12.8-1.7c0.1,0,0.1,0,0.3,0l4.2-0.7
				c3.2,16.7,6.4,34.9,9.2,50.4c1.1,6.5,2.2,12.5,3.2,17.9c1,5.7,2.2,13.6,3.6,22.5c-5.7,0-10.4,0-14.2,0h-1.5h-0.6l-0.1-2.5
				c0-0.1,0-0.1,0-0.3l0,0l0,0c0-0.1,0-0.1,0-0.3L226.1,169.3z M123.4,269.6c1.3,1.1,3.1,1,4.2-0.1l5.4-6l2.4,1.1
				c-0.1,0.4-0.4,0.8-0.6,1.3c-0.6,1.3-1.1,2.5-1.5,3.8c-3.8,9.7-0.6,28.6-0.1,30.3l0.3,1.8l-9.9,3.1l-8.3-90l27.1,1
				c1.7,21.5-1.4,34.5-4.6,43.4l-4.2-1.8c-1.1-0.6-2.5-0.3-3.3,0.7l-6.8,7.5C122.2,266.7,122.3,268.5,123.4,269.6z M107.8,191.9
				c-0.7-1.4-2.5-1.9-3.9-1.3l-10.3,5.4l-13.3-27.7c7.1-5.1,14.9-11.1,23.6-17.9l13.1,21.1l6.5,22c0,0,0,0,0,0.1l4.4,15.1l-28.6-1
				l-3.1-6.4l10.4-5.4C108,195.1,108.5,193.5,107.8,191.9z M86,194l6.5,13.6l-23.6-0.8L86,194z M61.6,205l-8.5-17.9
				c6.5-4.2,13.9-9,22.2-15l8.1,16.7L61.6,205z M148,216l19.6,0.7l3.1,40.9l-27.4,2.6C146.6,250.8,149.5,237.5,148,216z M134.1,209
				l-4-13.6l13.6-1.5l3.1,15.7h-1.5c-0.1,0-0.1,0-0.3,0L134.1,209z M152.6,209.7l-3.2-16.5l9.9-1.1c0,0,0,0,0.1,0l14.3-1.7l2.1,19.9
				c0,0.1,0,0.1,0,0.3L152.6,209.7z M160.6,186.1c-3.3-8.1-15.8-37.9-17.1-46.7c-0.1-1-0.3-1.9-0.4-2.8c0.8-1,3.6-3.3,9-3.1
				c1.3,0,2.6,0.1,4.4,0.3c3.1,0.3,6.7,0.6,10.8,0.7l5.3,50.3L160.6,186.1z M143.8,159.4c3.9,10.4,8.5,21.7,10.8,27.4l-26.4,2.9
				l-6-20.1c0-0.1-0.1-0.3-0.1-0.3L143.8,159.4z M119.1,164.3l-10.7-17.4c4.9-3.9,10-8.1,15.6-12.6c3.1-2.5,6.5-5,10.3-7.5
				c1.4,2.8,3.1,7.1,3.9,13.3c0.4,3.1,1.9,8.1,3.9,13.8L119.1,164.3z M138.7,271.7c0.4-1.1,1-2.4,1.5-3.6c0.3-0.6,0.6-1.3,0.8-1.9
				l30.7-2.9l1.9,17.2l-36.4,3.8C137.2,279.5,137.4,274.7,138.7,271.7z M173.4,216.8l11.7,0.4l2.6,38.6l-11,1.1
				c0-0.1-0.1-0.4-0.3-0.6L173.4,216.8z M181.3,210.7c0.1-0.3,0.1-0.7,0.1-1l-7.9-75.2c5,0,10.3-0.4,15.4-1.5l10.7,78.2L181.3,210.7
				z M199.7,217.8l0.4,20.3v0.1l0.4,16.4l-7.1,0.7l-2.5-37.8L199.7,217.8z M199.4,168l-5-36.5c1.8-0.6,3.6-1.3,5.3-2.1
				c0.6-0.3,1.3-0.6,1.8-0.8l3.8,38.5L199.4,168z M138.4,111.7l-11.5-19.6c8.1-5.4,18.9-12.8,29.9-20.7l15,23.2
				C160.1,99.9,148.7,105.8,138.4,111.7z M133.5,114.8c-6.1,3.8-11.5,7.6-16.3,11.5c-18.1,14.9-32.9,26.4-45.4,35.4
				c-1.9-6.5-6.4-17.5-15.7-31.3c-1.4-1.9-2.6-3.9-3.8-5.7l62.4-25.3c0,0,0.1,0,0.1-0.1c1.7-0.8,4.2-2.2,7.1-4.2L133.5,114.8z
				 M112.4,94.1l-3.5,1.4l-6.7-26.5l10.8-3.9l6.9,24.6C116.7,91.7,114.1,93.3,112.4,94.1z M104.5,97.3l-55.2,22.5
				c-2.4-4.2-4.4-8.2-6-11.5l31.8-10.6l26.7-9.2L104.5,97.3z M87.6,88.5c-0.6-1-1.4-2.9-1.9-6.1c-0.4-2.2-0.8-4.6-1.4-6.9l10.8-3.8
				l2.9-1.1l3.3,13.3L87.6,88.5z M93.5,67.4L83.4,71c-0.8-4.4-1.8-9-2.8-13.3l8.6-3.3l7.2,12.1L93.5,67.4z M81.2,83.3
				c0.6,3.1,1.4,5.3,2.1,6.8l-9.6,3.3l-32.2,10.7c-2.8-6.5-3.9-10.7-3.9-10.7c0-0.3-0.1-0.4-0.3-0.7c-0.1-0.3-0.1-0.6-0.3-0.7
				l42.9-15C80.3,79.1,80.7,81.3,81.2,83.3z M35.3,87.8c-0.1-0.1-0.1-0.4-0.3-0.6c-2.1-5-4.4-10.7-6.7-16.8l47.9-11.5
				c1,4.4,1.8,9,2.8,13.5L35.3,87.8z M26.8,66.2c-3.8-10.6-6.8-22-7.5-32.7H71c0.7,3.5,2.4,11.5,4.3,21.1L26.8,66.2z M25.6,91.2
				c0.7,1.8,1.5,3.5,2.1,5.1c0.6,2.1,3.6,12.1,11,25.7l-19,3.5h-0.1l-33.5,6.1C-26.5,109.9-35.8,93.8-37.4,91
				c-0.1-0.4-0.6-1.4-1.1-3.2l59.8-7.5C22.7,84.2,24.2,87.8,25.6,91.2z M18.3,131.5l17.9,36.1c0.6,1.1,1.8,1.8,3.1,1.5
				c0.3,0,0.6-0.1,0.8-0.3c1.4-0.7,2.1-2.5,1.3-3.9l-17.1-34.5l17.4-3.2c1.8,2.9,3.8,6,5.8,9.2c10.8,15.8,14.3,27.5,15.3,31.7
				c-18.2,12.6-31,19.7-41.7,25.2C10.2,174-1.2,154-11.1,136.9L18.3,131.5z M47.5,190.4l9.7,20.6c0.6,1.1,1.5,1.8,2.8,1.8l11.1,0.4
				c-0.3,0.1-0.4,0.1-0.7,0.3l-28.3,17.4c-4.9-8.9-10.3-18.6-16-28.6C32.4,199.2,39.3,195.4,47.5,190.4z M56.7,228.9l2.2,3.2
				c0.8,1.4,2.6,1.7,4,0.8c1.4-0.8,1.7-2.6,0.8-4l-2.1-3.1l12.1-7.4c1.4-0.8,1.8-2.6,1-4c-0.4-0.6-0.8-1-1.5-1.3l20.1,0.7
				l-41.5,34.2c-2.1-3.8-4.3-7.8-6.7-12.1L56.7,228.9z M45.9,259.2c3.3,6.4,6,11.5,7.6,14.9c6.7,14.2,15.7,30,23.6,44.1
				c0.3,0.4,0.4,0.8,0.7,1.3c-6.3,2.4-17.1,6.3-28.5,10.1l-1.7-6.3l16.8-5.3c0.8-0.3,1.5-0.8,1.8-1.7c0.3-0.8,0.3-1.7-0.1-2.5
				l-22.4-44.6c-0.3-0.7-1-1.3-1.7-1.4c-0.7-0.3-1.5-0.1-2.2,0.1c-0.3,0.1-3.2,1.7-7.2,3.9l-2.5-4.9
				C36.4,263.8,42.4,260.9,45.9,259.2z M42.1,324.9l1.7,6.4c-9.3,3.1-18.5,5.8-25.4,7.5c-1.9,0.4-3.8,1-5.4,1.5l-0.8-6.1L42.1,324.9
				z M11.3,328.4l-1.1-7.6l28.6-8.5l1.8,6.9L11.3,328.4z M42.8,305L35.3,277c1.8-1,3.5-1.9,4.7-2.5l13.8,27.4L42.8,305z M56.4,307.1
				l3.1,6.3l-13.3,4.2l-1.8-6.8L56.4,307.1z M37.2,306.7l-27.9,8.2l-3.2-21.8c3.1-1,8.5-3.2,14.7-7.4c2.9-1.9,6.1-4,9.3-5.8
				L37.2,306.7z M87.7,315.9c-0.6-1-1.1-1.9-1.7-2.9c-7.9-13.8-16.8-29.3-23.2-43.2c-1.7-3.8-4.6-9.3-8.3-16.3l46-37.9
				c0.4-0.3,0.7-0.7,0.8-1.3l7.8,0.3l6,64.3l-20.8,6.7c-1.5,0.6-2.4,2.1-1.9,3.6c0.6,1.5,2.1,2.4,3.6,1.9l19.6-6.3l2.1,21.7
				L87.7,315.9z M134.5,312.1l2.4,19.3l2.4,26.7c-4.2,0.6-8.2,1.3-12,1.8c-4.9,0.8-9.6,1.5-14,2.2c-1.7,0.3-3.3,0.6-5,0.7
				c-2.6-8.2-4.4-14.5-5.1-16.8c-0.4-1.7-1.3-3.6-2.4-6.1c0-0.1-0.1-0.1-0.1-0.3c-1.8-4-4.6-9-7.8-14.7L134.5,312.1z M139,300.3
				l-0.1-1.3v-0.1c-0.3-1.9-0.8-5.1-1.1-8.9l39.6-4.2c0.8-0.1,1.5-0.4,1.9-1.1c0.4-0.6,0.7-1.4,0.6-2.1l-2.4-20l23.2-2.2l0.3,13.2
				l0,0l0,0l0.4,15.3c-0.6,0-1.1,0-1.5,0L139,300.3z M149.4,308.8l0.4,27.7c0,1.7,1.4,2.9,2.9,2.9c0.1,0,0.3,0,0.4,0
				c1.4-0.3,2.5-1.4,2.4-2.9l-0.4-28.6l13.1-2.5l0.7,15.3c0.1,1.7,1.4,2.8,3.1,2.8c0.1,0,0.3,0,0.3,0c1.4-0.3,2.5-1.5,2.4-3.1
				l-0.8-16l15.1-2.8l3.5,35c0.1,1.5,1.5,2.8,3.2,2.6h0.1c1.5-0.3,2.5-1.7,2.4-3.2l-3.5-35.6l6.7-1.3l1.3,50.9
				c-17.6,2.1-39.3,4.9-57.8,7.4l-2.4-26.4c0,0,0,0,0-0.1l-2.4-20.3L149.4,308.8z M200.1,173.2l5.7-0.8l3.8,38.6
				c0,0.3,0.1,0.6,0.1,0.7l-4.4-0.1c0-0.1,0-0.1,0-0.3L200.1,173.2z M213.7,218.3l0.1,6.1c0,1.3,1.1,2.2,2.4,2.2s2.2-1.1,2.2-2.4
				l-0.1-6l10.4,0.4l1.1,20.7l-23.8-3.9l-0.4-17.5L213.7,218.3z M237.5,275.9c5.3,0.3,16,1,22.2,1.3c1,7.4,2.1,14.7,3.1,21.7
				l-29,2.1l-0.6-24.2L237.5,275.9z M241.8,270.3l4-51.3c1.7,0,3.6,0,5.6,0c1.3,8.3,2.5,17.2,3.8,25.7c1,6.5,1.8,13.1,2.8,19.7
				c0.3,2.2,0.7,4.4,1,6.7C254,271,247.1,270.6,241.8,270.3z M258.2,195c-0.4-2.5-0.8-4.7-1.1-6.8c0-0.4-0.1-0.8-0.3-1.1l25.4-4.9
				c0.4,2.9,0.8,5.8,1.3,8.3C274.6,192.1,264.2,194,258.2,195z M255.8,181.4c-0.6-3.5-1.3-7.1-1.9-11c-1-5.3-1.9-10.8-2.9-16.5
				l14-4.4c1.3-0.4,1.8-1.7,1.5-2.8c-0.4-1.3-1.7-1.8-2.8-1.5l-13.5,4.2c-0.6-3.3-1.3-6.5-1.8-9.9l27.1-4.9
				c1.4,8.5,2.8,18.2,4.4,29.9c0.6,4.2,1.1,8.2,1.7,12L255.8,181.4z M247.4,134.1c-0.8-4.7-1.8-9.4-2.6-13.9l27.2-4
				c0.8,4,1.7,8.5,2.5,13.3L247.4,134.1z M243.7,115.1c-1.3-6.1-2.5-12.1-3.6-17.5L263.2,87c3.2,7.6,5.7,15,7.8,23.9L243.7,115.1z
				 M239,93.1c-1.3-5-2.4-9.6-3.5-13.5c9.3-3.5,16.8-6,21.3-7.5c1.5,3.8,3.2,7.4,4.6,10.7L239,93.1z M253.9,29.2c0.1,0,0.1,0,0.3,0
				l3.1-1c-2.6,2.2-5.8,4.9-9.4,7.8c-0.7-1.8-1.3-3.5-1.8-5.3L253.9,29.2z M245,43.4c2.4,6.3,5,12.9,7.8,19.3
				c-4.4,1.5-11.7,4-20.6,7.2c-1.1-2.6-2.4-5.7-3.8-9.3c-0.8-2.1-1.8-4.4-2.8-6.8C232.9,51,239.4,47.1,245,43.4z M219.3,7.1
				c0.3,0.1,0.7,0.1,1,0.1L234,5.2c0.4,1.9,1,4,1.4,6.1c0.6,2.5,1.3,5.1,1.8,7.8c0.6,2.5,1.4,5.7,2.5,9.2l-13.9,9.6
				c-1,0.7-1.3,2.1-0.6,3.2c0.7,1,2.1,1.3,3.2,0.6l12.9-8.8c0.7,2.1,1.4,4.2,2.2,6.3c-5.7,3.9-12.2,7.8-19.6,10.7
				c-4.6-11.4-10-25.3-15-41.1L219.3,7.1z M206.9,34.9c4.3,11.7,8.5,21.7,11.8,29.7c1.4,3.5,2.6,6.4,3.6,8.9
				c-13.9,5.3-30.3,11.8-46.6,19.2l-15.6-23.9c2.4-1.7,4.6-3.3,6.9-5l10,14.7c0.4,0.6,1.1,1,1.8,1s1.4-0.3,1.8-0.8l14.9-19.2
				l8.6-5.3l1.5,2.4c0.7,1.1,2.1,1.4,3.1,0.7c1.1-0.7,1.4-2.1,0.7-3.1l-2.6-4.3c-0.1-0.1-0.3-0.4-0.4-0.6l-6.3-9.7
				C203,37.7,205.2,36.2,206.9,34.9z M171.1,61.2c9.6-6.9,18.8-13.6,25.8-18.9l5.1,8.1l-8.9,5.4c-0.3,0.1-0.4,0.3-0.6,0.6l-13.2,17
				L171.1,61.2z M145.5,32.7c0.3,0.1,0.6,0.1,1,0.1l31.4-0.1c1.3,0,2.2-1,2.2-2.2c0-1.3-1-2.2-2.2-2.4c-0.1,0-5.3-0.1-12.9-0.3
				l-2.6-15.7l32.4-0.1l2.2,11.7c0.3,1.3,1.4,2.1,2.6,1.8c1.3-0.3,2.1-1.4,1.8-2.6l-1.9-9.9c1.8,5.6,3.6,11,5.6,16.1
				c-11,8.1-56,41.3-79.8,57.1L119,63.9l16.4-0.4c1.3,0,2.2-1.1,2.2-2.4s-1.1-2.2-2.4-2.2l-17.6,0.4L111,36.3
				C117,34.5,128.8,33.1,145.5,32.7z M111.7,60.8l-11.1,4l-7.2-12.2l5.8-2.2c0.8-0.3,1.5-1.3,1.4-2.2l-0.1-6.7l5.1-2.5L111.7,60.8z
				 M88.1,29.2l13.5,6.7l-4.4,2.2c-0.8,0.4-1.3,1.3-1.3,2.1l0.1,6.5l-5,1.9l-2.6-4.4l-3.8-11L88.1,29.2z M78.1,24.3l5.7,2.8l-3.5,4
				c-0.6,0.6-0.7,1.4-0.4,2.2l4.3,12.4c0,0.1,0.1,0.3,0.1,0.4l2.4,4L79.5,53c-1.9-10.3-3.8-19-4.3-21.5L78.1,24.3z M19.3,26.8
				c0.1-2.9,0.3-6.7,0.4-11C38.9,15.9,57,16,60.9,16l13.2,6.4l-2.8,6.5H19.2C19.2,28.2,19.2,27.5,19.3,26.8z M-13.7,15.7
				c6.8,0,14.9,0,23.2,0.1c-0.1,4-0.3,7.6-0.4,10.6C8.9,28.2,8.9,30,9,32l-25.3-2.1L-13.7,15.7z M-41.4,47.5c0.3-1.8,0.4-3.5,0.6-5
				c1.4-10.7,2.1-17.6,0.6-24.5c2.4-1.3,5.6-2.6,8.8-2.6c1.5,0,6.3,0.1,13.1,0.1L-25,52.4c-0.3,1.3,0.6,2.4,1.8,2.6
				c1.3,0.3,2.4-0.6,2.6-1.7l4.3-18.9l25.4,1.9c1.3,13.5,5.6,27.4,10.1,39.5l-59.2,7.5C-41.7,76.2-43.3,64.1-41.4,47.5z M-38.1,143
				l2.6-0.8c1.5-0.4,2.4-2.1,1.9-3.6L-45,98.7c5.4,9.3,23.3,40.4,42.7,74.3l-14.5,7.8L-38.1,143z M-13.9,186l14.5-7.8
				c3.8,6.7,7.5,13.3,11.3,19.9c-5,2.5-9.7,4.9-14.6,7.6L-13.9,186z M-15,225.8c3.9-2.5,7.5-4.9,10.8-7.1
				c7.2-4.7,13.6-7.9,21.1-11.7c5.8,10.3,11.4,20.3,16.4,29.3l-18.8,11.5l-3.5-7.6c-0.7-1.4-2.4-2.1-3.9-1.4
				c-1.4,0.7-2.1,2.4-1.4,3.9l4.9,10.6c0.3,0.7,1,1.4,1.8,1.5c0.4,0.1,0.8,0.1,1.4,0.1c0.4,0,0.7-0.1,1-0.4l21.4-13.1
				c2.5,4.6,4.9,8.8,6.9,12.6c-6.4,3.1-20.3,9.9-29.6,15.6c-4.3,2.6-15.7,4.7-22.9,5.7c-2.2-12.5-4.4-23.5-6-28.9
				c-1.5-5.4-4.2-10.7-7.5-15.4C-20.3,229.3-17.6,227.6-15,225.8z M-11.8,342.4c-3.5,1.7-12.8,5.3-21.7,6.8
				c-1.4,0.3-2.6,0.4-3.8,0.4c-0.8,0-1.7,0-2.6,0.1c-2.5,0-3.9-0.4-4.4-0.7c-2.1-1-3.8-2.2-5-3.8l37.7-7.6
				C-11.5,339.9-11.7,341.4-11.8,342.4z M-61.6,186.9c-2.4-2.2-5.1-4.9-8.3-8.1l16-6.8l4.2,5.8L-61.6,186.9z M-43.2,209.3l-0.6-0.6
				c-0.8-0.8-1.9-1.3-3.2-1.5v-2.6c-0.1-4.9-3.3-7.8-9.2-12.9c-0.3-0.3-0.6-0.4-0.8-0.7l10.7-8.3l25,35.2c-2.5,1.7-5.1,3.3-7.8,5.1
				C-34.7,216.7-40.2,211.9-43.2,209.3z M-61.7,360.6c-0.1,2.9-0.6,11.1,0.3,19.6l-0.8-0.1l-6.1-32l8.1-0.7c1,2.1,2.4,3.9,4,5.7
				C-59.3,354.6-61.6,357-61.7,360.6z M-51.8,339.9c-0.7-3.8-1.5-8.1-2.6-12.6l32.7-5.8c1.5-0.3,2.6-1.8,2.4-3.3
				c-0.3-1.5-1.8-2.6-3.3-2.4l-32.9,5.8c-5.4-21.4-13.3-46.4-17.8-55.4c-1-1.9-2.1-3.6-3.2-5c12.4-4.3,27.7-13.3,45.3-24.6
				c2.8,3.9,5,8.2,6.1,12.5c0.8,3.2,2.1,8.9,3.6,16.4l-10.1,3.1l-1.5-7.5c-0.3-1.5-1.8-2.6-3.3-2.2c-1.5,0.3-2.6,1.8-2.4,3.3
				l2.1,10.7c0.1,0.8,0.7,1.5,1.4,1.9c0.6,0.4,1.3,0.6,1.9,0.4c0.1,0,0.3,0,0.4-0.1l12.5-3.9c1.5,8.3,3.2,18.1,4.7,28.1
				c2.4,15.1,3.5,25.7,4,32.7L-51.8,339.9C-51.8,340.1-51.8,339.9-51.8,339.9z M-13.7,405.4c-1.5,2.1-3.2,4.3-4.6,6.5
				c-0.7,1.1-1.4,2.2-2.1,3.3c-1.3-1.4-2.4-2.8-3.6-4.3s-2.6-2.8-4.2-3.9c6-2.8,12.4-5.1,15.8-5c0.3,0,0.6,0,0.8,0
				C-12.1,403.1-12.9,404.3-13.7,405.4z M-5.7,391.6c-2.5,0.1-4.4,0.1-5.8,0.1c-8.5-0.4-21.7,6.1-27.2,9.2c-1.9-1.1-5.1-3.2-8.8-7.1
				c-3.3-3.5-4.6-18.9-3.9-31.5c1.8-1,6.3-1.7,11.8-2.1c1,0,1.9,0,2.9-0.1c5-0.1,10.8,0.1,16.8,0.8c10.7,1.4,14.9,3.8,15.8,4.7
				C-3.2,372.4-1.9,381.5-5.7,391.6z M-3.6,351.2c-0.4,1-0.7,1.8-0.8,2.6c-1.4-0.6-2.9-1-4.4-1.4c4.7-2.1,5.3-3.1,5.8-3.8
				c1.4-2.2,4-6.1-2.4-49.1c-1-6.1-1.9-12.4-3.1-18.5c6.9-1,19.3-3.1,25-6.4c2.5-1.5,5.6-3.2,8.6-4.9l2.6,5
				c-3.3,1.9-6.9,4.2-10.1,6.4c-8.3,5.7-15.1,7.2-15.3,7.2c-1.5,0.3-2.5,1.8-2.2,3.2l7.5,50.7C1.8,344.8-1.8,347.7-3.6,351.2z
				 M46.4,379.4c-9.7,6-27.4,9.6-41,11.3c2.1-8.1,1.9-15.3,1.4-21.1c4.4,1.7,9.7,2.1,16,1.1c4.2-0.7,8.8-2.1,13.8-4
				c22.7-9.2,47-15.8,56.6-18.3c0,0.1,0.1,0.4,0.1,0.6c0.6,2.2,2.4,8.1,4.7,15.8C75.2,368.1,59.1,371.6,46.4,379.4z M104.9,437.5
				l-12.1-38.9l9.3-5.4c1.4-0.8,1.8-2.6,1.1-4c-0.8-1.4-2.6-1.8-4-1.1l-8.2,4.7l-4.9-15.8c4.6-0.8,9.6-1.7,15-2.5
				c5.7,17.8,13.1,40.9,18.2,56.6C114.4,433.3,109,435.7,104.9,437.5z M130.4,425.9c-0.6,0.3-1.1,0.6-1.7,0.8
				c-5-15.3-12-36.8-17.4-53.9c1.1-0.1,2.2-0.3,3.3-0.6c2.8-0.4,5.7-0.8,8.6-1.4l13.1,52.4C134.4,424.1,132.4,425,130.4,425.9z
				 M141.9,421.3l-12.8-51.3c7.8-1.3,17-2.5,26.7-3.9l3.2,8.2l-11,1.5c-1.5,0.3-2.6,1.7-2.5,3.3c0.3,1.5,1.7,2.6,3.3,2.5l14.6-2.1
				h0.1l8.8-1.3l4.2,21.8l-25.6,4.2l0,0c-1.5,0.3-2.6,1.8-2.4,3.3c0.3,1.5,1.8,2.6,3.3,2.4l12.4-2.1l1.7,9.2
				C157.2,417.7,149.4,419.1,141.9,421.3z M273.2,359.5c1,4.3,1.9,8.6,2.9,12.6l-24.2,3.5l-17.4,0.4c-1.7,0-2.9,1.4-2.8,2.9
				c0,1.7,1.4,2.9,2.9,2.8l17.6-0.4c0.1,0,0.3,0,0.3,0l24.9-3.6c3.5,14.5,6.7,26.7,8.5,33.5c-16,2.4-31.5,3.8-39.7,3.8
				c-0.1,0-0.3,0-0.4,0c-0.4,0-40.7,3.5-63.6,1.9c-3.6-0.3-7.1-0.3-10.4-0.3l-1.8-9.9l10.4-1.7l0,0c0.8-0.1,1.4-0.6,1.9-1.3
				c0.4-0.7,0.6-1.4,0.4-2.2l-5.3-27.4c-0.3-1.5-1.7-2.5-3.2-2.4l-9.2,1.3l-3.1-8.1c14-1.8,28.6-3.6,41.4-5.1l0.1,4.4l-16.4,0.4
				c-0.8,0-1.5,0.4-2.1,1c-0.6,0.6-0.8,1.4-0.7,2.2l0.7,6.8c0.1,1.5,1.5,2.8,3.2,2.6h0.1c1.5-0.3,2.5-1.7,2.4-3.2l-0.4-3.8l16.3-0.4
				c0.8,0,1.5-0.3,2.1-0.8c0.6-0.6,0.8-1.3,0.8-2.1l-0.1-7.9c14.7-1.8,26-3.1,28.9-3.3C250,358.3,261,359.4,273.2,359.5z M271,349.1
				c-11-0.3-21.1-1.3-32.2-3.2c-0.4-0.1-1-0.1-1.4,0c-0.1,0-4.6,0.6-11.7,1.4l-4.9-71.1l7.8-0.1l0.7,27.5c0,0.6,0.3,1.3,0.7,1.7
				c0.4,0.4,1.1,0.6,1.7,0.6l31.7-2.4c1,7.1,2.1,13.9,2.9,19.9C267.6,331.4,269.2,340.3,271,349.1z M270.8,257.9h-1.9l-2.9-10
				c-0.1-1-0.3-1.9-0.4-2.9l5.4-0.4L270.8,257.9z M271.1,239.5l-6.3,0.4c-1-7.1-2.1-14.2-3.1-20.8c3.1,0,6.3,0,9.6,0.1L271.1,239.5z
				 M260.8,212.6c-0.7-4.7-1.4-9-1.9-13.1c6-1.1,16.4-2.9,25.3-4.4c1.1,7.5,2.1,13.5,2.9,17.9C277.8,212.8,268.9,212.6,260.8,212.6z
				 M281,221.8c-1.1,0.1-2.1,1.3-2.1,2.4c0,0.1-0.1,3.1,0.3,13.5c0.1,2.8-0.6,3.3-0.6,3.3c-0.3,0.1-1.3,0-2.4-0.6l0.3-21.3
				c3.8,0,7.6,0.1,11.7,0.3c0,0.4,0.1,0.7,0.1,1L281,221.8z M287.4,181.2l35.6-6.8c1,3.8,2.5,9.9,4.3,17.2c-1.4-0.1-2.5-0.3-3.3-0.3
				c-2.6,0-5.6-0.7-8.8-1.4c-5.4-1.3-11.7-2.5-18.3-1.5c-1.9,0.3-4.9,0.7-8.1,1.3C288.2,187.1,287.8,184.3,287.4,181.2z
				 M304.5,213.6v-1.5l6.4-0.1v2.1C308.8,213.7,306.7,213.6,304.5,213.6z M328.4,214.9L328.4,214.9c-4.7-0.3-9.4-0.6-14.2-0.8
				l-0.1-3.9c0-0.4-0.1-0.8-0.6-1.1c-0.3-0.3-0.7-0.4-1.1-0.4l-9.7,0.3c-0.8,0-1.5,0.7-1.5,1.7l0.1,3.1c-3.1-0.1-6-0.3-9-0.3
				c-0.8-4.4-1.8-10.8-3.1-18.9c3.3-0.6,6.1-1,8.1-1.3c6-0.8,11.4,0.3,16.7,1.5c3.5,0.7,6.7,1.4,9.7,1.5c0.8,0,2.5,0.1,4.4,0.4
				C330,205.7,328.8,212.8,328.4,214.9z M362.6,218.9c-8.6-1.5-18.9-2.8-29.7-3.6c0.6-2.9,1.5-9.6,0-18.5c3.1,0.4,6.7,0.8,10.4,1.4
				c8.3,1.1,15,1.9,20.6,2.6C363.8,210.4,363.1,216.1,362.6,218.9z M363.8,196.2c-6.8-0.8-14.2-1.8-19.9-2.5
				c-4.6-0.6-8.6-1.1-12-1.5c-1.8-7.8-3.6-14.5-4.6-18.6l34.5-6.5C363.1,179,363.7,188.6,363.8,196.2z M361.3,161.2l-36.1,6.9
				c-0.4-0.3-1-0.3-1.5-0.1c-0.4,0.1-0.8,0.4-1.1,0.7l-36,6.8c-0.6-3.6-1.1-7.5-1.7-11.7c-0.8-6-1.7-11.5-2.4-16.7
				c25.8-4.3,65.3-10.6,76.7-11.4C359.9,143.8,360.6,152.3,361.3,161.2z M358.5,130.1c-15.4,1.3-63.5,9.2-76.8,11.4
				c-0.4-2.6-0.8-5.3-1.3-7.8l18.1-3.2c0,0,0-0.1,0.1-0.1l30-6.9c1.1-0.1,18.1-3.2,28.6-3.3C357.8,123.3,358.1,126.6,358.5,130.1z
				 M356.7,114.9c-11.4,0.3-28.2,3.3-29,3.5h-0.1l-30,6.9l-18.1,3.2c-0.8-4.7-1.7-9.2-2.5-13.2l26.7-4h0.1c0.4-0.1,34.3-7.4,51-9
				C355.6,106.3,356.2,110.5,356.7,114.9z M354.1,97.2c-16.8,1.8-48.9,8.6-51.3,9.2l-26.8,4c-2.2-9.4-4.7-17.2-8.2-25.4l-1.1-2.5
				c-1.5-3.6-3.2-7.5-5-11.8c10-3.6,29.6-10.6,52.2-18.8l5.8,9c0.6,0.8,1.4,1.1,2.2,1c0.3,0,0.6-0.1,0.8-0.3
				c1.1-0.7,1.4-2.1,0.7-3.1l-5.3-8.2c7.8-2.8,16-5.7,24.2-8.6c0.7,2.6,2.4,8.2,4.2,16.4l-3.9,1.7l-6.9,3.1c-0.6,0.3-1,0.7-1.3,1.3
				c-0.3,0.6-0.1,1.3,0,1.7l3.8,8.5l1,3.3c0.3,1.1,1.4,1.8,2.5,1.5c0.1,0,0.1,0,0.3,0c1.3-0.4,1.9-1.7,1.5-2.8l-1-3.5
				c0-0.1,0-0.1-0.1-0.3l-2.9-6.5l4.9-2.1l3.1-1.4C349.6,71.6,352,83.3,354.1,97.2z"/>
		</g>
	</g>
</g>
<g>
	<g>
		<path class="st9" d="M336.1,422.5c0,0.3,0.1,0.4,0.1,0.7l0.7-0.7H336.1z"/>
	</g>
	<path class="st9" d="M354.2,155.4c-4.2,0.1-7.5-3.5-7.6-7.6c0-1.9,0.8-4,2.1-5.4c-2.9,1.1-5.3,4.3-5.1,7.6c0.1,4.2,3.6,7.5,7.8,7.4
		c2.2,0,4-0.7,5.3-2.2C355.7,155.4,355,155.4,354.2,155.4z"/>
	<polygon class="st9" points="355,146.5 355.3,144.7 353.7,145.5 351.9,144.7 352.3,146.6 350.9,148 352.8,148.2 353.7,150 
		354.5,148.2 356.4,147.9 	"/>
</g>
<g>
	<path class="st10" d="M-28.9,211.8c-1-3.6-4.3-6.3-8.3-6.1c-3.9,0.1-7.1,2.9-8.1,6.5h-2.6l0.1,4.2h2.6c1,3.6,4.3,6.3,8.3,6.1
		c3.9-0.1,7.1-2.9,8.1-6.5h2.6l-0.1-4.2H-28.9z M-37.1,209.3c1.9,0,3.5,1,4.3,2.5l-8.6,0.1C-40.6,210.4-39,209.3-37.1,209.3z
		 M-37,218.9c-1.9,0-3.5-1-4.3-2.5l8.6-0.1C-33.5,217.6-35,218.9-37,218.9z"/>
</g>
<g>
	<path class="st10" d="M153,92.7c-1-3.6-4.3-6.3-8.3-6.1c-3.9,0.1-7.1,2.9-8.1,6.5H134l0.1,4.2h2.6c1,3.6,4.3,6.3,8.3,6.1
		c3.9-0.1,7.1-2.9,8.1-6.5h2.6l-0.1-4.2H153z M144.8,90.2c1.9,0,3.5,1,4.3,2.5l-8.6,0.1C141.3,91.5,143,90.3,144.8,90.2z
		 M145.1,99.8c-1.9,0-3.5-1-4.3-2.5l8.6-0.1C148.6,98.7,146.9,99.8,145.1,99.8z"/>
</g>
<g>
	<path class="st10" d="M324.1,25c-1-3.6-4.3-6.3-8.3-6.1c-3.9,0.1-7.1,2.9-8.1,6.5H305l0.1,4.2h2.6c1,3.6,4.3,6.3,8.3,6.1
		c3.9-0.1,7.1-2.9,8.1-6.5h2.6l-0.1-4.2H324.1z M315.9,22.7c1.9,0,3.5,1,4.3,2.5l-8.6,0.1C312.4,23.8,313.9,22.7,315.9,22.7z
		 M316,32.1c-1.9,0-3.5-1-4.3-2.5l8.6-0.1C319.5,31,317.9,32.1,316,32.1z"/>
</g>
<path class="st11" d="M-79.9,257.1c0,0,21.7-8.5,47.4-25.3c25.7-16.8,71.1-42,84.8-50c33.2-20,59.9-47.5,86.4-63.8
	c33.8-20.7,92.8-42.2,142.9-60c48.5-17.4,88.4-31.3,88.4-31.3"/>
<path class="st12" d="M-255-175v800h800v-800H-255z M144.4,343.3C33.8,343.3-55.9,253.6-55.9,143S33.8-57.3,144.4-57.3
	s200.3,89.8,200.3,200.4S255,343.3,144.4,343.3z"/>
<g>
	<path class="st13" d="M232.3,347.9c0,0-16.3-13.5-16.3-25.3c0-7.9,6.3-14.9,16.3-14.9c10.1,0,16.3,6.9,16.3,14.9
		C248.5,334.4,232.3,347.9,232.3,347.9z"/>
	<circle class="st9" cx="232.3" cy="323" r="11.8"/>
	<path class="st13" d="M227.1,317.3c-0.4,0-0.6-0.4-0.6-0.7v-0.6c0-0.4,0.4-0.6,0.6-0.6h10.7c0.4,0,0.6,0.3,0.6,0.6v0.6
		c0,0.4-0.4,0.7-0.6,0.7H227.1z"/>
	<path class="st13" d="M239.6,321.5l-1.1-2.6v-0.4c0-0.4-0.1-0.6-0.4-0.6h-11c-0.4,0-0.6,0.4-0.6,0.6v0.4l-1.3,2.6
		c0,0,0,0.6,0.6,0.6c0.1,0-0.1-0.1,0.1-0.3v6.8c0,0.4,0.4,0.6,0.6,0.6h7.8v-5.3h2.4v5.3h1.4c0.4,0,1-0.3,1-0.6v-6.8
		c0.1,0.1-0.3,0.3,0.1,0.3C239.6,322,239.6,321.5,239.6,321.5z M230.7,321.5c0,0.4-0.4,0.8-0.8,0.8c-0.4,0-0.8-0.4-0.8-0.8v-0.1l0,0
		l0,0l0,0l0.4-2.2h1.4L230.7,321.5L230.7,321.5L230.7,321.5L230.7,321.5z M227.3,322.3c-0.4,0-0.8-0.4-0.8-0.8v-0.1l0,0l0,0l0.7-2.2
		h1.4l-0.6,2.2l0,0l0,0v0.1C228.2,321.9,227.9,322.3,227.3,322.3z M232.5,327.3h-4.9v-3.6h4.9V327.3z M232.6,322.3
		c-0.4,0-0.8-0.4-0.8-0.8v-0.1l0,0l0,0l0.1-2.2h1.4l0.1,2.2l0,0l0,0l0,0c0,0,0,0,0,0.1C233.3,321.9,233,322.3,232.6,322.3z
		 M235.1,322.3c-0.4,0-0.8-0.4-0.8-0.8v-0.1l0,0l0,0l0,0l-0.1-2.2h1.4l0.4,2.2l0,0l0,0v0.1C235.8,321.9,235.5,322.3,235.1,322.3z
		 M237.8,322.3c-0.4,0-0.8-0.4-0.8-0.8c0-0.1,0-0.1,0-0.1l-0.6-2.2h1.4l0.7,2.2l0,0l0,0v0.1C238.4,321.9,238.2,322.3,237.8,322.3z"
		/>
</g>
<g>
	<circle class="st9" cx="145" cy="225.1" r="45.1"/>
	<g>
		<g>
			<g>
				<path class="st14" d="M169.1,225.8c-0.3,0-0.5,0-0.8,0c-6.2,0-11.5-4-13.4-9.6c-3.3-1.1-6.7-1.6-10.2-1.6
					c-8.9,0-17.1,3.4-23.4,9.8c-1.5,1.5-1.5,3.9,0,5.5c1.5,1.5,3.9,1.5,5.5,0c4.8-4.8,11.1-7.4,17.9-7.4s13.2,2.7,17.9,7.4
					c0.8,0.8,1.8,1.2,2.8,1.2s2-0.4,2.8-1.2C169.2,228.8,169.5,227.2,169.1,225.8z M154.2,210.9c0.2-2.8,1.1-5.2,2.6-7.3
					c-3.9-1.1-8-1.6-12.1-1.6c-12.2,0-23.7,4.7-32.4,13.4c-1.5,1.5-1.5,3.9,0,5.5c0.8,0.8,1.8,1.2,2.8,1.2s2-0.4,2.8-1.2
					c7.2-7.2,16.7-11.1,27-11.1C148,209.7,151.1,210.1,154.2,210.9z M140,243.2c-2.6,2.6-2.6,6.8,0,9.4s6.8,2.6,9.4,0s2.6-6.8,0-9.4
					S142.6,240.6,140,243.2z M144.7,227.4c-5.4,0-10.5,2.2-14.5,6c-1.5,1.5-1.5,3.9,0,5.5c1.5,1.5,3.9,1.5,5.5,0
					c2.4-2.4,5.5-3.7,9-3.7c3.4,0,6.6,1.3,9,3.7c0.8,0.8,1.8,1.2,2.8,1.2s2-0.4,2.8-1.2c1.5-1.5,1.5-3.9,0-5.5
					C155.3,229.6,150.1,227.4,144.7,227.4z"/>
			</g>
		</g>
		<path class="st15" d="M171.2,210.6l7.6,7.6v2.1h-2.1l-7.5-7.7l-7.6,7.6h-2.1v-2.1l7.6-7.6l-7.6-7.6v-2.1h2.1l7.6,7.6l7.6-7.6h2.1
			v2.1L171.2,210.6z"/>
	</g>
</g>
</svg>
