<?xml version="1.0" encoding="utf-8"?>
<!-- Generator: Adobe Illustrator 18.1.1, SVG Export Plug-In . SVG Version: 6.00 Build 0)  -->
<svg version="1.1" id="Layer_1" xmlns="http://www.w3.org/2000/svg" xmlns:xlink="http://www.w3.org/1999/xlink" x="0px" y="0px"
	 viewBox="0 0 2834.6 2834.6" enable-background="new 0 0 2834.6 2834.6" xml:space="preserve">
<g>
	<path fill="#DD4411" d="M1613.1,63.3c3.5,0,7.1,0,10.6,0c0.2,10.6,0.5,21.1,0.5,31.7c0,881.4,0,1762.8,0,2644.1
		c0,10.6-0.3,21.1-0.5,31.7c-3.5,0-7.1,0-10.6,0c-25.4-5.9-50.6-12.6-76.1-17.5c-491.1-94.8-982.2-189.3-1473.3-283.9
		c0-701.6,0-1403.1,0-2104.7c21.6-3.9,43.3-7.6,64.8-11.8C574.7,267,1021,181.1,1467.2,94.9C1516,85.5,1564.5,73.9,1613.1,63.3z
		 M706.2,1582.4c34.7,0,65.5,1.4,96.1-0.3c46.5-2.6,93.4-3.9,139.1-11.9c179.1-31.2,296.1-166.2,297.5-340.9
		c0.9-109-26.6-206.3-121.8-272.1c-60.3-41.7-129.6-61.1-201.5-63.3c-139.1-4.2-278.3-3.1-417.5-5.6c-24.9-0.4-32.8,5.8-32.8,31.8
		c0.9,332.2,0.6,664.3,0.6,996.5c0,9.4,0.8,18.7,1.2,27.9c80.8,0,158.8,0,239,0C706.2,1823.9,706.2,1705.2,706.2,1582.4z"/>
	<path fill="#DD4411" d="M2771.2,449.4c0,645.1,0,1290.3,0,1935.4c-19.2,57.4-60.6,74.2-118.6,73.9c-297-1.6-593.9-0.7-890.9-0.7
		c-10.1,0-20.2,0-29.2,0c0-106.2,0-207.9,0-310.8c87.6,0,173.1,0,258.5,0c86,0,172,0,260.9,0c0-62.7-1.2-121.5,0.6-180.3
		c0.7-24.7-7.2-31.1-31.3-30.9c-152.4,1-304.9,0.5-457.3,0.5c-10.3,0-20.5,0-31.8,0c0-112.9,0-222.2,0-332.4
		c333.1,171.5,667.2-110.8,647.7-396.2c-145.6,0-291.5,0-441.4,0c0-149.6,0-296,0-442.8c-75.8-2.5-141.7,20-206.6,49.9
		c0-147.8,0-291.9,0-438.7c11.8,0,22.2,0,32.5,0c296.1,0,592.2,0.9,888.2-0.7C2710.6,375.1,2752,391.9,2771.2,449.4z M2485.7,1104.2
		c5.3-269.1-240.6-458.6-442.9-440.8c0,146.4,0,292.9,0,440.8C2190.9,1104.2,2337.4,1104.2,2485.7,1104.2z"/>
	<path fill="#FFFFFF" d="M2771.2,449.4c-19.2-57.4-60.6-74.2-118.6-73.9c-296.1,1.6-592.2,0.7-888.2,0.7c-10.4,0-20.8,0-32.5,0
		c0,146.8,0,290.9,0,438.7c64.8-29.9,130.8-52.5,206.6-49.9c0,146.8,0,293.3,0,442.8c149.9,0,295.7,0,441.4,0
		c19.5,285.4-314.6,567.7-647.7,396.2c0,110.2,0,219.6,0,332.4c11.2,0,21.5,0,31.8,0c152.4,0,304.9,0.5,457.3-0.5
		c24-0.2,32,6.2,31.3,30.9c-1.7,58.8-0.6,117.7-0.6,180.3c-88.9,0-174.9,0-260.9,0c-85.4,0-170.9,0-258.5,0c0,102.9,0,204.6,0,310.8
		c9,0,19.1,0,29.2,0c297,0,593.9-0.9,890.9,0.7c58,0.3,99.5-16.5,118.6-73.9c0,128.7,0,257.4,0,386c-382.5,0-765,0-1147.5,0
		c0.2-10.6,0.5-21.1,0.5-31.7c0-881.4,0-1762.8,0-2644.1c0-10.6-0.3-21.1-0.5-31.7c382.5,0,765,0,1147.5,0
		C2771.2,192,2771.2,320.7,2771.2,449.4z"/>
	<path fill="#FFFFFF" d="M1613.1,63.3c-48.6,10.6-97.1,22.1-145.9,31.6C1021,181.1,574.7,267,128.5,353
		c-21.6,4.2-43.2,7.9-64.8,11.8c0-100.5,0-200.9,0-301.4C580.2,63.3,1096.6,63.3,1613.1,63.3z"/>
	<path fill="#FFFFFF" d="M63.7,2469.4c491.1,94.6,982.2,189.1,1473.3,283.9c25.6,4.9,50.8,11.6,76.1,17.5
		c-516.5,0-1032.9,0-1549.4,0C63.7,2670.1,63.7,2569.8,63.7,2469.4z"/>
	<path fill="#FFFFFF" d="M706.2,1582.4c0,122.7,0,241.4,0,362.1c-80.2,0-158.1,0-239,0c-0.4-9.2-1.2-18.6-1.2-27.9
		c-0.1-332.2,0.2-664.3-0.6-996.5c-0.1-26,7.8-32.3,32.8-31.8c139.1,2.5,278.4,1.4,417.5,5.6c71.9,2.2,141.1,21.6,201.5,63.3
		c95.2,65.9,122.7,163.1,121.8,272.1c-1.4,174.7-118.4,309.6-297.5,340.9c-45.7,8-92.7,9.3-139.1,11.9
		C771.7,1583.8,740.9,1582.4,706.2,1582.4z M706.8,1398.8c45.7,0,89.2,3.8,131.8-0.8c97.8-10.6,141.5-57.7,148.6-153.2
		c5.2-69-25.3-126.5-80-150.7c-64.5-28.5-132.2-18.8-200.4-19.8C706.8,1184.1,706.8,1290.5,706.8,1398.8z"/>
	<path fill="#FFFFFF" d="M2485.7,1104.2c-148.3,0-294.8,0-442.9,0c0-147.9,0-294.4,0-440.8C2245.1,645.6,2491,835.1,2485.7,1104.2z"
		/>
	<path fill="#DD4411" d="M706.8,1398.8c0-108.3,0-214.6,0-324.4c68.2,0.9,135.9-8.7,200.4,19.8c54.7,24.2,85.2,81.7,80,150.7
		c-7.1,95.4-50.8,142.6-148.6,153.2C796,1402.6,752.6,1398.8,706.8,1398.8z"/>
</g>
</svg>
