<?xml version="1.0" encoding="utf-8"?>
<!-- Generator: Adobe Illustrator 23.0.1, SVG Export Plug-In . SVG Version: 6.00 Build 0)  -->
<svg version="1.1" id="Layer_1" xmlns="http://www.w3.org/2000/svg" xmlns:xlink="http://www.w3.org/1999/xlink" x="0px" y="0px"
	 viewBox="0 0 7114.4 7114.4" style="enable-background:new 0 0 7114.4 7114.4;" xml:space="preserve">
<style type="text/css">
	.st0{fill:#2C3E50;}
</style>
<path id="video-5-icon" class="st0" d="M3339.4,2336.6l3259-732v-23.6l-212.6-1110L883.7,1557.3
	c-283.5,47.2-354.1,354.1-354.1,637.6c0,259.9,0,3660.2,0,3660.2c0,495.9,259.6,708.5,732,708.5h4463.2
	c495.9,0,708.5-283.5,708.5-755.6V2336.6l0,0L3339.4,2336.6L3339.4,2336.6z M5960.6,5878.7c0,141.7-70.9,236.2-236.2,236.2H1261.4
	c-141.7,0-236.2-141.7-236.2-307.1l-23.6-2054.5h4959.1v2125.4H5960.6z M4803.5,2549l-519.5,519.5h-802.9l519.5-519.5H4803.5z
	 M5653.7,943.1l614,425l-779.4,141.7l-637.6-424.9L5653.7,943.1z M4118.7,1250.1l637.6,425L3977,1816.9l-637.6-425L4118.7,1250.1z
	 M2583.8,1557.2l637.6,425L2442,2123.9l-637.6-425.1L2583.8,1557.2z M2465.6,2549h802.9l-519.5,519.5h-802.9L2465.6,2549z
	 M5039.6,3068.6l519.5-519.5H6362l-519.5,519.5H5039.6z M3197.8,5666.1V4013.1l1346,826.5L3197.8,5666.1z"/>
</svg>
