<?xml version="1.0" encoding="utf-8"?>
<!-- Generator: Adobe Illustrator 23.0.1, SVG Export Plug-In . SVG Version: 6.00 Build 0)  -->
<svg version="1.1" id="Layer_1" xmlns="http://www.w3.org/2000/svg" xmlns:xlink="http://www.w3.org/1999/xlink" x="0px" y="0px"
	 viewBox="0 0 6514.9 6514.9" style="enable-background:new 0 0 6514.9 6514.9;" xml:space="preserve">
<style type="text/css">
	.st0{fill:#2C3E50;}
</style>
<path id="picture-4-icon" class="st0" d="M1444.8,2659.6c-121.5,0-190.8-34.6-190.8-173.5H438.3c0,121.5-104.1,225.6-225.6,225.6
	L56.5,2729v2516.2h3991.3V2642.1H1444.8V2659.6z M1253.8,3475.1H438.2v-347.1h815.6V3475.1z M2676.8,4863.4
	c-485.8,0-867.6-381.8-867.6-867.6c0-485.8,381.8-850.3,867.6-850.3s867.6,364.4,867.6,850.3
	C3544.4,4481.7,3162.7,4863.4,2676.8,4863.4z M3145.3,3995.7c0,260.2-208.3,468.5-468.5,468.5s-468.5-208.3-468.5-468.5
	s208.3-468.5,468.5-468.5S3145.3,3735.4,3145.3,3995.7z M6390.5,2520.7L5349.2,5227.9l-850.3-329.7v-468.5l607.4,225.6l746.2-1891.5
	L3093.4,1705.2L2833,2364.5h-468.5L2833,1149.8L6390.5,2520.7z"/>
</svg>
