<?xml version="1.0" encoding="utf-8"?>
<!-- Generator: Adobe Illustrator 22.1.0, SVG Export Plug-In . SVG Version: 6.00 Build 0)  -->
<svg version="1.1" id="Layer_1" xmlns="http://www.w3.org/2000/svg" xmlns:xlink="http://www.w3.org/1999/xlink" x="0px" y="0px"
	 viewBox="0 0 6514.9 6514.9" style="enable-background:new 0 0 6514.9 6514.9;" xml:space="preserve">
<style type="text/css">
	.st0{fill:#FFB500;}
</style>
<g>
	<path class="st0" d="M3874.8,5266.1c6.3,0.2,12.9,0.9,19.4,0.9h1469.9c172.1,0,311.9-139.9,311.9-311.7V1547.3
		c0-171.8-139.9-311.7-311.9-311.7H3894.2c-6.5,0-13,0.7-19.4,0.9V829.7l-2869.2,382.8v4079.9l2869.2,392.8V5266.1z M3874.8,1415.7
		c6.3-0.8,12.6-1.9,19.4-1.9h1469.9c73.8,0,133.6,60,133.6,133.8v3407.7c0,73.5-59.8,133.5-133.6,133.5H3894.2
		c-6.7,0-13-1.1-19.4-1.9V1415.7z M2111.2,3707.4l-684.1-17.7v-111.1l413.1-633.4v-5.4l-375.2,6.1v-171.2l639.5-16.8v123.9
		l-415.8,635.6v5.6l422.6,6.5V3707.4z M2455.3,3716.1l-212.7-5.5v-956.2l212.7-5.6V3716.1z M3268.6,3274.1
		c-79.4,73.1-195.8,104.9-329.8,104c-29.4-0.2-56.1-2-76.6-5v353.4l-219.3-5.6v-963.8c67.7-13.5,163.6-24.6,300.2-28.3
		c140.3-3.7,241.4,20.5,309.9,72.7c66.2,49.6,110.8,132.9,110.8,232.3C3363.9,3132.9,3329.9,3217.3,3268.6,3274.1L3268.6,3274.1z
		 M3268.6,3274.1"/>
	<path class="st0" d="M2955.2,2898c-45.7,0.6-76.8,5.6-92.9,10.4v291.7c18.9,4.3,42.6,5.9,75,5.7c120.7-0.2,196-61.1,196-163.8
		C3133.3,2949.8,3068.5,2895.8,2955.2,2898L2955.2,2898z M2955.2,2898"/>
	<rect x="4410.9" y="1490.1" class="st0" width="349.5" height="144"/>
	<rect x="4061.4" y="1705.8" class="st0" width="349.5" height="144.2"/>
	<rect x="4410.9" y="1941.9" class="st0" width="349.5" height="144.2"/>
	<rect x="4410.9" y="2397.5" class="st0" width="349.5" height="144.2"/>
	<rect x="4061.4" y="2166.1" class="st0" width="349.5" height="144.2"/>
	<path class="st0" d="M4407.7,3953.8c190.9,0,345.8-155.1,345.8-346.2l-63.8-579.7c0-191.2-91.2-346.3-282.1-346.3
		c-191.2,0-282.1,155.1-282.1,346.3l-64.1,579.7C4061.4,3798.7,4216.5,3953.8,4407.7,3953.8L4407.7,3953.8z M4293.1,3317.6h229.2
		v483.9h-229.2V3317.6z M4293.1,3317.6"/>
</g>
</svg>
