<?xml version="1.0" encoding="utf-8"?>
<!-- Generator: Adobe Illustrator 23.0.1, SVG Export Plug-In . SVG Version: 6.00 Build 0)  -->
<svg version="1.1" id="Layer_1" xmlns="http://www.w3.org/2000/svg" xmlns:xlink="http://www.w3.org/1999/xlink" x="0px" y="0px"
	 viewBox="0 0 6661.4 6634.8" style="enable-background:new 0 0 6661.4 6634.8;" xml:space="preserve">
<style type="text/css">
	.st0{fill:#2C3E50;}
</style>
<path class="st0" d="M4631.8,414.1h-768.8H2621H1595.9c-256.3,0-433.7,276-433.7,512.6v4612.9c0,256.3,197.1,374.5,433.7,374.5H2621
	h1360.3h1064.5c256.3,0,453.4-197.1,453.4-453.4V4001.9V2188.4v-650.6L4631.8,414.1z M5105,2188.4v3351.3H4060.2H2699.9H1556.6
	V808.4h1025.1h1241.9H4415l690.7,985.6v394.3H5105z"/>
<polygon class="st0" points="5440,1733.2 4316.5,1733.2 4316.5,668.7 "/>
<rect x="1950.7" y="1794.1" class="st0" width="1774.3" height="197.1"/>
<rect x="1950.7" y="2582.6" class="st0" width="2759.9" height="197.1"/>
<rect x="1950.7" y="3174" class="st0" width="2759.9" height="197.1"/>
<rect x="1950.7" y="4554" class="st0" width="2365.6" height="197.1"/>
</svg>
