<?xml version="1.0" encoding="utf-8"?>
<!-- Generator: Adobe Illustrator 18.1.1, SVG Export Plug-In . SVG Version: 6.00 Build 0)  -->
<svg version="1.1" id="Layer_1" xmlns="http://www.w3.org/2000/svg" xmlns:xlink="http://www.w3.org/1999/xlink" x="0px" y="0px"
	 viewBox="0 0 6581.5 6581.5" enable-background="new 0 0 6581.5 6581.5" xml:space="preserve">
<rect x="0" y="0" fill="#E01717" width="6581.5" height="6581.5"/>
<path fill="#FFFFFF" d="M3410.7,2731.2c119.9-293.1,186.5-532.9,226.5-692.8c159.9-879.3-892.6-945.9-786.1-13.3
	c26.6,253.1,93.3,492.9,213.2,719.4C2931,3064.2,2771.2,3424,2598,3757c-373,146.6-626.2,279.8-786.1,439.7
	c-559.6,519.6,133.2,1212.4,652.8,466.3c133.2-173.2,266.5-439.7,373-626.2c333.1-119.9,706.1-213.2,1052.5-279.8
	c239.8,173.2,599.5,399.7,892.6,399.7c559.6,0,652.8-692.8,13.3-786c-239.8-40-572.9,13.3-812.7,40
	C3783.7,3250.8,3570.5,3024.3,3410.7,2731.2z M2105,4569.7c-159.9,159.9-253.1,40-119.9-106.6c79.9-93.3,253.1-199.8,359.7-253.1
	C2278.2,4356.6,2171.6,4489.8,2105,4569.7z M3170.8,1798.6c26.6-146.6,119.9-133.2,146.5-13.3c26.6,133.2-40,386.4-93.3,492.9
	C3184.2,2145,3130.9,1931.8,3170.8,1798.6z M3024.3,3610.5c13.3-13.3,173.2-373,239.8-519.6c79.9,133.2,306.4,373,306.4,373
	C3490.6,3490.6,3170.8,3570.5,3024.3,3610.5z M4729.6,3677.1c199.8,26.6,226.5,146.6,40,146.6c-159.9,0-306.4-79.9-413-146.6
	C4516.4,3650.5,4636.4,3650.5,4729.6,3677.1z"/>
</svg>
