<svg id="Layer_1" data-name="Layer 1" xmlns="http://www.w3.org/2000/svg" viewBox="0 0 48 48"><defs><style>.cls-1{fill:#0176d3;}.cls-2{fill:#fff;}</style></defs><path class="cls-1" d="M24,0A24,24,0,1,0,48,24,23.94,23.94,0,0,0,24,0Z"/><path class="cls-2" d="M17.1,30.8a1,1,0,0,0,.1-1.2A9.25,9.25,0,0,1,15,23.8,8.81,8.81,0,0,1,23.8,15h.3l.1-2v-.1l.7-2.2h-1A13.23,13.23,0,0,0,10.5,23.9a14.08,14.08,0,0,0,3.3,8.8.91.91,0,0,0,1.2,0Z"/><path class="cls-2" d="M32.9,15.2l-2.2,2a1,1,0,0,0-.1,1.2,9.25,9.25,0,0,1,2.2,5.8A8.88,8.88,0,0,1,24.9,33a.68.68,0,0,0-.7.7v1l-1,2.7h.9A13.47,13.47,0,0,0,37.5,24a14.08,14.08,0,0,0-3.3-8.8A1,1,0,0,0,32.9,15.2Z"/><path class="cls-2" d="M29.5,12.2,23.9,8.7a.84.84,0,0,0-1.3.7v6.9a.88.88,0,0,0,1.3.7l5.6-3.5C30,13.4,30,12.5,29.5,12.2Z"/><path class="cls-2" d="M18.4,35.8l5.5,3.5a.84.84,0,0,0,1.3-.7V31.7a.88.88,0,0,0-1.3-.7l-5.5,3.5A.69.69,0,0,0,18.4,35.8Z"/></svg>