<?xml version="1.0" encoding="utf-8"?>
<!-- Generator: Adobe Illustrator 23.0.6, SVG Export Plug-In . SVG Version: 6.00 Build 0)  -->
<svg version="1.1" id="Capa_1" xmlns="http://www.w3.org/2000/svg" xmlns:xlink="http://www.w3.org/1999/xlink" x="0px" y="0px"
	 viewBox="0 0 316 241.4" style="enable-background:new 0 0 316 241.4;" xml:space="preserve">
<style type="text/css">
	.st0{fill:#7F7F81;stroke:#7F7F81;stroke-width:2.3782;stroke-miterlimit:10;}
	.st1{fill:#4E4E50;stroke:#4E4E50;stroke-width:2.3782;stroke-miterlimit:10;}
</style>
<g>
	<path class="st0" d="M230.2,206.1v-40.9h3.7v-3.7c0-10.2-8.3-18.6-18.6-18.6h-29.7V16.6c0-8.2-6.7-14.9-14.9-14.9
		s-14.9,6.7-14.9,14.9v126.3h-29.7c-10.2,0-18.6,8.3-18.6,18.6v3.7h3.7v40.9c0,14.3,11.7,26,26,26h59.5v-4.4
		c5.3,2.8,11.7,4.4,18.6,4.4h33.4v-7.4C238.6,224.6,230.2,216.3,230.2,206.1z M163.3,16.6c0-4.1,3.3-7.4,7.4-7.4
		c4.1,0,7.4,3.3,7.4,7.4v107.8h-14.9V16.6H163.3z M163.3,131.7h14.9v11.1h-14.9V131.7z M126.2,150.3h89.2c4.8,0,9,3.1,10.5,7.4
		H115.7C117.2,153.4,121.3,150.3,126.2,150.3z M137.3,224.6L137.3,224.6c-10.2,0-18.6-8.3-18.6-18.6v-40.9h18.6V206
		c0,7.3,3,13.9,7.8,18.6H137.3L137.3,224.6z M215.4,224.6L215.4,224.6c-14.3,0-26-8.3-26-18.6H182c0,7.4,1.6,13.9,4.3,18.6h-22.8
		c-10.2,0-18.6-8.3-18.6-18.6v-40.9h59.5V180h7.4v-14.9h11.1V206c0,7.3,3,13.9,7.8,18.6H215.4L215.4,224.6z"/>
	<rect x="204.2" y="187.5" class="st0" width="7.4" height="7.4"/>
	<path class="st1" d="M74.2,191.2h-7.4c0,6.7,1.6,13,4.4,18.5c-9.6-9.4-15.6-22.6-15.6-37.1h-7.4c0,32.8,26.7,59.5,59.5,59.5v-7.4
		C89.2,224.6,74.2,209.6,74.2,191.2z"/>
	<rect x="256.2" y="224.6" class="st1" width="18.6" height="7.4"/>
	<path class="st1" d="M81.6,183.8c0,6.1,5,11.1,11.1,11.1s11.1-5,11.1-11.1s-5-11.1-11.1-11.1C86.6,172.6,81.6,177.6,81.6,183.8z
		 M96.5,183.8c0,2-1.7,3.7-3.7,3.7s-3.8-1.7-3.8-3.7s1.7-3.7,3.7-3.7S96.5,181.7,96.5,183.8z"/>
	<path class="st1" d="M81.6,139.2c8.2,0,14.9-6.7,14.9-14.9s-6.7-14.9-14.9-14.9s-14.9,6.7-14.9,14.9S73.4,139.2,81.6,139.2z
		 M81.6,116.9c4.1,0,7.4,3.3,7.4,7.4c0,4.1-3.3,7.4-7.4,7.4s-7.4-3.3-7.4-7.4S77.5,116.9,81.6,116.9z"/>
	<rect x="66.7" y="176.3" class="st1" width="7.4" height="7.4"/>
	<rect x="48.2" y="157.8" class="st1" width="7.4" height="7.4"/>
	<rect x="48.2" y="142.9" class="st1" width="7.4" height="7.4"/>
</g>
</svg>
