<?xml version="1.0" encoding="utf-8"?>
<!-- Generator: Adobe Illustrator 23.0.6, SVG Export Plug-In . SVG Version: 6.00 Build 0)  -->
<svg version="1.1" id="Capa_1" xmlns="http://www.w3.org/2000/svg" xmlns:xlink="http://www.w3.org/1999/xlink" x="0px" y="0px"
	 viewBox="0 0 316 236.9" style="enable-background:new 0 0 316 236.9;" xml:space="preserve">
<style type="text/css">
	.st0{fill:#4E4E50;}
	.st1{fill:#7F7F81;}
</style>
<path class="st0" d="M264.1,60c-1.3-0.8-2.9-1.2-4.3-1.7c-8.1-3-12.2-13.8-8.2-21.5c0.8-1.5,1.8-2.9,2.2-4.5c0.8-3.7-2-7.1-4.7-9.7
	c-2.6-2.4-6.2-4.8-9.5-3.5c-1.1,0.5-2,1.3-3,1.9c-3.8,2.3-8.7,1.5-13,0.6c-3.3-0.7-7-1.6-8.7-4.5c-1.9-3-1-7.3-3.3-9.9
	c-1.2-1.3-3-2-4.7-2.5c-3.6-1.2-8.5-1.9-10.3,1.4c-1.1,1.9-0.5,4.3-0.9,6.5c-1,4.5-6.2,6.4-10.6,7.6c-2.8,0.8-5.7,1.5-8.7,1.6
	c-3.3,0.2-5.5-1.1-8.6-1.7c-4.4-0.9-10.1,4.3-10.9,8.5c-0.7,3.8,1.5,7.5,2.2,11.4c1.5,7.7-4,15.8-11.4,18.4
	c-1.5,0.5-3.2,0.9-4.2,2.2c-0.7,1-0.8,2.3-0.9,3.6c-0.1,2.6-0.2,5.3-0.3,7.9c-0.1,1.4-0.1,2.9,0.8,3.9c1.1,1.2,3,1.2,4.7,1.3
	c3.4,0.1,7,0.9,9.5,3.2c2.5,2.2,3.7,5.4,4.8,8.5c1.2,3.4,2.3,7.6-0.3,10.1c-1.3,1.3-3.3,1.7-4.6,3c-1.7,1.7-1.9,4.5-1,6.7
	s2.7,3.9,4.6,5.4c3.2,2.5,7.8,4.4,11.3,2.3c1.4-0.9,2.5-2.3,4.1-2.8c1.1-0.3,2.3-0.1,3.4,0.1c5.9,1.1,12.3,2.6,15.7,7.5
	c2.2,3.2,2.8,7.5,6,9.6c3.1,2.1,8,0.6,9.5-2.8c0.8-1.9,0.7-4.1,1.7-5.9c2.2-4.2,8.2-3.9,12.8-5.3c3.5-1.1,6.7-3.5,10.3-3.2
	c2.4,0.2,4.5,1.7,6.8,2.3c4.9,1.1,10.3-2.6,11-7.5c0.6-4.2-1.7-8.2-2.4-12.3c-1.5-8.5,4.5-17.6,12.8-19.5c1.4-0.3,3-0.6,3.8-1.8
	c0.5-0.7,0.5-1.6,0.5-2.4C268.1,67.7,267.9,62.4,264.1,60z M205.1,96.2c-15.2,0-27.7-12.4-27.7-27.7s12.4-27.7,27.7-27.7
	c15.2,0,27.7,12.4,27.7,27.7S220.4,96.2,205.1,96.2z"/>
<g>
	<g>
		<g>
			<path class="st1" d="M155.8,231c-1.9,0-3.7-0.4-5.4-1.1c-3.5-1.4-6.2-4.2-7.7-7.7l-2.3-5.6c-3.1,0.4-6.3,0.6-9.4,0.6
				s-6.3-0.2-9.4-0.6l-2.3,5.6c-2.2,5.3-7.3,8.8-13.1,8.8c-1.9,0-3.7-0.4-5.4-1.1l-11.5-4.8c-3.5-1.4-6.2-4.2-7.7-7.7
				c-1.4-3.5-1.4-7.3,0-10.8l2.3-5.7c-5-3.9-9.5-8.4-13.3-13.3l-5.6,2.3c-1.7,0.7-3.6,1.1-5.4,1.1s-3.7-0.4-5.4-1.1
				c-3.5-1.4-6.2-4.2-7.7-7.7l-4.8-11.5c-1.4-3.5-1.4-7.3,0-10.8s4.2-6.2,7.7-7.7l5.6-2.3c-0.8-6.2-0.8-12.5,0-18.7l-5.6-2.3
				c-3.5-1.4-6.2-4.2-7.7-7.7c-1.4-3.5-1.5-7.4,0-10.9l4.9-11.5c2.2-5.3,7.3-8.8,13.1-8.8c1.9,0,3.7,0.4,5.4,1.1l5.7,2.3
				c3.9-5,8.4-9.5,13.3-13.3l-2.3-5.6c-1.4-3.5-1.4-7.3,0-10.8c1.4-3.5,4.2-6.2,7.7-7.7l11.5-4.8c1.7-0.7,3.6-1.1,5.4-1.1
				s3.6,0.4,5.4,1.1c3.5,1.5,6.3,4.2,7.7,7.7l4.4,10.6c0.7,1.6,0.7,3.5,0,5.1c-0.7,1.7-2,3-3.7,3.7c-0.8,0.3-1.7,0.5-2.6,0.5
				c-2.7,0-5.2-1.7-6.3-4.2L106.9,64c-0.1-0.2-0.3-0.3-0.4-0.4c-0.1,0-0.1,0-0.2,0s-0.1,0-0.2,0l-11.6,4.8c-0.2,0.1-0.3,0.3-0.4,0.4
				s-0.1,0.3,0,0.4l4.4,10.6c1.2,3,0.2,6.4-2.5,8.2c-6.9,4.6-12.7,10.4-17.3,17.3c-1.3,1.9-3.3,3-5.6,3c-0.9,0-1.8-0.2-2.6-0.5
				l-10.6-4.4c-0.1,0-0.1,0-0.2,0c-0.2,0-0.5,0.1-0.6,0.4l-4.8,11.6c-0.1,0.3,0,0.7,0.3,0.8l10.6,4.4c3,1.2,4.7,4.4,4,7.6
				c-1.6,8.2-1.6,16.5,0,24.5c0.6,3.3-1,6.4-4,7.6l-10.6,4.4c-0.2,0.1-0.3,0.3-0.4,0.4c-0.1,0.1-0.1,0.3,0,0.5l4.8,11.6
				c0.1,0.2,0.3,0.3,0.4,0.4c0.1,0,0.1,0,0.2,0s0.2,0,0.3-0.1l10.6-4.4c0.8-0.3,1.7-0.5,2.5-0.5c2.3,0,4.4,1.1,5.7,3
				c4.6,6.9,10.4,12.7,17.3,17.3c2.7,1.8,3.7,5.2,2.5,8.2L94,211.7c-0.1,0.2-0.1,0.3,0,0.5s0.3,0.3,0.4,0.4l11.5,4.8
				c0.1,0,0.1,0,0.2,0c0.2,0,0.5-0.1,0.6-0.4l4.4-10.6c1-2.5,3.6-4.2,6.3-4.2c0.4,0,0.9,0,1.3,0.1c4.1,0.8,8.2,1.2,12.3,1.2
				c4.1,0,8.2-0.4,12.1-1.2c0.4-0.1,0.9-0.1,1.4-0.1c2.7,0,5.2,1.6,6.2,4.2l4.4,10.6c0.1,0.2,0.3,0.3,0.4,0.4c0.1,0,0.1,0,0.2,0
				c0.1,0,0.1,0,0.2,0l11.6-4.8c0.3-0.1,0.5-0.5,0.3-0.9l-4.4-10.6c-1.2-3-0.2-6.4,2.5-8.2c6.9-4.6,12.7-10.4,17.3-17.3
				c1.3-1.9,3.3-3,5.6-3c0.9,0,1.8,0.2,2.6,0.5l10.6,4.4c0.1,0,0.2,0.1,0.3,0.1s0.1,0,0.2,0c0.3-0.1,0.4-0.3,0.4-0.4l4.8-11.5
				c0.1-0.1,0.1-0.3,0-0.5c0-0.1-0.1-0.3-0.3-0.3l-10.6-4.4c-3.5-1.4-5.1-5.4-3.7-8.8c1.1-2.6,3.5-4.2,6.2-4.2
				c0.9,0,1.8,0.2,2.6,0.5l10.6,4.4c7.2,3,10.7,11.3,7.7,18.5l-4.8,11.5c-1.4,3.5-4.2,6.2-7.7,7.7c-1.7,0.7-3.6,1.1-5.4,1.1
				c-1.9,0-3.7-0.4-5.4-1.1l-5.7-2.3c-3.9,5-8.4,9.5-13.3,13.3l2.3,5.6c1.4,3.5,1.4,7.3,0,10.9c-1.5,3.5-4.2,6.2-7.7,7.7l-11.5,4.8
				C159.5,230.6,157.7,231,155.8,231z"/>
			<path class="st1" d="M106.3,52.2c1.6,0,3.1,0.3,4.6,0.9c3,1.2,5.3,3.6,6.5,6.5l4.4,10.6c1,2.4-0.1,5.1-2.5,6.1
				c-0.6,0.2-1.2,0.4-1.8,0.4c-1.8,0-3.6-1.1-4.3-2.9l-4.4-10.6c-0.3-0.7-0.8-1.2-1.5-1.5c-0.4-0.1-0.7-0.2-1.1-0.2s-0.7,0.1-1,0.2
				l-11.5,4.8c-0.7,0.3-1.2,0.8-1.5,1.5s-0.3,1.5,0,2.1l4.4,10.6c0.8,2,0.1,4.4-1.7,5.6c-7.2,4.8-13.2,10.8-17.9,17.9
				c-0.9,1.3-2.3,2-3.8,2c-0.6,0-1.2-0.1-1.8-0.4l-10.6-4.4c-0.3-0.1-0.7-0.2-1-0.2c-1.1,0-2.1,0.6-2.6,1.7l-4.8,11.5
				c-0.6,1.4,0.1,3.1,1.5,3.6l10.6,4.4c2,0.8,3.2,3.1,2.8,5.2c-1.6,8.4-1.7,16.9,0,25.3c0.4,2.2-0.7,4.4-2.8,5.2l-10.6,4.4
				c-0.7,0.3-1.2,0.8-1.5,1.5s-0.3,1.5,0,2.1l4.8,11.5c0.3,0.7,0.8,1.2,1.5,1.5c0.4,0.1,0.7,0.2,1.1,0.2c0.4,0,0.7-0.1,1.1-0.2
				l10.6-4.4c0.6-0.2,1.2-0.3,1.7-0.3c1.5,0,3,0.8,3.9,2.1c4.8,7.2,10.8,13.2,17.9,17.9c1.8,1.2,2.5,3.6,1.7,5.6L92,210.9
				c-0.3,0.7-0.3,1.5,0,2.1c0.3,0.7,0.8,1.2,1.5,1.5l11.5,4.8c0.3,0.1,0.7,0.2,1,0.2c1.1,0,2.1-0.6,2.6-1.7l4.4-10.6
				c0.7-1.7,2.5-2.9,4.3-2.9c0.3,0,0.6,0,0.9,0.1c4.2,0.8,8.5,1.3,12.7,1.3c4.2,0,8.4-0.4,12.6-1.3c0.3-0.1,0.7-0.1,1-0.1
				c1.8,0,3.5,1.1,4.2,2.9l4.4,10.6c0.3,0.7,0.8,1.2,1.5,1.5c0.4,0.1,0.7,0.2,1.1,0.2s0.7-0.1,1-0.2l11.5-4.8
				c1.4-0.6,2.1-2.2,1.5-3.6l-4.4-10.6c-0.8-2-0.1-4.4,1.7-5.6c7.2-4.8,13.2-10.8,17.9-17.9c0.9-1.3,2.3-2,3.8-2
				c0.6,0,1.2,0.1,1.8,0.4l10.6,4.4c0.4,0.1,0.7,0.2,1.1,0.2c0.4,0,0.7-0.1,1-0.2c0.7-0.3,1.2-0.8,1.5-1.5l4.8-11.5
				c0.6-1.4-0.1-3.1-1.5-3.6l-10.6-4.4c-2.4-1-3.5-3.7-2.5-6.1c0.7-1.8,2.5-2.9,4.3-2.9c0.6,0,1.2,0.1,1.8,0.4l10.6,4.4
				c6.2,2.5,9.1,9.6,6.5,15.8l-4.8,11.5c-1.2,3-3.6,5.3-6.5,6.5c-1.5,0.6-3,0.9-4.6,0.9s-3.1-0.3-4.6-0.9l-7.2-3
				c-4.3,5.8-9.4,10.9-15.2,15.2l3,7.2c2.5,6.1-0.4,13.2-6.5,15.8l-11.5,4.8c-1.5,0.6-3,0.9-4.6,0.9s-3.1-0.3-4.6-0.9
				c-3-1.2-5.3-3.6-6.5-6.5l-3-7.2c-3.6,0.5-7.1,0.8-10.7,0.8c-3.6,0-7.2-0.3-10.7-0.8l-3,7.2c-1.9,4.7-6.4,7.5-11.2,7.5
				c-1.5,0-3.1-0.3-4.6-0.9L90,223.1c-3-1.2-5.3-3.6-6.5-6.5c-1.2-3-1.2-6.3,0-9.2l3-7.2c-5.8-4.3-10.9-9.4-15.2-15.2l-7.2,3
				c-1.5,0.6-3,0.9-4.6,0.9s-3.1-0.3-4.6-0.9c-3-1.2-5.3-3.6-6.5-6.5L43.6,170c-1.2-3-1.2-6.3,0-9.2c1.2-3,3.6-5.3,6.5-6.5l7.2-3
				c-1-7.1-1-14.3,0-21.4l-7.2-3c-6.2-2.5-9.1-9.6-6.5-15.8l4.8-11.5c1.9-4.7,6.4-7.5,11.2-7.5c1.5,0,3.1,0.3,4.6,0.9l7.2,3
				c4.3-5.8,9.4-10.9,15.2-15.2l-3-7.2c-1.2-3-1.2-6.3,0-9.2c1.2-3,3.6-5.3,6.5-6.5l11.5-4.8C103.1,52.6,104.7,52.2,106.3,52.2
				 M106.3,48c-2.1,0-4.3,0.4-6.2,1.3L88.6,54c-4,1.7-7.2,4.8-8.8,8.8c-1.7,4-1.7,8.4,0,12.5l1.7,4.2c-4.1,3.3-7.9,7.2-11.4,11.4
				l-4.2-1.7c-2-0.8-4.1-1.2-6.2-1.2c-6.6,0-12.5,4-15.1,10.1l-4.8,11.5c-3.4,8.3,0.5,17.9,8.8,21.3l4.2,1.7
				c-0.5,5.3-0.5,10.7,0,16.1l-4.2,1.7c-4,1.7-7.2,4.8-8.8,8.8c-1.7,4-1.7,8.4,0,12.5l4.8,11.5c1.7,4,4.8,7.2,8.8,8.8
				c2,0.8,4.1,1.2,6.2,1.2s4.2-0.4,6.2-1.2l4.2-1.7c3.3,4.1,7.2,7.9,11.4,11.4l-1.7,4.2c-1.7,4-1.7,8.4,0,12.5
				c1.7,4,4.8,7.2,8.8,8.8L100,232c2,0.8,4.1,1.2,6.2,1.2c6.6,0,12.5-4,15.1-10.1l1.7-4.2c2.7,0.3,5.4,0.4,8,0.4
				c2.7,0,5.4-0.1,8-0.4l1.7,4.2c1.7,4,4.8,7.2,8.8,8.8c2,0.8,4.1,1.2,6.2,1.2c2.1,0,4.2-0.4,6.2-1.2l11.5-4.8
				c4-1.7,7.2-4.8,8.8-8.8c1.7-4,1.7-8.5,0-12.5l-1.7-4.2c4.1-3.3,7.9-7.2,11.4-11.4l4.2,1.7c2,0.8,4.1,1.2,6.2,1.2
				c2.1,0,4.2-0.4,6.2-1.2c4-1.7,7.2-4.8,8.8-8.8l4.8-11.5c1.7-4,1.7-8.5,0-12.5s-4.8-7.2-8.8-8.8l-10.6-4.4
				c-1.1-0.5-2.2-0.7-3.4-0.7c-3.6,0-6.8,2.2-8.2,5.5c-0.9,2.2-0.9,4.6,0,6.8s2.6,3.9,4.8,4.8l9.2,3.8l-3.7,8.8l-9.2-3.8
				c-1.1-0.5-2.2-0.7-3.4-0.7c-3,0-5.7,1.5-7.4,3.9c-4.4,6.7-10.1,12.3-16.7,16.7c-3.5,2.4-4.9,6.9-3.3,10.8l3.8,9.2l-8.8,3.6
				l-3.8-9.2c-1.4-3.3-4.6-5.5-8.2-5.5c-0.6,0-1.2,0.1-1.9,0.2c-3.8,0.8-7.7,1.2-11.7,1.2s-8-0.4-11.9-1.2c-0.6-0.1-1.1-0.2-1.7-0.2
				c-3.6,0-6.9,2.1-8.2,5.5l-3.8,9.3l-8.8-3.7l3.8-9.2c1.6-3.9,0.2-8.5-3.3-10.8c-6.7-4.4-12.3-10.1-16.7-16.7c-1.7-2.5-4.4-4-7.4-4
				c-1.2,0-2.3,0.2-3.4,0.7l-9.2,3.8l-3.6-8.8l9.2-3.8c3.9-1.6,6.1-5.7,5.3-9.9c-1.6-7.8-1.6-15.7,0-23.7c0.8-4.1-1.4-8.3-5.3-9.9
				l-9.3-3.8l3.7-8.8l9.2,3.8c1.1,0.5,2.2,0.7,3.4,0.7c3,0,5.7-1.5,7.4-3.9C84.6,100,90.3,94.4,96.9,90c3.5-2.4,4.9-6.9,3.3-10.8
				L96.4,70l8.8-3.6l3.8,9.2c1.4,3.3,4.6,5.5,8.2,5.5c1.2,0,2.3-0.2,3.4-0.7c2.2-0.9,3.9-2.6,4.8-4.8c0.9-2.2,0.9-4.6,0-6.8
				L121,58.2c-1.7-4-4.8-7.2-8.8-8.8C110.4,48.4,108.3,48,106.3,48L106.3,48z"/>
		</g>
		<g>
			<path class="st1" d="M131,180.5c-21.9,0-39.8-17.8-40-39.7c-0.1-10.7,4-20.7,11.5-28.4c7.5-7.6,17.5-11.9,28.2-11.9
				c3.8,0,6.8,3,6.8,6.7c0,1.8-0.7,3.5-1.9,4.8c-1.3,1.3-3,2-4.8,2c-14.6,0.1-26.3,12.1-26.3,26.7c0.1,14.5,12,26.3,26.4,26.3h0.2
				c7.1,0,13.7-2.8,18.6-7.9c5-5,7.7-11.7,7.6-18.8c0-1.8,0.7-3.5,1.9-4.8c1.3-1.3,3-2,4.8-2c3.8,0,6.8,3,6.8,6.7
				c0.1,10.7-4,20.8-11.5,28.4c-7.5,7.6-17.5,11.8-28.2,11.9l0,0L131,180.5L131,180.5z"/>
			<path class="st1" d="M130.8,102.7c2.5,0,4.7,2.1,4.7,4.6c0,2.6-2,4.7-4.6,4.7c-15.8,0.1-28.5,13-28.4,28.8
				c0.1,15.7,12.9,28.4,28.6,28.4c0,0,0.1,0,0.2,0c7.6,0,14.8-3.1,20.1-8.5c5.4-5.5,8.3-12.7,8.2-20.3c0-2.6,2-4.7,4.6-4.7l0,0
				c2.5,0,4.7,2.1,4.7,4.6c0,10.1-3.8,19.7-10.9,26.9c-7.1,7.2-16.6,11.2-26.7,11.3c-0.1,0-0.2,0-0.3,0c-20.8,0-37.7-16.8-37.9-37.6
				C93,119.9,109.8,102.8,130.8,102.7L130.8,102.7 M130.8,98.4L130.8,98.4c-11.3,0.1-21.9,4.5-29.8,12.6c-7.9,8-12.2,18.6-12.1,29.9
				c0.2,23,19,41.8,42.1,41.8h0.3c11.3-0.1,21.9-4.6,29.7-12.6c7.9-8,12.2-18.6,12.1-29.9c0-4.9-4-8.8-8.9-8.8
				c-2.4,0-4.7,0.9-6.4,2.6c-1.7,1.7-2.6,4-2.5,6.3c0,6.5-2.5,12.6-7,17.3c-4.6,4.6-10.6,7.2-17.1,7.3H131
				c-13.3,0-24.2-10.8-24.3-24.2c-0.1-13.4,10.8-24.4,24.2-24.5c2.4,0,4.6-0.9,6.3-2.6s2.6-3.9,2.5-6.3
				C139.7,102.4,135.7,98.4,130.8,98.4L130.8,98.4z"/>
		</g>
		<path class="st0" d="M209.6,0.4h-9.1c-5.6,0-10.1,4.5-10.1,10.1v4.7c-4.5,1.2-8.8,3-12.9,5.4l-3.3-3.3c-1.9-1.9-4.4-3-7.1-3
			s-5.2,1-7.1,3l-6.4,6.4c-1.9,1.9-3,4.4-3,7.1c0,2.7,1,5.2,3,7.1l3.3,3.3c-2.4,4-4.1,8.4-5.4,12.9H147c-5.6,0-10.1,4.5-10.1,10.1
			v9.1c0,5.6,4.5,10.1,10.1,10.1h4.7c1.2,4.5,3,8.8,5.4,12.9l-3.3,3.3c-1.9,1.9-3,4.4-3,7.1s1,5.2,3,7.1l6.4,6.4
			c1.9,1.9,4.4,3,7.1,3s5.2-1,7.1-3l3.3-3.3c4,2.4,8.4,4.1,12.9,5.4v4.7c0,5.6,4.5,10.1,10.1,10.1h9.1c5.6,0,10.1-4.5,10.1-10.1
			v-4.7c4.5-1.2,8.8-3,12.9-5.4l3.3,3.3c1.9,1.9,4.4,3,7.1,3s5.2-1,7.1-3l6.4-6.4c3.9-3.9,3.9-10.3,0-14.2l-3.3-3.3
			c2.4-4,4.1-8.4,5.4-12.9h4.7c5.6,0,10.1-4.5,10.1-10.1v-9.1c0-5.6-4.5-10.1-10.1-10.1h-4.7c-1.2-4.5-3-8.8-5.4-12.9l3.3-3.3
			c3.9-3.9,3.9-10.3,0-14.2l-6.4-6.4c-1.9-1.9-4.4-3-7.1-3s-5.2,1-7.1,3l-3.3,3.3c-4-2.4-8.4-4.1-12.9-5.4v-4.7
			C219.7,4.9,215.1,0.4,209.6,0.4z M230.7,30.2c0.8,0.5,1.7,0.8,2.6,0.8c1.2,0,2.4-0.5,3.3-1.4l5.9-5.9c0.2-0.2,0.4-0.2,0.5-0.2
			s0.3,0,0.5,0.2l6.4,6.4c0.3,0.3,0.3,0.8,0,1L244,37c-1.6,1.6-1.8,4-0.6,5.9c3.4,5,5.7,10.6,6.9,16.6c0.4,2.2,2.4,3.8,4.6,3.8h8.3
			c0.4,0,0.8,0.3,0.8,0.8v9.1c0,0.4-0.3,0.8-0.8,0.8h-8.3c-2.2,0-4.1,1.6-4.6,3.8c-1.2,5.9-3.5,11.5-6.9,16.6
			c-1.2,1.8-1,4.3,0.6,5.9l5.9,5.9c0.3,0.3,0.3,0.8,0,1l-6.4,6.4c-0.2,0.2-0.4,0.2-0.5,0.2s-0.3,0-0.5-0.2l-5.9-6
			c-1.6-1.6-4-1.8-5.9-0.6c-5,3.4-10.6,5.7-16.6,6.9c-2.2,0.4-3.8,2.4-3.8,4.6v8.3c0,0.4-0.3,0.8-0.8,0.8h-9.1
			c-0.4,0-0.8-0.3-0.8-0.8v-8.5c0-2.2-1.6-4.1-3.8-4.6c-5.9-1.2-11.5-3.5-16.6-6.9c-1.8-1.2-4.3-1-5.9,0.6l-5.9,5.9
			c-0.2,0.2-0.4,0.2-0.5,0.2s-0.3,0-0.5-0.2l-6.4-6.4c-0.2-0.2-0.2-0.4-0.2-0.5s0-0.3,0.2-0.5l5.9-5.9c1.6-1.6,1.8-4,0.6-5.9
			c-3.4-5-5.7-10.6-6.9-16.6c-0.4-2.2-2.4-3.8-4.6-3.8h-8.3c-0.4,0-0.8-0.3-0.8-0.8v-9.1c0-0.4,0.3-0.8,0.8-0.8h8.3
			c2.2,0,4.1-1.6,4.6-3.8c1.2-5.9,3.5-11.5,6.9-16.6c1.2-1.8,1-4.3-0.6-5.9l-5.9-5.9c-0.2-0.2-0.2-0.4-0.2-0.5s0-0.3,0.2-0.5
			l6.4-6.4c0.2-0.2,0.4-0.2,0.5-0.2s0.3,0,0.5,0.2l5.9,5.9c1.6,1.6,4,1.8,5.9,0.6c5-3.4,10.6-5.7,16.6-6.9c2.2-0.4,3.8-2.4,3.8-4.6
			v-8.2c0-0.4,0.3-0.8,0.8-0.8h9.1c0.4,0,0.8,0.3,0.8,0.8v8.3c0,2.2,1.6,4.1,3.8,4.6C220,24.5,225.6,26.8,230.7,30.2z"/>
		<path class="st0" d="M176.3,68.5c0,15.9,13,28.9,28.9,28.9s28.9-13,28.9-28.9s-13-28.9-28.9-28.9S176.3,52.6,176.3,68.5z
			 M223.4,68.5c0,10.1-8.2,18.4-18.4,18.4s-18.4-8.2-18.4-18.4s8.2-18.4,18.4-18.4S223.4,58.4,223.4,68.5z"/>
	</g>
</g>
</svg>
