<?xml version="1.0" encoding="utf-8"?>
<!-- Generator: Adobe Illustrator 23.0.6, SVG Export Plug-In . SVG Version: 6.00 Build 0)  -->
<svg version="1.1" id="Capa_1" xmlns="http://www.w3.org/2000/svg" xmlns:xlink="http://www.w3.org/1999/xlink" x="0px" y="0px"
	 viewBox="0 0 316 218.7" style="enable-background:new 0 0 316 218.7;" xml:space="preserve">
<style type="text/css">
	.st0{fill:#4E4E50;}
	.st1{fill:#7F7F81;}
</style>
<g>
	<g>
		<path class="st0" d="M270.3,133.8c0-9.7-7.9-17.5-17.5-17.5h-97.7c-9.7,0-17.5,7.9-17.5,17.5c0,9.7,7.9,17.5,17.5,17.5h97.7
			C262.5,151.4,270.3,143.5,270.3,133.8z"/>
	</g>
</g>
<g>
	<g>
		<path class="st0" d="M232.8,185l33.9-39.8c5.6-6.6,5.6-16.2,0-22.8l-33.9-39.8c-6.3-7.4-17.4-8.3-24.7-2
			c-4.1,3.5-6.2,8.4-6.2,13.4c0,4,1.4,8.1,4.2,11.4l24.2,28.4l-24.2,28.4c-6.3,7.4-5.4,18.4,2,24.7S226.5,192.4,232.8,185z"/>
	</g>
</g>
<g>
	<g>
		<path class="st1" d="M45.7,59c0,9.7,7.9,17.5,17.5,17.5h97.7c9.7,0,17.5-7.9,17.5-17.5c0-9.7-7.9-17.5-17.5-17.5H63.2
			C53.5,41.4,45.7,49.3,45.7,59z"/>
	</g>
</g>
<g>
	<g>
		<path class="st1" d="M83.2,7.8L49.3,47.6c-5.6,6.6-5.6,16.2,0,22.8l33.9,39.7c6.3,7.4,17.4,8.3,24.7,2c4.1-3.5,6.2-8.4,6.2-13.4
			c0-4-1.4-8.1-4.2-11.4L85.7,59l24.2-28.4c6.3-7.4,5.4-18.4-2-24.7C100.6-0.4,89.5,0.4,83.2,7.8z"/>
	</g>
</g>
</svg>
