<?xml version="1.0" encoding="utf-8"?>
<!-- Generator: Adobe Illustrator 23.0.6, SVG Export Plug-In . SVG Version: 6.00 Build 0)  -->
<svg version="1.1" id="Capa_1" xmlns="http://www.w3.org/2000/svg" xmlns:xlink="http://www.w3.org/1999/xlink" x="0px" y="0px"
	 viewBox="0 0 316 241.9" style="enable-background:new 0 0 316 241.9;" xml:space="preserve">
<style type="text/css">
	.st0{fill:#4E4E50;}
	.st1{fill:#7F7F81;}
</style>
<path class="st0" d="M211.8,146.2l-39.8-34c-6.6-5.6-16.2-5.6-22.8,0l-39.8,33.9c-7.4,6.3-8.3,17.4-2,24.7c3.5,4.1,8.4,6.2,13.4,6.2
	c4,0,8.1-1.4,11.4-4.2l10.9-9.3v60.3c0,9.7,7.9,17.5,17.5,17.5c9.7,0,17.5-7.9,17.5-17.5v-60.3l10.9,9.3c7.4,6.3,18.4,5.4,24.7-2
	C220,163.5,219.2,152.5,211.8,146.2z"/>
<path class="st1" d="M278.8,106.4c0-37.4-30-67.9-67.4-69.1c-17.9-22.5-45.5-37-76.6-37c-51.9,0-94.2,40.2-97.3,90.9
	C15.2,102.7,0,125.8,0,152.5c0,38.2,31.2,69.2,69.7,69.2h18.6c7.7,0,13.9-6.2,13.9-13.8s-6.2-13.8-13.9-13.8H69.7
	c-23.1,0-41.8-18.6-41.8-41.5c0-15.5,8.6-29.6,22.5-36.8l13.9-7.2l1-15.6c2.2-36.4,32.7-64.9,69.5-64.9c21.4,0,41.4,9.6,54.7,26.5
	l8,10.1l13,0.4c22.7,0.7,40.4,18.9,40.4,41.4v18.3l17.2,7.1c12.2,5,20,16.7,20,29.8c0,17.8-14.6,32.3-32.5,32.3H237
	c-7.7,0-13.9,6.2-13.9,13.8s6.2,13.8,13.9,13.8h18.6c33.4,0,60.4-26.8,60.4-60C316,136.8,300.7,115.4,278.8,106.4z"/>
</svg>
