<?xml version="1.0" encoding="utf-8"?>
<!-- Generator: Adobe Illustrator 23.0.1, SVG Export Plug-In . SVG Version: 6.00 Build 0)  -->
<svg version="1.1" id="Layer_1" xmlns="http://www.w3.org/2000/svg" xmlns:xlink="http://www.w3.org/1999/xlink" x="0px" y="0px"
	 viewBox="0 0 21.2 32" style="enable-background:new 0 0 21.2 32;" xml:space="preserve">
<style type="text/css">
	.st0{fill:#B8BCC0;}
	.st1{fill:#77828C;}
	.st2{fill:#FFFFFF;}
	.st3{fill:#788994;}
</style>
<g>
	<circle class="st0" cx="10.6" cy="10.6" r="9.6"/>
	<path class="st1" d="M10.6,2c4.7,0,8.6,3.9,8.6,8.6s-3.9,8.6-8.6,8.6S2,15.3,2,10.6S5.9,2,10.6,2 M10.6,0C4.7,0,0,4.7,0,10.6
		s4.7,10.6,10.6,10.6s10.6-4.7,10.6-10.6S16.5,0,10.6,0L10.6,0z"/>
</g>
<g>
	<path class="st0" d="M10.6,31C5.3,31,1,26.7,1,21.4s4.3-9.6,9.6-9.6s9.6,4.3,9.6,9.6S15.9,31,10.6,31z"/>
	<path class="st1" d="M10.6,12.8c4.7,0,8.6,3.9,8.6,8.6S15.3,30,10.6,30S2,26.1,2,21.4S5.9,12.8,10.6,12.8 M10.6,10.8
		C4.7,10.8,0,15.5,0,21.4S4.7,32,10.6,32s10.6-4.7,10.6-10.6S16.5,10.8,10.6,10.8L10.6,10.8z"/>
</g>
<g>
	<path class="st2" d="M10.6,20.2c-3.2,0-6.2-1.6-7.9-4.2c1.8-2.6,4.8-4.2,7.9-4.2s6.2,1.6,7.9,4.2C16.8,18.6,13.8,20.2,10.6,20.2z"
		/>
	<g>
		<path class="st3" d="M10.6,12.8c2.6,0,5.1,1.2,6.7,3.2c-1.6,2-4.1,3.2-6.7,3.2S5.5,18,3.9,16C5.5,14,8,12.8,10.6,12.8 M10.6,10.8
			c-3.9,0-7.3,2.1-9.1,5.2c1.8,3.1,5.2,5.2,9.1,5.2s7.3-2.1,9.1-5.2C17.9,12.9,14.5,10.8,10.6,10.8L10.6,10.8z"/>
	</g>
</g>
</svg>
