<?xml version="1.0" encoding="utf-8"?>
<!-- Generator: Adobe Illustrator 23.0.1, SVG Export Plug-In . SVG Version: 6.00 Build 0)  -->
<svg version="1.1" id="Layer_1" xmlns="http://www.w3.org/2000/svg" xmlns:xlink="http://www.w3.org/1999/xlink" x="0px" y="0px"
	 viewBox="0 0 8 32" style="enable-background:new 0 0 8 32;" xml:space="preserve">
<style type="text/css">
	.st0{fill:#2C3E50;}
</style>
<path class="st0" d="M4,24c2.2,0,4,1.8,4,4s-1.8,4-4,4s-4-1.8-4-4S1.8,24,4,24 M4,12c2.2,0,4,1.8,4,4s-1.8,4-4,4s-4-1.8-4-4
	S1.8,12,4,12 M4,0c2.2,0,4,1.8,4,4S6.2,8,4,8S0,6.2,0,4S1.8,0,4,0z"/>
</svg>
