<?xml version="1.0" encoding="utf-8"?>
<!-- Generator: Adobe Illustrator 23.0.1, SVG Export Plug-In . SVG Version: 6.00 Build 0)  -->
<svg version="1.1" id="Layer_1" xmlns="http://www.w3.org/2000/svg" xmlns:xlink="http://www.w3.org/1999/xlink" x="0px" y="0px"
	 viewBox="0 0 21.2 32" style="enable-background:new 0 0 21.2 32;" xml:space="preserve">
<style type="text/css">
	.st0{fill:#B8BCC0;}
	.st1{fill:#77828C;}
</style>
<g>
	<ellipse class="st0" cx="10.7" cy="16" rx="7.3" ry="5.2"/>
</g>
<g>
	<g>
		<path class="st1" d="M10.6,2c4.7,0,8.6,3.9,8.6,8.6s-3.9,8.6-8.6,8.6S2,15.3,2,10.6S5.9,2,10.6,2 M10.6,0C4.7,0,0,4.7,0,10.6
			s4.7,10.6,10.6,10.6s10.6-4.7,10.6-10.6S16.5,0,10.6,0L10.6,0z"/>
	</g>
</g>
<g>
	<g>
		<path class="st1" d="M10.6,12.8c4.7,0,8.6,3.9,8.6,8.6S15.3,30,10.6,30S2,26.1,2,21.4S5.9,12.8,10.6,12.8 M10.6,10.8
			C4.7,10.8,0,15.5,0,21.4S4.7,32,10.6,32s10.6-4.7,10.6-10.6S16.5,10.8,10.6,10.8L10.6,10.8z"/>
	</g>
</g>
</svg>
