<svg width="8" height="32" viewBox="0 0 8 32" fill="none" xmlns="http://www.w3.org/2000/svg">
<g clip-path="url(#clip0_2842_45676)">
<path d="M4 24C6.2 24 8 25.8 8 28C8 30.2 6.2 32 4 32C1.8 32 0 30.2 0 28C0 25.8 1.8 24 4 24ZM4 12C6.2 12 8 13.8 8 16C8 18.2 6.2 20 4 20C1.8 20 0 18.2 0 16C0 13.8 1.8 12 4 12ZM4 0C6.2 0 8 1.8 8 4C8 6.2 6.2 8 4 8C1.8 8 0 6.2 0 4C0 1.8 1.8 0 4 0Z" fill="white"/>
</g>
<defs>
<clipPath id="clip0_2842_45676">
<rect width="8" height="32" fill="white"/>
</clipPath>
</defs>
</svg>
