<?xml version="1.0" encoding="utf-8"?>
<!-- Generator: Adobe Illustrator 23.0.1, SVG Export Plug-In . SVG Version: 6.00 Build 0)  -->
<svg version="1.1" id="Layer_1" xmlns="http://www.w3.org/2000/svg" xmlns:xlink="http://www.w3.org/1999/xlink" x="0px" y="0px"
	 viewBox="0 0 24 24" style="enable-background:new 0 0 24 24;" xml:space="preserve">
<style type="text/css">
	.st0{fill:#77828C;}
	.st1{enable-background:new    ;}
</style>
<g id="Slices">
</g>
<g id="Icons">
	<g id="Relations">
	</g>
	<g id="DeliveryItem">
	</g>
	<g id="Expand">
	</g>
	<g id="Fridge">
	</g>
	<g id="Promotion_1_">
	</g>
	<g id="Day">
		<g>
			<path class="st0" d="M20.3,3H19v1.5c0,1-1,1.8-2,1.8s-2-0.8-2-1.8V3H8v1.5c0,1-1,1.8-2,1.8S4,5.5,4,4.5V3H2.6C1.1,3,0,4,0,5.4
				v15.9C0,22.8,1.2,24,2.7,24h17.7c1.5,0,2.7-1.2,2.7-2.7V5.4C23,4,21.8,3,20.3,3z M21,21c0,0.5-0.5,1-1,1H3c-0.5,0-1-0.5-1-1V9h19
				V21z"/>
			<path class="st0" d="M16.9,5.1h0.3c0.5,0,0.8-0.4,0.8-0.9V1.9C18,1.4,17.7,1,17.2,1h-0.3C16.4,1,16,1.4,16,1.9v2.4
				C16,4.7,16.4,5.1,16.9,5.1z"/>
			<path class="st0" d="M5.9,5.1h0.3C6.7,5.2,7,4.7,7,4.3V1.9C7,1.4,6.7,1,6.2,1H5.9C5.4,1,5,1.4,5,1.9v2.4C5,4.7,5.4,5.1,5.9,5.1z"
				/>
		</g>
		<g class="st1">
			<path class="st0" d="M15.2,19.9H8.9v-1.7h2v-5h-2v-1.5c0.3,0,0.6,0,0.9-0.1c0.3,0,0.5-0.1,0.7-0.2c0.2-0.1,0.4-0.2,0.5-0.4
				s0.2-0.4,0.2-0.6h2.1v7.8h1.9C15.2,18.2,15.2,19.9,15.2,19.9z"/>
		</g>
	</g>
	<g id="Contract">
	</g>
	<g id="Questionaire">
	</g>
	<g id="Open_Hours">
	</g>
	<g id="Invoice">
	</g>
	<g id="Ebene_23">
	</g>
	<g id="Back">
	</g>
	<g id="Order">
	</g>
	<g id="List">
	</g>
	<g id="Foward">
	</g>
	<g id="Attachment">
	</g>
	<g id="Focus">
	</g>
</g>
</svg>
