<?xml version="1.0" encoding="utf-8"?>
<!-- Generator: Adobe Illustrator 23.0.1, SVG Export Plug-In . SVG Version: 6.00 Build 0)  -->
<svg version="1.1" id="Capa_1" xmlns="http://www.w3.org/2000/svg" xmlns:xlink="http://www.w3.org/1999/xlink" x="0px" y="0px"
	 viewBox="0 0 24 24" style="enable-background:new 0 0 24 24;" xml:space="preserve">
<style type="text/css">
	.st0{fill:#77828C;}
</style>
<g transform="matrix(1.25 0 0 -1.25 0 45)">
	<g>
		<g>
			<path class="st0" d="M11.7,26.4l7.1,7.1c0.6,0.6,0.6,1.5,0,2.1s-1.5,0.6-2.1,0l-7.1-7.1l-7.1,7.1c-0.6,0.6-1.5,0.6-2.1,0
				s-0.6-1.5,0-2.1l7.1-7.1l-7.1-7.1c-0.6-0.6-0.6-1.5,0-2.1c0.3-0.3,0.7-0.4,1-0.4c0.4,0,0.7,0.1,1,0.4l7.1,7.1l7.1-7.1
				c0.3-0.3,0.7-0.4,1-0.4c0.4,0,0.7,0.1,1,0.4c0.6,0.6,0.6,1.5,0,2.1L11.7,26.4z"/>
		</g>
	</g>
</g>
</svg>
