<?xml version="1.0" encoding="utf-8"?>
<!-- Generator: Adobe Illustrator 23.0.1, SVG Export Plug-In . SVG Version: 6.00 Build 0)  -->
<svg version="1.1" id="Layer_1" xmlns="http://www.w3.org/2000/svg" xmlns:xlink="http://www.w3.org/1999/xlink" x="0px" y="0px"
	 viewBox="0 0 24 24" style="enable-background:new 0 0 24 24;" xml:space="preserve">
<style type="text/css">
	.st0{fill:#77828C;}
</style>
<g id="Slices">
</g>
<g id="Icons">
	<g id="Relations">
	</g>
	<g id="DeliveryItem">
	</g>
	<g id="Expand">
	</g>
	<g id="Fridge">
	</g>
	<g id="Promotion_1_">
	</g>
	<g id="Day">
	</g>
	<g id="Contract">
	</g>
	<g id="Questionaire">
	</g>
	<g id="Open_Hours">
		<path class="st0" d="M14.9,14.9l-2-2.3C13,12.4,13,12.2,13,12c0-0.6-0.3-1-0.8-1.3L12,6.9c0-0.2-0.2-0.5-0.5-0.5
			c-0.4,0-0.5,0.3-0.5,0.5l-0.2,3.8C10.3,11,10,11.4,10,12c0,0.8,0.7,1.5,1.5,1.5l2.6,2.3c0.1,0.1,0.5,0.2,0.8-0.1
			C15.2,15.4,15,15,14.9,14.9z"/>
		<path class="st0" d="M12,1C5.9,1,1,5.9,1,12s4.9,11,11,11s11-4.9,11-11S18.1,1,12,1z M13.1,20.8V20c0-0.6-0.5-1.1-1.1-1.1
			s-1.1,0.5-1.1,1.1v0.8c-4-0.5-7.1-3.7-7.7-7.7H4c0.6,0,1.1-0.5,1.1-1.1S4.6,10.9,4,10.9H3.2c0.5-4,3.7-7.1,7.7-7.7V4
			c0,0.6,0.5,1.1,1.1,1.1s1.1-0.5,1.1-1.1V3.2c4,0.5,7.1,3.7,7.7,7.7H20c-0.6,0-1.1,0.5-1.1,1.1s0.5,1.1,1.1,1.1h0.8
			C20.3,17.1,17.1,20.3,13.1,20.8z"/>
	</g>
	<g id="Invoice">
	</g>
	<g id="Ebene_23">
	</g>
	<g id="Back">
	</g>
	<g id="Order">
	</g>
	<g id="List">
	</g>
	<g id="Foward">
	</g>
	<g id="Attachment">
	</g>
	<g id="Focus">
	</g>
</g>
</svg>
