<?xml version="1.0" encoding="utf-8"?>
<!-- Generator: Adobe Illustrator 23.0.1, SVG Export Plug-In . SVG Version: 6.00 Build 0)  -->
<svg version="1.1" id="Layer_1" xmlns="http://www.w3.org/2000/svg" xmlns:xlink="http://www.w3.org/1999/xlink" x="0px" y="0px"
	 viewBox="0 0 48 48" style="enable-background:new 0 0 48 48;" xml:space="preserve">
<style type="text/css">
	.st0{fill:#2C3E50;}
</style>
<g>
	<path class="st0" d="M24,2c12.1,0,22,9.9,22,22s-9.9,22-22,22S2,36.1,2,24S11.9,2,24,2 M24,0C10.7,0,0,10.7,0,24s10.7,24,24,24
		s24-10.7,24-24S37.3,0,24,0L24,0z"/>
</g>
<g id="Slices">
</g>
<g>
	<g>
		<path class="st0" d="M17.1,30.8c0.3-0.3,0.3-0.7,0.1-1.2C15.9,28,15,26,15,23.8c0-4.9,4-8.8,8.8-8.8c0.1,0,0.1,0,0.3,0l0.1-2v-0.1
			l0.7-2.2c-0.3,0-0.7,0-1,0c-7.5,0-13.4,5.9-13.4,13.2c0,3.3,1.3,6.3,3.3,8.8c0.3,0.3,0.9,0.3,1.2,0L17.1,30.8z"/>
		<path class="st0" d="M32.9,15.2l-2.2,2c-0.3,0.3-0.3,0.7-0.1,1.2c1.3,1.6,2.2,3.6,2.2,5.8c0,4.6-3.5,8.3-7.9,8.8
			c-0.4,0-0.7,0.3-0.7,0.7v0.7c0,0.1,0,0.1,0,0.3l-1,2.7c0.3,0,0.6,0,0.9,0c7.3,0,13.4-6,13.4-13.4c0-3.3-1.3-6.3-3.3-8.8
			C33.8,14.9,33.2,14.9,32.9,15.2z"/>
	</g>
	<path class="st0" d="M29.5,12.2l-5.6-3.5c-0.6-0.3-1.3,0-1.3,0.7v6.9c0,0.6,0.7,1,1.3,0.7l5.6-3.5C30,13.4,30,12.5,29.5,12.2z"/>
	<path class="st0" d="M18.4,35.8l5.5,3.5c0.6,0.3,1.3,0,1.3-0.7v-6.9c0-0.6-0.7-1-1.3-0.7l-5.5,3.5C17.8,34.8,17.8,35.5,18.4,35.8z"
		/>
</g>
</svg>
