<?xml version="1.0" encoding="UTF-8"?>
<svg width="31px" height="31px" viewBox="0 0 31 31" version="1.1" xmlns="http://www.w3.org/2000/svg" xmlns:xlink="http://www.w3.org/1999/xlink">
    <title>IconSearch</title>
    <g id="Layout" stroke="none" stroke-width="1" fill="none" fill-rule="evenodd">
        <g id="FullScreen_Wizard-30-Copy" transform="translate(-65.000000, -248.000000)" fill="#CA953A" fill-rule="nonzero">
            <g id="Flyout" transform="translate(0.000000, 225.000000)">
                <g id="Search-Area" transform="translate(32.000000, 0.000000)">
                    <g id="Search-Bar" transform="translate(0.000000, 6.000000)">
                        <g id="IconSearch" transform="translate(33.000000, 17.000000)">
                            <polygon id="Rectangle" transform="translate(10.070221, 21.531695) rotate(-45.000000) translate(-10.070221, -21.531695) " points="7.32602985 20.235109 12.8633917 20.1344297 12.8144126 22.8282814 7.27705073 22.9289607"></polygon>
                            <path d="M4.83108108,30.3310811 C3.93918919,31.222973 2.60135135,31.222973 1.70945946,30.3310811 L0.668918919,29.2905405 C-0.222972973,28.3986486 -0.222972973,27.0608108 0.668918919,26.1689189 L6.16891892,20.6689189 C7.06081081,19.777027 8.39864865,19.777027 9.29054054,20.6689189 L10.3310811,21.7094595 C11.222973,22.6013514 11.222973,23.9391892 10.3310811,24.8310811 L4.83108108,30.3310811 Z" id="Path"></path>
                            <path d="M31,12 C31,5.3164557 25.9050633,0 19.5,0 C13.0949367,0 8,5.3164557 8,12 C8,18.6835443 13.0949367,24 19.5,24 C25.9050633,24 31,18.6835443 31,12 Z M10.1835443,12 C10.1835443,6.53164557 14.4050633,2.27848101 19.5,2.27848101 C24.5949367,2.27848101 28.8164557,6.6835443 28.8164557,12 C28.8164557,17.3164557 24.5949367,21.721519 19.5,21.721519 C14.4050633,21.721519 10.1835443,17.4683544 10.1835443,12 Z" id="Shape"></path>
                        </g>
                    </g>
                </g>
            </g>
        </g>
    </g>
</svg>