<?xml version="1.0" encoding="utf-8"?>
<!-- Generator: Adobe Illustrator 23.0.1, SVG Export Plug-In . SVG Version: 6.00 Build 0)  -->
<svg version="1.1" id="Icons" xmlns="http://www.w3.org/2000/svg" xmlns:xlink="http://www.w3.org/1999/xlink" x="0px" y="0px"
	 viewBox="0 0 24 24" style="enable-background:new 0 0 24 24;" xml:space="preserve">
<style type="text/css">
	.st0{fill:#2C3E50;}
	.st1{fill:#FFFFFF;}
	.st2{fill:#944D4F;}
</style>
<title>Traffic</title>
<g id="Display_Traffic">
	<path class="st0" d="M21.1,16.5l-5.4-15h-3.6v4h-2v-4H6.6l-5.4,15h9v-4h2v4H21.1z M10.1,10.5v-3h2v3H10.1z"/>
	<path class="st1" d="M16.4,12c0.5-0.6,1.4-0.7,1.9-0.2c0.1,0.1,0.1,0.1,0.2,0.2l2,2.9l2.1,3.2c0.3,0.5,0.1,1.1-0.4,1.4
		c-0.2,0.1-0.4,0.2-0.7,0.1h-8.3c-0.5,0.1-1.1-0.2-1.2-0.8c-0.1-0.2,0-0.5,0.1-0.7l2.1-3.2L16.4,12z"/>
</g>
<path class="st2" d="M23.4,22L18,13.2c-0.3-0.5-0.9-0.5-1.2,0L11.3,22c-0.3,0.6,0,1.3,0.6,1.3h10.9C23.4,23.3,23.7,22.5,23.4,22z
	 M17.3,21.4c-0.4,0-0.7-0.3-0.7-0.7s0.3-0.7,0.7-0.7c0.4,0,0.7,0.3,0.7,0.7S17.7,21.4,17.3,21.4z M18.1,19.2c0,0.2-0.1,0.2-0.2,0.2
	h-1c-0.2,0-0.2-0.1-0.2-0.2v-3.1c0-0.2,0.1-0.2,0.2-0.2h1c0.2,0,0.2,0.1,0.2,0.2V19.2z"/>
</svg>
